<svg width="70" height="70" viewBox="0 0 70 70" fill="none" xmlns="http://www.w3.org/2000/svg">
<path d="M5.46453 47.0312C4.85964 47.0337 4.37153 47.5265 4.37502 48.1314V62.3461C4.37502 65.3567 6.82881 67.8125 9.83968 67.8125H60.1582C63.1691 67.8125 65.625 65.3567 65.625 62.3461V48.1314C65.6285 47.5265 65.1404 47.0337 64.5355 47.0312H5.46453Z" fill="#7BB6E7"/>
<path d="M5.46448 47.0312C4.85958 47.0337 4.37149 47.5266 4.375 48.1314V60.1563C4.375 63.1669 6.82861 65.6229 9.83948 65.6229H52.5C52.7911 65.6228 53.0702 65.5067 53.2755 65.3003L65.625 52.9507V48.1314C65.6285 47.5266 65.1404 47.0337 64.5355 47.0312H5.46448Z" fill="#6AA4D3"/>
<path d="M9.83968 7.65625C6.82881 7.65625 4.37502 10.1099 4.37502 13.1206V57.9691C4.37502 60.9798 6.82881 63.4356 9.83968 63.4356H51.4057C51.6969 63.4355 51.976 63.3194 52.1812 63.113L65.3024 49.9927C65.5088 49.7874 65.6249 49.5083 65.625 49.2172V13.1206C65.625 10.1099 63.169 7.65625 60.1582 7.65625C44.6842 7.65625 25.0402 7.65625 9.83968 7.65625V7.65625Z" fill="#EEEEEE"/>
<path d="M9.83948 7.65625C6.82861 7.65625 4.375 10.11 4.375 13.1207V57.9687C4.375 60.9794 6.82861 63.4354 9.83948 63.4354H12.027C9.01611 63.4354 6.5625 60.9794 6.5625 57.9687V13.1207C6.5625 10.11 9.01611 7.65625 12.027 7.65625H9.83948Z" fill="#D0D0D0"/>
<path d="M9.83968 7.65625C6.82882 7.65625 4.37502 10.1099 4.37502 13.1206V17.5043C4.37742 18.105 4.86381 18.5913 5.46453 18.5938H64.5355C65.1362 18.5913 65.6226 18.105 65.625 17.5043V13.1206C65.625 10.1099 63.1691 7.65625 60.1582 7.65625H9.83968Z" fill="#00AC4F"/>
<path d="M18.5921 2.1875C16.7932 2.1875 15.315 3.66554 15.315 5.46438V9.84138C15.315 11.6402 16.7932 13.1268 18.5921 13.1268C20.3911 13.1268 21.8713 11.6402 21.8713 9.84138V5.46438C21.8713 3.66554 20.3911 2.1875 18.5921 2.1875Z" fill="#7BB6E7"/>
<path d="M13.1275 21.8722C11.9345 21.8722 10.9377 22.8667 10.9377 24.0596V28.4345C10.9377 29.6274 11.9345 30.6241 13.1275 30.6241H17.4941C18.6871 30.6241 19.6816 29.6274 19.6816 28.4345V24.0596C19.6816 22.8667 18.6871 21.8722 17.4941 21.8722H13.1275Z" fill="#00AC4F"/>
<path d="M26.2465 21.8722C25.0535 21.8722 24.0589 22.8667 24.0589 24.0596V28.4345C24.0589 29.6274 25.0535 30.6241 26.2465 30.6241H30.6238C31.8168 30.6241 32.8114 29.6274 32.8114 28.4345V24.0596C32.8114 22.8667 31.8168 21.8722 30.6238 21.8722H26.2465Z" fill="#00AC4F"/>
<path d="M39.3762 21.8722C38.1832 21.8722 37.1886 22.8667 37.1886 24.0596V28.4345C37.1886 29.6274 38.1832 30.6241 39.3762 30.6241H43.7514C44.9444 30.6241 45.9411 29.6274 45.9411 28.4345V24.0596C45.9411 22.8667 44.9444 21.8722 43.7514 21.8722H39.3762Z" fill="#00AC4F"/>
<path d="M52.4953 21.8722C51.3023 21.8722 50.3077 22.8667 50.3077 24.0596V28.4345C50.3077 29.6274 51.3023 30.6241 52.4953 30.6241H56.8726C58.0656 30.6241 59.0601 29.6274 59.0601 28.4345V24.0596C59.0601 22.8667 58.0656 21.8722 56.8726 21.8722H52.4953Z" fill="#00AC4F"/>
<path d="M13.1275 34.9989C11.9345 34.9989 10.9377 35.9956 10.9377 37.1885V41.5633C10.9377 42.7563 11.9345 43.7508 13.1275 43.7508H17.4941C18.6871 43.7508 19.6816 42.7563 19.6816 41.5633V37.1885C19.6816 35.9956 18.6871 34.9989 17.4941 34.9989H13.1275Z" fill="#00AC4F"/>
<path d="M26.2465 34.9989C25.0535 34.9989 24.0589 35.9956 24.0589 37.1885V41.5633C24.0589 42.7563 25.0535 43.7508 26.2465 43.7508H30.6238C31.8168 43.7508 32.8114 42.7563 32.8114 41.5633V37.1885C32.8114 35.9956 31.8168 34.9989 30.6238 34.9989H26.2465Z" fill="#00AC4F"/>
<path d="M52.4953 34.9989C51.3023 34.9989 50.3077 35.9956 50.3077 37.1885V41.5633C50.3077 42.7563 51.3023 43.7508 52.4953 43.7508H56.8726C58.0656 43.7508 59.0601 42.7563 59.0601 41.5633V37.1885C59.0601 35.9956 58.0656 34.9989 56.8726 34.9989H52.4953Z" fill="#00AC4F"/>
<path d="M13.1275 48.1278C11.9345 48.1278 10.9377 49.1138 10.9377 50.3067V54.6837C10.9377 55.8766 11.9345 56.8711 13.1275 56.8711H17.4941C18.6871 56.8711 19.6816 55.8766 19.6816 54.6837V50.3067C19.6816 49.1138 18.6871 48.1278 17.4941 48.1278H13.1275Z" fill="#00AC4F"/>
<path d="M26.2465 48.1278C25.0535 48.1278 24.0589 49.1138 24.0589 50.3067V54.6837C24.0589 55.8766 25.0535 56.8711 26.2465 56.8711H30.6238C31.8168 56.8711 32.8114 55.8766 32.8114 54.6837V50.3067C32.8114 49.1138 31.8168 48.1278 30.6238 48.1278H26.2465Z" fill="#00AC4F"/>
<path d="M39.3762 48.1278C38.1832 48.1278 37.1886 49.1138 37.1886 50.3067V54.6837C37.1886 55.8766 38.1832 56.8711 39.3762 56.8711H43.7514C44.9444 56.8711 45.9411 55.8766 45.9411 54.6837V50.3067C45.9411 49.1138 44.9444 48.1278 43.7514 48.1278H39.3762Z" fill="#00AC4F"/>
<path d="M39.3762 34.9989C38.1832 34.9989 37.1886 35.9956 37.1886 37.1885V41.5633C37.1886 42.7563 38.1832 43.7508 39.3762 43.7508H43.7514C44.9444 43.7508 45.9411 42.7563 45.9411 41.5633V37.1885C45.9411 35.9956 44.9444 34.9989 43.7514 34.9989H39.3762Z" fill="#7BB6E7"/>
<path d="M55.783 48.1278C52.7722 48.1278 50.3077 50.5836 50.3077 53.5943V63.4356H51.4057C51.6969 63.4355 51.976 63.3194 52.1812 63.113L65.3024 49.9927C65.5089 49.7874 65.6249 49.5084 65.625 49.2173V48.1278L55.783 48.1278Z" fill="#A0C7E7"/>
<path d="M27.3464 12.031C27.0563 12.031 26.778 12.1463 26.5729 12.3514C26.3677 12.5566 26.2524 12.8349 26.2524 13.125C26.2524 13.4152 26.3677 13.6934 26.5729 13.8986C26.778 14.1038 27.0563 14.219 27.3464 14.219H42.6546C42.9448 14.219 43.2231 14.1038 43.4282 13.8986C43.6334 13.6934 43.7487 13.4152 43.7487 13.125C43.7487 12.8349 43.6334 12.5566 43.4282 12.3514C43.2231 12.1463 42.9448 12.031 42.6546 12.031H27.3464Z" fill="#7BB6E7"/>
<path d="M55.7834 48.1272C52.7725 48.1272 50.3082 50.5831 50.3082 53.5938V63.4354H51.4063C51.6974 63.4354 51.9764 63.3193 52.1817 63.1129L52.4957 62.7989C52.4957 60.0205 52.4957 56.4447 52.4957 53.5938C52.4957 50.5832 54.96 48.1272 57.9709 48.1272L55.7834 48.1272Z" fill="#74ADDC"/>
<path d="M18.5916 2.1875C16.7927 2.1875 15.3146 3.66564 15.3146 5.46448V9.84161C15.3146 11.6405 16.7927 13.1271 18.5916 13.1271C18.9763 13.1271 19.3412 13.0466 19.6854 12.9221C18.4209 12.4643 17.5021 11.2556 17.5021 9.84161V5.46448C17.5021 4.05053 18.4209 2.84597 19.6854 2.39044C19.3412 2.26657 18.9763 2.1875 18.5916 2.1875V2.1875Z" fill="#6AA4D3"/>
<path d="M51.4021 2.1875C49.6031 2.1875 48.125 3.66554 48.125 5.46438V9.84138C48.125 11.6402 49.6031 13.1268 51.4021 13.1268C53.201 13.1268 54.6813 11.6402 54.6813 9.84138V5.46438C54.6813 3.66554 53.201 2.1875 51.4021 2.1875Z" fill="#7BB6E7"/>
<path d="M51.4016 2.1875C49.6026 2.1875 48.1246 3.66564 48.1246 5.46448V9.84161C48.1246 11.6405 49.6026 13.1271 51.4016 13.1271C51.7863 13.1271 52.1511 13.0465 52.4953 12.9221C51.2309 12.4643 50.3121 11.2556 50.3121 9.84162V5.46448C50.3121 4.05053 51.2309 2.84597 52.4953 2.39044C52.1511 2.26657 51.7863 2.1875 51.4016 2.1875V2.1875Z" fill="#6AA4D3"/>
<path d="M13.1271 21.8729C11.9341 21.8729 10.9375 22.8675 10.9375 24.0604V28.4354C10.9375 29.6283 11.9341 30.6251 13.1271 30.6251H15.3146C14.1216 30.6251 13.125 29.6283 13.125 28.4354V24.0604C13.125 22.8675 14.1216 21.8729 15.3146 21.8729H13.1271Z" fill="#078440"/>
<path d="M9.83948 7.65625C6.82861 7.65625 4.375 10.11 4.375 13.1207V17.5043C4.3774 18.105 4.86375 18.5913 5.46448 18.5938H6.5625C6.5625 17.5 6.5625 15.2759 6.5625 13.1207C6.5625 10.11 9.01611 7.65625 12.027 7.65625H9.83948Z" fill="#078440"/>
<path d="M26.2521 21.8729C25.0591 21.8729 24.0625 22.8675 24.0625 24.0604V28.4354C24.0625 29.6283 25.0591 30.6251 26.2521 30.6251H28.4396C27.2466 30.6251 26.25 29.6283 26.25 28.4354V24.0604C26.25 22.8675 27.2466 21.8729 28.4396 21.8729H26.2521Z" fill="#078440"/>
<path d="M39.3771 21.8729C38.1841 21.8729 37.1875 22.8675 37.1875 24.0604V28.4354C37.1875 29.6283 38.1841 30.6251 39.3771 30.6251H41.5646C40.3716 30.6251 39.375 29.6283 39.375 28.4354V24.0604C39.375 22.8675 40.3716 21.8729 41.5646 21.8729H39.3771Z" fill="#078440"/>
<path d="M52.5021 21.8729C51.3091 21.8729 50.3125 22.8675 50.3125 24.0604V28.4354C50.3125 29.6283 51.3091 30.6251 52.5021 30.6251H54.6896C53.4966 30.6251 52.5 29.6283 52.5 28.4354V24.0604C52.5 22.8675 53.4966 21.8729 54.6896 21.8729H52.5021Z" fill="#078440"/>
<path d="M52.5021 35C51.3091 35 50.3125 35.9946 50.3125 37.1875V41.5625C50.3125 42.7554 51.3091 43.7521 52.5021 43.7521H54.6896C53.4966 43.7521 52.5 42.7554 52.5 41.5625V37.1875C52.5 35.9946 53.4966 35 54.6896 35H52.5021Z" fill="#078440"/>
<path d="M26.2521 35C25.0591 35 24.0625 35.9946 24.0625 37.1875V41.5625C24.0625 42.7554 25.0591 43.7521 26.2521 43.7521H28.4396C27.2466 43.7521 26.25 42.7554 26.25 41.5625V37.1875C26.25 35.9946 27.2466 35 28.4396 35H26.2521Z" fill="#078440"/>
<path d="M13.1271 35C11.9341 35 10.9375 35.9946 10.9375 37.1875V41.5625C10.9375 42.7554 11.9341 43.7521 13.1271 43.7521H15.3146C14.1216 43.7521 13.125 42.7554 13.125 41.5625V37.1875C13.125 35.9946 14.1216 35 15.3146 35H13.1271Z" fill="#078440"/>
<path d="M13.1271 48.125C11.9341 48.125 10.9375 49.1196 10.9375 50.3125V54.6875C10.9375 55.8804 11.9341 56.8771 13.1271 56.8771H15.3146C14.1216 56.8771 13.125 55.8804 13.125 54.6875V50.3125C13.125 49.1196 14.1216 48.125 15.3146 48.125H13.1271Z" fill="#078440"/>
<path d="M26.2521 48.125C25.0591 48.125 24.0625 49.1196 24.0625 50.3125V54.6875C24.0625 55.8804 25.0591 56.8771 26.2521 56.8771H28.4396C27.2466 56.8771 26.25 55.8804 26.25 54.6875V50.3125C26.25 49.1196 27.2466 48.125 28.4396 48.125H26.2521Z" fill="#078440"/>
<path d="M39.3771 48.125C38.1841 48.125 37.1875 49.1196 37.1875 50.3125V54.6875C37.1875 55.8804 38.1841 56.8771 39.3771 56.8771H41.5646C40.3716 56.8771 39.375 55.8804 39.375 54.6875V50.3125C39.375 49.1196 40.3716 48.125 41.5646 48.125H39.3771Z" fill="#078440"/>
<path d="M39.3771 35C38.1841 35 37.1875 35.9946 37.1875 37.1875V41.5625C37.1875 42.7554 38.1841 43.7521 39.3771 43.7521H41.5646C40.3716 43.7521 39.375 42.7554 39.375 41.5625V37.1875C39.375 35.9946 40.3716 35 41.5646 35H39.3771Z" fill="#6AA4D3"/>
</svg>
