<svg width="70" height="70" viewBox="0 0 70 70" fill="none" xmlns="http://www.w3.org/2000/svg">
<g clip-path="url(#clip0_58_16052)">
<path d="M52.3515 2.35608H21.0856C18.5794 2.35608 16.5404 4.3951 16.5404 6.90129V63.0987C16.5404 65.605 18.5794 67.6441 21.0856 67.6441H52.3515C54.8577 67.6441 56.8967 65.605 56.8967 63.0987V6.90129C56.8967 4.3951 54.8577 2.35608 52.3515 2.35608Z" fill="#7A8C98"/>
<path d="M52.3515 2.35608H48.7095C51.2157 2.35608 53.2547 4.3951 53.2547 6.90129V63.0987C53.2547 65.605 51.2157 67.6441 48.7095 67.6441H52.3515C54.8577 67.6441 56.8967 65.605 56.8967 63.0987V6.90129C56.8967 4.3951 54.8577 2.35608 52.3515 2.35608Z" fill="#596C76"/>
<path d="M54.8155 56.9451V6.90129C54.8155 5.54258 53.7102 4.43735 52.3515 4.43735H21.0856C19.7269 4.43735 18.6216 5.54258 18.6216 6.90129V56.9451H54.8155Z" fill="#E8EDF2"/>
<path d="M53.7961 4.90957C53.1695 4.45512 52.5554 4.45484 52.5316 4.4465C52.9882 5.15512 53.2546 5.99744 53.2546 6.90129V56.9451H54.8155V6.90129C54.8155 6.13211 54.4525 5.3874 53.7961 4.90957Z" fill="#C5D3DD"/>
<path d="M36.7186 63.6632C37.7619 63.6632 38.6076 62.8175 38.6076 61.7742C38.6076 60.7309 37.7619 59.8851 36.7186 59.8851C35.6753 59.8851 34.8295 60.7309 34.8295 61.7742C34.8295 62.8175 35.6753 63.6632 36.7186 63.6632Z" fill="#C5D3DD"/>
<path d="M36.7186 31.561C41.0523 31.561 44.5655 28.0478 44.5655 23.714C44.5655 19.3802 41.0523 15.867 36.7186 15.867C32.3848 15.867 28.8716 19.3802 28.8716 23.714C28.8716 28.0478 32.3848 31.561 36.7186 31.561Z" fill="#01C0FA"/>
<path d="M36.7186 29.4797C39.9029 29.4797 42.4843 26.8983 42.4843 23.714C42.4843 20.5297 39.9029 17.9483 36.7186 17.9483C33.5342 17.9483 30.9529 20.5297 30.9529 23.714C30.9529 26.8983 33.5342 29.4797 36.7186 29.4797Z" fill="#B3DAFE"/>
<path d="M33.7903 22.5926C33.7903 24.2074 35.104 25.521 36.7186 25.521C38.3333 25.521 39.6469 24.2073 39.6469 22.5926C39.6469 20.978 38.3332 19.6644 36.7186 19.6644C35.1039 19.6644 33.7903 20.978 33.7903 22.5926Z" fill="#596C76"/>
<path d="M36.7185 29.4797C38.0989 29.4797 39.3669 28.9916 40.3606 28.1798C39.4223 27.1902 38.1233 26.6208 36.7185 26.6208C35.3136 26.6208 34.0147 27.1902 33.0764 28.1798C34.07 28.9918 35.3382 29.4797 36.7185 29.4797Z" fill="#596C76"/>
<path d="M38.4115 9.01975H35.0254C34.4507 9.01975 33.9849 8.55395 33.9849 7.97918C33.9849 7.40441 34.4507 6.93861 35.0254 6.93861H38.4115C38.9863 6.93861 39.4521 7.40441 39.4521 7.97918C39.4521 8.55395 38.9864 9.01975 38.4115 9.01975Z" fill="#7A8C98"/>
<path d="M42.1679 35.262H31.2691C30.7364 35.262 30.303 35.6954 30.303 36.228V39.5519C30.303 40.0846 30.7364 40.518 31.2691 40.518H42.1679C42.7006 40.518 43.134 40.0846 43.134 39.5519V36.228C43.1341 35.6954 42.7006 35.262 42.1679 35.262Z" fill="#FE9738"/>
<path d="M42.1679 50.8627H23.7233C23.1485 50.8627 22.6827 50.3969 22.6827 49.8221C22.6827 49.2473 23.1485 48.7814 23.7233 48.7814H41.7465V46.3002H31.6017C31.4401 46.665 31.0748 46.9194 30.65 46.9194C30.0753 46.9194 29.6095 46.4536 29.6095 45.8787C29.6095 44.9634 30.354 44.2188 31.2694 44.2188H42.1682C43.0835 44.2188 43.8281 44.9634 43.8281 45.8787V49.2026C43.8278 50.1181 43.0832 50.8627 42.1679 50.8627Z" fill="#01C0FA"/>
<path d="M68.9593 25.8679H47.3121C46.7373 25.8679 46.2714 25.4021 46.2714 24.8273C46.2714 24.2525 46.7372 23.7867 47.3121 23.7867H68.9594C69.5342 23.7867 70.0001 24.2525 70.0001 24.8273C70.0001 25.4021 69.5342 25.8679 68.9593 25.8679Z" fill="#FE9738"/>
<path d="M68.9593 22.2231H62.2042C61.6294 22.2231 61.1635 21.7573 61.1635 21.1825C61.1635 20.6078 61.6293 20.142 62.2042 20.142H68.9593C69.5341 20.142 70 20.6078 70 21.1825C70 21.7573 69.5342 22.2231 68.9593 22.2231Z" fill="#B3DAFE"/>
<path d="M68.9593 18.5783H62.2042C61.6294 18.5783 61.1635 18.1125 61.1635 17.5376C61.1635 16.9628 61.6293 16.497 62.2042 16.497H68.9593C69.5341 16.497 70 16.9628 70 17.5376C70 18.1125 69.5342 18.5783 68.9593 18.5783Z" fill="#B3DAFE"/>
<path d="M68.9593 48.4549H47.3121C46.7373 48.4549 46.2714 47.9891 46.2714 47.4143C46.2714 46.8396 46.7372 46.3736 47.3121 46.3736H68.9594C69.5342 46.3736 70.0001 46.8394 70.0001 47.4143C70.0001 47.9892 69.5342 48.4549 68.9593 48.4549Z" fill="#FE9738"/>
<path d="M68.9593 44.8101H62.2042C61.6294 44.8101 61.1635 44.3443 61.1635 43.7696C61.1635 43.1948 61.6293 42.7289 62.2042 42.7289H68.9593C69.5341 42.7289 70 43.1947 70 43.7696C70 44.3445 69.5342 44.8101 68.9593 44.8101Z" fill="#B3DAFE"/>
<path d="M68.9593 41.1655H62.2042C61.6294 41.1655 61.1635 40.6997 61.1635 40.1249C61.1635 39.5501 61.6293 39.0842 62.2042 39.0842H68.9593C69.5341 39.0842 70 39.55 70 40.1249C70 40.6998 69.5342 41.1655 68.9593 41.1655Z" fill="#B3DAFE"/>
<path d="M2.74984 10.01C0.378592 11.379 -0.433927 14.4111 0.935174 16.7824L1.97629 18.5856L10.5635 13.6277L9.52234 11.8245C8.15324 9.45343 5.12109 8.64091 2.74984 10.01Z" fill="#FE7AB6"/>
<path d="M12.181 16.4295L23.5672 36.151L24.2839 45.0364C24.369 46.093 23.189 46.7742 22.3166 46.1723L14.98 41.1089L3.59381 21.3873L12.181 16.4295Z" fill="#FFCEBF"/>
<path d="M23.5672 36.151C20.9503 34.9237 19.5191 35.7499 19.2737 38.6299C16.6567 37.4026 15.2256 38.2288 14.98 41.1087L3.59381 21.3873L12.181 16.4295L23.5672 36.151Z" fill="#FE7701"/>
<path d="M24.0343 41.9437L24.2838 45.0364C24.369 46.093 23.189 46.7742 22.3166 46.1723L19.763 44.4098L24.0343 41.9437Z" fill="#596C76"/>
<path d="M12.181 16.4295L23.5672 36.151C20.9503 34.9237 19.5191 35.7499 19.2737 38.6299L7.88733 18.9085L12.181 16.4295Z" fill="#FE9738"/>
<path d="M1.18659 17.2981L9.84308 12.3002C10.9778 11.645 12.4287 12.0339 13.0839 13.1686C13.739 14.3034 13.3502 15.7544 12.2154 16.4094L3.55894 21.4073C2.42417 22.0624 0.973313 21.6736 0.318157 20.5389C-0.337 19.4041 0.0519653 17.9532 1.18659 17.2981Z" fill="#B3DAFE"/>
</g>
<defs>
<clipPath id="clip0_58_16052">
<rect width="70" height="70" fill="white"/>
</clipPath>
</defs>
</svg>
