<?xml version="1.0" encoding="utf-8"?>
<!-- Generator: Adobe Illustrator 27.5.0, SVG Export Plug-In . SVG Version: 6.00 Build 0)  -->
<svg version="1.1" xmlns="http://www.w3.org/2000/svg" xmlns:xlink="http://www.w3.org/1999/xlink" x="0px" y="0px"
	 viewBox="0 0 500 500" style="enable-background:new 0 0 500 500;" xml:space="preserve">
<g id="Background_Complete">
	<g>
		<g>
			<g>
				<g>
					<g>
						<g>
							<g>
								<g>
									<g>
										<g>
											<rect x="298.586" y="41.229" style="fill:#E0E0E0;" width="112.381" height="117.147"/>
										</g>
									</g>
								</g>
							</g>
						</g>
					</g>
				</g>
			</g>
		</g>
		<g>
			<g>
				<g>
					<g>
						<g>
							<g>
								<g>
									<g>
										<g>
											<rect x="290.975" y="41.229" style="fill:#FAFAFA;" width="112.38" height="117.147"/>
										</g>
									</g>
								</g>
							</g>
						</g>
					</g>
				</g>
			</g>
			<g>
				<g>
					<g>
						<g>
							<g>
								<g>
									<g>
										<g>
											<path style="fill:#E0E0E0;" d="M403.391,158.411H290.94V41.195h112.45V158.411z M291.01,158.342h112.31V41.264H291.01
												V158.342z"/>
										</g>
									</g>
								</g>
							</g>
						</g>
					</g>
				</g>
			</g>
		</g>
		<g>
			<g>
				<g>
					<g>
						<g>
							<g>
								<g>
									<g>
										<g>
											<rect x="306.082" y="56.977" style="fill:#FFFFFF;" width="82.166" height="85.651"/>
										</g>
									</g>
								</g>
							</g>
						</g>
					</g>
				</g>
			</g>
		</g>
		<g>
			<g>
				<g>
					<g>
						<g>
							<g>
								<g>
									<g>
										<g>
											<g>
												<path style="fill:#E0E0E0;" d="M306.082,143.198c0.065,0.077-0.716,0.973-2.028,2.357
													c-1.312,1.385-3.156,3.259-5.223,5.295c-2.068,2.037-3.967,3.85-5.368,5.138c-1.401,1.287-2.304,2.049-2.375,1.978
													c-0.071-0.072,0.704-0.963,2.017-2.348c1.312-1.384,3.161-3.263,5.235-5.305c2.073-2.042,3.977-3.86,5.378-5.147
													C305.119,143.878,306.018,143.121,306.082,143.198z"/>
											</g>
										</g>
									</g>
								</g>
							</g>
						</g>
					</g>
				</g>
			</g>
		</g>
		<g>
			<g>
				<g>
					<g>
						<g>
							<g>
								<g>
									<g>
										<g>
											<g>
												<path style="fill:#E0E0E0;" d="M388.249,142.988c0.077-0.065,0.973,0.715,2.358,2.027
													c1.385,1.313,3.259,3.156,5.295,5.223c2.036,2.068,3.851,3.967,5.138,5.368c1.287,1.401,2.049,2.304,1.978,2.375
													c-0.071,0.071-0.963-0.704-2.348-2.016c-1.385-1.313-3.263-3.161-5.305-5.235c-2.041-2.073-3.859-3.977-5.147-5.378
													C388.929,143.951,388.172,143.053,388.249,142.988z"/>
											</g>
										</g>
									</g>
								</g>
							</g>
						</g>
					</g>
				</g>
			</g>
		</g>
		<g>
			<g>
				<g>
					<g>
						<g>
							<g>
								<g>
									<g>
										<g>
											<g>
												<path style="fill:#E0E0E0;" d="M388.024,57.206c-0.065-0.077,0.715-0.973,2.028-2.357
													c1.312-1.385,3.156-3.259,5.223-5.295c2.067-2.037,3.967-3.851,5.368-5.139c1.401-1.287,2.304-2.049,2.375-1.978
													c0.07,0.071-0.705,0.963-2.017,2.347c-1.312,1.385-3.161,3.263-5.235,5.306c-2.073,2.042-3.977,3.859-5.378,5.147
													C388.987,56.525,388.089,57.283,388.024,57.206z"/>
											</g>
										</g>
									</g>
								</g>
							</g>
						</g>
					</g>
				</g>
			</g>
		</g>
		<g>
			<g>
				<g>
					<g>
						<g>
							<g>
								<g>
									<g>
										<g>
											<g>
												<path style="fill:#E0E0E0;" d="M305.857,57.416c-0.077,0.065-0.973-0.715-2.357-2.028
													c-1.385-1.312-3.259-3.156-5.295-5.223c-2.037-2.068-3.851-3.967-5.138-5.368c-1.288-1.401-2.049-2.304-1.978-2.375
													c0.071-0.071,0.962,0.704,2.347,2.016c1.385,1.312,3.264,3.161,5.305,5.235c2.042,2.073,3.86,3.977,5.147,5.378
													C305.177,56.453,305.934,57.351,305.857,57.416z"/>
											</g>
										</g>
									</g>
								</g>
							</g>
						</g>
					</g>
				</g>
			</g>
		</g>
		<g>
			<g>
				<g>
					<g>
						<g>
							<g>
								<g>
									<g>
										<g>
											<g>
												<path style="fill:#E0E0E0;" d="M388.024,142.628c-0.006-0.006-0.012-0.146-0.018-0.416
													c-0.005-0.292-0.01-0.686-0.018-1.195c-0.009-1.074-0.021-2.618-0.037-4.624c-0.019-4.057-0.047-9.961-0.083-17.456
													c-0.039-15.001-0.094-36.372-0.161-61.96l0.317,0.317c-23.92,0.014-52.01,0.03-81.933,0.047h-0.008l0.364-0.364
													c-0.019,31.437-0.037,60.848-0.051,85.651l-0.313-0.312c24.554,0.066,44.997,0.121,59.331,0.159
													c7.161,0.035,12.794,0.063,16.665,0.081c1.912,0.016,3.384,0.028,4.409,0.036c0.485,0.008,0.86,0.013,1.139,0.018
													C387.885,142.617,388.018,142.623,388.024,142.628c0.006,0.006-0.116,0.012-0.362,0.018
													c-0.271,0.004-0.635,0.01-1.106,0.018c-1.011,0.008-2.463,0.02-4.349,0.036c-3.854,0.019-9.464,0.047-16.595,0.082
													c-14.381,0.038-34.893,0.094-59.53,0.16l-0.312,0.001l0-0.314c-0.015-24.803-0.033-54.213-0.051-85.651l0-0.364h0.364
													h0.008c29.923,0.017,58.014,0.033,81.933,0.047h0.318l-0.001,0.317c-0.067,25.672-0.122,47.112-0.161,62.162
													c-0.036,7.465-0.064,13.344-0.083,17.385c-0.016,1.979-0.028,3.503-0.037,4.563c-0.008,0.495-0.014,0.877-0.018,1.161
													C388.036,142.507,388.03,142.635,388.024,142.628z"/>
											</g>
										</g>
									</g>
								</g>
							</g>
						</g>
					</g>
				</g>
			</g>
		</g>
		<g>
			<g>
				<g>
					<g>
						<g>
							<g>
								<g>
									<g>
										<g>
											<rect x="333.457" y="86.094" style="fill:#EBEBEB;" width="27.418" height="27.417"/>
										</g>
									</g>
								</g>
							</g>
						</g>
					</g>
				</g>
			</g>
		</g>
	</g>
	<g>
		<g>
			<g>
				<g>
					<g>
						<path style="fill:#EBEBEB;" d="M430.106,350.968c6.126-3.161,13.34-3.572,20.141-2.448c3.654,0.604,7.463,1.697,9.95,4.442
							c2.486,2.745,2.957,7.575,0.103,9.933c-1.7,1.404-4.07,1.617-6.274,1.592c-5.324-0.062-11.232-1-15.486,2.204
							c-2.427,1.828-4.042,4.866-6.944,5.765c-2.839,0.879-6.042-0.796-7.547-3.358c-1.505-2.562-1.555-5.765-0.854-8.652
							C423.196,360.446,423.935,354.152,430.106,350.968z"/>
					</g>
				</g>
			</g>
			<g>
				<g>
					<g>
						<path style="fill:#EBEBEB;" d="M416.071,323.873c3.746,5.35,11.027,3.579,14.403,0.313c3.376-3.266,4.803-7.999,6.101-12.513
							c2.968-10.313,5.96-21.132,3.753-31.634c-0.66-3.14-1.834-6.271-4.04-8.6c-2.206-2.329-5.599-3.715-8.701-2.896
							c-3.671,0.97-5.953,4.565-7.602,7.986c-4.847,10.054-7.414,21.2-7.452,32.361C412.516,314.103,413.13,319.57,416.071,323.873"
							/>
					</g>
				</g>
			</g>
			<g>
				<g>
					<g>
						<path style="fill:#EBEBEB;" d="M404.983,347.05c4.068-4.827,4.839-11.868,3.03-17.915c-1.81-6.048-5.899-11.192-10.611-15.392
							c-5.525-4.924-12.02-8.756-19.001-11.211c-2.748-0.966-5.646-1.728-8.545-1.452c-2.899,0.277-5.819,1.759-7.171,4.339
							c-2,3.814-0.082,8.44,1.991,12.214c3.653,6.649,7.831,13.01,12.48,19.005c3.741,4.823,8.025,9.58,13.727,11.759
							c5.701,2.179,11.623,1.923,14.645-2.031"/>
					</g>
				</g>
			</g>
			<g>
				<g>
					<g>
						<g>
							<path style="fill:#E0E0E0;" d="M415.817,404.582c0.07,0.004,0.184-0.863,0.339-2.431c0.172-1.77,0.389-3.992,0.646-6.635
								c0.309-2.792,0.717-6.114,1.492-9.732c0.773-3.609,1.983-7.52,3.537-11.486c1.609-3.943,3.572-7.527,5.865-10.393
								c2.277-2.879,4.926-4.963,7.415-6.165c2.481-1.226,4.707-1.723,6.245-1.945c1.551-0.159,2.42-0.281,2.421-0.35
								c0.001-0.069-0.87-0.08-2.463-0.038c-1.579,0.105-3.896,0.505-6.512,1.694c-2.624,1.164-5.433,3.28-7.822,6.219
								c-2.408,2.926-4.442,6.589-6.08,10.602c-1.581,4.036-2.773,7.987-3.512,11.674c-0.737,3.681-1.073,7.04-1.294,9.855
								c-0.211,2.818-0.29,5.099-0.329,6.676C415.731,403.704,415.749,404.578,415.817,404.582z"/>
						</g>
					</g>
				</g>
			</g>
			<g>
				<g>
					<g>
						<g>
							<path style="fill:#E0E0E0;" d="M416.274,399.477c0.034-0.002,0.056-0.39,0.065-1.129c-0.002-0.848-0.005-1.915-0.009-3.226
								c-0.008-2.799-0.006-6.851,0.143-11.854c0.248-10.006,1.109-20.774,2.773-35.956c1.576-14.276,3.691-30.889,5.923-41.691
								c0.479-2.457,0.961-4.668,1.415-6.603c0.433-1.94,0.802-3.613,1.159-4.966c0.306-1.274,0.556-2.312,0.754-3.136
								c0.162-0.72,0.23-1.103,0.197-1.113c-0.033-0.01-0.167,0.355-0.392,1.058c-0.246,0.812-0.556,1.835-0.936,3.091
								c-0.416,1.341-0.841,3.003-1.327,4.935c-0.507,1.928-1.038,4.133-1.563,6.586c-2.208,9.787-4.547,23.467-6.227,38.685
								c-1.667,15.213-2.418,29.065-2.485,39.096c-0.06,5.015,0.047,9.075,0.175,11.877c0.08,1.31,0.145,2.377,0.197,3.224
								C416.193,399.093,416.24,399.479,416.274,399.477z"/>
						</g>
					</g>
				</g>
			</g>
			<g>
				<g>
					<g>
						<g>
							<path style="fill:#E0E0E0;" d="M415.541,388.26c0.07-0.002,0.058-1.2-0.024-3.37c-0.124-2.166-0.422-5.296-1.032-9.13
								c-0.647-3.825-1.55-8.367-2.969-13.302c-0.615-2.256-2.061-7.662-5.563-15.74c-4.614-10.945-10.882-19.894-16.335-25.436
								c-1.279-1.471-2.704-2.532-3.843-3.572c-0.59-0.498-1.111-0.996-1.642-1.389c-0.534-0.368-1.03-0.71-1.491-1.028
								c-1.795-1.227-2.8-1.875-2.837-1.816c-0.161,0.219,4.02,2.679,9.299,8.296c5.258,5.604,11.351,14.491,15.927,25.344
								c2.552,5.887,4.332,11.137,5.594,15.595c1.459,4.887,2.428,9.383,3.16,13.17c0.696,3.795,1.099,6.894,1.342,9.04
								C415.328,387.071,415.472,388.262,415.541,388.26z"/>
						</g>
					</g>
				</g>
			</g>
		</g>
		<g>
			<g>
				<g>
					<polygon style="fill:#E0E0E0;" points="390.518,419.889 393.195,456.566 440.313,456.566 442.99,419.889 					"/>
				</g>
			</g>
		</g>
		<g>
			<g>
				<g>
					<rect x="385.967" y="405.432" style="fill:#E0E0E0;" width="62.645" height="14.457"/>
				</g>
			</g>
		</g>
		<g>
			<g>
				<g>
					<polygon style="fill:#EBEBEB;" points="385.967,455.162 385.967,459.169 388.91,459.169 447.577,459.169 447.577,455.162 					
						"/>
				</g>
			</g>
		</g>
		<g>
			<g>
				<g>
					<polygon style="fill:#E0E0E0;" points="391.796,466.222 388.91,459.169 445.332,459.169 441.966,466.222 					"/>
				</g>
			</g>
		</g>
		<g>
			<g>
				<g>
					<g>
						<path style="fill:#F5F5F5;" d="M442.115,431.875c0.011,0.009-0.064,0.123-0.22,0.337c-0.187,0.248-0.419,0.555-0.704,0.934
							c-0.669,0.856-1.589,2.033-2.745,3.513l-0.122,0.156l-0.118-0.163c-1.725-2.386-4.03-5.574-6.743-9.327h0.388
							c-2.006,2.84-4.24,6.004-6.639,9.401l-0.208,0.295l-0.233-0.277c-2.45-2.915-5.111-6.081-7.874-9.368l0.454-0.006
							c-0.137,0.172-0.285,0.358-0.433,0.544c-2.442,3.061-4.805,6.024-7.04,8.826l-0.235,0.294l-0.217-0.306
							c-2.39-3.382-4.623-6.542-6.642-9.398l0.386,0.018c-3.273,3.73-6.05,6.893-8.18,9.32l-0.145,0.166l-0.111-0.186
							c-1.078-1.812-1.938-3.256-2.561-4.303c-0.268-0.467-0.484-0.845-0.657-1.146c-0.145-0.262-0.213-0.401-0.201-0.409
							c0.012-0.008,0.106,0.116,0.274,0.363c0.191,0.29,0.431,0.653,0.727,1.103c0.654,1.028,1.557,2.446,2.689,4.225l-0.256-0.021
							c2.097-2.457,4.828-5.659,8.049-9.434l0.203-0.238l0.184,0.257c2.037,2.844,4.29,5.99,6.702,9.356l-0.451-0.012
							c2.23-2.806,4.588-5.774,7.024-8.84c0.148-0.187,0.297-0.373,0.433-0.544l0.224-0.281l0.23,0.276
							c2.755,3.293,5.408,6.465,7.852,9.386l-0.441,0.017c2.423-3.38,4.679-6.527,6.705-9.353l0.197-0.274l0.192,0.274
							c2.656,3.794,4.912,7.016,6.601,9.428l-0.24-0.007c1.203-1.442,2.159-2.589,2.855-3.423c0.31-0.359,0.562-0.65,0.765-0.885
							C442.008,431.964,442.104,431.867,442.115,431.875z"/>
					</g>
				</g>
			</g>
		</g>
		<g>
			<g>
				<g>
					<g>
						<path style="fill:#F5F5F5;" d="M443.645,419.647c0,0.162-11.806,0.293-26.366,0.293c-14.565,0-26.369-0.131-26.369-0.293
							c0-0.162,11.804-0.293,26.369-0.293C431.839,419.353,443.645,419.485,443.645,419.647z"/>
					</g>
				</g>
			</g>
		</g>
		<g>
			<g>
				<g>
					<g>
						<path style="fill:#F5F5F5;" d="M446.026,459.564c0,0.162-12.831,0.293-28.655,0.293c-15.83,0-28.658-0.131-28.658-0.293
							c0-0.162,12.828-0.293,28.658-0.293C433.195,459.271,446.026,459.402,446.026,459.564z"/>
					</g>
				</g>
			</g>
		</g>
	</g>
	<g>
		<g>
			<g>
				<g>
					<g>
						<g>
							<g>
								<g>
									<polygon style="fill:#F5F5F5;" points="40.899,422.352 40.899,465.904 104.589,465.904 174.836,465.904 174.836,422.352 
																			"/>
								</g>
							</g>
						</g>
					</g>
				</g>
			</g>
			<g>
				<g>
					<g>
						<g>
							<g>
								<g>
									<polygon style="fill:#E0E0E0;" points="35.28,410.176 35.28,422.352 179.519,422.352 179.519,410.176 104.589,410.176 
																			"/>
								</g>
							</g>
						</g>
					</g>
				</g>
			</g>
			<g>
				<g>
					<g>
						<g>
							<g>
								<g>
									<polygon style="fill:#E0E0E0;" points="107.399,465.904 174.836,465.904 174.836,422.352 179.519,422.352 179.519,410.176 
										104.589,410.176 104.589,421.225 									"/>
								</g>
							</g>
						</g>
					</g>
				</g>
			</g>
			<g>
				<g>
					<g>
						<g>
							<g>
								<g>
									<rect x="59.631" y="429.375" style="fill:#E0E0E0;" width="27.162" height="6.556"/>
								</g>
							</g>
						</g>
					</g>
				</g>
			</g>
			<g>
				<g>
					<g>
						<g>
							<g>
								<g>
									<rect x="56.136" y="444.127" style="fill:#FFFFFF;" width="34.877" height="13.844"/>
								</g>
							</g>
						</g>
					</g>
				</g>
			</g>
		</g>
	</g>
	<g>
		<g>
			<g>
				<g>
					<g>
						<g>
							<g>
								<g>
									<polygon style="fill:#F5F5F5;" points="61.505,366.681 61.505,410.233 125.195,410.233 195.442,410.233 195.442,366.681 
																			"/>
								</g>
							</g>
						</g>
					</g>
				</g>
			</g>
			<g>
				<g>
					<g>
						<g>
							<g>
								<g>
									<polygon style="fill:#E0E0E0;" points="55.886,354.504 55.886,366.681 200.125,366.681 200.125,354.504 125.195,354.504 
																			"/>
								</g>
							</g>
						</g>
					</g>
				</g>
			</g>
			<g>
				<g>
					<g>
						<g>
							<g>
								<g>
									<polygon style="fill:#E0E0E0;" points="128.005,410.233 195.442,410.233 195.442,366.681 200.125,366.681 200.125,354.504 
										125.195,354.504 125.195,365.554 									"/>
								</g>
							</g>
						</g>
					</g>
				</g>
			</g>
			<g>
				<g>
					<g>
						<g>
							<g>
								<g>
									<rect x="80.238" y="373.704" style="fill:#E0E0E0;" width="27.162" height="6.556"/>
								</g>
							</g>
						</g>
					</g>
				</g>
			</g>
			<g>
				<g>
					<g>
						<g>
							<g>
								<g>
									<rect x="76.742" y="388.456" style="fill:#FFFFFF;" width="34.877" height="13.844"/>
								</g>
							</g>
						</g>
					</g>
				</g>
			</g>
		</g>
	</g>
</g>
<g id="Background_Simple" style="display:none;">
	<g style="display:inline;">
		<path style="fill:#F5F5F5;" d="M445.477,132.346l-2.566-4.229c-13.724-30.961-60.173-56.799-101.982-54.531
			c-5.304,0.288-10.579,1.053-15.786,2.168c-37.493,8.026-70.117,36.378-83.639,72.69c-7.953,21.355-10.175,45.943-25.266,62.894
			c-19.641,22.061-52.987,22.754-82.304,21.84c-29.318-0.914-62.686-0.135-82.231,22.013
			c-12.241,13.871-16.132,33.596-15.144,52.172c2.613,49.18,36.883,93.155,80.465,115.012c43.582,21.858,94.896,23.815,142.594,14.2
			c66.82-13.47,130.364-50.46,168.56-107.594C466.37,271.849,476.037,194.011,445.477,132.346z"/>
	</g>
</g>
<g id="Desk">
	<g>
		<g>
			<path style="fill:#263238;" d="M476.866,466.222c0,0.144-101.579,0.26-226.855,0.26c-125.319,0-226.877-0.116-226.877-0.26
				c0-0.144,101.558-0.26,226.877-0.26C375.286,465.962,476.866,466.078,476.866,466.222z"/>
		</g>
	</g>
</g>
<g id="Device">
	<g>
		<g>
			<g>
				<g>
					<g>
						<g>
							<g>
								<g>
									<g>
										<path style="fill:#263238;" d="M199.645,389.424l-117.03-0.069c-14.075-0.007-25.481-11.219-25.478-25.043l0.055-288.171
											c0.003-13.832,11.424-25.042,25.507-25.034l117.03,0.068c14.075,0.009,25.48,11.219,24.508,25.044l-0.055,288.171
											C225.15,378.223,213.729,389.433,199.645,389.424z"/>
									</g>
								</g>
							</g>
						</g>
					</g>
					<g>
						<g>
							<g>
								<g>
									<g>
										<path style="fill:#FF725E;" d="M199.794,59.424l-22.69-0.013c-3.043-0.001-5.511,2.576-5.51,5.757l-0.002,4.116
											c0,3.181-2.468,5.759-5.51,5.757l-44.228-0.026c-3.043-0.001-5.509-2.582-5.509-5.763l0.001-4.116
											c0-3.181-2.466-5.761-5.509-5.763l-7.98-0.005l-19.859-0.012c-9.863-0.005-17.862,7.987-17.864,17.85l-0.056,286.375
											c-0.002,9.859,7.985,17.852,17.843,17.858l116.796,0.068c9.862,0.006,17.861-7.987,17.864-17.85l0.056-286.376
											C217.639,67.423,209.652,59.43,199.794,59.424z"/>
									</g>
								</g>
							</g>
						</g>
					</g>
				</g>
			</g>
		</g>
		<g>
			<g>
				<g>
					<g>
						<g>
							<g>
								<g>
									<g>
										<path style="fill:#FFFFFF;" d="M206.467,92.388c0.001,0.082-3.148,0.174-7.031,0.206c-3.885,0.032-7.034-0.008-7.035-0.09
											c-0.001-0.082,3.147-0.174,7.032-0.207C203.317,92.265,206.467,92.306,206.467,92.388z"/>
									</g>
								</g>
							</g>
						</g>
					</g>
				</g>
			</g>
			<g>
				<g>
					<g>
						<g>
							<g>
								<g>
									<g>
										<path style="fill:#FFFFFF;" d="M206.497,95.987c0.001,0.082-3.148,0.174-7.031,0.206c-3.885,0.032-7.034-0.008-7.035-0.09
											c-0.001-0.082,3.147-0.174,7.032-0.206C203.347,95.865,206.496,95.905,206.497,95.987z"/>
									</g>
								</g>
							</g>
						</g>
					</g>
				</g>
			</g>
			<g>
				<g>
					<g>
						<g>
							<g>
								<g>
									<g>
										<path style="fill:#FFFFFF;" d="M206.527,99.586c0.001,0.082-3.148,0.174-7.031,0.206c-3.885,0.032-7.034-0.008-7.035-0.09
											c-0.001-0.082,3.147-0.174,7.032-0.207C203.377,99.463,206.526,99.504,206.527,99.586z"/>
									</g>
								</g>
							</g>
						</g>
					</g>
				</g>
			</g>
			<g>
				<g>
					<g>
						<g>
							<g>
								<g>
									<path style="fill:#FFFFFF;" d="M78.563,103.811c0.005-0.006,0.106-0.012,0.293-0.019c0.23-0.008,0.498-0.017,0.813-0.027
										c0.767-0.018,1.771-0.042,3.003-0.071l-0.083,0.084c-0.011-0.666-0.022-1.393-0.035-2.178
										c0.004-0.405-0.035-0.786,0.005-1.254c0.081-0.466,0.497-0.878,1.008-0.926c0.484-0.009,0.91-0.031,1.435-0.007
										c0.541,0.066,1.001,0.587,0.985,1.16c0.011,1.016,0.023,2.076,0.036,3.176l-0.139-0.137
										c1.216-0.012,2.483-0.025,3.789-0.039l-0.144,0.146c-0.013-1.526-0.028-3.104-0.042-4.721
										c-0.003-0.403-0.007-0.804-0.01-1.202c-0.002-0.371-0.227-0.619-0.533-0.895c-0.561-0.552-1.113-1.097-1.656-1.632
										c-0.542-0.535-1.075-1.061-1.598-1.577c-0.261-0.257-0.519-0.513-0.774-0.765c-0.266-0.257-0.475-0.522-0.784-0.585
										c-0.299-0.08-0.629-0.017-0.869,0.166c-0.229,0.194-0.474,0.468-0.705,0.694c-0.466,0.471-0.92,0.928-1.359,1.371
										c-0.855,0.888-1.746,1.7-2.393,2.466c-0.273,0.424-0.171,0.942-0.191,1.414c-0.001,0.469-0.002,0.915-0.003,1.335
										c-0.005,0.818-0.009,1.536-0.013,2.15c-0.006,0.549-0.011,1.003-0.015,1.375C78.576,103.633,78.57,103.804,78.563,103.811
										c-0.007,0.007-0.016-0.149-0.026-0.456c-0.01-0.366-0.023-0.813-0.038-1.354c-0.014-0.619-0.03-1.342-0.049-2.168
										c-0.008-0.428-0.016-0.882-0.025-1.361c-0.004-0.242-0.008-0.491-0.012-0.745c-0.002-0.269,0.067-0.547,0.209-0.793
										c0.701-0.859,1.537-1.619,2.399-2.533c0.436-0.447,0.886-0.908,1.349-1.382c0.243-0.238,0.442-0.476,0.731-0.724
										c0.303-0.233,0.719-0.317,1.099-0.216c0.403,0.089,0.665,0.419,0.91,0.65c0.257,0.251,0.516,0.505,0.778,0.762
										c0.524,0.514,1.059,1.038,1.603,1.571c0.544,0.535,1.098,1.078,1.66,1.629c0.133,0.141,0.293,0.26,0.423,0.458
										c0.122,0.189,0.193,0.412,0.199,0.639c0.004,0.4,0.007,0.803,0.011,1.208c0.012,1.617,0.024,3.195,0.036,4.721l0.001,0.146
										l-0.145,0.001c-1.305,0.008-2.572,0.016-3.789,0.024l-0.139,0.001l-0.001-0.138c-0.006-1.1-0.011-2.161-0.017-3.176
										c0.016-0.458-0.34-0.862-0.765-0.92c-0.436-0.023-0.95-0.008-1.374-0.004c-0.407,0.034-0.747,0.361-0.817,0.737
										c-0.036,0.381-0.008,0.825-0.016,1.211c0,0.785,0.001,1.512,0.001,2.178l0,0.085l-0.083-0.001
										c-1.253-0.009-2.273-0.016-3.054-0.021c-0.309-0.005-0.57-0.01-0.795-0.014C78.647,103.822,78.558,103.817,78.563,103.811z
										"/>
								</g>
							</g>
						</g>
					</g>
				</g>
			</g>
		</g>
		<g>
			<g>
				<g>
					<g>
						<g>
							<circle style="fill:#FFFFFF;" cx="148.44" cy="319.136" r="21.753"/>
						</g>
					</g>
				</g>
			</g>
			<g>
				<g>
					<path style="fill:#FF725E;" d="M135.098,324.142l5.432-1.278c0.671-0.158,1.144-0.756,1.144-1.445v-1.12
						c0,0-0.234-1.901,1.561-2.02c1.286-0.085,9.458,0,9.458,0s2.15-0.041,2.112,1.653v1.627c0,0.56,0.367,1.054,0.903,1.217
						l5.892,1.781c0.625,0.189,1.292-0.127,1.542-0.73l0.752-1.816c0.138-0.334,0.206-0.69,0.187-1.05
						c-0.036-0.711-0.311-1.823-1.012-2.722c-1.168-1.497-6.674-5.037-17.176-4.528c-10,0.485-12.181,4.701-12.754,5.708
						c-0.357,0.626-0.464,2.159-0.187,2.809c0.103,0.24,0.271,0.643,0.436,1.039C133.667,323.938,134.391,324.309,135.098,324.142z"
						/>
				</g>
			</g>
		</g>
		<g>
			<g style="opacity:0.2;">
				<g>
					<g>
						<circle style="fill:#FFFFFF;" cx="148.44" cy="249.438" r="15.066"/>
					</g>
				</g>
			</g>
			<g>
				<g>
					<g>
						<circle style="fill:#FFFFFF;" cx="144.322" cy="249.458" r="1.753"/>
					</g>
				</g>
				<g>
					<g>
						<path style="fill:#FFFFFF;" d="M150.193,249.458c0,0.968-0.785,1.753-1.753,1.753c-0.968,0-1.753-0.785-1.753-1.753
							c0-0.968,0.785-1.753,1.753-1.753C149.408,247.705,150.193,248.49,150.193,249.458z"/>
					</g>
				</g>
				<g>
					<g>
						<path style="fill:#FFFFFF;" d="M154.311,249.458c0,0.968-0.785,1.753-1.753,1.753s-1.753-0.785-1.753-1.753
							c0-0.968,0.785-1.753,1.753-1.753S154.311,248.49,154.311,249.458z"/>
					</g>
				</g>
				<g>
					<g>
						<path style="fill:#FFFFFF;" d="M146.075,245.276c0,0.968-0.785,1.753-1.753,1.753c-0.968,0-1.753-0.785-1.753-1.753
							c0-0.968,0.785-1.753,1.753-1.753C145.29,243.523,146.075,244.308,146.075,245.276z"/>
					</g>
				</g>
				<g>
					<g>
						<path style="fill:#FFFFFF;" d="M150.193,245.276c0,0.968-0.785,1.753-1.753,1.753c-0.968,0-1.753-0.785-1.753-1.753
							c0-0.968,0.785-1.753,1.753-1.753C149.408,243.523,150.193,244.308,150.193,245.276z"/>
					</g>
				</g>
				<g>
					<g>
						<path style="fill:#FFFFFF;" d="M154.311,245.276c0,0.968-0.785,1.753-1.753,1.753s-1.753-0.785-1.753-1.753
							c0-0.968,0.785-1.753,1.753-1.753S154.311,244.308,154.311,245.276z"/>
					</g>
				</g>
				<g>
					<g>
						<path style="fill:#FFFFFF;" d="M146.075,253.599c0,0.968-0.785,1.753-1.753,1.753c-0.968,0-1.753-0.785-1.753-1.753
							c0-0.968,0.785-1.753,1.753-1.753C145.29,251.846,146.075,252.631,146.075,253.599z"/>
					</g>
				</g>
				<g>
					<g>
						<path style="fill:#FFFFFF;" d="M150.193,253.599c0,0.968-0.785,1.753-1.753,1.753c-0.968,0-1.753-0.785-1.753-1.753
							c0-0.968,0.785-1.753,1.753-1.753C149.408,251.846,150.193,252.631,150.193,253.599z"/>
					</g>
				</g>
				<g>
					<g>
						<path style="fill:#FFFFFF;" d="M154.311,253.599c0,0.968-0.785,1.753-1.753,1.753s-1.753-0.785-1.753-1.753
							c0-0.968,0.785-1.753,1.753-1.753S154.311,252.631,154.311,253.599z"/>
					</g>
				</g>
			</g>
		</g>
		<g>
			<g style="opacity:0.2;">
				<g>
					<g>
						<circle style="fill:#FFFFFF;" cx="105.183" cy="249.438" r="15.066"/>
					</g>
				</g>
			</g>
			<g>
				<g>
					<g>
						<path style="fill:#FFFFFF;" d="M98.11,247.469v3.569c0,0.151,0.123,0.274,0.274,0.274h1.968c0.061,0,0.121,0.02,0.169,0.058
							l3.069,2.399c0.18,0.141,0.443,0.012,0.443-0.216v-8.336c0-0.223-0.253-0.353-0.434-0.223l-2.973,2.137
							c-0.046,0.033-0.102,0.051-0.159,0.051l-2.085,0.012C98.232,247.195,98.11,247.318,98.11,247.469z"/>
					</g>
				</g>
				<g>
					<g>
						<path style="fill:#FFFFFF;" d="M109.739,255.462c-0.082,0-0.165-0.029-0.23-0.088c-0.142-0.127-0.154-0.346-0.027-0.488
							c1.716-1.914,2.529-3.893,2.418-5.88c-0.167-2.976-2.368-4.97-2.39-4.99c-0.143-0.127-0.156-0.345-0.029-0.487
							c0.127-0.142,0.344-0.156,0.487-0.028c0.1,0.089,2.438,2.207,2.621,5.466c0.122,2.178-0.75,4.325-2.593,6.381
							C109.928,255.423,109.834,255.462,109.739,255.462z"/>
					</g>
				</g>
				<g>
					<g>
						<path style="fill:#FFFFFF;" d="M107.837,253.777c-0.092,0-0.184-0.037-0.252-0.109c-0.13-0.139-0.123-0.357,0.015-0.488
							c1.217-1.141,1.836-2.384,1.837-3.695c0.003-2.25-1.818-3.991-1.837-4.008c-0.139-0.131-0.146-0.349-0.015-0.488
							c0.132-0.139,0.351-0.146,0.488-0.016c0.084,0.078,2.055,1.955,2.055,4.507c0,1.511-0.691,2.925-2.055,4.203
							C108.006,253.746,107.922,253.777,107.837,253.777z"/>
					</g>
				</g>
				<g>
					<g>
						<path style="fill:#FFFFFF;" d="M106.153,252.038c-0.089,0-0.178-0.034-0.245-0.102c-0.134-0.136-0.133-0.354,0.003-0.489
							c2.121-2.102,0.072-4.48-0.016-4.58c-0.126-0.143-0.112-0.361,0.031-0.487c0.143-0.126,0.361-0.113,0.486,0.029
							c0.026,0.03,2.573,2.964-0.015,5.529C106.329,252.005,106.241,252.038,106.153,252.038z"/>
					</g>
				</g>
			</g>
		</g>
		<g>
			<g style="opacity:0.2;">
				<g>
					<g>
						<circle style="fill:#FFFFFF;" cx="187.993" cy="249.438" r="15.066"/>
					</g>
				</g>
			</g>
			<g>
				<g>
					<g>
						<path style="fill:#FFFFFF;" d="M188.085,254.649c-0.255,0-0.46-0.206-0.46-0.46v-9.502c0-0.255,0.206-0.46,0.46-0.46
							s0.46,0.206,0.46,0.46v9.502C188.546,254.443,188.34,254.649,188.085,254.649z"/>
					</g>
				</g>
				<g>
					<g>
						<path style="fill:#FFFFFF;" d="M192.601,249.898h-9.216c-0.254,0-0.46-0.206-0.46-0.46c0-0.254,0.206-0.46,0.46-0.46h9.216
							c0.255,0,0.46,0.206,0.46,0.46C193.062,249.692,192.856,249.898,192.601,249.898z"/>
					</g>
				</g>
			</g>
		</g>
		<g>
			<path style="fill:#FFFFFF;" d="M129.682,147.849c4.12,4.444,6.181,10.835,6.181,19.176c0,5.909-1.105,10.973-3.313,15.192
				c-2.21,4.22-5.325,7.422-9.346,9.606c-4.021,2.185-8.664,3.276-13.926,3.276c-2.781,0-5.436-0.311-7.968-0.931
				c-2.532-0.62-4.692-1.501-6.479-2.643l4.468-8.862c2.532,1.738,5.783,2.607,9.755,2.607c4.418,0,7.918-1.303,10.5-3.91
				c2.581-2.606,3.971-6.367,4.17-11.282c-3.128,3.128-7.447,4.691-12.957,4.691c-3.327,0-6.355-0.67-9.085-2.011
				c-2.731-1.34-4.891-3.239-6.479-5.697c-1.59-2.457-2.383-5.299-2.383-8.526c0-3.475,0.868-6.528,2.607-9.16
				c1.737-2.631,4.107-4.654,7.112-6.069c3.003-1.415,6.341-2.123,10.016-2.123C119.852,141.184,125.561,143.406,129.682,147.849z
				 M119.889,163.561c1.663-1.464,2.495-3.338,2.495-5.623c0-2.283-0.808-4.145-2.42-5.585c-1.614-1.439-3.835-2.16-6.665-2.16
				c-2.582,0-4.68,0.696-6.292,2.085c-1.614,1.39-2.42,3.276-2.42,5.659c0,2.383,0.807,4.282,2.42,5.697
				c1.613,1.415,3.761,2.122,6.441,2.122C116.079,165.758,118.226,165.026,119.889,163.561z"/>
			<path style="fill:#FFFFFF;" d="M161.331,142.077v52.128h-12.064v-42.447h-10.425v-9.681H161.331z"/>
			<path style="fill:#FFFFFF;" d="M190.522,142.077v52.128h-12.064v-42.447h-10.425v-9.681H190.522z"/>
		</g>
		<g>
			<path style="fill:#FFFFFF;" d="M96.714,215.222v1.76H90.25v-8.052h6.315v1.76h-4.061v1.357h3.577v1.703h-3.577v1.472H96.714z"/>
			<path style="fill:#FFFFFF;" d="M105.249,216.982l-0.023-4.268l-2.07,3.474h-1.012l-2.059-3.359v4.152h-2.105v-8.052h1.875
				l2.83,4.647l2.76-4.647h1.875l0.023,8.052H105.249z"/>
			<path style="fill:#FFFFFF;" d="M115.417,215.222v1.76h-6.464v-8.052h6.315v1.76h-4.061v1.357h3.577v1.703h-3.577v1.472H115.417z"
				/>
			<path style="fill:#FFFFFF;" d="M120.202,214.842h-1.242v2.14h-2.277v-8.052h3.681c0.729,0,1.361,0.121,1.898,0.362
				c0.537,0.242,0.951,0.587,1.242,1.035c0.291,0.449,0.437,0.976,0.437,1.581c0,0.583-0.136,1.091-0.408,1.524
				c-0.273,0.433-0.662,0.772-1.168,1.018l1.737,2.53h-2.438L120.202,214.842z M121.283,211.035
				c-0.238-0.207-0.591-0.311-1.059-0.311h-1.265v2.358h1.265c0.468,0,0.821-0.102,1.059-0.305c0.237-0.203,0.356-0.493,0.356-0.869
				C121.64,211.534,121.52,211.242,121.283,211.035z"/>
			<path style="fill:#FFFFFF;" d="M130.588,212.784h2.013v3.335c-0.46,0.33-0.989,0.583-1.587,0.759
				c-0.598,0.176-1.196,0.265-1.794,0.265c-0.844,0-1.603-0.178-2.277-0.535c-0.675-0.356-1.204-0.853-1.587-1.489
				c-0.384-0.637-0.575-1.357-0.575-2.163c0-0.805,0.191-1.526,0.575-2.163c0.383-0.636,0.916-1.133,1.599-1.489
				c0.683-0.357,1.453-0.535,2.312-0.535c0.751,0,1.426,0.127,2.025,0.38c0.598,0.253,1.097,0.617,1.495,1.093l-1.449,1.311
				c-0.545-0.598-1.196-0.897-1.955-0.897c-0.69,0-1.247,0.209-1.668,0.627c-0.422,0.418-0.633,0.976-0.633,1.673
				c0,0.445,0.096,0.842,0.288,1.19c0.192,0.349,0.46,0.621,0.805,0.817c0.345,0.195,0.74,0.293,1.185,0.293
				c0.437,0,0.847-0.088,1.23-0.264V212.784z"/>
			<path style="fill:#FFFFFF;" d="M140.515,215.222v1.76h-6.464v-8.052h6.315v1.76h-4.06v1.357h3.577v1.703h-3.577v1.472H140.515z"
				/>
			<path style="fill:#FFFFFF;" d="M149.44,208.93v8.052h-1.875l-3.554-4.29v4.29h-2.231v-8.052h1.875l3.554,4.291v-4.291H149.44z"/>
			<path style="fill:#FFFFFF;" d="M152.793,216.608c-0.671-0.356-1.198-0.853-1.582-1.489c-0.384-0.637-0.575-1.357-0.575-2.163
				c0-0.805,0.191-1.526,0.575-2.163c0.383-0.636,0.91-1.133,1.582-1.489c0.671-0.357,1.428-0.535,2.272-0.535
				c0.736,0,1.399,0.131,1.99,0.391c0.59,0.261,1.081,0.637,1.472,1.127l-1.449,1.311c-0.521-0.628-1.154-0.943-1.898-0.943
				c-0.437,0-0.827,0.096-1.167,0.288c-0.341,0.191-0.606,0.462-0.794,0.811c-0.188,0.349-0.282,0.75-0.282,1.202
				c0,0.453,0.094,0.853,0.282,1.202c0.188,0.349,0.453,0.619,0.794,0.811c0.341,0.191,0.73,0.287,1.167,0.287
				c0.744,0,1.377-0.314,1.898-0.943l1.449,1.311c-0.391,0.491-0.882,0.867-1.472,1.127c-0.591,0.261-1.254,0.391-1.99,0.391
				C154.222,217.143,153.464,216.965,152.793,216.608z"/>
			<path style="fill:#FFFFFF;" d="M163.818,214.095v2.887h-2.277v-2.921l-3.071-5.13h2.404l1.91,3.198l1.909-3.198h2.208
				L163.818,214.095z"/>
			<path style="fill:#FFFFFF;" d="M172.565,216.608c-0.671-0.356-1.198-0.853-1.581-1.489c-0.384-0.637-0.575-1.357-0.575-2.163
				c0-0.805,0.191-1.526,0.575-2.163c0.383-0.636,0.91-1.133,1.581-1.489c0.671-0.357,1.428-0.535,2.271-0.535
				c0.736,0,1.399,0.131,1.99,0.391c0.59,0.261,1.081,0.637,1.472,1.127l-1.449,1.311c-0.521-0.628-1.154-0.943-1.898-0.943
				c-0.437,0-0.827,0.096-1.167,0.288c-0.341,0.191-0.606,0.462-0.794,0.811c-0.188,0.349-0.282,0.75-0.282,1.202
				c0,0.453,0.094,0.853,0.282,1.202c0.188,0.349,0.453,0.619,0.794,0.811c0.341,0.191,0.73,0.287,1.167,0.287
				c0.744,0,1.376-0.314,1.898-0.943l1.449,1.311c-0.391,0.491-0.882,0.867-1.472,1.127c-0.591,0.261-1.254,0.391-1.99,0.391
				C173.994,217.143,173.236,216.965,172.565,216.608z"/>
			<path style="fill:#FFFFFF;" d="M184.568,215.417h-3.405l-0.632,1.564h-2.324l3.554-8.052h2.243l3.565,8.052h-2.369
				L184.568,215.417z M183.901,213.738l-1.035-2.577l-1.035,2.577H183.901z"/>
			<path style="fill:#FFFFFF;" d="M188.214,208.93h2.277v6.246h3.842v1.806h-6.119V208.93z"/>
			<path style="fill:#FFFFFF;" d="M195.23,208.93h2.277v6.246h3.842v1.806h-6.119V208.93z"/>
		</g>
	</g>
</g>
<g id="Speech_Bubble">
	<g>
		<g>
			<g>
				<g>
					<g>
						<g>
							<g>
								<g>
									<g>
										<g>
											<polygon style="fill:#FFFFFF;" points="405.052,85.38 384.768,70.518 382.176,95.014 356.394,97.712 376.196,117.514 
												361.038,131.961 382.508,133.539 385.001,152.811 401.992,138.458 425.009,152.811 431.441,129.059 456.856,125.489 
												434.583,109.64 446.594,88.54 427.251,92.964 421.813,67.014 											"/>
										</g>
										<g>
											<g>
												<path style="fill:#263238;" d="M405.052,85.38c0,0,0.373-0.434,1.102-1.247c0.737-0.818,1.817-2.017,3.228-3.583
													c2.838-3.133,7-7.729,12.337-13.622l0.167-0.184l0.051,0.243c1.505,7.117,3.36,15.888,5.486,25.94l-0.211-0.135
													c5.88-1.353,12.4-2.853,19.337-4.449l0.446-0.103l-0.226,0.398c-3.707,6.527-7.743,13.632-11.991,21.111l-0.065-0.293
													c7.05,5.009,14.514,10.313,22.284,15.834l0.496,0.352l-0.602,0.085c-8.092,1.14-16.634,2.344-25.414,3.581l0.209-0.184
													c-2.049,7.573-4.216,15.583-6.426,23.753l-0.091,0.337l-0.296-0.185c-5.668-3.534-11.673-7.278-17.755-11.069
													c-1.761-1.098-3.516-2.193-5.263-3.282l0.306-0.022c-5.757,4.862-11.429,9.652-16.992,14.35l-0.361,0.305l-0.06-0.469
													c-0.845-6.547-1.676-12.976-2.489-19.273l0.232,0.219c-7.353-0.544-14.513-1.073-21.469-1.587l-0.547-0.04l0.397-0.378
													c5.223-4.971,10.286-9.791,15.167-14.437l-0.004,0.33c-7.017-7.029-13.626-13.65-19.785-19.819l-0.306-0.306l0.43-0.045
													c9.427-0.974,18.025-1.863,25.785-2.665l-0.154,0.154c1.032-9.579,1.909-17.719,2.639-24.491l0.024-0.219l0.177,0.131
													c6.536,4.827,11.581,8.552,15.003,11.079c1.704,1.265,3.001,2.228,3.884,2.884
													C404.604,85.031,405.052,85.38,405.052,85.38s-0.444-0.304-1.319-0.934c-0.886-0.641-2.189-1.583-3.899-2.819
													c-3.453-2.511-8.544-6.212-15.141-11.007l0.2-0.089c-0.704,6.775-1.55,14.918-2.546,24.501l-0.014,0.139l-0.14,0.015
													c-7.758,0.822-16.354,1.732-25.778,2.73l0.124-0.35c6.17,6.159,12.79,12.768,19.819,19.785l0.167,0.167l-0.171,0.163
													c-4.875,4.652-9.933,9.478-15.149,14.456l-0.15-0.419c6.956,0.508,14.117,1.032,21.47,1.569l0.205,0.015l0.027,0.204
													c0.816,6.296,1.65,12.725,2.499,19.271l-0.422-0.164c5.562-4.7,11.232-9.491,16.988-14.355l0.145-0.122l0.161,0.1
													c1.747,1.089,3.501,2.183,5.263,3.282c6.081,3.793,12.086,7.537,17.753,11.072l-0.387,0.152
													c2.214-8.169,4.385-16.179,6.438-23.75l0.044-0.161l0.165-0.023c8.781-1.23,17.324-2.426,25.417-3.56l-0.107,0.437
													c-7.762-5.531-15.22-10.845-22.263-15.863l-0.165-0.118l0.1-0.176c4.262-7.471,8.311-14.568,12.031-21.088l0.22,0.296
													c-6.94,1.578-13.464,3.062-19.348,4.399l-0.175,0.04L427.079,93c-2.089-10.06-3.911-18.838-5.39-25.96l0.218,0.059
													c-5.402,5.875-9.615,10.456-12.487,13.579c-1.424,1.54-2.513,2.718-3.256,3.522
													C405.43,84.991,405.052,85.38,405.052,85.38z"/>
											</g>
										</g>
									</g>
								</g>
							</g>
						</g>
					</g>
				</g>
			</g>
		</g>
		<g>
			<g>
				<g>
					<g>
						<path style="fill:#FF725E;" d="M401.822,94.418l-1.343,19.418c-0.11,1.588-1.386,2.845-2.975,2.93l0,0
							c-1.677,0.09-3.13-1.15-3.304-2.82l-2.043-19.536c-0.155-1.479,1.022-2.76,2.509-2.73l4.738,0.094
							C400.817,91.802,401.919,93.008,401.822,94.418z"/>
					</g>
				</g>
			</g>
			<g>
				<g>
					<g>
						<path style="fill:#FF725E;" d="M392.477,125.839c0.811,2.49,3.486,3.851,5.976,3.041c2.49-0.811,3.852-3.486,3.041-5.976
							c-0.811-2.49-3.486-3.851-5.976-3.041C393.028,120.674,391.667,123.349,392.477,125.839z"/>
					</g>
				</g>
			</g>
		</g>
		<g>
			<g>
				<g>
					<g>
						<path style="fill:#FF725E;" d="M417.878,94.418l-1.343,19.418c-0.11,1.588-1.386,2.845-2.975,2.93l0,0
							c-1.677,0.09-3.129-1.15-3.304-2.82l-2.043-19.536c-0.155-1.479,1.022-2.76,2.509-2.73l4.738,0.094
							C416.873,91.802,417.975,93.008,417.878,94.418z"/>
					</g>
				</g>
			</g>
			<g>
				<g>
					<g>
						<path style="fill:#FF725E;" d="M408.533,125.839c0.811,2.49,3.486,3.851,5.976,3.041c2.49-0.811,3.852-3.486,3.041-5.976
							c-0.81-2.49-3.486-3.851-5.976-3.041C409.084,120.674,407.722,123.349,408.533,125.839z"/>
					</g>
				</g>
			</g>
		</g>
	</g>
</g>
<g id="Character">
	<g>
		<g>
			<g>
				<g>
					<path style="fill:#263238;" d="M391.947,337.813c-0.058-1.887-1.194-3.555-2.768-4.597
						c-24.598-16.28-43.135-52.362-45.004-82.907c-0.05-1.74-0.104-3.505-0.162-5.284c0-0.007,0-0.015,0-0.022l0,0
						c-1.536-45.929-7.962-98.794-13.627-110.766c-12.051-25.468-46.783-28.529-46.783-28.529
						c-47.949-3.431-56.512,33.412-61.352,66.971c-3.01,20.868-14.607,95.417-14.607,95.417l8.813,3.41
						c10.383,30.767,33.763,55.649,64.151,67.092c8.839,3.329,16.323,4.664,19.835,1.802c13.96,14.151,31.434,24.845,50.457,30.632
						c7.744,2.356,15.86,3.93,23.92,3.176c5.233-0.49,10.752-2.218,13.872-6.448c2.688-3.644,3.057-8.855,0.91-12.841
						c-2.147-3.987-6.701-6.546-11.223-6.307C380.193,342.717,392.151,344.451,391.947,337.813z"/>
				</g>
			</g>
			<g>
				<path style="fill:#FFBF9D;" d="M300.738,247.126c0,0,17.523-7.529,26.575-9.237c9.052-1.709,72.29-18.01,72.29-18.01
					l-65.273-55.936l14.399-17.52c0,0,48.485,28.932,82.957,51.99c0,0,0.247,0.129,0.645,0.441
					c19.605,15.428,12.739,42.316-7.384,54.941c-10.022,6.287-53.957,25.239-62.477,29.389c-17.013,8.285-16.745,8.009-16.745,8.009
					L300.738,247.126z"/>
			</g>
			<g>
				<g>
					<g>
						<path style="fill:#FFBF9D;" d="M289.981,119.271l-3-2.859l-32.417,13.065c-4.69,0.259-8.402,4.065-8.545,8.76l0.285,105.623
							c-0.041,7.163,1.394,13.366,5.719,19.075l4.553,6.011c10.381,13.705,31.735,12.577,39.954-2.523
							c0.574-1.055,0.973-1.981,1.146-2.732c0.174-0.941,0.43-1.561,0.482-2.362c0.965-8.498,1.02-15.866,1.02-15.866
							c0.578-9.33,0.768-13.158,0.77-13.071c0,0,19.855-2.283,25.223-27.769c2.669-12.675,2.166-30.113,1.416-47.275
							C325.547,133.596,309.072,119.247,289.981,119.271z"/>
					</g>
				</g>
				<g>
					<g>
						<g>
							<g>
								<g>
									<g>
										<g>
											<g>
												<g>
													<g>
														<path style="fill:#263238;" d="M287.976,174.292c-0.026,1.743-1.523,3.159-3.344,3.165
															c-1.817,0.007-3.273-1.397-3.248-3.141c0.026-1.743,1.524-3.16,3.34-3.167
															C286.546,171.142,288.002,172.549,287.976,174.292z"/>
													</g>
												</g>
											</g>
										</g>
									</g>
								</g>
							</g>
						</g>
					</g>
				</g>
				<g>
					<g>
						<g>
							<g>
								<g>
									<g>
										<g>
											<g>
												<g>
													<g>
														<path style="fill:#263238;" d="M320.142,175.208c-0.026,1.743-1.523,3.159-3.344,3.165
															c-1.817,0.007-3.273-1.397-3.248-3.141c0.026-1.743,1.524-3.16,3.34-3.167
															C318.712,172.058,320.168,173.465,320.142,175.208z"/>
													</g>
												</g>
											</g>
										</g>
									</g>
								</g>
							</g>
						</g>
					</g>
				</g>
				<g>
					<g>
						<g>
							<g>
								<g>
									<g>
										<g>
											<g>
												<g>
													<g>
														<g>
															<path style="fill:#263238;" d="M323.195,164.135c-0.43,0.409-2.834-1.563-6.38-1.732
																c-3.539-0.219-6.233,1.475-6.596,1.021c-0.18-0.202,0.276-0.956,1.449-1.725c1.157-0.765,3.099-1.468,5.307-1.349
																c2.208,0.123,4.025,1.03,5.051,1.915C323.075,163.157,323.405,163.953,323.195,164.135z"/>
														</g>
													</g>
												</g>
											</g>
										</g>
									</g>
								</g>
							</g>
						</g>
					</g>
				</g>
				<g>
					<g>
						<g>
							<g>
								<g>
									<g>
										<g>
											<g>
												<g>
													<g>
														<g>
															<path style="fill:#263238;" d="M287.214,164.503c-0.471,0.363-2.662-1.846-6.17-2.377
																c-3.498-0.582-6.352,0.826-6.666,0.338c-0.157-0.219,0.369-0.924,1.62-1.566c1.229-0.643,3.233-1.143,5.417-0.798
																c2.184,0.349,3.897,1.438,4.828,2.424C287.192,163.517,287.441,164.343,287.214,164.503z"/>
														</g>
													</g>
												</g>
											</g>
										</g>
									</g>
								</g>
							</g>
						</g>
					</g>
				</g>
				<g>
					<g>
						<g>
							<g>
								<g>
									<g>
										<g>
											<g>
												<g>
													<g>
														<path style="fill:#263238;" d="M299.601,190.312c-0.007-0.202,2.216-0.472,5.811-0.75
															c0.91-0.048,1.776-0.185,1.959-0.795c0.246-0.644-0.083-1.638-0.47-2.714c-0.742-2.234-1.517-4.575-2.332-7.028
															c-3.226-10.002-5.513-18.208-5.109-18.334c0.404-0.127,3.348,7.878,6.573,17.88c0.773,2.465,1.514,4.815,2.217,7.063
															c0.291,1.046,0.822,2.243,0.291,3.577c-0.278,0.665-0.967,1.122-1.555,1.249c-0.589,0.148-1.099,0.132-1.548,0.136
															C301.835,190.61,299.604,190.514,299.601,190.312z"/>
													</g>
												</g>
											</g>
										</g>
									</g>
								</g>
							</g>
						</g>
					</g>
				</g>
				<g>
					<g>
						<g>
							<g>
								<g>
									<g>
										<g>
											<g>
												<g>
													<path style="fill:#FF9A6C;" d="M299.947,232.391c0,0-17.339,0.248-33.947-10.902c0,0,7.76,18.218,33.594,17.103
														L299.947,232.391z"/>
												</g>
											</g>
										</g>
									</g>
								</g>
							</g>
						</g>
					</g>
				</g>
				<g>
					<g>
						<g>
							<g>
								<g>
									<g>
										<path style="fill:#263238;" d="M274.703,150.695c0.126-1.019,3.683-1.364,7.63-2.782c3.978-1.34,6.979-3.277,7.711-2.557
											c0.333,0.349-0.035,1.364-1.15,2.578c-1.104,1.21-3,2.554-5.375,3.383c-2.376,0.825-4.697,0.949-6.313,0.686
											C275.578,151.742,274.659,151.175,274.703,150.695z"/>
									</g>
								</g>
							</g>
						</g>
					</g>
				</g>
				<g>
					<g>
						<g>
							<g>
								<g>
									<g>
										<path style="fill:#263238;" d="M320.809,150.661c-0.664,0.774-3.065-0.184-6-0.371c-2.928-0.289-5.452,0.269-5.981-0.602
											c-0.231-0.422,0.202-1.208,1.326-1.917c1.109-0.706,2.932-1.237,4.947-1.075c2.015,0.166,3.727,0.982,4.707,1.859
											C320.805,149.435,321.104,150.281,320.809,150.661z"/>
									</g>
								</g>
							</g>
						</g>
					</g>
				</g>
				<g>
					<g>
						<path style="fill:#263238;" d="M246.666,183.313c0,0,18.159,5.652,28.435-39.166c3.514-15.325,17.721-27.735,17.721-27.735
							l-5.762-1.733c0,0-35.81,10.088-36.412,10.54c-0.602,0.452-9.034,18.521-9.034,18.521L246.666,183.313z"/>
					</g>
				</g>
				<g>
					<g>
						<path style="fill:#FFBF9D;" d="M251.141,181.644c0.091-1.913-1.894-6.535-3.769-6.924c-5.006-1.04-14.121-1.09-14.848,11.719
							c-0.994,17.511,16.792,14.896,16.851,14.396C249.422,200.444,250.825,188.251,251.141,181.644z"/>
					</g>
				</g>
				<g>
					<g>
						<path style="fill:#FF9A6C;" d="M244.402,193.897c-0.074-0.061-0.317,0.196-0.846,0.403c-0.516,0.201-1.39,0.312-2.283-0.083
							c-1.811-0.784-3.202-3.809-3.108-6.97c0.045-1.597,0.465-3.095,1.101-4.32c0.607-1.25,1.486-2.099,2.428-2.21
							c0.938-0.162,1.566,0.433,1.753,0.937c0.207,0.504,0.076,0.847,0.167,0.881c0.046,0.047,0.392-0.271,0.292-1.002
							c-0.053-0.353-0.234-0.777-0.627-1.137c-0.4-0.365-1.008-0.575-1.662-0.542c-1.356,0.017-2.641,1.191-3.34,2.535
							c-0.773,1.346-1.283,3.028-1.334,4.821c-0.088,3.535,1.53,6.939,4.021,7.815c1.213,0.391,2.262,0.078,2.816-0.305
							C244.347,194.319,244.461,193.932,244.402,193.897z"/>
					</g>
				</g>
				<g>
					<g>
						<path style="fill:#263238;" d="M258.982,174.742c-0.007-0.058,0.966-0.062,2.624-0.529c1.648-0.461,3.964-1.538,6.236-3.619
							c1.129-1.039,2.242-2.315,3.252-3.81c0.992-1.507,1.883-3.231,2.646-5.118c1.551-3.772,2.544-8.169,3.772-12.734
							c1.23-4.567,2.564-8.881,4.028-12.716c1.445-3.841,3.047-7.186,4.563-9.893c1.522-2.706,2.955-4.776,4.011-6.153
							c0.517-0.696,0.968-1.199,1.255-1.553c0.294-0.349,0.455-0.527,0.467-0.517c0.012,0.01-0.124,0.208-0.394,0.575
							c-0.263,0.372-0.69,0.892-1.182,1.602c-1.007,1.405-2.391,3.492-3.868,6.205c-1.471,2.714-3.034,6.053-4.45,9.885
							c-1.435,3.826-2.752,8.127-3.979,12.685c-1.225,4.551-2.235,8.968-3.825,12.776c-0.783,1.904-1.698,3.646-2.723,5.171
							c-1.043,1.512-2.189,2.797-3.352,3.838c-2.339,2.085-4.723,3.136-6.408,3.549
							C259.957,174.807,258.982,174.742,258.982,174.742z"/>
					</g>
				</g>
				<g>
					<g>
						<g>
							<path style="fill:#455A64;" d="M235.049,249.458c-0.02,0.003-0.083-0.285-0.19-0.846c-0.109-0.616-0.256-1.441-0.442-2.489
								c-0.373-2.248-0.903-5.447-1.575-9.507l0.423-0.061c0.089,0.636,0.187,1.34,0.288,2.068l-0.019-0.065
								c0.11,0.236,0.238,0.509,0.367,0.786l-0.439,0.162c-2.074-7.165-4.349-16.799-5.615-28.189
								c-0.654-5.689-1.025-11.812-1.07-18.235c0.062-6.4,0.016-13.199,1.731-19.99c0.706-2.806,1.783-5.497,3.185-7.949
								c1.4-2.453,3.071-4.684,4.842-6.743c3.561-4.115,7.397-7.651,10.9-11.164c7.067-6.953,13.435-13.218,18.8-18.496
								c5.34-5.212,9.675-9.445,12.723-12.42c1.481-1.422,2.647-2.541,3.488-3.348c0.377-0.351,0.68-0.632,0.921-0.856
								c0.211-0.19,0.323-0.282,0.333-0.272c0.01,0.01-0.084,0.122-0.276,0.33c-0.226,0.239-0.511,0.539-0.865,0.913
								c-0.815,0.833-1.946,1.988-3.382,3.455c-3.006,3.019-7.28,7.313-12.544,12.601c-5.33,5.313-11.657,11.619-18.68,18.618
								c-3.49,3.527-7.318,7.083-10.823,11.15c-3.505,4.048-6.522,8.84-7.848,14.382c-1.682,6.642-1.655,13.413-1.729,19.787
								c0.03,6.394,0.376,12.491,0.999,18.16c1.204,11.35,3.389,20.966,5.362,28.139l-0.439,0.162
								c-0.125-0.278-0.249-0.553-0.355-0.791l-0.015-0.033l-0.004-0.033c-0.09-0.729-0.178-1.435-0.257-2.072l0.423-0.061
								c0.588,4.073,1.051,7.283,1.377,9.538c0.14,1.055,0.25,1.886,0.333,2.506C235.043,249.161,235.069,249.455,235.049,249.458z"
								/>
						</g>
					</g>
				</g>
				<g>
					<g>
						<g>
							<path style="fill:#455A64;" d="M221.263,168.503c-0.025-0.013,0.082-0.267,0.307-0.741c0.274-0.552,0.611-1.231,1.021-2.055
								c0.887-1.785,2.288-4.309,4.124-7.365c1.825-3.064,4.168-6.61,6.928-10.436c2.794-3.799,6.025-7.863,9.654-11.924
								c3.653-4.041,7.351-7.686,10.833-10.868c3.511-3.151,6.788-5.858,9.641-7.998c2.844-2.15,5.204-3.812,6.885-4.883
								c0.776-0.495,1.415-0.902,1.935-1.233c0.447-0.275,0.689-0.408,0.704-0.385c0.015,0.023-0.197,0.201-0.615,0.518
								c-0.496,0.364-1.106,0.812-1.847,1.356c-1.623,1.148-3.927,2.875-6.715,5.074c-2.798,2.189-6.024,4.929-9.491,8.095
								c-3.438,3.198-7.101,6.839-10.735,10.859c-3.61,4.04-6.841,8.068-9.655,11.825c-2.779,3.783-5.161,7.281-7.04,10.296
								c-1.891,3.007-3.363,5.481-4.332,7.217c-0.462,0.795-0.843,1.45-1.152,1.981
								C221.442,168.286,221.287,168.516,221.263,168.503z"/>
						</g>
					</g>
				</g>
			</g>
			<g>
				<g>
					<g>
						<path style="fill:#455A64;" d="M245.499,243.859c0,0-0.027-0.009-0.065-0.022C245.46,243.846,245.471,243.85,245.499,243.859z
							"/>
					</g>
					<g>
						<path style="fill:#455A64;" d="M245.434,243.838c-0.07-0.023-0.126-0.042-0.177-0.059
							C245.325,243.802,245.388,243.823,245.434,243.838z"/>
					</g>
					<g>
						<path style="fill:#455A64;" d="M377.139,465.227l-25.103-76.518l-1.978-72.724c-0.618-12.54-1.541-30.877-1.541-30.877
							c-8.19-25.62-34.232-47.252-34.232-47.252l-14.779,2.208c-0.566,15.99-24.969,30.511-42.519,19.913
							c-6.491-4.659-11.487-16.116-11.487-16.116l-29.824,14.423l20.48,146.377c0,0-20.197,37.686-20.197,60.568H377.139z"/>
					</g>
					<g>
						<path style="fill:#455A64;" d="M245.258,243.779c-0.062-0.02-0.122-0.04-0.172-0.057
							C245.126,243.736,245.182,243.754,245.258,243.779z"/>
					</g>
					<g>
						<path style="fill:#455A64;" d="M245.086,243.722C244.953,243.678,244.983,243.688,245.086,243.722L245.086,243.722z"/>
					</g>
				</g>
				<g style="opacity:0.3;">
					<g>
						<path d="M234.158,387.19c3.667,9.36,10.873,17.601,20.303,21.083c9.43,3.482,21.023,1.515,27.805-5.906
							c4.163-4.556,6.252-10.63,7.577-16.658c1.165-5.299,1.822-10.695,2.444-16.086c3.159-27.376,5.457-55.029,2.927-82.47
							l-3.743-31.678l-10.815,6.097l-5.023,112.825L234.158,387.19z"/>
					</g>
				</g>
				<g>
					<path style="fill:#455A64;" d="M299.795,239.491c0,0,21.732-5.458,39.402-5.927l29.308-7.396l5.005,52.361l-27.942,17.933
						L299.795,239.491z"/>
				</g>
				<g>
					<path style="fill:#455A64;" d="M248.108,320.007l-51.456,25.817c0,0-14.253-76.36,18.876-87.542l1.915,10.846L248.108,320.007z
						"/>
				</g>
				<g>
					<g>
						<path style="fill:#263238;" d="M346.889,254.314c0.009-0.001,0.024,0.116,0.045,0.345c0.02,0.256,0.046,0.592,0.079,1.016
							c0.06,0.926,0.146,2.238,0.255,3.911c0.218,3.397,0.477,8.314,0.789,14.392c0.61,12.155,1.324,28.952,2.003,47.507
							c0.681,18.562,1.209,35.367,1.549,47.531c0.155,6.059,0.28,10.973,0.368,14.407c0.03,1.676,0.053,2.99,0.07,3.918
							c0.002,0.426,0.003,0.762,0.004,1.019c-0.002,0.23-0.007,0.348-0.016,0.348c-0.009,0-0.021-0.117-0.037-0.346
							c-0.014-0.256-0.033-0.593-0.056-1.018c-0.04-0.927-0.096-2.24-0.167-3.915c-0.127-3.433-0.309-8.345-0.534-14.401
							c-0.436-12.189-1.038-28.977-1.702-47.524c-0.722-18.539-1.376-35.322-1.85-47.509c-0.262-6.055-0.475-10.966-0.624-14.398
							c-0.067-1.675-0.12-2.988-0.157-3.916c-0.012-0.426-0.021-0.762-0.028-1.019C346.877,254.432,346.88,254.315,346.889,254.314z
							"/>
					</g>
				</g>
				<g>
					<g>
						<path style="fill:#263238;" d="M196.652,345.824c-0.004-0.008,0.066-0.053,0.206-0.133c0.169-0.092,0.375-0.206,0.628-0.344
							c0.596-0.312,1.41-0.739,2.44-1.279c2.169-1.111,5.239-2.683,9.016-4.616c7.67-3.87,18.201-9.184,29.833-15.054
							c2.143-1.074,4.248-2.129,6.255-3.135l-0.125,0.323c-1.015-2.681-1.884-5.286-3.118-7.642
							c-1.155-2.418-2.049-4.816-2.916-7.078c-1.702-4.53-3.464-8.472-4.907-11.778c-1.452-3.302-2.579-5.971-3.309-7.827
							c-0.363-0.929-0.638-1.649-0.811-2.142c-0.176-0.492-0.26-0.751-0.245-0.757c0.015-0.006,0.13,0.242,0.334,0.722
							c0.22,0.519,0.518,1.22,0.893,2.106c0.782,1.832,1.955,4.475,3.449,7.759c1.485,3.286,3.286,7.222,5.021,11.754
							c0.88,2.255,1.786,4.644,2.934,7.025c1.25,2.363,2.148,5.025,3.156,7.673l0.083,0.219l-0.208,0.104
							c-2.006,1.008-4.111,2.065-6.252,3.14c-11.659,5.817-22.214,11.082-29.902,14.918c-3.808,1.872-6.903,3.393-9.09,4.468
							c-1.048,0.503-1.877,0.9-2.483,1.191c-0.263,0.12-0.477,0.218-0.652,0.298C196.734,345.803,196.656,345.832,196.652,345.824z"
							/>
					</g>
				</g>
			</g>
			<g>
				<path style="fill:#FF9A6C;" d="M303.766,198.913c-1.972-1.37-4.311-2.207-6.704-2.399c-0.752-0.06-1.533-0.054-2.231,0.233
					c-1.055,0.433-1.776,1.459-2.118,2.547c-0.343,1.088-0.36,2.248-0.375,3.389c-0.006,0.434-0.006,0.888,0.197,1.271
					c0.374,0.703,1.275,0.908,2.069,0.974c2.703,0.226,5.464-0.281,7.909-1.454"/>
			</g>
			<g>
				<path style="fill:#FFBF9D;" d="M203.198,342.54c10.512,24.44,30.502,49.246,42.821,53.785
					c18.355,6.763,33.549,3.401,40.583-18.978c7.033-22.379,2.526-121.797,2.526-121.797l-30.601-1.756l-5.667,85.655
					c0,0-3.38-6.65-9.33-17.145"/>
			</g>
			<g>
				<g>
					<g>
						<path style="fill:#FFBF9D;" d="M334.33,163.942l-7.702-5.617l-1.181-9.662c0,0-13.921,0.36-14.774-7.1
							c0,0-8.027,2.131-7.637-5.754c0,0-4.085-2.771-2.593-5.328c1.492-2.558,13.023-6.362,13.663-6.575
							c0.639-0.213,8.178-1.807,8.178-1.807l-2.233-2.488l-5.968,0.639c0,0-3.623,3.41-6.607,3.836
							c-2.984,0.426-3.197-0.853-3.197-0.853s-3.41-3.623,1.066-7.246c4.476-3.623,10.23-4.902,13.214-5.115
							c2.984-0.213,6.984,5.537,6.984,5.537l3.246,5.758c0,0,6.394-0.853,8.525,4.049v3.41c0,0,4.689-0.639,6.607,4.902l1.279,4.902
							c0,0,5.541,7.246,5.754,10.23"/>
					</g>
					<g>
						<g>
							<path style="fill:#FF9A6C;" d="M350.953,149.663c-0.021,0.003-0.045-0.264-0.181-0.757c-0.141-0.494-0.431-1.203-0.882-2.096
								c-0.922-1.777-2.51-4.28-4.793-7.298l-0.016-0.021l-0.007-0.025c-0.389-1.465-0.828-3.116-1.301-4.896l0.003,0.011
								c-0.425-1.223-1.124-2.471-2.233-3.411c-1.096-0.926-2.647-1.49-4.205-1.359l-0.207,0.017l-0.001-0.199
								c-0.003-1.051-0.006-2.216-0.01-3.41l0.016,0.077c-0.617-1.378-1.771-2.594-3.303-3.217c-1.508-0.647-3.283-0.86-5.016-0.695
								l-0.148,0.014l-0.069-0.122c-1.02-1.802-2.123-3.75-3.257-5.752l0.011,0.018c-0.692-0.96-1.471-1.898-2.319-2.779
								c-0.855-0.868-1.793-1.707-2.882-2.264c-0.553-0.272-1.124-0.413-1.727-0.37c-0.633,0.048-1.268,0.143-1.904,0.251
								c-1.27,0.228-2.541,0.549-3.796,0.964c-2.504,0.832-4.962,2.043-7.106,3.753c-1.067,0.828-1.973,1.919-2.256,3.228
								c-0.26,1.302,0.229,2.719,1.101,3.733l0.044,0.051l0.023,0.084c0.062,0.227,0.414,0.502,0.785,0.591
								c0.379,0.112,0.802,0.137,1.226,0.127c0.864-0.028,1.702-0.207,2.513-0.561c1.619-0.705,3.114-1.791,4.502-2.979
								c0.116-0.104,0.232-0.208,0.344-0.309l0.067-0.06l0.083-0.009c2.01-0.215,4-0.428,5.967-0.639l0.132-0.014l0.089,0.099
								c0.75,0.835,1.493,1.664,2.232,2.488l0.296,0.33l-0.435,0.096c-2.623,0.578-5.21,1.147-7.754,1.708
								c-2.498,0.736-4.894,1.676-7.219,2.622c-1.162,0.478-2.293,0.995-3.386,1.548c-1.081,0.558-2.17,1.154-2.99,1.952
								c-0.377,0.397-0.613,0.915-0.621,1.452c-0.013,0.538,0.182,1.075,0.462,1.56c0.582,0.964,1.444,1.771,2.338,2.422
								l0.097,0.071l0.005,0.133c0.018,0.495-0.008,0.993,0.043,1.477c0.092,0.475,0.121,0.968,0.32,1.402
								c0.298,0.896,0.879,1.686,1.68,2.145c1.602,0.936,3.604,0.883,5.307,0.514l0.241-0.052l0.024,0.232
								c0.168,1.647,1.138,3.052,2.385,3.971c1.244,0.939,2.68,1.52,4.086,1.934c2.831,0.809,5.597,1.051,8.089,1.058l0.147,0.001
								l0.017,0.141c0.45,3.828,0.825,7.02,1.136,9.667l-0.047-0.079c2.48,1.838,4.389,3.254,5.7,4.226
								c0.626,0.473,1.109,0.837,1.454,1.097c0.324,0.249,0.479,0.388,0.479,0.388s-0.18-0.106-0.516-0.338
								c-0.353-0.249-0.847-0.597-1.489-1.049c-1.326-0.951-3.258-2.337-5.766-4.136l-0.04-0.029l-0.006-0.051
								c-0.336-2.644-0.741-5.833-1.226-9.656l0.164,0.141c-2.533,0.011-5.311-0.212-8.203-1.019
								c-1.435-0.416-2.912-0.998-4.222-1.976c-1.311-0.951-2.379-2.471-2.563-4.242l0.264,0.18
								c-0.919,0.218-1.858,0.304-2.823,0.254c-0.957-0.056-1.95-0.272-2.824-0.797c-0.889-0.505-1.55-1.397-1.876-2.37
								c-0.217-0.478-0.251-0.997-0.35-1.507c-0.056-0.512-0.032-1.031-0.05-1.551l0.102,0.204
								c-0.958-0.695-1.839-1.509-2.487-2.566c-0.308-0.53-0.544-1.148-0.531-1.809c0.009-0.662,0.295-1.297,0.752-1.778
								c0.917-0.892,2.013-1.478,3.114-2.055c1.109-0.564,2.25-1.088,3.419-1.571c2.34-0.957,4.742-1.903,7.253-2.647
								c2.561-0.567,5.165-1.144,7.805-1.729l-0.139,0.426c-0.739-0.823-1.484-1.652-2.233-2.487l0.221,0.085
								c-1.968,0.211-3.957,0.424-5.967,0.64l0.15-0.069c-0.117,0.105-0.238,0.214-0.359,0.322
								c-1.422,1.215-2.937,2.321-4.641,3.065c-0.849,0.373-1.791,0.576-2.701,0.601c-0.46,0.01-0.929-0.014-1.392-0.15
								c-0.448-0.144-0.956-0.375-1.145-1.001l0.067,0.134c-0.988-1.149-1.516-2.689-1.228-4.187
								c0.158-0.738,0.504-1.405,0.924-2.002c0.233-0.278,0.462-0.562,0.716-0.815c0.268-0.236,0.525-0.492,0.803-0.708
								c2.204-1.753,4.716-2.983,7.267-3.826c1.278-0.421,2.571-0.745,3.867-0.974c0.649-0.109,1.297-0.204,1.949-0.253
								c0.687-0.053,1.39,0.126,1.976,0.422c1.178,0.609,2.133,1.478,3.008,2.368c0.865,0.906,1.647,1.851,2.357,2.844l0.006,0.008
								l0.006,0.01c1.126,2.006,2.222,3.958,3.236,5.764l-0.216-0.108c1.833-0.166,3.64,0.059,5.237,0.747
								c1.612,0.661,2.853,1.975,3.493,3.439l0.016,0.037l0,0.04c-0.003,1.194-0.007,2.359-0.01,3.41l-0.208-0.181
								c1.705-0.133,3.308,0.479,4.471,1.465c1.164,1.002,1.878,2.309,2.304,3.568l0.002,0.007l0.001,0.005
								c0.457,1.784,0.88,3.439,1.257,4.908l-0.022-0.046c2.263,3.055,3.819,5.585,4.709,7.394c0.435,0.909,0.707,1.634,0.828,2.14
								C350.955,149.394,350.953,149.663,350.953,149.663z"/>
						</g>
					</g>
				</g>
				<g>
					<g>
						<path style="fill:#FF9A6C;" d="M337.247,153.584c-0.06,0.055-0.575-0.474-1.525-1.162c-0.946-0.692-2.36-1.5-4.043-2.118
							c-1.698-0.596-3.255-1.133-4.4-1.344c-1.149-0.219-1.89-0.195-1.893-0.281c-0.007-0.057,0.737-0.215,1.948-0.083
							c1.217,0.128,2.801,0.615,4.527,1.22c1.73,0.635,3.173,1.528,4.088,2.316C336.871,152.919,337.294,153.545,337.247,153.584z"
							/>
					</g>
				</g>
				<g>
					<g>
						<path style="fill:#FF9A6C;" d="M339.5,139.558c0.001,0.036-0.412,0.083-1.158,0.137c-0.857,0.049-1.913,0.109-3.161,0.18
							c-2.669,0.129-6.357,0.271-10.431,0.396c-2.031,0.055-3.965,0.107-5.744,0.156c-1.763,0.019-3.339,0.099-4.657,0.266
							c-1.317,0.158-2.367,0.387-3.073,0.607c-0.707,0.216-1.074,0.407-1.095,0.369c-0.015-0.023,0.324-0.279,1.028-0.56
							c0.701-0.285,1.76-0.573,3.089-0.78c1.327-0.216,2.931-0.336,4.699-0.381c1.779-0.061,3.713-0.127,5.744-0.196
							c4.074-0.125,7.763-0.209,10.434-0.244c1.249-0.005,2.306-0.01,3.164-0.014C339.085,139.501,339.499,139.522,339.5,139.558z"
							/>
					</g>
				</g>
				<g>
					<g>
						<path style="fill:#FF9A6C;" d="M333.087,130.59c0.004,0.036-0.414,0.118-1.173,0.236c-0.867,0.129-1.941,0.29-3.214,0.48
							c-2.713,0.402-6.455,0.986-10.569,1.745c-4.114,0.761-7.819,1.551-10.496,2.145c-1.256,0.277-2.317,0.511-3.173,0.699
							c-0.751,0.161-1.17,0.233-1.18,0.198c-0.009-0.035,0.393-0.173,1.129-0.395c0.735-0.223,1.807-0.518,3.138-0.861
							c2.66-0.687,6.363-1.536,10.487-2.299c4.124-0.76,7.885-1.289,10.615-1.597c1.365-0.155,2.472-0.262,3.238-0.316
							C332.657,130.568,333.083,130.554,333.087,130.59z"/>
					</g>
				</g>
				<g>
					<g>
						<path style="fill:#FF9A6C;" d="M320.422,115.874c0.13-0.045,0.499,0.796,0.441,1.901c-0.051,1.106-0.502,1.906-0.627,1.849
							c-0.14-0.054,0.063-0.866,0.107-1.874C320.399,116.742,320.277,115.913,320.422,115.874z"/>
					</g>
				</g>
			</g>
			<g>
				<g>
					<path style="fill:#455A64;" d="M225.358,183.344c8.46,11.203,30.485,43.63,39.458,55.235c1.891,2.446,7.398,1.542,9.828-0.37
						c5.779-4.548,15.901-12.447,21.938-16.779c2.559-1.836,3.087-5.421,1.166-7.916l-42.912-55.743
						c-1.987-2.581-5.757-2.911-8.162-0.715l-20.623,18.831C223.93,177.822,223.627,181.052,225.358,183.344z"/>
				</g>
				<g>
					<g>
						<path style="fill:#FFBF9D;" d="M257.748,352.601l-4.889-13.152l5.667-85.655c0,0-11.287-20.568-12.542-25.083
							c-1.254-4.515-1.569-17.598-1.569-17.598l7.887,9.151c0,0,0.217-15.729,0.217-20.996c0,0,1.126-19.777,1.318-22.519
							c0.192-2.742,2.972-4.218,4.764-4.218s3.53,3.269,3.53,3.269l2.413,32.343c0,0,3.976-17.007,5.481-19.265
							c1.505-2.257,6.704-3.335,10.216-3.084c0.035,0.003,0.07,0.005,0.104,0.008c2.726,0.248,3.612,3.818,1.369,5.387l-4.631,3.239
							l-1.754,16.223c0,0,4.264-14.046,6.522-15.802c2.257-1.756,6.271,0,7.023,2.007c0.753,2.007-2.007,6.02-2.007,6.02
							l-0.753,10.033c0,0,3.01-4.264,4.489-6.522c1.479-2.257,5.293,0,5.755,1.003c0.461,1.003-2.719,11.829-2.719,11.829
							l-4.515,36.33l1.422,52.307"/>
					</g>
					<g>
						<g>
							<path style="fill:#FF9A6C;" d="M290.55,307.857c0,0-0.024-0.305-0.048-0.902c-0.022-0.608-0.053-1.496-0.095-2.659
								c-0.074-2.353-0.182-5.814-0.323-10.296c-0.262-8.989-0.643-22.061-1.121-38.445l0-0.012l0.002-0.013
								c1.323-10.743,2.824-22.933,4.475-36.335l0.002-0.016l0.005-0.017c0.583-2.015,1.154-4.074,1.689-6.174
								c0.265-1.05,0.528-2.111,0.748-3.184c0.111-0.537,0.208-1.076,0.277-1.615c0.023-0.264,0.039-0.545,0.002-0.714
								c-0.096-0.19-0.298-0.383-0.491-0.555c-0.82-0.674-1.87-1.17-2.93-1.268c-0.528-0.042-1.063,0.056-1.472,0.359
								c-0.402,0.285-0.673,0.805-1.014,1.274c-1.302,1.894-2.621,3.813-3.954,5.753l-0.47,0.684l0.062-0.83
								c0.231-3.104,0.487-6.543,0.746-10.033l0.004-0.06l0.036-0.054c0.684-1.041,1.304-2.166,1.73-3.347
								c0.206-0.589,0.369-1.206,0.356-1.804c0-0.594-0.293-1.125-0.719-1.572c-0.859-0.883-2.082-1.445-3.323-1.613
								c-1.225-0.173-2.619,0.179-3.271,1.271c-0.722,1.065-1.277,2.291-1.804,3.514c-0.519,1.232-1.013,2.485-1.474,3.758
								c-0.932,2.541-1.792,5.14-2.606,7.772l-0.481-0.098c0.549-5.095,1.144-10.618,1.748-16.223l0.012-0.114l0.094-0.066
								c1.454-1.017,2.914-2.04,4.381-3.066c0.743-0.462,1.25-1.142,1.376-1.974c0.121-0.811-0.12-1.692-0.684-2.294
								c-0.557-0.643-1.379-0.865-2.273-0.861c-0.891-0.031-1.79,0.017-2.682,0.122c-1.777,0.221-3.575,0.635-5.153,1.476
								c-0.775,0.429-1.493,0.981-1.857,1.765c-0.379,0.796-0.674,1.68-0.958,2.553c-0.563,1.755-1.065,3.542-1.55,5.34
								c-0.967,3.597-1.873,7.243-2.742,10.919l-0.387,1.638l-0.125-1.678c-0.326-4.362-0.675-9.038-1.026-13.747
								c-0.467-6.262-0.93-12.465-1.387-18.596l0.03,0.102c-0.574-1.007-1.278-2.014-2.179-2.692
								c-0.878-0.745-2.103-0.392-3.122,0.082c-1.017,0.504-1.886,1.344-2.271,2.392c-0.201,0.523-0.245,1.069-0.272,1.675
								l-0.104,1.772c-0.277,4.72-0.552,9.392-0.823,14.013c-0.119,2.311-0.308,4.606-0.368,6.893
								c-0.024,2.288-0.048,4.563-0.072,6.823c-0.048,4.521-0.096,8.985-0.143,13.387l-0.007,0.653l-0.427-0.496
								c-2.67-3.101-5.295-6.149-7.883-9.154l0.425-0.164c0.118,4.062,0.316,8.071,0.692,11.992
								c0.211,1.952,0.405,3.915,0.926,5.748c0.606,1.806,1.445,3.555,2.256,5.275c3.324,6.865,6.815,13.359,10.182,19.569
								l0.03,0.056l-0.004,0.062c-2.673,39.507-4.722,69.791-5.794,85.647l-0.005-0.036c1.617,4.405,2.825,7.694,3.633,9.894
								c0.395,1.09,0.691,1.908,0.892,2.464c0.195,0.547,0.282,0.824,0.282,0.824s-0.115-0.266-0.324-0.808
								c-0.211-0.553-0.521-1.365-0.934-2.448c-0.825-2.193-2.059-5.473-3.712-9.865l-0.006-0.017l0.001-0.019
								c1.026-15.859,2.985-46.149,5.54-85.663l0.026,0.117c-3.38-6.211-6.879-12.698-10.22-19.577
								c-0.817-1.731-1.655-3.463-2.288-5.34c-0.542-1.907-0.733-3.867-0.95-5.834c-0.383-3.941-0.584-7.951-0.706-12.027
								l-0.02-0.68l0.445,0.516c2.591,3.004,5.218,6.05,7.89,9.148l-0.434,0.158c0.044-4.404,0.089-8.87,0.134-13.392
								c0.023-2.261,0.046-4.537,0.069-6.826c0.058-2.288,0.246-4.586,0.364-6.899c0.27-4.625,0.543-9.302,0.818-14.027l0.104-1.774
								c0.024-0.575,0.073-1.23,0.303-1.82c0.442-1.197,1.414-2.124,2.524-2.675c0.559-0.277,1.161-0.473,1.792-0.549
								c0.303-0.033,0.662-0.046,0.99,0.064c0.332,0.088,0.608,0.267,0.874,0.445c1.02,0.776,1.718,1.797,2.334,2.869l0.025,0.044
								l0.004,0.059c0.458,6.132,0.921,12.335,1.388,18.596c0.351,4.709,0.7,9.385,1.025,13.747l-0.512-0.04
								c0.871-3.683,1.778-7.33,2.749-10.936c0.486-1.803,0.99-3.594,1.559-5.364c0.29-0.886,0.577-1.762,0.991-2.63
								c0.425-0.904,1.252-1.532,2.068-1.98c1.676-0.89,3.513-1.305,5.339-1.534c0.916-0.108,1.839-0.156,2.761-0.124
								c0.896-0.016,1.995,0.259,2.632,1.028c0.673,0.724,0.953,1.754,0.81,2.715c-0.084,0.479-0.255,0.949-0.543,1.346
								c-0.279,0.389-0.681,0.729-1.045,0.966c-1.468,1.026-2.929,2.047-4.383,3.064l0.106-0.179
								c-0.608,5.605-1.207,11.127-1.759,16.222l-0.481-0.098c0.821-2.644,1.683-5.245,2.622-7.797
								c0.464-1.277,0.961-2.537,1.486-3.78c0.537-1.239,1.087-2.467,1.86-3.604c0.17-0.287,0.457-0.555,0.717-0.787
								c0.289-0.212,0.607-0.37,0.939-0.495c0.67-0.236,1.383-0.264,2.062-0.18c1.356,0.189,2.646,0.777,3.607,1.761
								c0.471,0.483,0.849,1.165,0.845,1.883c0.013,0.7-0.169,1.352-0.384,1.973c-0.451,1.24-1.078,2.372-1.789,3.453l0.04-0.114
								c-0.264,3.49-0.524,6.928-0.759,10.033l-0.408-0.147c1.334-1.935,2.652-3.847,3.954-5.736l0.488-0.707
								c0.18-0.236,0.371-0.504,0.637-0.679c0.514-0.38,1.169-0.488,1.761-0.439c1.198,0.118,2.276,0.639,3.178,1.375
								c0.218,0.201,0.439,0.391,0.6,0.701c0.106,0.376,0.049,0.654,0.034,0.943c-0.073,0.562-0.173,1.111-0.286,1.654
								c-0.224,1.085-0.49,2.148-0.757,3.202c-0.54,2.107-1.116,4.165-1.704,6.185l0.007-0.032
								c-1.68,13.398-3.208,25.585-4.555,36.325l0.001-0.025c0.413,16.385,0.743,29.459,0.97,38.449
								c0.103,4.483,0.183,7.945,0.237,10.299c0.022,1.164,0.038,2.052,0.05,2.661C290.557,307.552,290.55,307.857,290.55,307.857z"
								/>
						</g>
					</g>
				</g>
				<g>
					<g>
						<path style="fill:#FF9A6C;" d="M252.859,238.579c-0.072,0.003-0.175-1.355-0.283-3.552s-0.223-5.234-0.316-8.589
							c-0.094-3.356-0.149-6.395-0.164-8.595c-0.014-2.2,0.013-3.561,0.085-3.562c0.072-0.001,0.175,1.357,0.283,3.554
							c0.109,2.197,0.222,5.233,0.316,8.588c0.094,3.354,0.149,6.391,0.163,8.591C252.958,237.214,252.931,238.577,252.859,238.579z
							"/>
					</g>
				</g>
			</g>
			<g>
				<g>
					<path style="fill:#263238;" d="M302.512,203.474c0.014,0.028-0.322,0.24-0.977,0.534c-0.655,0.289-1.636,0.653-2.9,0.907
						c-1.265,0.25-2.8,0.393-4.522,0.196c-0.432-0.069-0.896-0.185-1.31-0.482c-0.429-0.284-0.683-0.841-0.707-1.332
						c-0.031-0.964-0.02-1.884,0.106-2.888c0.129-0.987,0.458-1.967,1.059-2.736c0.576-0.782,1.493-1.299,2.383-1.383
						c1.765-0.138,3.261,0.257,4.492,0.642c1.224,0.412,2.143,0.917,2.747,1.303c0.604,0.389,0.901,0.653,0.883,0.679
						c-0.051,0.09-1.327-0.896-3.74-1.63c-1.191-0.331-2.717-0.672-4.316-0.517c-0.79,0.094-1.527,0.522-2.043,1.219
						c-0.527,0.686-0.825,1.563-0.948,2.497c-0.12,0.922-0.134,1.907-0.113,2.77c0.007,0.866,0.793,1.274,1.585,1.387
						c1.622,0.212,3.146,0.115,4.38-0.084C301.06,204.135,302.476,203.38,302.512,203.474z"/>
				</g>
			</g>
			<g>
				<g>
					<path style="fill:#FF9A6C;" d="M417.219,225.293c0,0.062-1.034,0.143-2.706,0.043c-1.67-0.098-3.976-0.421-6.438-1.126
						c-2.461-0.71-4.587-1.661-6.054-2.464c-1.47-0.803-2.303-1.421-2.27-1.473c0.043-0.07,0.941,0.434,2.436,1.145
						c1.494,0.712,3.608,1.593,6.032,2.292c2.424,0.694,4.683,1.07,6.327,1.26C416.191,225.161,417.22,225.211,417.219,225.293z"/>
				</g>
			</g>
		</g>
	</g>
</g>
</svg>
