<svg width="70" height="70" viewBox="0 0 70 70" fill="none" xmlns="http://www.w3.org/2000/svg">
<g clip-path="url(#clip0_9_408)">
<path d="M31.4319 52.9944C30.8655 52.9944 30.4065 53.4533 30.4065 54.0198V61.8724C30.4065 62.4388 30.8655 62.8977 31.4319 62.8977C31.9983 62.8977 32.4573 62.4388 32.4573 61.8724V54.0198C32.4573 53.4533 31.9983 52.9944 31.4319 52.9944Z" fill="#45D987"/>
<path d="M23.1328 52.9944C22.5664 52.9944 22.1074 53.4533 22.1074 54.0198V61.8724C22.1074 62.4388 22.5664 62.8977 23.1328 62.8977C23.6992 62.8977 24.1582 62.4388 24.1582 61.8724V54.0198C24.1582 53.4533 23.6992 52.9944 23.1328 52.9944Z" fill="#45D987"/>
<path d="M27.2825 53.4877C26.7161 53.4877 26.2571 53.9466 26.2571 54.5131V66.8396C26.2571 67.4061 26.7161 67.865 27.2825 67.865C27.8489 67.865 28.3079 67.4061 28.3079 66.8396V54.5131C28.3079 53.9468 27.8488 53.4877 27.2825 53.4877V53.4877Z" fill="#45D987"/>
<path d="M54.2701 25.1803H62.1227C62.6891 25.1803 63.148 24.7213 63.148 24.1549C63.148 23.5885 62.6891 23.1295 62.1227 23.1295H54.2701C53.7037 23.1295 53.2447 23.5885 53.2447 24.1549C53.2447 24.7213 53.7037 25.1803 54.2701 25.1803Z" fill="#45D987"/>
<path d="M62.1225 31.4286H54.27C53.7035 31.4286 53.2446 31.8876 53.2446 32.454C53.2446 33.0204 53.7035 33.4794 54.27 33.4794H62.1225C62.689 33.4794 63.1479 33.0204 63.1479 32.454C63.1479 31.8876 62.689 31.4286 62.1225 31.4286Z" fill="#45D987"/>
<path d="M67.1573 27.2789H54.5844C54.018 27.2789 53.559 27.7379 53.559 28.3043C53.559 28.8707 54.018 29.3297 54.5844 29.3297H67.1573C67.7238 29.3297 68.1827 28.8707 68.1827 28.3043C68.1827 27.7379 67.7238 27.2789 67.1573 27.2789Z" fill="#45D987"/>
<path d="M63.777 69.7525L49.6348 55.6103C49.3048 55.2803 49.3048 54.7451 49.6348 54.4152L54.4153 49.6347C54.7453 49.3047 55.2805 49.3047 55.6104 49.6347L69.7526 63.7769C70.0826 64.107 70.0826 64.6421 69.7526 64.972L64.972 69.7525C64.642 70.0824 64.107 70.0824 63.777 69.7525Z" fill="#F78E36"/>
<path d="M54.4153 49.6347L51.4276 52.6225C51.7576 52.2924 52.2927 52.2924 52.6226 52.6225L66.7648 66.7646C67.0949 67.0947 67.0949 67.6298 66.7648 67.9597L69.7525 64.972C70.0826 64.6419 70.0826 64.107 69.7525 63.7769L55.6104 49.6347C55.2803 49.3047 54.7452 49.3047 54.4153 49.6347Z" fill="#F86F1B"/>
<path d="M44.0092 47.0071L46.9965 44.0198L53.5078 50.531L50.5205 53.5183L44.0092 47.0071Z" fill="#4380A0"/>
<path d="M52.2626 58.2493L58.2372 52.2746L61.2245 55.2619L55.2499 61.2365L52.2626 58.2493Z" fill="#7BE492"/>
<path d="M55.2501 55.2621L58.2373 52.2748L61.2246 55.2621L58.2373 58.2494L55.2501 55.2621Z" fill="#45D987"/>
<path d="M27.4647 54.9295C42.6331 54.9295 54.9295 42.6331 54.9295 27.4647C54.9295 12.2964 42.6331 0 27.4647 0C12.2964 0 0 12.2964 0 27.4647C0 42.6331 12.2964 54.9295 27.4647 54.9295Z" fill="#43809F"/>
<path d="M27.4647 0C26.7539 0 26.0493 0.0270703 25.352 0.0801172C39.5333 1.15896 50.7042 13.0073 50.7042 27.4649C50.7042 41.9225 39.5333 53.7708 25.352 54.8496C26.0493 54.9027 26.7538 54.9298 27.4647 54.9298C42.6331 54.9298 54.9295 42.6334 54.9295 27.465C54.9295 12.2966 42.6331 0 27.4647 0V0Z" fill="#3A7190"/>
<path d="M27.4647 50.7042C40.2995 50.7042 50.7042 40.2996 50.7042 27.4648C50.7042 14.63 40.2995 4.22534 27.4647 4.22534C14.6299 4.22534 4.22528 14.63 4.22528 27.4648C4.22528 40.2996 14.6299 50.7042 27.4647 50.7042Z" fill="#F3F3F3"/>
<path d="M27.4647 4.22534C26.7524 4.22534 26.0482 4.25938 25.352 4.32241C37.1798 5.39347 46.4788 15.3627 46.4788 27.4648C46.4788 39.5669 37.1798 49.5361 25.352 50.6072C26.0482 50.6702 26.7524 50.7042 27.4647 50.7042C40.279 50.7042 50.7042 40.279 50.7042 27.4648C50.7042 14.6506 40.2791 4.22534 27.4647 4.22534V4.22534Z" fill="#E4E4E4"/>
<path d="M23.5915 27.9578H15.1408V15.5634C15.1408 15.2522 15.393 15 15.7042 15H23.0281C23.3393 15 23.5915 15.2522 23.5915 15.5634V27.9578Z" fill="#29CEF6"/>
<path d="M19.3662 15V27.9578H23.5915V15.5634C23.5915 15.2522 23.3393 15 23.0281 15H19.3662Z" fill="#22B5ED"/>
<path d="M40.493 27.9577H32.0422V20.9155C32.0422 20.6043 32.2945 20.3521 32.6057 20.3521H39.9295C40.2407 20.3521 40.493 20.6043 40.493 20.9155V27.9577Z" fill="#7BE492"/>
<path d="M36.2676 20.3521V27.9577H40.4929V20.9155C40.4929 20.6043 40.2407 20.3521 39.9295 20.3521H36.2676Z" fill="#45D987"/>
<path d="M32.0422 27.9577H23.5915V10.2112C23.5915 9.90007 23.8437 9.64783 24.1549 9.64783H31.4788C31.79 9.64783 32.0422 9.90007 32.0422 10.2112V27.9577Z" fill="#F78E36"/>
<path d="M27.8169 9.64783V27.9577H32.0422V10.2112C32.0422 9.90007 31.79 9.64783 31.4788 9.64783H27.8169Z" fill="#F86F1B"/>
<path d="M42.9632 26.9324H12.6707C12.1043 26.9324 11.6453 27.3913 11.6453 27.9578C11.6453 28.5242 12.1043 28.9832 12.6707 28.9832H42.9632C43.5296 28.9832 43.9886 28.5242 43.9886 27.9578C43.9886 27.3913 43.5296 26.9324 42.9632 26.9324Z" fill="#43809F"/>
<path d="M39.6479 37.9962H34.6537L32.3869 32.2013C32.232 31.8053 31.8457 31.5461 31.4229 31.5495C30.9974 31.5533 30.6184 31.8195 30.4705 32.2184L27.3534 40.6238L25.1673 34.4274C25.0333 34.0473 24.6891 33.781 24.2874 33.7468C23.8852 33.7114 23.5015 33.9166 23.3049 34.2685L21.2238 37.996H16.2457C15.6793 37.996 15.2203 38.455 15.2203 39.0214C15.2203 39.5879 15.6793 40.0468 16.2457 40.0468H21.8256C22.1972 40.0468 22.5398 39.8457 22.721 39.5213L23.9885 37.2508L26.3622 43.9787C26.5058 44.386 26.8891 44.6594 27.321 44.663H27.3294C27.7577 44.663 28.1415 44.3964 28.2906 43.994L31.4573 35.4548L32.9986 39.3949C33.1524 39.788 33.5312 40.0468 33.9534 40.0468H39.6475C40.2139 40.0468 40.6729 39.5879 40.6729 39.0214C40.6729 38.455 40.2143 37.9962 39.6479 37.9962V37.9962Z" fill="#29CEF6"/>
</g>
<defs>
<clipPath id="clip0_9_408">
<rect width="70" height="70" fill="white"/>
</clipPath>
</defs>
</svg>
