<?xml version="1.0" encoding="utf-8"?>
<!-- Generator: Adobe Illustrator 27.5.0, SVG Export Plug-In . SVG Version: 6.00 Build 0)  -->
<svg version="1.1" xmlns="http://www.w3.org/2000/svg" xmlns:xlink="http://www.w3.org/1999/xlink" x="0px" y="0px"
	 viewBox="0 0 500 500" style="enable-background:new 0 0 500 500;" xml:space="preserve">
<g id="Background_Complete">
	<g>
		<g>
			<g>
				<rect x="237.478" y="31.101" style="fill:#E0E0E0;" width="232.151" height="304.796"/>
			</g>
		</g>
		<g>
			<g>
				<rect x="251.374" y="36.021" style="fill:#EBEBEB;" width="207.323" height="297.104"/>
			</g>
		</g>
		<g>
			<g>
				<g>
					<rect x="279.115" y="133.948" style="fill:#E0E0E0;" width="82.39" height="198.914"/>
				</g>
			</g>
			<g>
				<g>
					<rect x="292.358" y="158.168" style="fill:#FAFAFA;" width="13.01" height="13.01"/>
				</g>
			</g>
			<g>
				<g>
					<rect x="313.805" y="158.168" style="fill:#FAFAFA;" width="13.01" height="13.01"/>
				</g>
			</g>
			<g>
				<g>
					<rect x="335.253" y="158.168" style="fill:#FAFAFA;" width="13.01" height="13.01"/>
				</g>
			</g>
			<g>
				<g>
					<rect x="292.358" y="177.768" style="fill:#FAFAFA;" width="13.01" height="13.01"/>
				</g>
			</g>
			<g>
				<g>
					<rect x="313.805" y="177.768" style="fill:#FAFAFA;" width="13.01" height="13.01"/>
				</g>
			</g>
			<g>
				<g>
					<rect x="335.253" y="177.768" style="fill:#FAFAFA;" width="13.01" height="13.01"/>
				</g>
			</g>
			<g>
				<g>
					<rect x="292.358" y="197.368" style="fill:#FAFAFA;" width="13.01" height="13.01"/>
				</g>
			</g>
			<g>
				<g>
					<rect x="313.805" y="197.368" style="fill:#FAFAFA;" width="13.01" height="13.01"/>
				</g>
			</g>
			<g>
				<g>
					<rect x="335.253" y="197.368" style="fill:#FAFAFA;" width="13.01" height="13.01"/>
				</g>
			</g>
			<g>
				<g>
					<rect x="292.358" y="216.968" style="fill:#FAFAFA;" width="13.01" height="13.01"/>
				</g>
			</g>
			<g>
				<g>
					<rect x="313.805" y="216.968" style="fill:#FAFAFA;" width="13.01" height="13.01"/>
				</g>
			</g>
			<g>
				<g>
					<rect x="335.253" y="216.968" style="fill:#FAFAFA;" width="13.01" height="13.01"/>
				</g>
			</g>
			<g>
				<g>
					<rect x="292.358" y="236.568" style="fill:#FAFAFA;" width="13.01" height="13.01"/>
				</g>
			</g>
			<g>
				<g>
					<rect x="313.805" y="236.568" style="fill:#FAFAFA;" width="13.01" height="13.01"/>
				</g>
			</g>
			<g>
				<g>
					<rect x="335.253" y="236.568" style="fill:#FAFAFA;" width="13.01" height="13.01"/>
				</g>
			</g>
			<g>
				<g>
					<rect x="292.358" y="256.168" style="fill:#FAFAFA;" width="13.01" height="13.01"/>
				</g>
			</g>
			<g>
				<g>
					<rect x="313.805" y="256.168" style="fill:#FAFAFA;" width="13.01" height="13.01"/>
				</g>
			</g>
			<g>
				<g>
					<rect x="335.253" y="256.168" style="fill:#FAFAFA;" width="13.01" height="13.01"/>
				</g>
			</g>
			<g>
				<g>
					<rect x="292.358" y="275.768" style="fill:#FAFAFA;" width="13.01" height="13.01"/>
				</g>
			</g>
			<g>
				<g>
					<rect x="313.805" y="275.768" style="fill:#FAFAFA;" width="13.01" height="13.01"/>
				</g>
			</g>
			<g>
				<g>
					<rect x="335.253" y="275.768" style="fill:#FAFAFA;" width="13.01" height="13.01"/>
				</g>
			</g>
			<g>
				<g>
					<rect x="292.358" y="295.368" style="fill:#FAFAFA;" width="13.01" height="13.01"/>
				</g>
			</g>
			<g>
				<g>
					<rect x="313.805" y="295.368" style="fill:#FAFAFA;" width="13.01" height="13.01"/>
				</g>
			</g>
			<g>
				<g>
					<rect x="335.253" y="295.368" style="fill:#FAFAFA;" width="13.01" height="13.01"/>
				</g>
			</g>
			<g>
				<g>
					<rect x="292.358" y="314.968" style="fill:#FAFAFA;" width="13.01" height="13.01"/>
				</g>
			</g>
			<g>
				<g>
					<rect x="313.805" y="314.968" style="fill:#FAFAFA;" width="13.01" height="13.01"/>
				</g>
			</g>
			<g>
				<g>
					<rect x="335.253" y="314.968" style="fill:#FAFAFA;" width="13.01" height="13.01"/>
				</g>
			</g>
		</g>
		<g>
			<g>
				<g>
					<rect x="354.312" y="198.199" style="fill:#E0E0E0;" width="56.137" height="135.533"/>
				</g>
			</g>
			<g>
				<g>
					<rect x="363.335" y="214.702" style="fill:#FAFAFA;" width="8.865" height="8.865"/>
				</g>
			</g>
			<g>
				<g>
					<rect x="377.949" y="214.702" style="fill:#FAFAFA;" width="8.864" height="8.865"/>
				</g>
			</g>
			<g>
				<g>
					<rect x="392.563" y="214.702" style="fill:#FAFAFA;" width="8.865" height="8.865"/>
				</g>
			</g>
			<g>
				<g>
					<rect x="363.335" y="228.057" style="fill:#FAFAFA;" width="8.865" height="8.865"/>
				</g>
			</g>
			<g>
				<g>
					<rect x="377.949" y="228.057" style="fill:#FAFAFA;" width="8.864" height="8.865"/>
				</g>
			</g>
			<g>
				<g>
					<rect x="392.563" y="228.057" style="fill:#FAFAFA;" width="8.865" height="8.865"/>
				</g>
			</g>
			<g>
				<g>
					<rect x="363.335" y="241.411" style="fill:#FAFAFA;" width="8.865" height="8.865"/>
				</g>
			</g>
			<g>
				<g>
					<rect x="377.949" y="241.411" style="fill:#FAFAFA;" width="8.864" height="8.865"/>
				</g>
			</g>
			<g>
				<g>
					<rect x="392.563" y="241.411" style="fill:#FAFAFA;" width="8.865" height="8.865"/>
				</g>
			</g>
			<g>
				<g>
					<rect x="363.335" y="254.766" style="fill:#FAFAFA;" width="8.865" height="8.865"/>
				</g>
			</g>
			<g>
				<g>
					<rect x="377.949" y="254.766" style="fill:#FAFAFA;" width="8.864" height="8.865"/>
				</g>
			</g>
			<g>
				<g>
					<rect x="392.563" y="254.766" style="fill:#FAFAFA;" width="8.865" height="8.865"/>
				</g>
			</g>
			<g>
				<g>
					<rect x="363.335" y="268.121" style="fill:#FAFAFA;" width="8.865" height="8.865"/>
				</g>
			</g>
			<g>
				<g>
					<rect x="377.949" y="268.121" style="fill:#FAFAFA;" width="8.864" height="8.865"/>
				</g>
			</g>
			<g>
				<g>
					<rect x="392.563" y="268.121" style="fill:#FAFAFA;" width="8.865" height="8.865"/>
				</g>
			</g>
			<g>
				<g>
					<rect x="363.335" y="281.476" style="fill:#FAFAFA;" width="8.865" height="8.865"/>
				</g>
			</g>
			<g>
				<g>
					<rect x="377.949" y="281.476" style="fill:#FAFAFA;" width="8.864" height="8.865"/>
				</g>
			</g>
			<g>
				<g>
					<rect x="392.563" y="281.476" style="fill:#FAFAFA;" width="8.865" height="8.865"/>
				</g>
			</g>
			<g>
				<g>
					<rect x="363.335" y="294.831" style="fill:#FAFAFA;" width="8.865" height="8.865"/>
				</g>
			</g>
			<g>
				<g>
					<rect x="377.949" y="294.831" style="fill:#FAFAFA;" width="8.864" height="8.865"/>
				</g>
			</g>
			<g>
				<g>
					<rect x="392.563" y="294.831" style="fill:#FAFAFA;" width="8.865" height="8.865"/>
				</g>
			</g>
			<g>
				<g>
					<rect x="363.335" y="308.185" style="fill:#FAFAFA;" width="8.865" height="8.865"/>
				</g>
			</g>
			<g>
				<g>
					<rect x="377.949" y="308.185" style="fill:#FAFAFA;" width="8.864" height="8.865"/>
				</g>
			</g>
			<g>
				<g>
					<rect x="392.563" y="308.185" style="fill:#FAFAFA;" width="8.865" height="8.865"/>
				</g>
			</g>
			<g>
				<g>
					<rect x="363.335" y="321.54" style="fill:#FAFAFA;" width="8.865" height="8.865"/>
				</g>
			</g>
			<g>
				<g>
					<rect x="377.949" y="321.54" style="fill:#FAFAFA;" width="8.864" height="8.865"/>
				</g>
			</g>
			<g>
				<g>
					<rect x="392.563" y="321.54" style="fill:#FAFAFA;" width="8.865" height="8.865"/>
				</g>
			</g>
		</g>
		<g>
			<g>
				<g>
					<rect x="424.206" y="253.784" style="fill:#E0E0E0;" width="32.501" height="78.467"/>
				</g>
			</g>
			<g>
				<g>
					<rect x="429.43" y="263.338" style="fill:#FAFAFA;" width="5.132" height="5.132"/>
				</g>
			</g>
			<g>
				<g>
					<rect x="437.891" y="263.338" style="fill:#FAFAFA;" width="5.132" height="5.132"/>
				</g>
			</g>
			<g>
				<g>
					<rect x="446.352" y="263.338" style="fill:#FAFAFA;" width="5.132" height="5.132"/>
				</g>
			</g>
			<g>
				<g>
					<rect x="429.43" y="271.07" style="fill:#FAFAFA;" width="5.132" height="5.132"/>
				</g>
			</g>
			<g>
				<g>
					<rect x="437.891" y="271.07" style="fill:#FAFAFA;" width="5.132" height="5.132"/>
				</g>
			</g>
			<g>
				<g>
					<rect x="446.352" y="271.07" style="fill:#FAFAFA;" width="5.132" height="5.132"/>
				</g>
			</g>
			<g>
				<g>
					<rect x="429.43" y="278.802" style="fill:#FAFAFA;" width="5.132" height="5.132"/>
				</g>
			</g>
			<g>
				<g>
					<rect x="437.891" y="278.802" style="fill:#FAFAFA;" width="5.132" height="5.132"/>
				</g>
			</g>
			<g>
				<g>
					<rect x="446.352" y="278.802" style="fill:#FAFAFA;" width="5.132" height="5.132"/>
				</g>
			</g>
			<g>
				<g>
					<rect x="429.43" y="286.534" style="fill:#FAFAFA;" width="5.132" height="5.132"/>
				</g>
			</g>
			<g>
				<g>
					<rect x="437.891" y="286.534" style="fill:#FAFAFA;" width="5.132" height="5.132"/>
				</g>
			</g>
			<g>
				<g>
					<rect x="446.352" y="286.534" style="fill:#FAFAFA;" width="5.132" height="5.132"/>
				</g>
			</g>
			<g>
				<g>
					<rect x="429.43" y="294.266" style="fill:#FAFAFA;" width="5.132" height="5.132"/>
				</g>
			</g>
			<g>
				<g>
					<rect x="437.891" y="294.266" style="fill:#FAFAFA;" width="5.132" height="5.132"/>
				</g>
			</g>
			<g>
				<g>
					<rect x="446.352" y="294.266" style="fill:#FAFAFA;" width="5.132" height="5.132"/>
				</g>
			</g>
			<g>
				<g>
					<rect x="429.43" y="301.997" style="fill:#FAFAFA;" width="5.132" height="5.132"/>
				</g>
			</g>
			<g>
				<g>
					<rect x="437.891" y="301.997" style="fill:#FAFAFA;" width="5.132" height="5.132"/>
				</g>
			</g>
			<g>
				<g>
					<rect x="446.352" y="301.997" style="fill:#FAFAFA;" width="5.132" height="5.132"/>
				</g>
			</g>
			<g>
				<g>
					<rect x="429.43" y="309.729" style="fill:#FAFAFA;" width="5.132" height="5.132"/>
				</g>
			</g>
			<g>
				<g>
					<rect x="437.891" y="309.729" style="fill:#FAFAFA;" width="5.132" height="5.132"/>
				</g>
			</g>
			<g>
				<g>
					<rect x="446.352" y="309.729" style="fill:#FAFAFA;" width="5.132" height="5.132"/>
				</g>
			</g>
			<g>
				<g>
					<rect x="429.43" y="317.461" style="fill:#FAFAFA;" width="5.132" height="5.132"/>
				</g>
			</g>
			<g>
				<g>
					<rect x="437.891" y="317.461" style="fill:#FAFAFA;" width="5.132" height="5.132"/>
				</g>
			</g>
			<g>
				<g>
					<rect x="446.352" y="317.461" style="fill:#FAFAFA;" width="5.132" height="5.132"/>
				</g>
			</g>
			<g>
				<g>
					<rect x="429.43" y="325.193" style="fill:#FAFAFA;" width="5.132" height="5.132"/>
				</g>
			</g>
			<g>
				<g>
					<rect x="437.891" y="325.193" style="fill:#FAFAFA;" width="5.132" height="5.132"/>
				</g>
			</g>
			<g>
				<g>
					<rect x="446.352" y="325.193" style="fill:#FAFAFA;" width="5.132" height="5.132"/>
				</g>
			</g>
		</g>
		<g>
			<g>
				<path style="fill:#FAFAFA;" d="M427.064,151.108c-19.998,0-36.209-16.211-36.209-36.209c0-7.835,2.497-15.083,6.727-21.009
					c-9.198,6.566-15.201,17.32-15.201,29.482c0,19.998,16.211,36.209,36.209,36.209c12.163,0,22.916-6.003,29.482-15.201
					C442.147,148.611,434.899,151.108,427.064,151.108z"/>
			</g>
		</g>
		<g>
			<g>
				<g>
					<polygon style="fill:#E0E0E0;" points="482.956,31.101 227.116,31.101 230.985,25.229 477.408,25.229 					"/>
				</g>
			</g>
			<g>
				<g>
					<polygon style="fill:#E0E0E0;" points="482.956,43.187 227.116,43.187 230.985,37.315 477.408,37.315 					"/>
				</g>
			</g>
			<g>
				<g>
					<polygon style="fill:#E0E0E0;" points="482.956,55.273 227.116,55.273 230.985,49.401 477.408,49.401 					"/>
				</g>
			</g>
			<g>
				<g>
					<polygon style="fill:#E0E0E0;" points="482.956,67.36 227.116,67.36 230.985,61.487 477.408,61.487 					"/>
				</g>
			</g>
			<g>
				<g>
					<polygon style="fill:#E0E0E0;" points="482.956,79.446 227.116,79.446 230.985,73.573 477.408,73.573 					"/>
				</g>
			</g>
			<g>
				<g>
					<polygon style="fill:#E0E0E0;" points="482.956,91.532 227.116,91.532 230.985,85.66 477.408,85.66 					"/>
				</g>
			</g>
			<g>
				<g>
					<polygon style="fill:#E0E0E0;" points="482.956,103.618 227.116,103.618 230.985,97.746 477.408,97.746 					"/>
				</g>
			</g>
			<g>
				<g>
					<polygon style="fill:#E0E0E0;" points="482.956,115.704 227.116,115.704 230.985,109.832 477.408,109.832 					"/>
				</g>
			</g>
			<g>
				<g>
					<polygon style="fill:#E0E0E0;" points="482.956,127.791 227.116,127.791 230.985,121.918 477.408,121.918 					"/>
				</g>
			</g>
		</g>
		<g>
			<g>
				<g>
					<rect x="249.2" y="332.251" style="fill:#E0E0E0;" width="235.647" height="13.71"/>
				</g>
			</g>
			<g>
				<g>
					<rect x="221.061" y="332.251" style="fill:#F5F5F5;" width="235.647" height="13.71"/>
				</g>
			</g>
		</g>
	</g>
	<g>
		<g>
			<g>
				<g>
					<path style="fill:#EBEBEB;" d="M121.519,358.198c7.028-3.626,15.303-4.097,23.105-2.808c4.192,0.693,8.561,1.947,11.414,5.095
						c2.852,3.149,3.393,8.689,0.118,11.395c-1.95,1.61-4.668,1.855-7.197,1.826c-6.107-0.071-12.884-1.147-17.764,2.528
						c-2.784,2.096-4.637,5.582-7.965,6.613c-3.256,1.009-6.931-0.913-8.658-3.852c-1.727-2.939-1.784-6.613-0.979-9.925
						C113.592,369.071,114.44,361.851,121.519,358.198z"/>
				</g>
			</g>
			<g>
				<g>
					<path style="fill:#EBEBEB;" d="M103.023,348.402c4.297,6.137,12.649,4.105,16.522,0.359c3.872-3.746,5.509-9.176,6.999-14.354
						c3.404-11.83,6.837-24.241,4.305-36.288c-0.757-3.602-2.104-7.194-4.635-9.866c-2.531-2.672-6.423-4.262-9.981-3.322
						c-4.211,1.113-6.829,5.237-8.72,9.161c-5.56,11.533-8.505,24.319-8.548,37.123C98.945,337.194,99.65,343.465,103.023,348.402"
						/>
				</g>
			</g>
			<g>
				<g>
					<path style="fill:#EBEBEB;" d="M91.222,357.208c4.666-5.538,5.551-13.614,3.475-20.551
						c-2.076-6.938-6.767-12.839-12.172-17.657c-6.338-5.649-13.788-10.044-21.797-12.861c-3.152-1.108-6.477-1.983-9.803-1.665
						c-3.326,0.317-6.675,2.018-8.227,4.977c-2.294,4.375-0.095,9.682,2.284,14.011c4.191,7.627,8.983,14.924,14.316,21.801
						c4.291,5.532,9.206,10.99,15.746,13.49c6.54,2.5,13.333,2.206,16.799-2.329"/>
				</g>
			</g>
			<g>
				<g>
					<g>
						<path style="fill:#E0E0E0;" d="M105.127,419.701c0.08,0.005,0.211-0.99,0.389-2.789c0.198-2.03,0.445-4.579,0.741-7.611
							c0.355-3.203,0.822-7.014,1.712-11.164c0.887-4.14,2.275-8.626,4.058-13.176c1.846-4.523,4.097-8.634,6.728-11.922
							c2.612-3.303,5.65-5.693,8.506-7.072c2.846-1.406,5.399-1.977,7.164-2.231c1.78-0.183,2.776-0.323,2.777-0.402
							c0.001-0.08-0.998-0.092-2.826-0.044c-1.811,0.121-4.469,0.579-7.47,1.944c-3.01,1.335-6.233,3.762-8.973,7.133
							c-2.762,3.357-5.096,7.559-6.974,12.162c-1.814,4.63-3.181,9.163-4.029,13.392c-0.845,4.223-1.231,8.076-1.484,11.305
							c-0.242,3.232-0.333,5.849-0.377,7.658C105.028,418.694,105.049,419.697,105.127,419.701z"/>
					</g>
				</g>
			</g>
			<g>
				<g>
					<g>
						<path style="fill:#E0E0E0;" d="M103.257,435.129c0.04-0.002,0.064-0.448,0.075-1.295c-0.003-0.972-0.006-2.197-0.01-3.701
							c-0.009-3.211-0.007-7.859,0.165-13.598c0.284-11.478,1.272-23.831,3.181-41.246c1.808-16.376,4.234-35.434,6.794-47.825
							c0.549-2.818,1.102-5.354,1.623-7.574c0.496-2.226,0.92-4.145,1.329-5.697c0.351-1.462,0.637-2.652,0.865-3.597
							c0.186-0.826,0.264-1.266,0.226-1.277c-0.038-0.011-0.192,0.407-0.45,1.213c-0.282,0.931-0.638,2.105-1.074,3.546
							c-0.477,1.538-0.965,3.445-1.522,5.661c-0.581,2.211-1.191,4.741-1.792,7.555c-2.533,11.227-5.215,26.919-7.143,44.377
							c-1.913,17.452-2.774,33.342-2.85,44.849c-0.068,5.753,0.054,10.411,0.201,13.624c0.092,1.503,0.167,2.727,0.226,3.698
							C103.164,434.689,103.217,435.131,103.257,435.129z"/>
					</g>
				</g>
			</g>
			<g>
				<g>
					<g>
						<path style="fill:#E0E0E0;" d="M103.333,404.482c0.08-0.003,0.066-1.376-0.027-3.866c-0.142-2.484-0.484-6.075-1.184-10.473
							c-0.742-4.388-1.778-9.598-3.406-15.259c-0.705-2.588-2.364-8.789-6.381-18.056c-5.293-12.556-12.483-22.82-18.739-29.179
							c-1.467-1.687-3.101-2.905-4.408-4.098c-0.676-0.572-1.274-1.142-1.883-1.594c-0.612-0.422-1.182-0.815-1.71-1.179
							c-2.059-1.408-3.212-2.15-3.255-2.083c-0.185,0.251,4.611,3.074,10.667,9.517c6.032,6.429,13.021,16.623,18.271,29.073
							c2.927,6.753,4.969,12.776,6.417,17.89c1.673,5.606,2.785,10.764,3.624,15.107c0.798,4.354,1.26,7.909,1.539,10.37
							C103.089,403.118,103.254,404.484,103.333,404.482z"/>
					</g>
				</g>
			</g>
		</g>
		<g>
			<g>
				<polygon style="fill:#E0E0E0;" points="72.484,415.198 75.745,459.872 133.136,459.872 136.397,415.198 				"/>
			</g>
		</g>
		<g>
			<g>
				<rect x="66.94" y="397.589" style="fill:#E0E0E0;" width="76.305" height="17.609"/>
			</g>
		</g>
		<g>
			<g>
				<polygon style="fill:#EBEBEB;" points="66.94,458.163 66.94,463.044 70.526,463.044 141.984,463.044 141.984,458.163 				"/>
			</g>
		</g>
		<g>
			<g>
				<polygon style="fill:#E0E0E0;" points="74.04,471.634 70.526,463.044 139.251,463.044 135.151,471.634 				"/>
			</g>
		</g>
		<g>
			<g>
				<g>
					<path style="fill:#F5F5F5;" d="M135.331,429.799c0.013,0.011-0.078,0.15-0.268,0.41c-0.228,0.302-0.51,0.677-0.857,1.138
						c-0.815,1.043-1.935,2.476-3.343,4.278l-0.149,0.19l-0.144-0.199c-2.102-2.906-4.909-6.789-8.214-11.36h0.473
						c-2.443,3.46-5.165,7.313-8.087,11.451l-0.254,0.359l-0.284-0.338c-2.984-3.551-6.226-7.407-9.591-11.411l0.553-0.007
						c-0.167,0.209-0.347,0.436-0.528,0.663c-2.974,3.729-5.853,7.338-8.576,10.751l-0.286,0.358l-0.264-0.373
						c-2.911-4.12-5.632-7.968-8.091-11.448l0.47,0.022c-3.987,4.543-7.369,8.396-9.964,11.353l-0.177,0.202l-0.135-0.227
						c-1.314-2.207-2.361-3.966-3.12-5.242c-0.326-0.569-0.59-1.029-0.8-1.396c-0.176-0.319-0.26-0.488-0.245-0.498
						c0.015-0.009,0.129,0.142,0.334,0.443c0.233,0.353,0.525,0.796,0.886,1.343c0.797,1.252,1.896,2.98,3.275,5.146l-0.312-0.025
						c2.554-2.993,5.881-6.893,9.804-11.491l0.247-0.29l0.224,0.312c2.482,3.464,5.226,7.296,8.163,11.396l-0.549-0.015
						c2.716-3.418,5.588-7.033,8.555-10.767c0.181-0.227,0.361-0.454,0.528-0.663l0.273-0.342l0.28,0.335
						c3.356,4.011,6.588,7.875,9.564,11.433l-0.537,0.021c2.951-4.117,5.7-7.951,8.167-11.393l0.24-0.334l0.234,0.334
						c3.235,4.621,5.983,8.546,8.04,11.483l-0.292-0.009c1.465-1.757,2.63-3.153,3.478-4.17c0.378-0.437,0.684-0.792,0.932-1.078
						C135.202,429.907,135.318,429.788,135.331,429.799z"/>
				</g>
			</g>
		</g>
		<g>
			<g>
				<g>
					<path style="fill:#F5F5F5;" d="M137.196,414.903c0,0.197-14.38,0.357-32.115,0.357c-17.741,0-32.119-0.16-32.119-0.357
						c0-0.197,14.377-0.357,32.119-0.357C122.815,414.546,137.196,414.706,137.196,414.903z"/>
				</g>
			</g>
		</g>
		<g>
			<g>
				<g>
					<path style="fill:#F5F5F5;" d="M140.095,463.525c0,0.197-15.629,0.357-34.903,0.357c-19.282,0-34.907-0.16-34.907-0.357
						c0-0.197,15.625-0.357,34.907-0.357C124.466,463.168,140.095,463.328,140.095,463.525z"/>
				</g>
			</g>
		</g>
	</g>
</g>
<g id="Background_Simple" style="display:none;">
	<path style="display:inline;fill:#F5F5F5;" d="M443.457,138.395l-2.249-3.706c-18.961-31.246-53.243-50.081-89.387-47.795
		c-4.646,0.294-9.272,0.923-13.837,1.9c-32.862,7.034-61.456,31.885-73.309,63.712c-6.97,18.718-8.918,40.269-22.146,55.126
		c-17.215,19.336-46.443,19.943-72.139,19.142c-25.696-0.801-54.943-0.118-72.075,19.295
		c-10.729,12.158-14.139,29.447-13.274,45.728c2.291,43.106,32.328,81.649,70.527,100.807
		c38.199,19.158,83.175,20.874,124.982,12.446c58.567-11.806,114.263-44.228,147.741-94.305
		C461.77,260.668,470.243,192.444,443.457,138.395z"/>
</g>
<g id="Desk">
	<g>
		<path style="fill:#263238;" d="M460.878,471.582c0,0.144-92.167,0.26-205.834,0.26c-113.706,0-205.853-0.117-205.853-0.26
			c0-0.144,92.147-0.26,205.853-0.26C368.711,471.322,460.878,471.439,460.878,471.582z"/>
	</g>
</g>
<g id="Mosquito">
	<g>
		<g>
			<g>
				
					<ellipse transform="matrix(0.7071 -0.7071 0.7071 0.7071 -75.85 125.7694)" style="fill:#FFBF9D;" cx="113.892" cy="154.444" rx="92.14" ry="92.14"/>
				<g>
					<path style="fill:#FF9A6C;" d="M119.688,179.671c-0.027,0.035-0.561-0.36-1.552-1.023c-0.989-0.666-2.472-1.559-4.403-2.454
						c-3.823-1.802-9.697-3.405-16.175-2.718c-6.48,0.694-11.884,3.5-15.241,6.068c-1.699,1.282-2.96,2.468-3.786,3.327
						c-0.829,0.857-1.267,1.356-1.301,1.327c-0.014-0.011,0.08-0.148,0.273-0.398c0.199-0.244,0.471-0.627,0.879-1.067
						c0.786-0.908,2.021-2.146,3.711-3.482c3.338-2.673,8.811-5.587,15.41-6.294c6.598-0.7,12.561,0.994,16.388,2.903
						c1.934,0.949,3.402,1.899,4.362,2.621c0.493,0.344,0.838,0.661,1.085,0.858C119.578,179.543,119.699,179.656,119.688,179.671z"
						/>
				</g>
				<path style="opacity:0.3;fill:#FF725E;" d="M119.146,184.016c0.535,6.857-8.095,13.122-19.276,13.994
					c-11.18,0.872-20.678-3.979-21.212-10.836c-0.535-6.857,8.095-13.122,19.276-13.994
					C109.114,172.308,118.611,177.159,119.146,184.016z"/>
				<path style="opacity:0.7;fill:#FF725E;" d="M100.922,176.322c0.054,0.696-1.203,1.361-2.808,1.486
					c-1.605,0.125-2.95-0.337-3.005-1.033c-0.054-0.695,1.203-1.361,2.808-1.486S100.868,175.626,100.922,176.322z"/>
				<g>
					<g>
						<path style="fill:none;" d="M81.093,155.68c-0.302,1.371-0.589,2.745-0.882,4.119l-0.614,2.965
							c-0.208,0.987-0.411,1.977-0.383,3.011c0.002,0.06-0.02,0.113-0.029,0.17c1.555-0.94,3.048-1.962,4.353-3.207
							c0.507-0.461,1.036-0.9,1.452-1.447l0.663-0.779l0.331-0.389c0.117-0.124,0.223-0.258,0.229-0.468
							c0.016-0.202,0.092-0.354,0.207-0.477l0.308-0.398c0.211-0.262,0.432-0.518,0.662-0.771c0.419-0.53,0.793-1.1,1.158-1.677
							c1.226-2.342,1.836-4.973,1.952-7.616c-0.517,0.543-1.046,1.075-1.599,1.586C86.546,152.483,83.974,154.329,81.093,155.68z"/>
						<path style="fill:none;" d="M93.31,100.737c-0.055-0.055-0.109-0.104-0.085-0.07C93.225,100.667,93.292,100.725,93.31,100.737
							z"/>
						<path style="fill:none;" d="M89.94,135.222l0.286,1.503c0.451-0.415,0.904-0.828,1.356-1.242
							c-0.643-1.467-0.824-3.013-0.572-4.578c0.244-1.514,1.254-2.641,2.821-3.186c-0.672-1.046-1.131-2.237-1.246-3.857
							c-0.543-0.135-1.085-0.27-1.636-0.365c-0.806-0.145-1.65-0.148-2.458-0.172l-0.159-0.002c-0.057,0.128-0.09,0.256-0.066,0.38
							l0.041,0.598l0.111,1.209c0.157,1.621,0.4,3.245,0.653,4.865C89.335,131.994,89.641,133.607,89.94,135.222z"/>
						<path style="fill:none;" d="M87.569,123.331c0.04,0,0.099-0.005,0.16-0.018C87.604,123.314,87.492,123.321,87.569,123.331z"/>
						<path style="fill:none;" d="M106.159,105.736c0.038,0.023,0.078,0.038,0.116,0.062c0.112-0.071,0.253-0.151,0.393-0.229
							l-0.503,0.154C106.163,105.728,106.161,105.732,106.159,105.736z"/>
						<path style="fill:none;" d="M108.18,105.106c-0.001,0-0.003,0.001-0.004,0.001l-0.143,0.044
							c-0.331,0.103-0.701,0.263-0.966,0.516c-0.131,0.125-0.241,0.267-0.335,0.399c0.061,0.036,0.123,0.074,0.184,0.109l0.211-0.14
							l0.779-0.425c0,0-0.127,0.119-0.268,0.259c0.1-0.051,0.193-0.116,0.302-0.144c-0.123,0.037-0.226,0.112-0.335,0.177
							c-0.167,0.167-0.332,0.354-0.359,0.459c0.042,0.022,0.082,0.038,0.124,0.06c0.022-0.07,0.049-0.138,0.069-0.209
							c-0.018,0.071-0.042,0.141-0.019,0.233c0.19,0.007,0.312,0.098,0.831-0.281c0.382-0.278,0.823-0.707,0.823-0.707
							s-0.3,0.348-0.612,0.669c0.081-0.043,0.161-0.089,0.237-0.136c0.186-0.139,0.336-0.333,0.399-0.557
							c-0.058,0.225-0.203,0.425-0.389,0.57c-0.106,0.07-0.211,0.135-0.32,0.198c-0.126,0.127-0.25,0.246-0.354,0.329
							c-0.069,0.056-0.118,0.094-0.111,0.157c0.047-0.026,0.083-0.046,0.138-0.075c0.019-0.039,0.019-0.084,0.039-0.123
							c-0.017,0.038-0.014,0.08-0.029,0.118c0.375-0.198,0.926-0.459,1.413-0.536c-0.154,0.061-0.284,0.129-0.41,0.197
							c0.046-0.018,0.086-0.051,0.134-0.064c-0.13,0.039-0.24,0.117-0.354,0.188c-0.338,0.21-0.538,0.397-0.583,0.44
							c0.032,0.013,0.063,0.025,0.094,0.037c0.135,0.018,0.38,0.016,0.668-0.171l2.929-2.286L108.18,105.106z"/>
						<path style="fill:none;" d="M106.028,105.64c-0.009,0.004-0.019,0.008-0.029,0.011c0.049,0.026,0.098,0.05,0.147,0.079
							c0.027-0.057,0.053-0.114,0.082-0.17C106.157,105.585,106.093,105.613,106.028,105.64z"/>
						<path style="fill:none;" d="M89.397,140.844c-0.073-0.149-0.103-0.313-0.095-0.468c0.017-0.308,0.003-0.609-0.022-0.908
							c-1.299,1.188-2.555,2.415-3.685,3.749c-0.568,0.786-1.158,1.71-1.452,2.364c-0.012,0.073-0.017,0.063-0.047,0.161
							l-0.085,0.311c-0.059,0.194-0.082,0.45-0.316,0.634c-0.557,0.346-0.535,0.879-0.704,1.348
							c-0.543,1.928-1.044,3.885-1.495,5.85c-0.094,0.387-0.174,0.777-0.261,1.165c3.629-1.89,6.711-4.326,9.276-7.265
							c0.005-2.168-0.3-4.301-0.629-6.493C89.679,141.204,89.501,141.057,89.397,140.844z"/>
						<path style="fill:none;" d="M132.722,125.635l0.104-0.014c0.053-0.016,0.033-0.026,0.004-0.028
							c-0.078,0.004-0.189,0.018-0.313,0.035c0.056,0.006,0.118,0.008,0.142,0.008L132.722,125.635z"/>
						<path style="fill:none;" d="M122.002,119.865c-0.244,0.575-0.707,0.856-1.301,1.015c-1.52,0.408-3.063,0.657-4.621,0.883
							c-0.01,0.176-0.02,0.351-0.03,0.527c-0.112,0.171,0.001,0.376-0.083,0.551c-0.028,0.211-0.07,0.413-0.109,0.617
							c0.046,0.029,0.088,0.055,0.139,0.087c0.777,0.724,1.49,1.488,2.482,1.846c0.437,0.287,0.933-0.272,1.223-0.714
							c0.33-0.504,0.686-0.99,1.009-1.498c0.842-1.326,1.679-2.656,2.521-3.982c-0.152,0.027-0.304,0.056-0.456,0.082
							C122.412,119.342,122.151,119.514,122.002,119.865z"/>
						<path style="fill:none;" d="M92.976,137.957c-0.224-0.38-0.461-0.753-0.689-1.131c-0.587,0.497-1.165,1.002-1.744,1.507
							c0.127,0.572,0.288,1.138,0.553,1.681c0.198,0.406,0.066,0.871-0.272,1.141c0.279,1.846,0.509,3.751,0.532,5.663
							c1.616-2.011,2.996-4.25,4.172-6.684C94.499,139.689,93.609,139.029,92.976,137.957z"/>
						<path style="fill:none;" d="M95.103,102.777l-0.119-0.139l0.181,3.059c0.066,1.169,0.151,2.337,0.241,3.505
							c0.57-0.978,1.323-1.809,2.383-2.479c-0.299-0.472-0.582-0.955-0.886-1.424C96.351,104.426,95.779,103.566,95.103,102.777z"/>
						<path style="fill:none;" d="M109.639,131.239c-0.875,0.411-1.798,0.732-2.747,0.949c-0.948,0.217-2.954,0.294-4.18,0.322
							c0.299,0.759,0.481,1.56,0.526,2.391c0.154,2.822-1.644,5.24-4.127,5.759c0.097,1.206,0.277,2.407,0.484,3.605
							c0.073,0.422,0.053,0.788-0.3,1.071c-0.183,0.147-0.196,0.336-0.157,0.536c0.876,4.5,2.304,8.781,5.047,12.526
							c2.15,2.936,4.876,5.162,7.991,6.903l-0.01-0.079l-0.662-5.376c-0.23-1.791-0.481-3.58-0.742-5.37l-0.187-1.345
							c0.023-0.46-0.545-0.854-0.558-1.32l-0.022-0.346l-0.011-0.173c-0.009-0.165,0.001-0.268,0.007-0.34
							c0.031-0.3,0.064-0.516,0.116-0.753c0.09-0.462,0.203-0.905,0.33-1.347c1.132-3.494,1.593-7.07,2.001-10.646
							c0.091-0.875,0.197-1.795,0.219-2.602l-0.064-0.075c-0.159-0.198-0.303-0.39-0.44-0.578l-0.798-1.129
							C110.768,132.964,110.208,132.1,109.639,131.239z"/>
						<path style="fill:#263238;" d="M128.626,103.076c-4.18,1.754-14.745,6.053-14.745,6.053
							C117.009,107.889,122.64,105.702,128.626,103.076z"/>
						<path style="fill:#263238;" d="M218.991,153.542c-0.136-0.004-0.274,0.016-0.409,0.039c-1.597,0.272-2.974,0.593-4.588,0.74
							c-3.651,0.333-7.407,0.393-11.03-0.079c-4.587-0.598-8.295-1.505-13.322-3.264c-4.26-1.57-7.867-3.216-11.406-5.322
							c-4.456-2.652-8.742-5.509-12.377-9.398c-3.148-3.367-6.265-6.767-9.416-10.132c-1.443-1.541-2.848-3.122-4.267-4.687
							c-3.137-3.458-6.274-6.915-9.411-10.372c1.162-0.407,2.329-0.799,3.418-1.389c0.202-0.109,0.525-0.167,0.549-0.392
							c0.053-0.487,0.435-0.563,0.748-0.747c0.572-0.336,1.148-0.667,1.71-1.02c0.364-0.229,0.7-0.495,0.968-0.844
							c0.287-0.373,0.215-0.593-0.22-0.759c-0.965-0.369-1.972-0.538-2.992-0.615c-2.256-0.17-4.512-0.156-6.772-0.026
							c-0.776,0.045-1.551,0.1-2.325,0.161c-0.087-0.138-0.19-0.263-0.265-0.41c-0.431-0.844-1.09-1.482-1.797-2.055
							c-0.942-0.764-1.835-0.672-2.659,0.251c-0.614,0.688-1.036,1.518-1.482,2.328c-0.145,0.263-0.286,0.529-0.427,0.794
							c-4.253,0.756-8.484,1.618-12.674,2.702c-1.28,0.331-2.556,0.676-3.829,1.029c-0.252-0.378-0.532-0.683-0.832-0.945
							l-4.847-2.43c-0.288,0.187-0.533,0.189-0.668,0.171c-0.031-0.012-0.062-0.024-0.094-0.037c0.044-0.043,0.245-0.231,0.583-0.44
							c0.114-0.071,0.224-0.149,0.354-0.188c-0.048,0.012-0.088,0.046-0.134,0.064c0.127-0.068,0.256-0.136,0.41-0.197
							c-0.487,0.077-1.038,0.338-1.413,0.536c0.015-0.038,0.012-0.08,0.029-0.118c-0.02,0.039-0.02,0.084-0.039,0.123
							c-0.055,0.029-0.091,0.05-0.138,0.075c-0.007-0.062,0.042-0.101,0.111-0.157c0.104-0.084,0.228-0.202,0.354-0.329
							c0.108-0.063,0.214-0.129,0.32-0.198c0.186-0.145,0.331-0.345,0.389-0.57c-0.063,0.224-0.213,0.418-0.399,0.557
							c-0.076,0.047-0.157,0.093-0.237,0.136c0.312-0.321,0.612-0.669,0.612-0.669s-0.441,0.429-0.823,0.707
							c-0.52,0.379-0.641,0.288-0.831,0.281c-0.023-0.091,0.001-0.161,0.019-0.233c-0.021,0.071-0.047,0.139-0.069,0.209
							c-0.042-0.021-0.082-0.038-0.124-0.06c0.027-0.106,0.192-0.292,0.359-0.459c0.108-0.066,0.212-0.141,0.335-0.177
							c-0.109,0.028-0.202,0.092-0.302,0.144c0.142-0.14,0.268-0.259,0.268-0.259l-0.779,0.425l-0.211,0.14
							c-0.061-0.035-0.123-0.073-0.184-0.109c0.094-0.132,0.204-0.274,0.335-0.399c0.265-0.253,0.635-0.413,0.966-0.516
							l-1.366,0.419c-0.139,0.078-0.28,0.157-0.393,0.229c-0.038-0.024-0.078-0.039-0.116-0.062
							c0.002-0.004,0.004-0.008,0.005-0.012l-0.018,0.006c-0.048-0.028-0.098-0.052-0.147-0.079c0.009-0.004,0.02-0.008,0.029-0.011
							l-2.254-1.727l-3.026,1.247c-0.529,0.179-1.245,0.502-1.324,0.751c-0.18,0.068-0.337,0.147-0.504,0.221
							c-0.295-0.508-0.596-1.012-0.89-1.522c-0.529-0.892-1.044-1.792-1.475-2.753l-0.679-1.435l-0.372-0.725l-0.227-0.369
							c-0.095-0.136-0.145-0.242-0.363-0.468c-0.021-0.021-0.05-0.052-0.141-0.122l-0.115-0.08
							c-0.059-0.028-0.004-0.028-0.286-0.134c-0.219-0.073-0.483-0.081-0.69-0.033c-0.235,0.029-0.706,0.327-0.851,0.689
							c-0.098,0.224-0.099,0.295-0.101,0.331c-0.015,0.133-0.024,0.27-0.027,0.406l0.004,0.308l0.007,0.199
							c0.002,0.265,0.012,0.535,0.172,0.782c0.145,0.25,0.321,0.497,0.357,0.755l0.084,0.774l0.334,3.091
							c0.233,2.03,0.415,4.064,0.622,6.095c-0.427,1.415-0.76,3.006-1.209,4.758c-0.737,2.878-0.623,3.744-0.604,5.685
							c-0.39-0.1-0.78-0.204-1.165-0.326c-0.792-0.244-1.548-0.624-2.35-0.938c-0.203-0.077-0.404-0.165-0.623-0.229
							c-0.256-0.056-0.363-0.143-0.89-0.158c-0.065,0.003-0.15,0.012-0.223,0.025c-0.05,0.01-0.047,0.005-0.141,0.032
							c-0.103,0.032-0.208,0.077-0.308,0.134c-0.099,0.058-0.191,0.127-0.27,0.201c-0.077,0.074-0.084,0.089-0.126,0.14
							c-0.068,0.086-0.128,0.18-0.177,0.276c-0.057,0.119-0.084,0.2-0.117,0.306l-0.044,0.188c-0.042,0.22-0.051,0.361-0.061,0.502
							c-0.053,0.275,0.074,0.502,0.238,0.718c0.173,0.215,0.279,0.418,0.278,0.633l0.087,0.629l0.199,1.238l0.899,4.882l0.898,4.863
							l0.452,2.345c-1.534,1.403-3.08,2.804-4.667,4.192c-0.415,0.315-0.823,0.644-1.234,0.994
							c-0.412,0.367-0.819,0.696-1.211,1.269c-0.1,0.152-0.223,0.383-0.278,0.522l-0.154,0.408
							c-0.111,0.282-0.213,0.516-0.116,0.818c0.276,0.624,0.016,1.074-0.065,1.583l-1.217,5.964l-0.471,2.267
							c-4.538,2.002-9.26,2.341-14.097,0.818c-0.46-0.145-0.921-0.288-1.45-0.454c0.145,0.233,0.315,0.261,0.461,0.316
							c4.857,1.833,9.72,1.789,14.574,0.002c0.137-0.05,0.269-0.11,0.404-0.162l-0.656,3.154l-0.61,2.971
							c-0.196,0.992-0.395,1.982-0.82,2.93c-0.055,0.124-0.086,0.266-0.082,0.41c0.009,0.329,0.196,0.599,0.456,0.76
							c-0.008,0.063-0.013,0.125-0.021,0.188c-0.357,0.202-0.712,0.406-1.071,0.603c-0.097,0.054-0.131,0.176-0.077,0.273
							c0.054,0.097,0.176,0.131,0.273,0.077c0.264-0.148,0.532-0.289,0.8-0.429c-0.268,1.972-0.619,3.939-1.075,5.872
							c-0.336,1.395-0.73,2.776-1.229,4.113c-0.491,1.353-1.106,2.608-2.046,3.674c-1.843,2.16-4.286,3.787-6.886,4.956
							c-2.623,1.149-5.475,1.761-8.345,1.8c-0.104,0.001-0.19,0.086-0.19,0.19c0,0.105,0.085,0.19,0.19,0.19
							c2.922,0.001,5.843-0.582,8.543-1.72c2.679-1.162,5.203-2.784,7.161-5.012c0.476-0.567,0.942-1.15,1.296-1.819
							c0.359-0.658,0.657-1.325,0.926-2.009c0.542-1.364,0.972-2.763,1.344-4.174c0.56-2.174,0.992-4.367,1.319-6.586
							c0.636-0.331,1.268-0.67,1.872-1.058c1.168-0.774,2.365-1.514,3.415-2.46c0.537-0.455,1.111-0.872,1.584-1.402l0.744-0.758
							c0.27-0.237,0.443-0.55,0.817-0.706c1.066-1,1.531-2.43,2.12-3.707c1.209-2.566,1.896-5.36,2.072-8.182
							c0.015-0.235,0.004-0.471,0.011-0.706c0.963-1.086,1.866-2.224,2.694-3.425c0.148-0.215,0.226-0.407,0.545-0.121
							c0.479,0.43,1.005,0.206,1.237-0.447c0.082-0.23,0.046-0.499,0.266-0.79c-0.266,2.034-0.517,3.97-0.708,5.913
							c-0.383,3.892-0.574,7.789-0.535,11.701c0.032,3.289,0.276,6.555,0.772,9.804c0.282,1.845,0.676,3.667,1.168,5.468
							c0.164,0.597,0.6,0.731,1.102,0.372c0.408-0.292,0.403-0.659,0.284-1.098c-1.32-4.881-1.757-9.877-1.828-14.908
							c-0.05-3.534,0.169-7.06,0.499-10.58c0.228-2.427,0.525-4.845,0.927-7.254c0.261,0.994,0.329,2.011,0.535,3.009
							c0.711,3.442,1.699,6.78,3.34,9.909c2.447,4.666,6.083,8.009,10.593,10.401l0.264,2.158c0.118,0.895,0.213,1.792,0.124,2.714
							c-0.011,0.123,0.003,0.255,0.047,0.379c0.084,0.235,0.259,0.409,0.471,0.502c0.169,2.997,0.123,6.033-0.027,9.048
							c-0.181,3.336-0.508,6.668-1.055,9.963c-0.56,3.289-1.299,6.563-2.49,9.675c-1.193,3.076-2.819,6.136-5.481,8.141
							c-0.083,0.062-0.1,0.18-0.039,0.264c0.062,0.085,0.181,0.103,0.265,0.041c2.789-2.04,4.486-5.15,5.745-8.254
							c1.256-3.144,2.049-6.44,2.664-9.751c0.601-3.317,0.979-6.669,1.211-10.03c0.197-3.076,0.291-6.152,0.156-9.253
							c0.249-0.231,0.351-0.596,0.23-0.936c-0.311-0.87-0.435-1.764-0.536-2.661l-0.159-1.315c0.147,0.069,0.287,0.147,0.436,0.215
							c3.848,1.744,7.902,2.805,12.021,3.65c0.105,0.022,0.233,0.085,0.355-0.057c-0.087-0.022-0.151-0.04-0.217-0.055
							c-4.229-0.939-8.389-2.092-12.31-3.983c-0.113-0.055-0.221-0.115-0.334-0.171l-0.117-0.971
							c-0.209-1.792-0.441-3.582-0.624-5.376c-0.192-1.794-0.359-3.59-0.495-5.388l-0.105-1.346
							c-0.113-0.438,0.355-0.941,0.289-1.374c-0.153-0.56,0.036-1.525,0.011-2.416c-0.045-3.643,0.73-7.181,1.372-10.748
							c0.157-0.906,0.326-1.764,0.424-2.754c0.001-0.161,0.039-0.199-0.017-0.569l-0.02-0.082c-0.026-0.081-0.069-0.173-0.122-0.25
							c0,0-0.086-0.111-0.121-0.166l-0.063-0.096l-0.325-0.539l-0.648-1.16c-0.482-0.889-0.943-1.799-1.412-2.703
							c0.396-0.285,0.772-0.595,1.128-0.928l0.804,0.725l1.216,1.109l0.595,0.556c0.177,0.167,0.424,0.409,0.507,0.499
							c0.033,0.043,0.088,0.104,0.14,0.152c0.108,0.1,0.239,0.181,0.367,0.232c0.126,0.046,0.246,0.071,0.372,0.082l0.186-0.001
							c0.211-0.017,0.306-0.047,0.412-0.073c0.193-0.054,0.348-0.11,0.494-0.167c0.293-0.114,0.558-0.232,0.821-0.352
							c0.523-0.241,1.026-0.49,1.526-0.743c0.997-0.509,1.969-1.046,2.943-1.577l2.927-1.566l2.971-1.454
							c0.968-0.511,2.098-0.746,3.152-0.913c0.039-0.005,0.075-0.01,0.113-0.016c0.043,0.057,0.098,0.125,0.203,0.193
							c0.166,0.098,0.461,0.176,0.686,0.324c0.235,0.144,0.321,0.389,0.445,0.611c0.115,0.232,0.233,0.462,0.34,0.705
							c0.223,0.478,0.427,0.978,0.63,1.479c0.402,1.006,0.778,2.037,1.147,3.073c0.702,2.086,1.412,4.182,2.085,6.291
							c0.677,2.108,1.369,4.214,2.09,6.311c0.674,2.115,1.608,4.133,1.991,6.36c0.023,0.133,0.072,0.27,0.147,0.392
							c0.18,0.297,0.478,0.464,0.797,0.511c4.2,9.574,8.795,19.035,14.451,27.888l2.156,3.477c0.368,0.576,0.757,1.138,1.151,1.696
							c0.195,0.281,0.411,0.546,0.619,0.818c0.117,0.126,0.176,0.297,0.366,0.365c0.192,0.067,0.438,0.09,0.54,0.226
							c1.742,2.095,3.619,4.075,5.602,5.938c3.961,3.692,8.635,6.836,13.958,8.102c0.04,0.009,0.08-0.015,0.09-0.055
							c0.01-0.04-0.015-0.08-0.055-0.09c-5.268-1.331-9.843-4.54-13.669-8.296c-1.932-1.881-3.658-3.963-5.286-6.107
							c-0.107-0.13-0.069-0.375-0.085-0.575c-0.018-0.198-0.168-0.294-0.259-0.436l-0.616-0.795
							c-0.406-0.535-0.829-1.056-1.251-1.58c-0.82-1.066-1.67-2.116-2.417-3.238c-2.975-4.498-5.549-9.26-7.939-14.102
							c-2.213-4.514-4.229-9.121-6.264-13.728c0.223-0.348,0.253-0.803,0.023-1.18c-1.164-1.916-1.714-4.063-2.472-6.131
							c-0.713-2.085-1.399-4.181-2.07-6.283c-0.679-2.101-1.283-4.226-1.949-6.345c-0.628-2.154-1.31-4.208-2.25-6.471
							c-0.05-0.331-0.048-0.723-0.215-1.065c-0.167-0.338-0.488-0.618-0.878-0.919c-0.208-0.147-0.438-0.285-0.732-0.395
							l-0.104-0.04l-0.073-0.025c-0.084-0.024-0.171-0.043-0.259-0.056c-0.08-0.013-0.195-0.02-0.244-0.019l-0.114,0.005
							c-0.068,0.004-0.171,0.015-0.207,0.023c-0.19,0.037-0.303,0.083-0.408,0.122c-0.381,0.152-0.628,0.315-0.882,0.495
							c-0.5,0.34-0.945,0.713-1.407,1.049c-0.465,0.326-0.941,0.619-1.441,0.862l-2.953,1.526l-2.99,1.43l-3.005,1.356
							c-0.498,0.222-0.997,0.44-1.489,0.638c-0.231,0.093-0.461,0.18-0.676,0.252c-0.093-0.091-0.181-0.174-0.281-0.272
							l-0.614-0.579l-1.229-1.131c-0.279-0.255-0.564-0.502-0.844-0.755c0.287-0.41,0.549-0.841,0.777-1.299
							c1.086,0.412,2.186,0.787,3.286,1.16c0.29,0.098,0.606,0.127,0.913,0.158c0.646,0.064,1.144-0.189,1.451-0.801
							c0.93-1.848,2.098-3.542,3.18-5.291c0.549-0.886,1.1-1.771,1.653-2.654c1.46-0.278,2.91-0.601,4.329-1.051
							c0.447-0.142,0.878-0.323,0.863-0.882c-0.011-0.415,0.197-0.545,0.548-0.655c1.505-0.475,3.002-0.976,4.5-1.471
							c0.202-0.067,0.476-0.105,0.505-0.346c0.052-0.443,0.375-0.521,0.7-0.627c0.955-0.31,1.911-0.618,2.864-0.933
							c0.204-0.067,0.471-0.151,0.44-0.403c-0.048-0.389,0.217-0.449,0.459-0.549c0.053-0.022,0.106-0.041,0.159-0.062
							c2.003,2.056,4.009,4.111,5.972,6.21c4.014,4.293,8.029,8.586,12.038,12.885c0.576,0.618,1.105,1.288,1.717,1.863
							c1.962,1.848,5.206,6.215,5.502,5.94c0.296-0.275,7.319,5.357,11.225,7.595c5.523,3.164,11.348,5.433,17.35,7.361
							c1.189,0.382,2.245,0.783,3.495,0.787c0.309,0.001,0.623,0.014,0.926,0.072c3.128,0.59,6.286,0.777,9.458,0.796
							c3.316,0.04,6.599-0.32,9.866-0.872c0.27-0.046,0.537-0.127,0.798-0.216c0.174-0.059,0.294-0.199,0.248-0.407
							C219.339,153.613,219.172,153.547,218.991,153.542z M93.225,100.667c-0.024-0.034,0.03,0.015,0.085,0.07
							C93.292,100.725,93.225,100.667,93.225,100.667z M87.569,123.331c-0.077-0.011,0.034-0.018,0.16-0.018
							C87.668,123.326,87.609,123.331,87.569,123.331z M88.418,125.51l-0.111-1.209l-0.041-0.598
							c-0.024-0.124,0.009-0.252,0.066-0.38l0.159,0.002c0.808,0.025,1.652,0.027,2.458,0.172c0.551,0.095,1.093,0.23,1.636,0.365
							c0.115,1.62,0.573,2.811,1.246,3.857c-1.567,0.545-2.577,1.672-2.821,3.186c-0.252,1.565-0.071,3.111,0.572,4.578
							c-0.451,0.414-0.904,0.828-1.356,1.242l-0.286-1.503c-0.3-1.615-0.605-3.228-0.869-4.847
							C88.818,128.755,88.575,127.131,88.418,125.51z M88.547,156.333c-0.366,0.577-0.739,1.147-1.158,1.677
							c-0.229,0.253-0.45,0.509-0.662,0.771l-0.308,0.398c-0.115,0.123-0.191,0.275-0.207,0.477
							c-0.007,0.21-0.113,0.344-0.229,0.468l-0.331,0.389l-0.663,0.779c-0.416,0.547-0.944,0.986-1.452,1.447
							c-1.305,1.246-2.798,2.267-4.353,3.207c0.009-0.057,0.031-0.11,0.029-0.17c-0.029-1.033,0.174-2.023,0.383-3.011l0.614-2.965
							c0.294-1.373,0.581-2.748,0.882-4.119c2.882-1.351,5.453-3.197,7.807-5.377c0.552-0.512,1.082-1.043,1.599-1.586
							C90.383,151.36,89.773,153.992,88.547,156.333z M81.234,155.048c0.088-0.388,0.168-0.778,0.261-1.165
							c0.45-1.965,0.952-3.922,1.495-5.85c0.17-0.469,0.147-1.002,0.704-1.348c0.234-0.184,0.257-0.44,0.316-0.634l0.085-0.311
							c0.03-0.098,0.035-0.088,0.047-0.161c0.294-0.654,0.884-1.578,1.452-2.364c1.131-1.333,2.386-2.561,3.685-3.749
							c0.025,0.299,0.039,0.6,0.022,0.908c-0.008,0.155,0.022,0.319,0.095,0.468c0.104,0.213,0.283,0.36,0.485,0.446
							c0.329,2.191,0.634,4.325,0.629,6.493C87.946,150.723,84.863,153.158,81.234,155.048z M91.356,146.818
							c-0.022-1.912-0.253-3.817-0.532-5.663c0.339-0.271,0.471-0.736,0.272-1.141c-0.265-0.542-0.426-1.108-0.553-1.681
							c0.578-0.506,1.157-1.011,1.744-1.507c0.228,0.378,0.465,0.751,0.689,1.131c0.633,1.072,1.523,1.732,2.552,2.177
							C94.352,142.567,92.972,144.807,91.356,146.818z M95.406,109.202c-0.089-1.168-0.175-2.336-0.241-3.505l-0.181-3.059
							l0.119,0.139c0.676,0.788,1.248,1.649,1.8,2.522c0.303,0.469,0.587,0.952,0.886,1.424
							C96.729,107.394,95.975,108.224,95.406,109.202z M112.155,134.949c0.137,0.188,0.281,0.38,0.44,0.578l0.064,0.075
							c-0.022,0.807-0.128,1.727-0.219,2.602c-0.407,3.576-0.869,7.152-2.001,10.646c-0.127,0.442-0.239,0.885-0.33,1.347
							c-0.051,0.237-0.085,0.454-0.116,0.753c-0.006,0.072-0.016,0.174-0.007,0.34l0.011,0.173l0.022,0.346
							c0.013,0.466,0.581,0.86,0.558,1.32l0.187,1.345c0.261,1.791,0.512,3.579,0.742,5.37l0.662,5.376l0.01,0.079
							c-3.115-1.741-5.841-3.967-7.991-6.903c-2.743-3.745-4.17-8.026-5.047-12.526c-0.039-0.2-0.027-0.388,0.157-0.536
							c0.352-0.283,0.372-0.649,0.3-1.071c-0.206-1.198-0.387-2.399-0.484-3.605c2.484-0.518,4.281-2.936,4.127-5.759
							c-0.045-0.831-0.227-1.632-0.526-2.391c1.226-0.027,3.232-0.105,4.18-0.322c0.95-0.217,1.872-0.538,2.747-0.949
							c0.569,0.861,1.129,1.725,1.717,2.58L112.155,134.949z M132.831,125.593c0.028,0.002,0.049,0.013-0.004,0.028l-0.104,0.014
							l-0.063,0.002c-0.025,0-0.086-0.002-0.142-0.008C132.642,125.611,132.753,125.597,132.831,125.593z M120.71,123.179
							c-0.323,0.509-0.679,0.994-1.009,1.498c-0.289,0.442-0.786,1.001-1.223,0.714c-0.992-0.359-1.705-1.123-2.482-1.846
							c-0.051-0.032-0.093-0.058-0.139-0.087c0.039-0.204,0.081-0.406,0.109-0.617c0.084-0.175-0.029-0.38,0.083-0.551
							c0.01-0.176,0.02-0.351,0.03-0.527c1.558-0.226,3.101-0.475,4.621-0.883c0.594-0.16,1.058-0.44,1.301-1.015
							c0.149-0.351,0.41-0.523,0.773-0.586c0.152-0.026,0.304-0.055,0.456-0.082C122.389,120.523,121.551,121.852,120.71,123.179z"
							/>
						<path style="fill:#263238;" d="M103.995,103.623c-0.084,0.087-0.142,0.197-0.221,0.29l0.072-0.048
							C103.899,103.786,103.936,103.698,103.995,103.623z"/>
						<polygon style="fill:#263238;" points="108.178,105.106 108.176,105.107 108.18,105.106 						"/>
						<path style="fill:#E0E0E0;" d="M106.229,105.559c-0.029,0.056-0.055,0.113-0.082,0.17l0.018-0.006l0.503-0.154l1.366-0.419
							l0.143-0.044l0.002-0.001l0.002,0l3.783-0.693l-2.929,2.286l4.847,2.43c0,0,10.565-4.299,14.745-6.053
							c5.046-2.213,10.342-4.737,14.613-7.28c6.741-2.237,11.196-4.737,9.34-8.218c-0.155-0.228-0.406-0.364-0.677-0.466
							c-0.002-0.058,0.015-0.119,0.009-0.176c-0.022-0.229-0.182-0.445-0.407-0.565c-2.253-1.2-7.143,0.229-12.532,2.596
							c-14.609,3.811-28.973,11.569-35.134,14.911c0.003-0.004,0.005-0.009,0.008-0.013l-0.072,0.048l2.254,1.727
							C106.093,105.613,106.157,105.585,106.229,105.559z"/>
					</g>
					<path style="fill:#455A64;" d="M99.3,140.192c-0.604,0.107-1.128-0.423-1.439-0.951c-0.653-1.11-0.905-2.492-0.496-3.713
						s1.545-2.216,2.831-2.282c0.579-0.029,1.188,0.138,1.595,0.55c0.385,0.39,0.549,0.95,0.605,1.495
						c0.196,1.904-0.861,3.877-2.554,4.768"/>
					<g>
						<path style="fill:#455A64;" d="M116.416,116.908c0.033-0.003,0.094,0.311,0.145,0.887c0.048,0.575,0.07,1.413-0.002,2.446
							c-0.169,2.035-0.637,4.984-2.471,7.656c-1.889,2.648-4.684,3.958-6.693,4.394c-1.019,0.222-1.865,0.272-2.444,0.247
							c-0.579-0.018-0.895-0.08-0.893-0.11c-0.002-0.104,1.289,0.027,3.248-0.495c1.926-0.513,4.565-1.826,6.356-4.337
							c1.745-2.534,2.275-5.4,2.53-7.39C116.426,118.184,116.327,116.913,116.416,116.908z"/>
					</g>
					<g>
						<path style="fill:#455A64;" d="M121.703,111.307c0.13-0.033,0.697,1.997,0.725,4.578c0.041,2.582-0.472,4.627-0.603,4.597
							c-0.152-0.026,0.123-2.067,0.082-4.59C121.881,113.371,121.552,111.337,121.703,111.307z"/>
					</g>
					<g>
						<path style="fill:#455A64;" d="M129.971,109.526c0.121-0.052,0.851,1.654,0.945,3.91c0.109,2.256-0.463,4.021-0.588,3.979
							c-0.152-0.033,0.175-1.786,0.068-3.956C130.307,111.289,129.823,109.572,129.971,109.526z"/>
					</g>
					<g>
						<path style="fill:#455A64;" d="M135.97,108.453c0.138-0.024,0.486,1.373,0.575,3.137c0.094,1.765-0.109,3.189-0.249,3.18
							c-0.148-0.008-0.179-1.421-0.271-3.153C135.938,109.885,135.824,108.477,135.97,108.453z"/>
					</g>
					<g>
						<path style="fill:#455A64;" d="M140.263,108.301c0.142-0.007,0.307,1.075,0.267,2.417c-0.038,1.342-0.266,2.412-0.407,2.397
							c-0.145-0.015-0.151-1.092-0.114-2.412C140.049,109.383,140.117,108.308,140.263,108.301z"/>
					</g>
					<g>
						<path style="fill:#455A64;" d="M142.404,105.114c0.002,0.037-0.39,0.086-1.096,0.175c-0.706,0.089-1.725,0.223-2.982,0.414
							c-2.514,0.378-5.976,0.988-9.79,1.722c-3.75,0.742-7.14,1.413-9.76,1.931c-1.163,0.225-2.152,0.416-2.962,0.572
							c-0.701,0.126-1.093,0.182-1.101,0.147c-0.008-0.035,0.368-0.157,1.056-0.344c0.688-0.187,1.688-0.44,2.928-0.734
							c2.48-0.588,5.919-1.349,9.741-2.083c3.82-0.735,7.302-1.29,9.84-1.576c1.268-0.144,2.3-0.224,3.014-0.251
							C142.007,105.06,142.403,105.079,142.404,105.114z"/>
					</g>
					<g>
						<path style="fill:#455A64;" d="M94.101,127.724c0.027,0.085-0.634,0.222-1.369,0.917c-0.744,0.672-1.422,1.967-1.411,3.521
							c-0.014,1.548,0.479,2.916,0.824,3.89c0.361,0.977,0.59,1.589,0.52,1.62c-0.062,0.028-0.406-0.524-0.86-1.479
							c-0.436-0.95-1.018-2.36-1.005-4.037c0.011-0.831,0.183-1.629,0.503-2.287c0.318-0.659,0.758-1.165,1.187-1.506
							C93.371,127.674,94.106,127.67,94.101,127.724z"/>
					</g>
					<path style="fill:#263238;" d="M93.654,113.703c0.604-2.968,2.322-5.696,4.738-7.524c2.416-1.828,5.508-2.739,8.528-2.514
						c-0.302,0.177-0.605,0.353-0.907,0.53c0.701-0.086,1.401-0.171,2.102-0.257c-0.426,0.407-0.853,0.815-1.279,1.222
						c0.815-0.017,1.63-0.034,2.445-0.051c-0.381,0.465-0.918,0.8-1.503,0.937c1.131-0.008,2.262-0.016,3.394-0.025
						c-0.144,0.241-0.288,0.483-0.433,0.724c0.752,0.097,1.53-0.02,2.221-0.333c-0.21,0.402-0.419,0.803-0.629,1.205
						c0.29-0.132,0.581-0.264,0.871-0.397c0.044,0.48,0.089,0.96,0.133,1.44c0.043-0.434,0.086-0.867,0.128-1.301
						c0.814,3.066,0.982,6.302,0.49,9.436"/>
					<g>
						<path style="fill:#EBEBEB;" d="M129.274,92.958c0.035,0.01-0.03,0.317-0.179,0.868c-0.138,0.554-0.418,1.333-0.834,2.266
							c-0.409,0.937-1.008,2.003-1.77,3.122c-0.782,1.104-1.739,2.252-2.874,3.329c-1.148,1.064-2.356,1.944-3.508,2.654
							c-1.166,0.688-2.268,1.217-3.23,1.564c-0.957,0.354-1.753,0.584-2.314,0.686c-0.559,0.112-0.87,0.157-0.878,0.122
							c-0.023-0.094,1.206-0.366,3.055-1.15c0.927-0.384,1.989-0.937,3.115-1.631c1.113-0.716,2.283-1.587,3.404-2.625
							c1.108-1.051,2.053-2.162,2.839-3.227c0.766-1.079,1.386-2.103,1.829-3.003C128.831,94.138,129.182,92.929,129.274,92.958z"/>
					</g>
					<g>
						<path style="fill:#EBEBEB;" d="M136.239,89.555c0.065,0.017-0.063,0.799-0.41,2.029c-0.346,1.23-0.932,2.902-1.759,4.671
							c-0.83,1.769-1.739,3.29-2.462,4.343c-0.723,1.054-1.241,1.653-1.296,1.614c-0.131-0.091,1.659-2.679,3.286-6.178
							C135.244,92.545,136.086,89.513,136.239,89.555z"/>
					</g>
					<g>
						<path style="fill:#EBEBEB;" d="M144.398,87.3c0.066,0.015-0.01,0.678-0.257,1.726c-0.248,1.046-0.683,2.479-1.374,3.978
							c-1.389,3.018-3.28,4.975-3.363,4.887c-0.133-0.102,1.54-2.167,2.89-5.106C143.641,89.849,144.231,87.257,144.398,87.3z"/>
					</g>
					<g>
						<path style="fill:#263238;" d="M147.605,85.938c0.008,0.035-0.56,0.21-1.592,0.494c-0.518,0.132-1.144,0.326-1.868,0.555
							c-0.728,0.217-1.552,0.478-2.452,0.802c-1.814,0.602-3.928,1.449-6.257,2.427c-2.312,1.018-4.823,2.209-7.399,3.575
							c-2.567,1.385-4.959,2.801-7.087,4.164c-2.11,1.389-3.984,2.683-5.49,3.86c-0.767,0.571-1.441,1.111-2.022,1.601
							c-0.589,0.479-1.097,0.892-1.492,1.253c-0.804,0.706-1.261,1.085-1.286,1.059c-0.025-0.026,0.385-0.454,1.15-1.208
							c0.375-0.385,0.865-0.823,1.439-1.325c0.566-0.513,1.228-1.076,1.983-1.669c1.485-1.221,3.348-2.553,5.455-3.972
							c2.125-1.392,4.523-2.829,7.104-4.221c2.59-1.373,5.121-2.558,7.456-3.557c2.352-0.96,4.491-1.775,6.329-2.336
							c0.912-0.303,1.748-0.54,2.486-0.732c0.735-0.203,1.371-0.369,1.899-0.472C147.014,86.01,147.597,85.902,147.605,85.938z"/>
					</g>
					<g>
						<path style="fill:#263238;" d="M124.273,105.114c-0.016-0.032,0.399-0.268,1.162-0.667c0.859-0.435,1.95-0.986,3.251-1.644
							c2.755-1.367,6.577-3.224,10.812-5.245c0.807-0.384,1.599-0.761,2.355-1.121l0.007-0.003l0.01-0.004
							c1.861-0.751,3.491-1.765,4.873-2.778c1.383-1.015,2.531-2.041,3.376-2.993c0.85-0.948,1.389-1.826,1.616-2.483
							c0.209-0.664,0.108-1.055,0.168-1.063c0.016-0.003,0.037,0.09,0.064,0.28c0.053,0.193,0.004,0.47-0.054,0.835
							c-0.183,0.711-0.7,1.653-1.536,2.653c-0.831,1.006-1.972,2.079-3.362,3.135c-1.39,1.055-3.033,2.105-4.956,2.893l0.017-0.007
							c-0.756,0.362-1.547,0.741-2.353,1.126c-4.235,2.021-8.081,3.825-10.877,5.107c-1.33,0.598-2.444,1.099-3.323,1.494
							C124.732,104.972,124.288,105.146,124.273,105.114z"/>
					</g>
					<g>
						<path style="fill:#455A64;" d="M104.388,104.032c0.004,0.039-0.431,0.105-1.207,0.248c-0.771,0.148-1.899,0.379-3.134,1.023
							c-1.245,0.623-2.516,1.733-3.663,3.18c-0.271,0.371-0.581,0.746-0.819,1.144c-0.244,0.403-0.442,0.848-0.613,1.315
							c-0.339,0.935-0.578,1.969-0.867,3.01c-0.562,2.084-1.032,4.081-1.198,5.928c-0.154,1.839-0.075,3.535,0.184,4.9
							c0.53,2.786,2.025,3.987,1.914,4.045c-0.013,0.013-0.1-0.054-0.257-0.195c-0.159-0.138-0.375-0.365-0.621-0.683
							c-0.496-0.629-1.08-1.678-1.396-3.09c-0.314-1.411-0.432-3.12-0.301-5.017c0.144-1.895,0.61-3.931,1.173-6.021
							c0.289-1.042,0.529-2.07,0.891-3.052c0.182-0.488,0.397-0.962,0.666-1.396c0.272-0.441,0.582-0.804,0.869-1.186
							c1.199-1.472,2.553-2.604,3.873-3.21c1.311-0.628,2.482-0.807,3.269-0.894C103.944,103.997,104.384,104,104.388,104.032z"/>
					</g>
					<g>
						<path style="fill:#455A64;" d="M109.499,113.794c0.053,0.106-1.912,0.941-4.441,2.822l-0.315,0.235l-0.041-0.397
							c-0.09-0.876,0.149-1.898,0.804-2.721l0.315,0.381c-0.715,0.39-1.453,0.851-2.175,1.379c-0.726,0.531-1.392,1.097-1.99,1.672
							l-0.458,0.44l0.03-0.63c0.039-0.821,0.076-1.604,0.11-2.343l0.412,0.148c-1.019,1.298-1.512,2.627-1.759,3.565
							c-0.246,0.946-0.285,1.516-0.343,1.512c-0.04,0-0.096-0.58,0.078-1.571c0.176-0.982,0.624-2.393,1.659-3.786l0.432-0.581
							l-0.02,0.73c-0.021,0.74-0.042,1.524-0.065,2.345l-0.428-0.19c0.607-0.598,1.289-1.185,2.035-1.731
							c0.742-0.543,1.504-1.013,2.244-1.404l1.107-0.585l-0.791,0.966c-0.575,0.702-0.806,1.595-0.749,2.363l-0.356-0.162
							c1.31-0.923,2.49-1.554,3.334-1.945C108.974,113.916,109.482,113.753,109.499,113.794z"/>
					</g>
					<g>
						<path style="fill:#455A64;" d="M99.86,140.427c0.032,0.047-0.413,0.4-1.29,0.531c-0.865,0.139-2.131-0.04-3.284-0.733
							c-1.147-0.693-1.926-1.624-2.421-2.308c-0.494-0.693-0.727-1.163-0.672-1.202c0.062-0.044,0.403,0.353,0.958,0.971
							c0.557,0.612,1.343,1.454,2.401,2.092c1.055,0.633,2.184,0.85,2.984,0.814C99.345,140.565,99.826,140.349,99.86,140.427z"/>
					</g>
				</g>
			</g>
			<g>
				<path style="fill:#263238;" d="M206.032,154.444c0,0-0.031-0.506-0.064-1.494c-0.059-0.986-0.022-2.46-0.194-4.38
					c-0.231-3.843-0.87-9.518-2.624-16.624c-0.94-3.532-2.082-7.446-3.78-11.563c-1.664-4.123-3.714-8.521-6.411-12.963
					c-5.327-8.894-12.968-18.201-23.379-26.138c-5.183-3.979-11.077-7.549-17.57-10.499c-6.49-2.946-13.582-5.312-21.146-6.674
					c-7.55-1.393-15.542-1.942-23.704-1.305c-4.086,0.242-8.194,0.907-12.319,1.723c-4.115,0.88-8.219,2.06-12.288,3.505
					c-16.216,5.871-31.624,16.837-42.726,32.046c-2.81,3.767-5.271,7.835-7.492,12.061c-1.132,2.105-2.097,4.302-3.085,6.498
					c-0.887,2.238-1.803,4.476-2.535,6.79c-1.507,4.607-2.753,9.35-3.5,14.215c-0.766,4.859-1.169,9.805-1.202,14.788
					c0.033,4.984,0.433,9.932,1.198,14.793c0.747,4.866,1.992,9.612,3.498,14.22c0.731,2.315,1.648,4.553,2.534,6.793
					c0.989,2.196,1.953,4.394,3.085,6.499c2.221,4.227,4.681,8.297,7.492,12.065c11.102,15.214,26.513,26.183,42.732,32.055
					c4.07,1.445,8.174,2.625,12.29,3.505c4.125,0.816,8.233,1.481,12.32,1.723c8.163,0.637,16.156,0.087,23.706-1.306
					c7.564-1.362,14.657-3.729,21.147-6.676c6.494-2.95,12.387-6.521,17.57-10.5c10.411-7.938,18.05-17.245,23.376-26.139
					c2.696-4.442,4.747-8.84,6.41-12.963c1.698-4.116,2.839-8.03,3.779-11.562c1.754-7.105,2.392-12.779,2.623-16.622
					c0.172-1.92,0.135-3.393,0.194-4.379C206.002,154.95,206.032,154.444,206.032,154.444s0.005,0.506-0.011,1.494
					c-0.042,0.987,0.013,2.462-0.143,4.385c-0.197,3.849-0.804,9.536-2.531,16.664c-0.926,3.544-2.057,7.471-3.745,11.604
					c-1.654,4.14-3.698,8.556-6.39,13.02c-5.319,8.936-12.965,18.295-23.403,26.283c-5.197,4.004-11.108,7.601-17.626,10.573
					c-6.514,2.969-13.636,5.356-21.234,6.734c-7.584,1.409-15.615,1.97-23.818,1.338c-4.107-0.24-8.237-0.903-12.384-1.72
					c-4.138-0.881-8.265-2.064-12.357-3.514c-16.308-5.891-31.81-16.91-42.979-32.204c-2.828-3.787-5.304-7.879-7.538-12.13
					c-1.139-2.118-2.109-4.327-3.104-6.535c-0.892-2.251-1.814-4.502-2.55-6.831c-1.516-4.635-2.767-9.407-3.52-14.301
					c-0.771-4.888-1.173-9.864-1.206-14.876c0.034-5.01,0.438-9.984,1.21-14.871c0.751-4.892,2.005-9.663,3.522-14.296
					c0.736-2.327,1.658-4.577,2.551-6.828c0.994-2.208,1.965-4.416,3.104-6.533c2.235-4.249,4.711-8.339,7.538-12.125
					c11.168-15.289,26.667-26.305,42.973-32.195c4.092-1.449,8.218-2.632,12.355-3.513c4.146-0.817,8.276-1.481,12.382-1.721
					c8.203-0.632,16.232-0.072,23.816,1.337c7.598,1.378,14.72,3.764,21.234,6.733c6.518,2.972,12.43,6.568,17.627,10.572
					c10.439,7.987,18.085,17.346,23.406,26.282c2.693,4.464,4.737,8.881,6.391,13.021c1.689,4.133,2.819,8.061,3.746,11.605
					c1.728,7.129,2.335,12.817,2.532,16.667c0.155,1.923,0.101,3.398,0.143,4.385C206.037,153.938,206.032,154.444,206.032,154.444z
					"/>
			</g>
		</g>
		<g>
			<path style="fill:#263238;" d="M183.114,308.533c-0.13,0.061-7.479-15.288-16.411-34.279
				c-8.936-18.997-16.072-34.442-15.942-34.503c0.13-0.061,7.477,15.285,16.413,34.282
				C176.107,293.023,183.245,308.472,183.114,308.533z"/>
		</g>
		<path style="fill:#263238;" d="M186.092,308.348c0,1.747-1.416,3.163-3.163,3.163c-1.747,0-3.163-1.416-3.163-3.163
			s1.416-3.163,3.163-3.163C184.676,305.186,186.092,306.602,186.092,308.348z"/>
	</g>
</g>
<g id="Character">
	<g>
		<g>
			<g>
				<g>
					<g>
						<g>
							<g>
								<g>
									<g>
										<g>
											<g>
												<g>
													<g>
														<g>
															<g>
																<path style="fill:#FFBF9D;" d="M345.649,231.21l1.252-102.744c1.143-25.548-12.771-47.509-38.342-47.944
																	l-2.365,0.097c-23.804,0.984-42.871,20.074-43.804,43.881c-0.868,22.15-1.544,46.634-0.908,58.471
																	c1.316,24.505,25.996,27.305,25.996,27.305c0.055,0,0.152,14.917,0.139,22.118l11.522,18.914l28.176,9.406
																	L345.649,231.21z"/>
															</g>
														</g>
													</g>
												</g>
											</g>
										</g>
									</g>
								</g>
							</g>
							<g>
								<g>
									<g>
										<g>
											<g>
												<g>
													<g>
														<g>
															<g>
																<g>
																	<path style="fill:#FF9A6C;" d="M287.478,210.276c0,0,15.492,0.268,31.534-10.757c0,0-6.919,18.75-31.475,17.553
																		L287.478,210.276z"/>
																</g>
															</g>
														</g>
													</g>
												</g>
											</g>
										</g>
									</g>
								</g>
							</g>
							<g>
								<g>
									<g>
										<g>
											<g>
												<g>
													<g>
														<g>
															<g>
																<g>
																	<g>
																		<g>
																			<g>
																				<g>
																					<g>
																						<g>
																							<path style="fill:#263238;" d="M272.706,148.325c0.01,1.852,1.588,3.369,3.522,3.393
																								c1.93,0.023,3.49-1.454,3.478-3.306c-0.011-1.852-1.587-3.371-3.518-3.396
																								C274.254,144.992,272.695,146.473,272.706,148.325z"/>
																						</g>
																					</g>
																				</g>
																			</g>
																		</g>
																	</g>
																</g>
															</g>
														</g>
													</g>
												</g>
											</g>
										</g>
									</g>
								</g>
							</g>
							<g>
								<g>
									<g>
										<g>
											<g>
												<g>
													<g>
														<g>
															<g>
																<g>
																	<g>
																		<g>
																			<g>
																				<g>
																					<g>
																						<g>
																							<g>
																								<path style="fill:#263238;" d="M268.051,135.112c0.453,0.439,3.024-1.634,6.793-1.78
																									c3.761-0.2,6.607,1.624,6.996,1.146c0.192-0.212-0.284-1.019-1.524-1.846
																									c-1.221-0.823-3.278-1.589-5.625-1.482c-2.346,0.111-4.285,1.055-5.383,1.987
																									C268.187,134.074,267.828,134.916,268.051,135.112z"/>
																							</g>
																						</g>
																					</g>
																				</g>
																			</g>
																		</g>
																	</g>
																</g>
															</g>
														</g>
													</g>
												</g>
											</g>
										</g>
									</g>
								</g>
							</g>
							<g>
								<g>
									<g>
										<g>
											<g>
												<g>
													<g>
														<g>
															<g>
																<g>
																	<g>
																		<g>
																			<g>
																				<g>
																					<g>
																						<g>
																							<path style="fill:#263238;" d="M305.103,147.699c0.011,1.852,1.588,3.369,3.522,3.393
																								c1.93,0.024,3.49-1.453,3.479-3.306c-0.011-1.852-1.589-3.371-3.519-3.395
																								C306.651,144.367,305.092,145.848,305.103,147.699z"/>
																						</g>
																					</g>
																				</g>
																			</g>
																		</g>
																	</g>
																</g>
															</g>
														</g>
													</g>
												</g>
											</g>
										</g>
									</g>
								</g>
							</g>
							<g>
								<g>
									<g>
										<g>
											<g>
												<g>
													<g>
														<g>
															<g>
																<g>
																	<g>
																		<g>
																			<g>
																				<g>
																					<g>
																						<g>
																							<g>
																								<path style="fill:#263238;" d="M305.02,134.459c0.454,0.439,3.029-1.633,6.794-1.779
																									c3.761-0.199,6.607,1.625,6.997,1.146c0.191-0.213-0.28-1.018-1.525-1.845
																									c-1.221-0.824-3.277-1.589-5.624-1.483c-2.346,0.111-4.285,1.056-5.384,1.986
																									C305.16,133.422,304.799,134.264,305.02,134.459z"/>
																							</g>
																						</g>
																					</g>
																				</g>
																			</g>
																		</g>
																	</g>
																</g>
															</g>
														</g>
													</g>
												</g>
											</g>
										</g>
									</g>
								</g>
							</g>
							<g>
								<g>
									<g>
										<g>
											<g>
												<g>
													<g>
														<g>
															<g>
																<g>
																	<g>
																		<g>
																			<g>
																				<g>
																					<g>
																						<g>
																							<path style="fill:#263238;" d="M292.701,163.969c0.009-0.215-2.35-0.523-6.165-0.852
																								c-0.966-0.059-1.885-0.212-2.074-0.863c-0.255-0.685,0.104-1.739,0.525-2.878
																								c0.808-2.366,1.654-4.846,2.542-7.444c3.521-10.594,6.027-19.289,5.599-19.427
																								c-0.429-0.137-3.629,8.337-7.149,18.931c-0.845,2.612-1.653,5.101-2.421,7.483
																								c-0.319,1.109-0.893,2.375-0.343,3.797c0.289,0.708,1.017,1.201,1.64,1.341
																								c0.625,0.163,1.167,0.151,1.644,0.16C290.325,164.265,292.694,164.184,292.701,163.969z"/>
																						</g>
																					</g>
																				</g>
																			</g>
																		</g>
																	</g>
																</g>
															</g>
														</g>
													</g>
												</g>
											</g>
										</g>
									</g>
								</g>
							</g>
							<g>
								<g>
									<g>
										<g>
											<g>
												<g>
													<g>
														<g>
															<g>
																<g>
																	<g>
																		<g>
																			<path style="fill:#263238;" d="M323.996,124.742c-0.242-1.063-4.039-1.046-8.363-2.121
																				c-4.347-0.988-7.728-2.714-8.423-1.875c-0.314,0.405,0.184,1.439,1.493,2.602
																				c1.296,1.16,3.444,2.376,6.043,2.998c2.599,0.616,5.065,0.497,6.745,0.046
																				C323.184,125.943,324.096,125.245,323.996,124.742z"/>
																		</g>
																	</g>
																</g>
															</g>
														</g>
													</g>
												</g>
											</g>
										</g>
									</g>
								</g>
							</g>
							<g>
								<g>
									<g>
										<g>
											<g>
												<g>
													<g>
														<g>
															<g>
																<g>
																	<g>
																		<g>
																			<path style="fill:#263238;" d="M279.029,121.277c-1.1-0.371-3.36,1.89-6.573,3.709
																				c-3.158,1.913-6.249,2.788-6.446,3.92c-0.066,0.532,0.779,1.047,2.366,1.097c1.569,0.058,3.86-0.452,6.05-1.733
																				c2.189-1.284,3.739-3.025,4.44-4.413C279.584,122.455,279.533,121.476,279.029,121.277z"/>
																		</g>
																	</g>
																</g>
															</g>
														</g>
													</g>
												</g>
											</g>
										</g>
									</g>
								</g>
							</g>
							<g>
								<g>
									<g>
										<g>
											<g>
												<g>
													<g>
														<g>
															<path style="fill:#FFBF9D;" d="M345.649,146.704c0.41-0.198,16.641-5.678,16.798,11.105
																c0.157,16.784-16.726,13.48-16.76,12.999C345.653,170.327,345.649,146.704,345.649,146.704z"/>
														</g>
													</g>
												</g>
											</g>
										</g>
									</g>
								</g>
							</g>
							<g>
								<g>
									<g>
										<g>
											<g>
												<g>
													<g>
														<g>
															<g>
																<path style="fill:#FF9A6C;" d="M350.754,164.401c0.073-0.054,0.294,0.202,0.791,0.424
																	c0.483,0.216,1.314,0.36,2.186,0.024c1.767-0.667,3.234-3.496,3.287-6.523c0.029-1.527-0.306-2.979-0.858-4.178
																	c-0.524-1.223-1.326-2.073-2.22-2.224c-0.89-0.197-1.517,0.343-1.718,0.818c-0.22,0.471-0.111,0.805-0.2,0.835
																	c-0.046,0.042-0.363-0.278-0.234-0.972c0.066-0.335,0.259-0.732,0.651-1.058c0.399-0.332,0.99-0.504,1.612-0.443
																	c1.295,0.077,2.471,1.257,3.079,2.574c0.678,1.322,1.089,2.953,1.057,4.669c-0.076,3.383-1.777,6.564-4.197,7.288
																	c-1.178,0.32-2.166-0.028-2.678-0.419C350.788,164.806,350.696,164.432,350.754,164.401z"/>
															</g>
														</g>
													</g>
												</g>
											</g>
										</g>
									</g>
								</g>
							</g>
						</g>
						<g>
							<g>
								<g>
									<g>
										<g>
											<g>
												<g>
													<path style="fill:#263238;" d="M228.514,102.417c0.256-0.991,0.966-1.813,1.841-2.344
														c1.91-1.157,4.126-1.032,6.266-1.09c5.325-0.145,10.592-1.568,15.314-4.032c-1.665-0.82-3.223-1.822-4.552-3.118
														c-2.744-2.676-4.35-6.802-3.149-10.441c0.225-0.683,0.613-1.401,1.298-1.62c1.087-0.347,2.053,0.713,2.822,1.553
														c2.531,2.765,4.854,3.937,8.578,3.519c2.313-0.26,4.551-0.805,6.359-1.96c0.072-0.076,0.135-0.161,0.208-0.237
														c0.862-0.91,1.705-1.781,2.535-2.622c0.002-0.003,0.004-0.005,0.006-0.008l-0.003,0.005
														c6.243-6.334,11.624-10.736,17.189-13.05c8.157-3.392,21.846-4.885,30.415-2.741
														c8.57,2.145,16.321,8.989,17.609,17.729c4.745-4.105,11.939-4.153,17.802-1.873l0.146-0.066
														c6.526,2.243,10.296,9.067,12.289,15.673c0.108,0.361,0.204,0.728,0.307,1.091c2.237,3.459,5.258,6.409,8.843,8.443
														c0.633,0.358,1.357,0.798,1.442,1.521c0.085,0.715-0.514,1.316-1.095,1.742c-1.546,1.134-3.352,1.888-5.235,2.246
														c0.612,1.569,1.327,3.091,2.206,4.542c0.748,1.234,1.636,2.712,1.01,4.012c-0.484,1.005-1.75,1.431-2.855,1.282
														c-1.106-0.15-2.091-0.749-3.041-1.335c0.745,1.727,1.489,3.455,2.234,5.182c-2.347,0.436-4.783,0.275-7.075-0.391
														c-1.311,6.214-2.217,17.704-3.766,21.923c-4.454,0.129-5.542-0.344-7.781,0.428c-2.895,0.997-1.728,6.13-5.527,4.711
														c-1.934-0.723-4.973-7.987-5.64-9.94c-4.423-12.966-6.001-26.891-4.611-40.52c-2.724-2.839-6-5.147-9.591-6.757
														l0.294,0.259c-6.89-2.305-14.679-4.562-21.154-1.266c-5.022,2.557-7.932,7.831-11.66,12.057
														c-7.067,8.007-15.12,12.33-25.784,12.911c-0.878,7.421-1.025,19.542-1.309,26.46l-6.061-13.773l-0.004,0.056
														c-0.486-0.805-0.889-1.619-1.279-2.433l-0.134-0.247v-0.031c-0.62-1.308-1.21-2.619-1.989-3.911
														c-0.022,0.02-0.043,0.04-0.066,0.06c-3.709,3.347-9.286-1.643-6.377-5.705c0.577-0.806,1.27-1.526,2.065-2.123
														c-1.694,1.627-4.238,2.426-6.491,1.762c-2.253-0.665-4.021-2.916-3.852-5.259c0.115-1.599,1.241-3.04,2.676-3.688
														c-3.023,0.267-6.126-0.356-8.781-1.831C229.667,106.203,227.952,104.599,228.514,102.417z"/>
												</g>
											</g>
										</g>
									</g>
								</g>
							</g>
							<g>
								<g>
									<g>
										<g>
											<g>
												<g>
													<path style="fill:#455A64;" d="M323.553,84.869c-0.049,0.064,1.036,0.638,2.489,2.225
														c1.439,1.581,3.066,4.34,3.863,8.113c0.407,1.875,0.674,3.974,0.699,6.236c0.036,2.262-0.119,4.686-0.263,7.241
														c-0.136,2.554-0.288,5.254-0.093,8.057c0.098,1.399,0.283,2.822,0.603,4.243c0.325,1.396,0.71,2.911,1.78,4.102
														c0.853,0.971,2.264,1.39,3.48,1.126c1.225-0.231,2.31-0.897,3.099-1.798c1.56-1.862,1.927-4.206,2.296-6.272
														l-0.515,0.068c0.863,1.844,1.749,3.665,3.047,5.112c1.277,1.456,3.033,2.409,4.809,2.548
														c0.884,0.069,1.773-0.082,2.527-0.472c0.77-0.386,1.325-1.034,1.702-1.715c0.359-0.694,0.543-1.454,0.496-2.183
														c-0.05-0.729-0.342-1.417-0.81-1.901l-0.258,0.235c1.919,2.136,3.932,3.273,5.322,3.899
														c0.702,0.314,1.262,0.499,1.642,0.617c0.382,0.108,0.583,0.154,0.588,0.138c0.005-0.017-0.187-0.092-0.557-0.23
														c-0.368-0.146-0.913-0.359-1.594-0.695c-1.35-0.671-3.299-1.839-5.139-3.959l-0.258,0.235
														c0.836,0.867,0.902,2.404,0.205,3.648c-0.352,0.614-0.861,1.191-1.539,1.518c-0.673,0.339-1.483,0.472-2.291,0.4
														c-1.631-0.144-3.268-1.037-4.464-2.423c-1.224-1.383-2.082-3.156-2.935-5.003l-0.362-0.783l-0.153,0.852
														c-0.369,2.063-0.763,4.314-2.186,5.993c-0.707,0.807-1.701,1.409-2.773,1.608c-1.074,0.22-2.214-0.122-2.958-0.954
														c-0.935-1.03-1.328-2.464-1.645-3.838c-0.313-1.386-0.497-2.779-0.598-4.156c-0.2-2.757-0.062-5.438,0.06-7.99
														c0.129-2.554,0.267-4.989,0.21-7.28c-0.046-2.29-0.34-4.418-0.779-6.316c-0.86-3.82-2.578-6.614-4.094-8.173
														C324.676,85.375,323.553,84.869,323.553,84.869z"/>
												</g>
											</g>
										</g>
									</g>
								</g>
							</g>
							<g>
								<g>
									<g>
										<g>
											<g>
												<g>
													<path style="fill:#455A64;" d="M247.835,109.635c-0.006,0.007,0.062,0.064,0.199,0.165
														c0.167,0.119,0.37,0.264,0.618,0.44c0.271,0.198,0.614,0.428,1.048,0.656c0.427,0.238,0.914,0.529,1.503,0.77
														c2.294,1.058,5.965,2.093,10.536,1.772c4.527-0.307,9.948-1.973,14.763-5.643c4.867-3.585,9.115-8.832,12.569-14.825
														c1.753-2.994,3.174-6.061,4.747-8.895c1.563-2.836,3.294-5.461,5.404-7.54c2.084-2.091,4.515-3.647,7.029-4.377
														c1.253-0.389,2.519-0.487,3.727-0.472c1.213,0.05,2.363,0.283,3.425,0.617c2.126,0.687,3.847,1.837,5.157,3.025
														c1.315,1.199,2.202,2.471,2.813,3.564c1.143,2.245,1.221,3.694,1.309,3.669c0.01-0.002,0.002-0.088-0.022-0.257
														c-0.034-0.204-0.075-0.45-0.125-0.751c-0.128-0.656-0.422-1.606-0.964-2.763c-0.591-1.129-1.469-2.447-2.793-3.697
														c-1.318-1.238-3.066-2.443-5.247-3.175c-1.09-0.358-2.277-0.61-3.534-0.675c-1.252-0.029-2.581,0.066-3.878,0.458
														c-2.612,0.736-5.127,2.329-7.269,4.458c-2.171,2.119-3.943,4.79-5.523,7.644c-1.593,2.854-3.015,5.913-4.753,8.88
														c-3.428,5.948-7.614,11.136-12.388,14.688c-4.726,3.637-10.017,5.305-14.477,5.663
														c-4.495,0.368-8.121-0.589-10.415-1.572C248.982,110.462,247.879,109.564,247.835,109.635z"/>
												</g>
											</g>
										</g>
									</g>
								</g>
							</g>
							<g>
								<g>
									<g>
										<g>
											<g>
												<g>
													<path style="fill:#455A64;" d="M245.476,98.866c-0.02,0.035,0.296,0.247,0.888,0.604
														c0.586,0.368,1.483,0.818,2.624,1.295c1.139,0.487,2.548,0.938,4.146,1.309c1.602,0.343,3.395,0.591,5.29,0.641
														c1.895,0.028,3.697-0.145,5.313-0.421c1.611-0.306,3.038-0.698,4.196-1.137c1.16-0.43,2.075-0.843,2.674-1.186
														c0.606-0.332,0.93-0.531,0.912-0.566c-0.049-0.097-1.398,0.617-3.718,1.367c-1.157,0.385-2.569,0.729-4.154,1
														c-1.59,0.243-3.355,0.397-5.212,0.369c-1.855-0.049-3.612-0.276-5.19-0.583c-1.572-0.337-2.969-0.739-4.109-1.17
														C246.848,99.54,245.529,98.772,245.476,98.866z"/>
												</g>
											</g>
										</g>
									</g>
								</g>
							</g>
						</g>
					</g>
				</g>
			</g>
			<path style="fill:#FF725E;" d="M332.833,205.984c-0.023-0.411-0.089-0.99-0.277-1.356c-0.188-0.366-0.855-0.945-1.598-0.945l0,0
				c-1.283-0.158-1.716,0.494-1.987,0.98c-0.27,0.486-0.31,1.062-0.337,1.618c-0.031,0.663-0.05,1.34,0.142,1.976
				c0.192,0.635,0.631,1.232,1.26,1.443c0.87,0.292,1.854-0.253,2.323-1.043C332.827,207.867,332.883,206.901,332.833,205.984z"/>
			<g style="opacity:0.3;">
				<path style="fill:#FF725E;" d="M336.906,204.294c-1.195-2.198-2.427-4.226-4.058-4.492c-1.725-0.818-3.58-0.302-4.524,0.151
					c-0.944,0.454-1.596,1.365-2.01,2.328c-0.414,0.962-0.627,1.997-0.945,2.996c-0.48,1.509-1.208,2.964-1.344,4.542
					c-0.176,2.028,0.727,4.127,2.344,5.364c1.617,1.237,3.902,1.554,5.781,0.77c2.072-0.865,3.458-2.88,4.259-4.978
					C337.22,208.851,337.543,206.475,336.906,204.294z"/>
			</g>
			<path style="fill:#FF9A6C;" d="M303.15,169.713c-2.121-0.544-4.418-0.145-6.319,0.932l0.029-0.028
				c-3.082,1.266-4.32,5.055-4.272,7.008c0.048,1.952,0.46,2.758,1.366,4.488c2.608-2.046,15.746-3.485,16.006-4.328
				C309.816,174.172,306.654,170.611,303.15,169.713z"/>
			<g>
				<path style="fill:#263238;" d="M298.143,170.237c-0.011-0.025,0.41-0.259,1.245-0.492c0.832-0.219,2.102-0.417,3.651-0.183
					c1.536,0.229,3.348,0.964,4.851,2.41c0.746,0.72,1.416,1.598,1.917,2.614c0.243,0.51,0.468,1.041,0.588,1.639
					c0.117,0.581,0.098,1.3-0.32,1.857c-0.411,0.56-1.062,0.797-1.636,0.915c-0.586,0.121-1.164,0.131-1.705,0.168
					c-1.091,0.065-2.14,0.174-3.135,0.313c-1.99,0.284-3.759,0.687-5.224,1.1c-1.466,0.411-2.63,0.821-3.432,1.112
					c-0.803,0.29-1.245,0.46-1.261,0.423c-0.013-0.028,0.402-0.262,1.185-0.611c0.783-0.35,1.937-0.816,3.403-1.277
					c1.465-0.462,3.247-0.907,5.258-1.222c1.006-0.154,2.068-0.275,3.174-0.348c0.556-0.04,1.103-0.055,1.632-0.166
					c0.522-0.108,1.031-0.315,1.321-0.716c0.299-0.394,0.332-0.935,0.231-1.452c-0.1-0.518-0.311-1.03-0.538-1.512
					c-0.467-0.962-1.094-1.801-1.793-2.493c-1.41-1.391-3.11-2.125-4.578-2.392c-1.48-0.27-2.717-0.137-3.544,0.018
					C298.603,170.11,298.158,170.278,298.143,170.237z"/>
			</g>
		</g>
		<path style="fill:#FF725E;" d="M237.862,228.947l49.735-5.883c0,0,11.781,15.997,29.665,14.459
			c17.884-1.538,27.529-15.923,27.529-15.923l48.171,12.678l-4.362,127.995l-3.779,52.911l4.582,57.03l-161.815-0.632l9.725-69.41
			l-0.709-104.211l-7.898-46.687L237.862,228.947z"/>
		<g>
			<path style="fill:#FFBF9D;" d="M382.805,364.263c-0.911,0-72.305-19.95-72.305-19.95l-22.624,27.79
				c0,0,62.472,35.605,87.691,43.505c25.219,7.9,27.38,9.93,39.804,0c17.167-13.72,14.281-51.047,14.281-51.047
				s-4.558-85.989-8.508-95.104c-3.84-8.863-9.117-28.927-26.163-31.709c-0.486-0.079-0.982-0.145-1.487-0.195
				c-18.231-1.823-11.806,84.97-11.321,85.89C382.658,324.363,382.805,364.263,382.805,364.263z"/>
			<g>
				<path style="fill:#FF9A6C;" d="M404.236,382.53c-0.093,0.042-0.747-1.506-2.194-3.774c-0.715-1.139-1.672-2.425-2.824-3.775
					c-1.175-1.33-2.558-2.711-4.143-4.01c-1.599-1.282-3.237-2.349-4.782-3.224c-1.559-0.847-3.016-1.517-4.279-1.981
					c-2.519-0.946-4.168-1.266-4.146-1.366c0.007-0.035,0.421,0.027,1.168,0.17c0.375,0.066,0.83,0.162,1.348,0.316
					c0.519,0.148,1.12,0.291,1.756,0.533c1.293,0.425,2.787,1.069,4.383,1.906c1.581,0.864,3.255,1.938,4.88,3.24
					c1.61,1.32,3.007,2.735,4.179,4.103c1.149,1.388,2.088,2.716,2.772,3.894c0.369,0.572,0.632,1.131,0.885,1.608
					c0.258,0.475,0.446,0.9,0.588,1.253C404.122,382.124,404.269,382.516,404.236,382.53z"/>
			</g>
			<circle style="opacity:0.6;fill:#FF725E;" cx="376.57" cy="384.783" r="2.253"/>
			<ellipse style="opacity:0.6;fill:#FF725E;" cx="386.572" cy="392.273" rx="2.877" ry="3.82"/>
		</g>
		<path style="fill:#FF725E;" d="M373.028,334.479l59.51-9.336c0,0-6.204-84.188-40.435-91.056l-22.153,9.461L373.028,334.479z"/>
		<g>
			<path style="fill:#FFBF9D;" d="M309.431,289.999c0,0,4.998-19.832,7.81-24.518c2.811-4.686,17.687-10.164,19.874-10.164
				s14.415,4.135,14.415,4.135s9.292-3.252,12.728-0.441c3.436,2.811,0.932,8.035,0.932,8.035s5.883,3.433,2.162,10.15
				c0,0,2.215,1.406,2.995,4.842c0.781,3.436-1.093,6.716-1.093,6.716s5.154,3.905-3.436,11.558
				c-8.591,7.654-32.156,14.454-36.217,15.391c0,0-15.282,12.144-23.378,20.153l-31.633-16.959L309.431,289.999z"/>
			<g>
				<path style="fill:#FF9A6C;" d="M352.953,259.011c0.023,0.076-1.152,0.471-3.02,1.176c-1.868,0.703-4.421,1.748-7.148,3.098
					c-2.726,1.355-5.102,2.755-6.793,3.817c-1.691,1.061-2.716,1.757-2.763,1.693c-0.021-0.029,0.21-0.237,0.648-0.589
					c0.435-0.355,1.088-0.839,1.913-1.411c1.648-1.147,4.015-2.61,6.764-3.976c2.749-1.361,5.347-2.361,7.257-2.979
					c0.955-0.31,1.735-0.537,2.281-0.669C352.638,259.035,352.943,258.977,352.953,259.011z"/>
			</g>
			<g>
				<path style="fill:#FF9A6C;" d="M365.189,267.046c0.044,0.053-0.68,0.746-1.918,1.788c-1.237,1.042-2.996,2.424-5.016,3.846
					c-2.021,1.421-3.912,2.614-5.304,3.437c-1.392,0.823-2.281,1.283-2.318,1.223c-0.038-0.063,0.782-0.634,2.121-1.535
					c1.338-0.901,3.19-2.137,5.201-3.552c2.009-1.415,3.794-2.744,5.087-3.709C364.335,267.58,365.142,266.988,365.189,267.046z"/>
			</g>
			<g>
				<path style="fill:#FF9A6C;" d="M367.579,277.283c0.051,0.037-0.34,0.693-1.144,1.622c-0.799,0.932-2.037,2.1-3.506,3.25
					c-1.47,1.149-2.857,2.101-3.861,2.784c-1.007,0.681-1.641,1.087-1.686,1.029c-0.043-0.056,0.514-0.568,1.468-1.326
					c1.138-0.877,2.385-1.838,3.758-2.897c1.454-1.138,2.705-2.24,3.559-3.092C367.025,277.805,367.515,277.234,367.579,277.283z"/>
			</g>
			<g>
				<path style="fill:#FF9A6C;" d="M369.382,288.133c0.099,0.08-1.423,2.11-3.758,4.186c-2.341,2.074-4.553,3.322-4.618,3.214
					c-0.09-0.133,1.972-1.564,4.273-3.604C367.575,289.888,369.262,288.027,369.382,288.133z"/>
			</g>
		</g>
		<g>
			<path style="fill:#FFBF9D;" d="M241.777,229.706c-1.798,0-22.594,6.227-34.636,51.608
				c-11.308,42.614-16.606,76.689-13.012,99.877c3.064,19.768,10.339,32.814,30.567,24.723
				c20.228-8.091,97.993-84.508,97.993-84.508l-19.778-23.374l-60.234,44.052l1.798-58.886L241.777,229.706z"/>
			<circle style="opacity:0.3;fill:#FF725E;" cx="216.295" cy="372.681" r="13.489"/>
			<circle style="opacity:0.6;fill:#FF725E;" cx="217.04" cy="372.681" r="8.29"/>
			<path style="opacity:0.6;fill:#FF725E;" d="M207.92,350.6c0,1.244-1.009,2.253-2.253,2.253c-1.244,0-2.253-1.009-2.253-2.253
				c0-1.244,1.009-2.253,2.253-2.253C206.911,348.347,207.92,349.356,207.92,350.6z"/>
		</g>
		<path style="fill:#FF725E;" d="M192.001,326.944c1.091,0.331,55.274,11.24,55.274,11.24l6.909-71.478l-7.872-37.475
			c0,0-13.061-5.384-26.986,13.578c-4.212,5.736-7.224,12.264-9.141,19.118L192.001,326.944z"/>
		<g>
			<path style="fill:#263238;" d="M234.451,257.659c0.143-0.013,1.815,17.041,3.733,38.086c1.919,21.053,3.358,38.124,3.215,38.138
				c-0.143,0.013-1.814-17.037-3.733-38.09C235.747,274.747,234.308,257.672,234.451,257.659z"/>
		</g>
		<g>
			<path style="fill:#263238;" d="M383.32,265.592c0.144,0.002,0.004,21.639-0.313,48.321c-0.317,26.692-0.69,48.321-0.834,48.32
				c-0.144-0.002-0.003-21.634,0.314-48.326C382.803,287.224,383.176,265.59,383.32,265.592z"/>
		</g>
		<g>
			<g>
				<path style="fill:#FFBF9D;" d="M299.213,378.443c0,0-10.5-6.701-12.067-6.388c-1.567,0.313-13.166,7.994-13.166,7.994
					s-9.248,1.881-11.599,5.016c-2.351,3.135-9.874,10.188-11.912,9.874c-2.038-0.313-8.307,1.567-9.404-3.918
					c-1.097-5.486,3.135-4.859,4.545-5.642c1.411-0.784,2.351-2.194,2.351-3.292c0-1.097-0.94-3.292-3.918-2.351
					s-17.398,7.21-19.906,6.583c-2.508-0.627-4.859-1.411-3.918-4.859c0.94-3.448,4.232-5.956,9.718-7.994s8.934-3.762,9.248-4.232
					c0.313-0.47-16.457,4.859-16.457,4.859s-4.389,5.486-7.994,4.232c-3.605-1.254-5.643-2.978-4.859-5.643
					c0.784-2.665,6.583-7.523,9.091-9.091c2.508-1.567,17.241-6.113,17.241-6.113s0.784-1.724-0.314-1.881
					c-1.097-0.157-16.614,1.411-16.614,1.411s-1.097,5.329-3.919,5.172c-2.821-0.157-5.016-0.784-5.016-4.232
					s2.351-7.837,5.956-10.345c3.605-2.508,24.608-2.664,27.429-4.232c2.821-1.567,9.561-7.837,9.561-7.837
					s-8.862,3.455-10.544,4.235c-1.682,0.78-5.914-1.101-5.914-1.101s-2.351-4.389,1.097-8.15c3.448-3.762,15.674-6.27,20.533-5.643
					c4.859,0.627,27.616,10.852,35.893,13.793c8.555,3.04,16.144,5.642,16.144,5.642"/>
				<g>
					<path style="fill:#FF9A6C;" d="M310.5,344.313c0,0-0.508-0.154-1.484-0.484c-0.987-0.337-2.431-0.831-4.315-1.475
						c-1.894-0.653-4.226-1.458-6.971-2.404c-2.751-0.931-5.908-2.055-9.382-3.474c-3.473-1.42-7.323-2.993-11.519-4.709
						c-4.2-1.705-8.738-3.589-13.681-5.351c-1.238-0.43-2.504-0.855-3.806-1.177c-1.291-0.333-2.675-0.3-4.058-0.221
						c-2.773,0.192-5.614,0.691-8.455,1.462c-1.421,0.384-2.845,0.837-4.234,1.42c-1.381,0.582-2.777,1.25-3.939,2.229
						c-1.138,0.983-1.998,2.353-2.275,3.873c-0.272,1.512-0.034,3.159,0.642,4.566l-0.102-0.095c1.249,0.524,2.582,0.992,3.953,1.2
						c0.689,0.09,1.376,0.123,1.984-0.185c0.67-0.27,1.345-0.542,2.024-0.815c2.716-1.093,5.499-2.214,8.326-3.352l1.158-0.466
						l-0.919,0.848c-1.882,1.735-3.816,3.458-5.847,5.129c-1.019,0.831-2.054,1.656-3.178,2.398c-0.543,0.37-1.258,0.662-1.91,0.774
						c-0.663,0.171-1.33,0.242-1.997,0.359c-5.346,0.695-10.837,0.97-16.394,1.662c-1.388,0.171-2.776,0.381-4.159,0.639
						c-1.362,0.316-2.774,0.581-3.871,1.408c-2.241,1.683-3.993,4.083-4.929,6.776c-0.452,1.342-0.702,2.798-0.471,4.186
						c0.114,0.688,0.42,1.324,0.911,1.784c0.497,0.458,1.167,0.717,1.86,0.874c0.686,0.138,1.457,0.236,2.135,0.217
						c0.656-0.032,1.248-0.447,1.694-0.989c0.891-1.105,1.396-2.554,1.736-3.964l0.045-0.187l0.182-0.017
						c2.993-0.288,6.084-0.585,9.234-0.888c1.577-0.133,3.169-0.268,4.771-0.403c0.809-0.057,1.592-0.124,2.445-0.128
						c0.205-0.005,0.497,0.031,0.725,0.23c0.23,0.203,0.298,0.497,0.307,0.73c0.009,0.483-0.124,0.884-0.291,1.294l-0.043,0.105
						l-0.118,0.036c-2.36,0.733-4.897,1.545-7.435,2.388c-1.688,0.562-3.366,1.134-5.026,1.734c-1.642,0.615-3.344,1.19-4.814,2.026
						c-1.45,0.944-2.811,2.048-4.112,3.186c-1.295,1.146-2.542,2.352-3.593,3.686c-0.513,0.667-1.013,1.374-1.21,2.143
						c-0.114,0.391-0.133,0.792-0.109,1.184c0.047,0.391,0.174,0.764,0.361,1.112c0.844,1.377,2.47,2.13,3.999,2.724
						c1.514,0.744,3.187,0.156,4.549-0.706c1.381-0.872,2.591-2.036,3.636-3.268l0.053-0.062l0.069-0.021
						c3.224-1.003,6.417-1.996,9.576-2.978c1.584-0.48,3.159-0.954,4.738-1.398l1.189-0.32l0.606-0.143
						c0.106-0.021,0.202-0.043,0.339-0.053c0.012-0.002,0.049-0.001,0.073,0.001c-0.009-0.004,0.107-0.002,0.204,0.096
						c0.133,0.195-0.036,0.421,0.001,0.337l-0.037,0.042c-0.051,0.059-0.102,0.108-0.144,0.137
						c-0.713,0.522-1.437,0.851-2.171,1.217c-2.92,1.421-5.974,2.478-8.871,3.659c-1.435,0.625-2.817,1.353-4.064,2.247
						c-1.233,0.902-2.339,1.991-3.032,3.317c-0.348,0.657-0.607,1.364-0.738,2.088c-0.136,0.719-0.095,1.461,0.237,2.064
						c0.337,0.601,0.951,1.017,1.617,1.296c0.665,0.278,1.393,0.495,2.101,0.639c0.167,0.005,0.327,0.027,0.499,0.025l0.535-0.066
						c0.356-0.03,0.715-0.142,1.072-0.209c0.712-0.173,1.42-0.367,2.117-0.589c1.4-0.429,2.773-0.917,4.132-1.409
						c2.715-0.992,5.362-2.038,7.969-3.056c1.317-0.492,2.567-1.049,3.948-1.41c0.697-0.147,1.47-0.124,2.145,0.204
						c0.664,0.348,1.142,0.978,1.346,1.667c0.244,0.685,0.134,1.488-0.19,2.104c-0.31,0.632-0.76,1.175-1.286,1.615
						c-0.264,0.22-0.546,0.416-0.844,0.584c-0.328,0.164-0.659,0.257-0.98,0.334c-0.642,0.157-1.271,0.281-1.842,0.527
						c-0.57,0.24-1.066,0.615-1.372,1.127c-0.305,0.516-0.396,1.13-0.432,1.735c0.023,1.216,0.227,2.492,0.865,3.488
						c0.638,1.003,1.721,1.628,2.874,1.854c1.157,0.238,2.349,0.214,3.521,0.154c0.589-0.028,1.174-0.072,1.776-0.05
						c0.33,0.036,0.566,0.034,0.814-0.012c0.259-0.082,0.519-0.16,0.767-0.299c1.004-0.501,1.918-1.181,2.799-1.856
						c1.748-1.382,3.352-2.853,4.836-4.346c0.743-0.746,1.456-1.5,2.118-2.273c0.348-0.38,0.619-0.785,0.973-1.17
						c0.333-0.406,0.74-0.719,1.142-1.022c1.663-1.143,3.481-1.83,5.227-2.431c1.757-0.586,3.478-1.041,5.151-1.4l-0.047,0.02
						c3.916-2.561,7.42-4.805,10.54-6.63c0.788-0.445,1.535-0.884,2.315-1.219c0.393-0.219,0.883-0.094,1.247,0.025
						c0.383,0.13,0.748,0.277,1.095,0.439c1.39,0.642,2.597,1.322,3.675,1.93c2.146,1.235,3.75,2.233,4.826,2.91
						c0.528,0.339,0.93,0.596,1.211,0.776c0.269,0.177,0.4,0.275,0.4,0.275s-0.144-0.077-0.42-0.244
						c-0.285-0.173-0.693-0.42-1.229-0.745c-1.087-0.656-2.704-1.634-4.857-2.848c-1.081-0.597-2.293-1.267-3.676-1.894
						c-0.345-0.158-0.707-0.3-1.079-0.423c-0.381-0.111-0.748-0.225-1.121-0.022c-0.75,0.328-1.501,0.773-2.281,1.22
						c-3.101,1.838-6.594,4.1-10.496,6.675l-0.021,0.014l-0.027,0.006c-1.655,0.363-3.371,0.824-5.112,1.412
						c-1.73,0.601-3.532,1.296-5.138,2.409c-0.818,0.543-1.377,1.347-2.051,2.148c-0.667,0.784-1.382,1.545-2.127,2.298
						c-1.489,1.506-3.095,2.988-4.855,4.389c-0.891,0.686-1.806,1.375-2.86,1.905c-0.256,0.144-0.547,0.237-0.841,0.328
						c-0.316,0.065-0.67,0.051-0.917,0.023c-0.562-0.019-1.149,0.025-1.738,0.055c-1.179,0.062-2.401,0.094-3.62-0.153
						c-1.211-0.231-2.422-0.913-3.123-2.017c-0.702-1.106-0.907-2.415-0.935-3.707c0.036-0.652,0.132-1.332,0.485-1.933
						c0.354-0.598,0.938-1.034,1.557-1.294c0.621-0.269,1.278-0.397,1.904-0.552c0.315-0.075,0.617-0.167,0.878-0.297
						c0.274-0.155,0.535-0.337,0.778-0.54c0.486-0.406,0.9-0.912,1.176-1.479c0.287-0.571,0.372-1.193,0.163-1.795
						c-0.18-0.602-0.59-1.126-1.136-1.413c-0.559-0.269-1.224-0.299-1.865-0.163c-1.278,0.335-2.576,0.905-3.875,1.396
						c-2.603,1.022-5.252,2.074-7.973,3.073c-1.362,0.496-2.739,0.988-4.151,1.423c-0.703,0.225-1.42,0.423-2.148,0.601
						c-0.371,0.07-0.727,0.182-1.113,0.218l-0.574,0.07c-0.199,0.005-0.412-0.02-0.617-0.033c-0.75-0.154-1.471-0.366-2.193-0.665
						c-0.708-0.296-1.429-0.762-1.842-1.495c-0.406-0.737-0.438-1.604-0.292-2.376c0.141-0.78,0.415-1.528,0.784-2.228
						c0.737-1.411,1.898-2.551,3.169-3.484c1.286-0.924,2.696-1.666,4.153-2.303c1.464-0.635,2.967-1.144,4.442-1.745
						c1.48-0.592,2.959-1.217,4.408-1.913c0.711-0.351,1.469-0.713,2.069-1.154c0.042-0.029,0.062-0.053,0.078-0.071l0.015-0.014
						c-0.039-0.044,0.343,0.23,0.198,0.126c-0.04,0.027-0.015,0.092-0.041,0.215c-0.004,0.021,0.01,0.004-0.004,0.01
						c-0.066,0.004-0.171,0.024-0.264,0.044l-0.584,0.138l-1.177,0.318c-1.571,0.443-3.145,0.918-4.726,1.399
						c-3.157,0.984-6.347,1.978-9.568,2.982l0.122-0.083c-1.091,1.286-2.31,2.462-3.762,3.384c-0.727,0.451-1.516,0.837-2.383,1.027
						l-0.661,0.096l-0.676-0.018c-0.449-0.074-0.894-0.193-1.281-0.351c-0.802-0.303-1.595-0.654-2.342-1.111
						c-0.745-0.451-1.448-1.046-1.924-1.837c-0.221-0.405-0.373-0.852-0.428-1.315c-0.031-0.462-0.003-0.929,0.123-1.366
						c0.239-0.907,0.773-1.637,1.302-2.331c1.088-1.38,2.348-2.596,3.659-3.757c1.32-1.153,2.682-2.262,4.177-3.235
						c1.587-0.9,3.253-1.45,4.916-2.076c1.667-0.602,3.349-1.175,5.039-1.738c2.543-0.844,5.081-1.657,7.446-2.391l-0.16,0.141
						c0.14-0.334,0.258-0.727,0.245-1.057c-0.023-0.346-0.148-0.467-0.54-0.462c-0.761,0.004-1.587,0.07-2.379,0.127
						c-1.599,0.135-3.188,0.269-4.763,0.402c-3.148,0.302-6.237,0.598-9.229,0.885l0.227-0.204c-0.364,1.49-0.862,2.955-1.846,4.189
						c-0.489,0.597-1.209,1.128-2.056,1.172c-0.804,0.019-1.517-0.08-2.278-0.229c-0.74-0.168-1.502-0.452-2.096-0.998
						c-0.589-0.549-0.943-1.312-1.067-2.069c-0.251-1.522,0.022-3.039,0.492-4.44c0.978-2.8,2.781-5.264,5.11-7.014
						c1.216-0.908,2.702-1.176,4.074-1.495c1.401-0.26,2.8-0.471,4.195-0.641c5.577-0.69,11.079-0.961,16.388-1.645
						c1.316-0.231,2.654-0.333,3.717-1.058c1.093-0.719,2.125-1.539,3.138-2.362c2.02-1.658,3.956-3.378,5.832-5.102l0.239,0.381
						c-2.823,1.131-5.6,2.245-8.311,3.331c-0.678,0.271-1.351,0.541-2.02,0.809c-0.706,0.356-1.525,0.316-2.229,0.218
						c-1.445-0.224-2.78-0.699-4.067-1.241l-0.071-0.03l-0.031-0.065c-0.729-1.527-0.965-3.225-0.677-4.846
						c0.301-1.624,1.211-3.067,2.421-4.108c1.227-1.027,2.648-1.697,4.053-2.288c1.412-0.589,2.851-1.043,4.285-1.427
						c2.868-0.77,5.727-1.267,8.535-1.454c1.398-0.076,2.814-0.108,4.161,0.24c1.331,0.333,2.598,0.763,3.841,1.199
						c4.954,1.782,9.484,3.681,13.68,5.403c4.189,1.733,8.031,3.323,11.497,4.757c3.466,1.435,6.605,2.573,9.353,3.523
						c2.736,0.969,5.062,1.793,6.95,2.461c1.875,0.67,3.312,1.184,4.294,1.534C310.006,344.116,310.5,344.313,310.5,344.313z"/>
				</g>
			</g>
		</g>
		<path style="fill:#FF725E;" d="M193.014,400.862c-4.066,4.006-8.678,7.458-13.668,10.23c0.179-4.517,0.358-9.034,0.538-13.551
			c-6.805,0.829-15.353,1.472-22.158,2.301c4.506-4.968,10.976-11.299,15.856-16.704c-6.348-1.61-12.696-3.219-19.044-4.829
			c6.14-2.951,12.279-5.902,18.419-8.853c0.556-0.267,1.171-0.603,1.327-1.199c0.155-0.591-0.206-1.181-0.551-1.685
			c-2.876-4.201-5.752-8.403-8.628-12.604c6.117,2.675,12.233,5.351,18.35,8.026l3.596,1.8l-9.799-2.426l5.084,8.55l-13.98,7.279
			l13.633,4.853l-9.012,9.821l11.323,0.462l-1.155,12.593L193.014,400.862z"/>
	</g>
</g>
</svg>
