<svg width="70" height="70" viewBox="0 0 70 70" fill="none" xmlns="http://www.w3.org/2000/svg">
<g clip-path="url(#clip0_9_298)">
<path fill-rule="evenodd" clip-rule="evenodd" d="M23.0806 65.3837V20.7786L2.62022 22.1879C2.61215 22.1879 2.60422 22.1879 2.59615 22.1879V64.9611C2.59615 65.1945 2.78537 65.3837 3.01875 65.3837H23.0806Z" fill="#BEB9DD"/>
<path fill-rule="evenodd" clip-rule="evenodd" d="M67.3798 22.1879L46.9196 20.7786V65.3837H66.9813C67.2146 65.3837 67.4038 65.1945 67.4038 64.9611V22.1879C67.3958 22.1879 67.3878 22.1918 67.3798 22.1879Z" fill="#BEB9DD"/>
<path fill-rule="evenodd" clip-rule="evenodd" d="M48.336 16.9591V22.1879H67.3798H67.4038C68.8323 22.1759 70 21.0068 70 19.5735C70 18.1361 68.8203 16.959 67.3798 16.959H48.336V16.9591Z" fill="#EB5468"/>
<path fill-rule="evenodd" clip-rule="evenodd" d="M2.59615 25.4549H17.1459C19.2404 25.4549 18.8833 26.5439 18.8833 28.6578V65.3836H21.664V22.1879H2.62022C2.61215 22.1879 2.60422 22.1879 2.59615 22.1879V25.4549Z" fill="#A7A2D3"/>
<path fill-rule="evenodd" clip-rule="evenodd" d="M66.5051 19.5735C66.5051 21.0068 65.3373 22.1759 63.9089 22.1879H67.3798H67.4038C68.8323 22.1759 70 21.0068 70 19.5735C70 18.1361 68.8203 16.959 67.3798 16.959H63.8848C65.3253 16.9591 66.5051 18.1361 66.5051 19.5735Z" fill="#E5384F"/>
<path fill-rule="evenodd" clip-rule="evenodd" d="M67.3798 22.1879H63.9089H48.336V25.4549H62.1955C63.3994 25.4549 63.9089 25.4308 63.9089 26.7481V65.3837H66.9814C67.2148 65.3837 67.404 65.1945 67.404 64.9611V22.1879C67.3958 22.1879 67.3879 22.1879 67.3798 22.1879Z" fill="#A7A2D3"/>
<path fill-rule="evenodd" clip-rule="evenodd" d="M48.3351 9.8448V65.3842H42.7465V49.2927H27.2535V65.3842H21.6649V9.8448L34.6015 8.24341L48.3351 9.8448Z" fill="#F9F7F8"/>
<path fill-rule="evenodd" clip-rule="evenodd" d="M7.39922 40.837H16.861V46.8546H7.39922V40.837Z" fill="#B1E4F9"/>
<path fill-rule="evenodd" clip-rule="evenodd" d="M7.39922 28.1895H16.861V34.207H7.39922V28.1895Z" fill="#B1E4F9"/>
<path fill-rule="evenodd" clip-rule="evenodd" d="M53.1351 28.1895H62.6008V34.207H53.1351V28.1895Z" fill="#B1E4F9"/>
<path fill-rule="evenodd" clip-rule="evenodd" d="M53.1351 40.837H62.6008V46.8546H53.1351V40.837Z" fill="#B1E4F9"/>
<path fill-rule="evenodd" clip-rule="evenodd" d="M53.1351 53.4888H62.6008V59.5023H53.1351V53.4888Z" fill="#B1E4F9"/>
<path fill-rule="evenodd" clip-rule="evenodd" d="M7.39922 53.4888H16.861V59.5023H7.39922V53.4888Z" fill="#B1E4F9"/>
<path fill-rule="evenodd" clip-rule="evenodd" d="M7.39922 28.1895H16.861V30.4155H7.39922V28.1895Z" fill="#75CEF8"/>
<path fill-rule="evenodd" clip-rule="evenodd" d="M7.39922 40.837H16.861V43.0631H7.39922V40.837Z" fill="#75CEF8"/>
<path fill-rule="evenodd" clip-rule="evenodd" d="M7.39922 53.4888H16.861V55.7109H7.39922V53.4888Z" fill="#75CEF8"/>
<path fill-rule="evenodd" clip-rule="evenodd" d="M53.1351 53.4888H62.6008V55.7109H53.1351V53.4888Z" fill="#75CEF8"/>
<path fill-rule="evenodd" clip-rule="evenodd" d="M53.1351 40.837H62.6008V43.0631H53.1351V40.837Z" fill="#75CEF8"/>
<path fill-rule="evenodd" clip-rule="evenodd" d="M53.1351 28.1895H62.6008V30.4155H53.1351V28.1895Z" fill="#75CEF8"/>
<path d="M62.6006 47.911H53.1351C52.5515 47.911 52.0788 47.4381 52.0788 46.8547V40.8372C52.0788 40.2538 52.5517 39.7809 53.1351 39.7809H62.6006C63.1842 39.7809 63.6569 40.2538 63.6569 40.8372V46.8547C63.6571 47.4381 63.1842 47.911 62.6006 47.911ZM54.1913 45.7983H61.5444V41.8935H54.1913V45.7983Z" fill="#F9F7F8"/>
<path d="M62.6006 60.5586H53.1351C52.5515 60.5586 52.0788 60.0857 52.0788 59.5023V53.4889C52.0788 52.9055 52.5517 52.4326 53.1351 52.4326H62.6006C63.1842 52.4326 63.6569 52.9055 63.6569 53.4889V59.5023C63.6571 60.0857 63.1842 60.5586 62.6006 60.5586ZM54.1913 58.4461H61.5444V54.5452H54.1913V58.4461Z" fill="#F9F7F8"/>
<path fill-rule="evenodd" clip-rule="evenodd" d="M21.664 13.0715H41.9197C43.8859 13.0715 44.5279 12.8753 44.5279 14.9572V20.1821V25.4148V65.3837H46.9194H48.3358V25.4549V22.1879V20.8747V16.9591V9.84448H21.664V13.0715Z" fill="#DDDAEC"/>
<path fill-rule="evenodd" clip-rule="evenodd" d="M49.311 4.61572H20.2918C18.8513 4.61572 17.6716 5.79287 17.6716 7.23019C17.6716 8.66752 18.8513 9.84467 20.2918 9.84467H21.664H48.3358H49.3109C50.7514 9.84467 51.9311 8.66752 51.9311 7.23019C51.9313 5.79273 50.7515 4.61572 49.311 4.61572V4.61572Z" fill="#EB5468"/>
<path fill-rule="evenodd" clip-rule="evenodd" d="M45.503 4.61572C46.9435 4.61572 48.1232 5.79287 48.1232 7.23019C48.1232 8.66752 46.9435 9.84467 45.503 9.84467H48.336H49.311C50.7515 9.84467 51.9312 8.66752 51.9312 7.23019C51.9312 5.79287 50.7515 4.61572 49.311 4.61572H45.503Z" fill="#E5384F"/>
<path fill-rule="evenodd" clip-rule="evenodd" d="M27.2535 49.2927H34.9986V65.3843H27.2535V49.2927Z" fill="#B1E4F9"/>
<path fill-rule="evenodd" clip-rule="evenodd" d="M34.9986 49.2927H42.7465V65.3843H34.9986V49.2927Z" fill="#B1E4F9"/>
<path fill-rule="evenodd" clip-rule="evenodd" d="M27.2537 51.4589H32.775H34.998V49.293H27.2537V51.4589Z" fill="#75CEF8"/>
<path fill-rule="evenodd" clip-rule="evenodd" d="M34.998 49.293V51.459H39.5322C40.7802 51.459 40.5193 51.8273 40.5193 53.1405V65.3838H42.7463V49.293H34.998Z" fill="#75CEF8"/>
<path d="M16.861 35.2633H7.39936C6.81584 35.2633 6.34307 34.7904 6.34307 34.207V28.1895C6.34307 27.6061 6.81598 27.1332 7.39936 27.1332H16.861C17.4445 27.1332 17.9173 27.6061 17.9173 28.1895V34.207C17.9173 34.7904 17.4445 35.2633 16.861 35.2633ZM8.45565 33.1507H15.8047V29.2459H8.45565V33.1507Z" fill="#F9F7F8"/>
<path d="M16.861 47.911H7.39936C6.81584 47.911 6.34307 47.4381 6.34307 46.8547V40.8372C6.34307 40.2538 6.81598 39.7809 7.39936 39.7809H16.861C17.4445 39.7809 17.9173 40.2538 17.9173 40.8372V46.8547C17.9173 47.4381 17.4445 47.911 16.861 47.911ZM8.45565 45.7983H15.8047V41.8935H8.45565V45.7983Z" fill="#F9F7F8"/>
<path d="M16.861 60.5586H7.39936C6.81584 60.5586 6.34307 60.0857 6.34307 59.5023V53.4889C6.34307 52.9055 6.81598 52.4326 7.39936 52.4326H16.861C17.4445 52.4326 17.9173 52.9055 17.9173 53.4889V59.5023C17.9173 60.0857 17.4445 60.5586 16.861 60.5586ZM8.45565 58.4461H15.8047V54.5452H8.45565V58.4461Z" fill="#F9F7F8"/>
<path d="M62.6006 35.2633H53.1351C52.5515 35.2633 52.0788 34.7904 52.0788 34.207V28.1895C52.0788 27.6061 52.5517 27.1332 53.1351 27.1332H62.6006C63.1842 27.1332 63.6569 27.6061 63.6569 28.1895V34.207C63.6571 34.7904 63.1842 35.2633 62.6006 35.2633ZM54.1913 33.1507H61.5444V29.2459H54.1913V33.1507Z" fill="#F9F7F8"/>
<path d="M43.8028 49.2926V65.3841H41.6901V50.3489H36.0548V65.3841H33.9421V50.3489H28.3097V65.3841H26.197V49.2926C26.197 48.7095 26.6701 48.2363 27.2532 48.2363H42.7462C43.3296 48.2363 43.8028 48.7095 43.8028 49.2926Z" fill="#375E7D"/>
<path fill-rule="evenodd" clip-rule="evenodd" d="M37.1849 17.1072H32.8111C32.6025 17.1072 32.4339 17.2793 32.4339 17.4875V21.5113H28.4013C28.1885 21.5113 28.0201 21.6834 28.0201 21.8916V26.2557C28.0201 26.4639 28.1887 26.6321 28.4013 26.6321H32.4339V30.6598C32.4339 30.8681 32.6025 31.0362 32.8111 31.0362H37.1849C37.3935 31.0362 37.5661 30.8681 37.5661 30.6598V26.6321H41.5987C41.8074 26.6321 41.9799 26.4639 41.9799 26.2557V21.8916C41.9799 21.6834 41.8074 21.5113 41.5987 21.5113H37.5661V17.4875C37.5661 17.2794 37.3935 17.1072 37.1849 17.1072V17.1072Z" fill="#EB5468"/>
<path fill-rule="evenodd" clip-rule="evenodd" d="M37.1849 17.1072H34.0029C34.7333 18.7648 35.1746 20.9188 35.1746 23.2688C35.1746 26.4838 34.352 29.3225 33.0921 31.0359H37.1849C37.3935 31.0359 37.5661 30.8678 37.5661 30.6596V26.6318H41.5987C41.8074 26.6318 41.9799 26.4637 41.9799 26.2554V21.8914C41.9799 21.6832 41.8074 21.511 41.5987 21.511H37.5661V17.4873C37.5661 17.2794 37.3935 17.1072 37.1849 17.1072V17.1072Z" fill="#E5384F"/>
<path d="M39.464 37.5454H30.536C29.9525 37.5454 29.4797 37.0725 29.4797 36.4892C29.4797 35.9058 29.9526 35.4329 30.536 35.4329H39.464C40.0475 35.4329 40.5203 35.9058 40.5203 36.4892C40.5203 37.0725 40.0475 37.5454 39.464 37.5454Z" fill="#60B7FF"/>
<path d="M39.464 42.534H30.536C29.9525 42.534 29.4797 42.0611 29.4797 41.4777C29.4797 40.8943 29.9526 40.4214 30.536 40.4214H39.464C40.0475 40.4214 40.5203 40.8943 40.5203 41.4777C40.5203 42.0611 40.0475 42.534 39.464 42.534Z" fill="#60B7FF"/>
<path fill-rule="evenodd" clip-rule="evenodd" d="M0 19.5734C0 21.0068 1.16771 22.1759 2.59615 22.1879H2.62021H21.664V16.9591H2.62021C1.17975 16.9591 0 18.1361 0 19.5734H0Z" fill="#EB5468"/>
<path fill-rule="evenodd" clip-rule="evenodd" d="M18.8833 16.9591V21.0668V22.1879H21.664V20.8747V16.9591H18.8833Z" fill="#E5384F"/>
</g>
<defs>
<clipPath id="clip0_9_298">
<rect width="70" height="70" fill="white"/>
</clipPath>
</defs>
</svg>
