<svg width="70" height="70" viewBox="0 0 70 70" fill="none" xmlns="http://www.w3.org/2000/svg">
<path d="M35 70C54.33 70 70 54.33 70 35C70 15.67 54.33 0 35 0C15.67 0 0 15.67 0 35C0 54.33 15.67 70 35 70Z" fill="#81C8EA"/>
<path d="M35 0C15.7009 0 0 15.7009 0 35C0 54.2991 15.7009 70 35 70C54.2991 70 70 54.2991 70 35C70 15.7009 54.2991 0 35 0ZM3.07275 36.4984H14.6352C14.7478 41.3036 15.3997 45.8283 16.4921 49.9078H6.70378C4.56783 45.8701 3.29749 41.3207 3.07275 36.4984ZM36.4984 17.0954V3.13656C41.8624 3.98464 46.5409 9.31311 49.4059 17.0954H36.4984ZM50.3753 20.0921C51.5359 24.1299 52.226 28.6792 52.3482 33.5015H36.4984V20.0921H50.3753V20.0921ZM33.5017 3.13656V17.0954H20.5941C23.4591 9.31311 28.1376 3.98464 33.5017 3.13656ZM33.5017 20.0921V33.5015H17.6518C17.774 28.6792 18.464 24.1297 19.6247 20.0921H33.5017V20.0921ZM14.635 33.5017H3.07275C3.29749 28.6793 4.56783 24.1299 6.70378 20.0922H16.4921C15.3997 24.1717 14.7477 28.6964 14.635 33.5017ZM17.6518 36.4984H33.5017V49.9078H19.6247C18.4642 45.8701 17.774 41.3207 17.6518 36.4984ZM33.5017 52.9046V66.8634C28.1376 66.0154 23.4591 60.6869 20.5941 52.9046H33.5017ZM36.4984 66.8634V52.9046H49.4059C46.5409 60.6869 41.8624 66.0154 36.4984 66.8634ZM36.4984 49.9079V36.4985H52.3482C52.226 41.3208 51.536 45.8703 50.3753 49.9079H36.4984ZM55.365 36.4984H66.9273C66.7025 41.3207 65.4322 45.8701 63.2962 49.9078H53.5079C54.6003 45.8283 55.2523 41.3036 55.365 36.4984ZM55.365 33.5017C55.2523 28.6964 54.6005 24.1717 53.5079 20.0922H63.2962C65.4323 24.13 66.7025 28.6793 66.9273 33.5017H55.365V33.5017ZM61.5123 17.0954H52.5996C50.8611 11.99 48.39 7.75138 45.4148 4.7712C52.0179 7.05326 57.6609 11.4106 61.5123 17.0954ZM24.5852 4.7712C21.6101 7.75138 19.1389 11.99 17.4005 17.0954H8.48767C12.3392 11.4106 17.9821 7.05326 24.5852 4.7712ZM8.48767 52.9046H17.4005C19.1389 58.0101 21.61 62.2486 24.5852 65.2288C17.9821 62.9467 12.3392 58.5894 8.48767 52.9046ZM45.4148 65.2288C48.39 62.2486 50.8611 58.0101 52.5996 52.9046H61.5123C57.6609 58.5894 52.0179 62.9467 45.4148 65.2288Z" fill="#2A6590"/>
<path d="M58.6713 41.9191L34.2854 31.2935L44.9108 55.6794L47.9403 48.4494L53.3789 53.8879L56.88 50.3868L51.4413 44.9484L58.6713 41.9191Z" fill="white"/>
</svg>
