<svg height="512" viewBox="0 0 64 64" width="512" xmlns="http://www.w3.org/2000/svg"><g id="_06-Note_book" data-name="06-Note book"><path d="m21 15h20v14h-20z" fill="#bc8f6e"/><path d="m44 1h4v62h-4z" fill="#bc8f6e"/><path d="m10 1v62h-4a2 2 0 0 1 -2-2v-58a2 2 0 0 1 2-2z" fill="#bc8f6e"/><path d="m52 31v32h-4v-62h4z" fill="#555f69"/><path d="m41 15h-20v14h20zm3-14v62h-34v-62z" fill="#555f69"/><path d="m10 55a3 3 0 0 1 -3-3v-49a2 2 0 0 1 2-2h-3a2 2 0 0 0 -2 2v58a2 2 0 0 0 2 2h4z" fill="#a97c5d"/><path d="m48 55h4v8h-4z" fill="#464e57"/><path d="m42 1v52a2 2 0 0 1 -2 2h-30v8h34v-62z" fill="#464e57"/><path d="m57.393 19.61a2.059 2.059 0 0 1 0 2.919l-1.46 1.46-2.92-2.92 1.46-1.459a2.052 2.052 0 0 1 2.92 0z" fill="#ca9f7c"/><path d="m23.839 53.161v2.92l-5.839 2.919 2.919-5.839z" fill="#bc8f6e"/><path d="m55.933 23.989-32.094 32.092v-2.92h-2.92l32.094-32.092z" fill="#eee9e3"/><path d="m57.391 19.609-2.919 2.919 1.461 1.461 1.46-1.46a2.059 2.059 0 0 0 0-2.919z" fill="#a97c5d"/><path d="m23.839 53.161-5.839 5.839 5.839-2.919z" fill="#a97c5d"/><path d="m23.839 53.161v2.92l32.094-32.092-1.461-1.461z" fill="#ded2c2"/><path d="m23.839 56.081-3.839 1.919-2 4 5.839-2.919 20.161-20.16v-3z" fill="#2e3238"/><path d="m52 27.921-4 4v3l4-4z" fill="#2e3238"/><path d="m44 35.921v3l4-4v-3z" fill="#8f6348"/><g fill="#eee9e3"><path d="m26 20h10v2h-10z"/><path d="m29 23h4v2h-4z"/><path d="m38 3h2v2h-2z"/><path d="m34 3h2v2h-2z"/></g></g></svg>