<svg width="70" height="70" viewBox="0 0 70 70" fill="none" xmlns="http://www.w3.org/2000/svg">
<g clip-path="url(#clip0_55_2269)">
<path d="M52.9048 69.9754H2.45186C1.09749 69.9754 0 68.8779 0 67.5241V2.45186C0 1.09749 1.09749 0 2.45186 0H52.9048C54.2587 0 55.3567 1.09749 55.3567 2.45186V67.5241C55.3561 68.8779 54.2587 69.9754 52.9048 69.9754Z" fill="#FFF5F5"/>
<path d="M55.3556 2.45132V67.5246C55.3556 68.8785 54.2581 69.9754 52.9048 69.9754H49.2727C50.6265 69.9754 51.7251 68.8785 51.7251 67.5246V2.45132C51.7251 1.09749 50.6265 0 49.2727 0H52.9048C54.2581 0 55.3556 1.09749 55.3556 2.45132Z" fill="#EFE2DD"/>
<path d="M48.204 12.4115C48.204 15.6004 45.6192 18.1857 42.4298 18.1857C39.241 18.1857 36.6556 15.6004 36.6556 12.4115C36.6556 9.22211 39.241 6.63727 42.4298 6.63727C45.6192 6.63727 48.204 9.22211 48.204 12.4115Z" fill="#0ECB65"/>
<path d="M48.2035 12.411C48.2035 15.5998 45.6192 18.1857 42.4309 18.1857C40.7486 18.1857 39.2361 17.468 38.1798 16.3208C38.7646 16.5205 39.3932 16.6279 40.0463 16.6279C43.2352 16.6279 45.8205 14.0425 45.8205 10.8537C45.8205 9.34547 45.2427 7.97188 44.2969 6.94382C46.5693 7.72141 48.2035 9.87526 48.2035 12.411Z" fill="#00AC4F"/>
<path d="M30.7964 8.76015H28.0209C27.4543 8.76015 26.9955 8.30139 26.9955 7.73476C26.9955 7.16866 27.4543 6.70937 28.0209 6.70937H30.7964C31.3631 6.70937 31.8218 7.16866 31.8218 7.73476C31.8218 8.30139 31.3625 8.76015 30.7964 8.76015Z" fill="#FFB541"/>
<path d="M21.1813 8.76015H7.1521C6.586 8.76015 6.12671 8.30139 6.12671 7.73476C6.12671 7.16866 6.586 6.70937 7.1521 6.70937H21.1813C21.7474 6.70937 22.2066 7.16866 22.2066 7.73476C22.2066 8.30139 21.7474 8.76015 21.1813 8.76015Z" fill="#FFB541"/>
<path d="M10.7703 18.1131H7.1521C6.586 18.1131 6.12671 17.6538 6.12671 17.0877C6.12671 16.5211 6.586 16.0623 7.1521 16.0623H10.7703C11.337 16.0623 11.7957 16.5211 11.7957 17.0877C11.7957 17.6538 11.3364 18.1131 10.7703 18.1131Z" fill="#FFB541"/>
<path d="M19.8974 18.1131H17.61C17.0434 18.1131 16.5846 17.6538 16.5846 17.0877C16.5846 16.5211 17.0434 16.0623 17.61 16.0623H19.8974C20.4635 16.0623 20.9228 16.5211 20.9228 17.0877C20.9228 17.6538 20.4635 18.1131 19.8974 18.1131Z" fill="#FFB541"/>
<path d="M30.7964 13.4369H7.1521C6.586 13.4369 6.12671 12.9776 6.12671 12.4115C6.12671 11.8449 6.586 11.3861 7.1521 11.3861H30.7964C31.3631 11.3861 31.8218 11.8449 31.8218 12.4115C31.8218 12.9776 31.3625 13.4369 30.7964 13.4369Z" fill="#FFB541"/>
<path d="M45.4366 29.9062H9.91959C8.39111 29.9062 7.1521 28.6671 7.1521 27.1387C7.1521 25.6102 8.39111 24.3707 9.91959 24.3707H45.4366C46.965 24.3707 48.204 25.6097 48.204 27.1387C48.204 28.6671 46.965 29.9062 45.4366 29.9062Z" fill="#2A6590"/>
<path d="M45.4366 39.5908H9.91959C8.39111 39.5908 7.1521 38.3517 7.1521 36.8233C7.1521 35.2948 8.39111 34.0553 9.91959 34.0553H45.4366C46.965 34.0553 48.204 35.2943 48.204 36.8233C48.204 38.3517 46.965 39.5908 45.4366 39.5908Z" fill="#2A6590"/>
<path d="M45.4366 49.2754H9.91959C8.39111 49.2754 7.1521 48.0363 7.1521 46.5079C7.1521 44.9794 8.39111 43.7404 9.91959 43.7404H45.4366C46.965 43.7404 48.204 44.9794 48.204 46.5079C48.204 48.0363 46.965 49.2754 45.4366 49.2754Z" fill="#2A6590"/>
<path d="M34.8339 58.9605H9.91959C8.39111 58.9605 7.1521 57.7209 7.1521 56.1925C7.1521 54.664 8.39111 53.425 9.91959 53.425H34.8339C36.3629 53.425 37.6019 54.664 37.6019 56.1925C37.6019 57.7209 36.3629 58.9605 34.8339 58.9605Z" fill="#2A6590"/>
<path d="M48.2035 27.1392C48.2035 27.9024 47.8938 28.5945 47.3939 29.096C46.8924 29.5959 46.2003 29.9056 45.4371 29.9056H42.3102C43.075 29.9056 43.7676 29.5959 44.2686 29.096C44.7684 28.5945 45.0787 27.9024 45.0787 27.1392C45.0787 25.6097 43.8397 24.3707 42.3102 24.3707H45.4371C46.9645 24.3707 48.2035 25.6097 48.2035 27.1392Z" fill="#40A5DB"/>
<path d="M48.2035 36.8233C48.2035 37.5875 47.8938 38.2802 47.3939 38.7801C46.8924 39.281 46.2003 39.5913 45.4371 39.5913H42.3102C43.075 39.5913 43.7676 39.281 44.2686 38.7801C44.7684 38.2802 45.0787 37.5875 45.0787 36.8233C45.0787 35.2953 43.8397 34.0563 42.3102 34.0563H45.4371C46.9645 34.0563 48.2035 35.2948 48.2035 36.8233Z" fill="#40A5DB"/>
<path d="M48.2035 46.5084C48.2035 47.2732 47.8938 47.9637 47.3939 48.4652C46.8924 48.9651 46.2003 49.2748 45.4371 49.2748H42.3102C43.075 49.2748 43.7676 48.9651 44.2686 48.4652C44.7684 47.9637 45.0787 47.2732 45.0787 46.5084C45.0787 44.9789 43.8397 43.7399 42.3102 43.7399H45.4371C46.9645 43.7404 48.2035 44.9789 48.2035 46.5084Z" fill="#40A5DB"/>
<path d="M37.6019 56.1925C37.6019 56.9572 37.2922 57.6494 36.7923 58.1509C36.2908 58.6507 35.5987 58.9605 34.8339 58.9605H31.7086C32.4734 58.9605 33.1644 58.6507 33.6654 58.1509C34.1653 57.6494 34.4756 56.9572 34.4756 56.1925C34.4756 54.6645 33.2365 53.4255 31.7086 53.4255H34.8334C36.3629 53.4255 37.6019 54.6645 37.6019 56.1925Z" fill="#40A5DB"/>
<path d="M53.0538 39.2271C51.9093 40.5793 51.4597 42.3866 51.8372 44.1169L53.6226 52.3019H61.172L62.9579 44.1169C63.3355 42.3866 62.8858 40.5793 61.7413 39.2271C59.4678 36.5413 55.3268 36.5413 53.0538 39.2271Z" fill="#B88A65"/>
<path d="M62.9585 44.118L61.1726 52.3024H58.5642L60.3501 44.118C60.7266 42.386 60.278 40.5793 59.1335 39.2271C58.3068 38.2513 57.2334 37.6297 56.0937 37.3632C56.5225 37.2628 56.9599 37.2131 57.3978 37.2131C59.0005 37.2131 60.6049 37.8844 61.7419 39.2271C62.8858 40.5793 63.335 42.386 62.9585 44.118Z" fill="#A87A52"/>
<path d="M57.3973 63.6234H47.9445L48.7707 67.2913C49.1226 68.8528 50.5096 69.9621 52.1107 69.9621H62.6839C64.285 69.9621 65.672 68.8528 66.0239 67.2913L66.8501 63.6234H57.3973Z" fill="#FFB541"/>
<path d="M66.8507 63.6234L66.0239 67.2907C65.6725 68.8528 64.285 69.9626 62.6834 69.9626H59.3899C60.9915 69.9626 62.3795 68.8528 62.7304 67.2907L63.5577 63.6234H66.8507Z" fill="#FFA812"/>
<path d="M62.7058 57.2803H52.0893V52.7008C52.0893 52.0658 52.6041 51.5515 53.2386 51.5515H61.556C62.191 51.5515 62.7053 52.0658 62.7053 52.7008V57.2803H62.7058Z" fill="#7C8388"/>
<path d="M62.7064 52.7013V57.2809H59.4128V52.7013C59.4128 52.0653 58.8969 51.5515 58.263 51.5515H61.5565C62.191 51.5515 62.7064 52.0653 62.7064 52.7013Z" fill="#6A7075"/>
<path d="M67.7511 63.9048H47.0441C45.8018 63.9048 44.7952 62.8981 44.7952 61.6559V58.9658C44.7952 57.7242 45.8018 56.7169 47.0441 56.7169H67.7511C68.9928 56.7169 69.9995 57.7242 69.9995 58.9658V61.6559C69.9995 62.8981 68.9928 63.9048 67.7511 63.9048Z" fill="#B88A65"/>
<path d="M70 58.9664V61.6564C70 62.8981 68.9933 63.9053 67.7516 63.9053H64.4581C65.6998 63.9053 66.7065 62.8981 66.7065 61.6564V58.9664C66.7065 57.7242 65.6998 56.7175 64.4581 56.7175H67.7516C68.9933 56.7175 70 57.7242 70 58.9664Z" fill="#A87A52"/>
</g>
<defs>
<clipPath id="clip0_55_2269">
<rect width="70" height="70" fill="white"/>
</clipPath>
</defs>
</svg>
