<svg width="70" height="70" viewBox="0 0 70 70" fill="none" xmlns="http://www.w3.org/2000/svg">
<path fill-rule="evenodd" clip-rule="evenodd" d="M35.9302 65.0006C36.7719 65.6897 37.1908 66.0644 37.6137 66.0804C38.0324 66.0643 38.4553 65.6895 39.2971 65.0006L61.4906 42.2749C68.0549 35.2517 68.0549 23.756 61.4906 16.7288C55.5264 10.3462 45.7324 11.7646 39.5184 17.8771L38.3506 19.0255C37.6739 19.6904 37.5452 19.6904 36.8524 19.0094L35.7046 17.8771C29.5028 11.7605 19.6967 10.3462 13.7324 16.7288C7.16817 23.756 7.16817 35.2517 13.7324 42.2749L16.3944 45.0029L35.9302 65.0006Z" fill="#FD8087"/>
<path fill-rule="evenodd" clip-rule="evenodd" d="M42.2529 15.6409C45.4464 20.2748 47.299 25.7788 47.299 31.6819C47.299 32.3265 47.2748 32.9632 47.2305 33.5918C46.8761 38.8341 45.0558 43.7096 42.1482 47.872C40.8676 49.7054 39.3775 51.4016 37.7023 52.9329C35.9142 54.5689 33.9207 56.0114 31.7581 57.2242C31.0171 57.6393 30.256 58.03 29.4748 58.3928L35.9304 65.0009C36.772 65.69 37.1909 66.0647 37.6138 66.0807C38.0326 66.0646 38.4554 65.6899 39.2972 65.0009L46.0869 58.0462L61.4906 42.275C66.6776 36.7265 67.7649 28.3818 64.7567 21.6608C63.9553 19.8758 62.8679 18.2036 61.4906 16.7288C60.5845 15.7618 59.5898 14.972 58.5346 14.3516C55.0955 12.3329 50.9998 12.1032 47.1338 13.2877C45.4383 13.8075 43.7832 14.6054 42.2529 15.6409V15.6409Z" fill="#FE636E"/>
<path d="M44.1578 39.8143C44.1515 39.8143 44.1452 39.8141 44.1391 39.8141C43.7602 39.8074 43.4141 39.5981 43.2317 39.2659L37.7714 29.3104L33.7059 36.4175C33.5216 36.7396 33.1822 36.9414 32.8113 36.9492C32.4376 36.956 32.0925 36.7695 31.8951 36.4555L29.3698 32.4406L27.4641 35.6076C27.2731 35.9252 26.9296 36.1193 26.5591 36.1193H19.9586C19.3752 36.1193 18.9023 35.6461 18.9023 35.0625C18.9023 34.4788 19.3752 34.0056 19.9586 34.0056H25.9621L28.4449 29.8796C28.6341 29.5653 28.9726 29.3714 29.3394 29.3679C29.343 29.3677 29.3464 29.3677 29.3498 29.3677C29.7127 29.3677 30.0504 29.5541 30.2438 29.8617L32.746 33.8398L36.874 26.6236C37.0623 26.2946 37.4123 26.0918 37.7907 26.0918C37.794 26.0918 37.797 26.0918 37.8003 26.0919C38.1824 26.0954 38.5329 26.3051 38.7168 26.6403L44.1953 36.6291L46.9592 31.9871C47.1496 31.6672 47.4944 31.4711 47.8667 31.4711H56.6701C57.2534 31.4711 57.7263 31.9443 57.7263 32.528C57.7263 33.1116 57.2534 33.5848 56.6701 33.5848H48.4671L45.0652 39.2983C44.8745 39.6185 44.5296 39.8143 44.1578 39.8143V39.8143Z" fill="#F8F2F0"/>
<path fill-rule="evenodd" clip-rule="evenodd" d="M58.5346 23.4942C64.8493 23.4942 70 18.3405 70 12.0185C70 5.70049 64.8493 0.546875 58.5346 0.546875C52.216 0.546875 47.0653 5.70049 47.0653 12.0185C47.0653 18.3405 52.216 23.4942 58.5346 23.4942Z" fill="#F8F2F0"/>
<path fill-rule="evenodd" clip-rule="evenodd" d="M54.4229 1.30443C58.4541 3.08547 61.265 7.11484 61.265 11.805C61.265 11.8774 61.265 11.95 61.2611 12.0185C61.2369 13.3522 60.9872 14.6296 60.5443 15.8102C59.4006 18.8887 56.9681 21.3425 53.9075 22.5191C55.3211 23.1477 56.8876 23.4942 58.5348 23.4942C60.8262 23.4942 62.9646 22.8212 64.7567 21.6608C67.9139 19.6138 70 16.0599 70 12.0185C70 5.68435 64.8654 0.546875 58.5346 0.546875C57.0849 0.546875 55.6996 0.812793 54.4229 1.30443V1.30443Z" fill="#D6DCEA"/>
<path d="M62.7067 10.9615H59.5909V7.84407C59.5909 7.26041 59.118 6.78723 58.5346 6.78723C57.9512 6.78723 57.4783 7.26041 57.4783 7.84407V10.9617H54.3625C53.7791 10.9617 53.3062 11.4348 53.3062 12.0185C53.3062 12.6022 53.7791 13.0753 54.3625 13.0753H57.4783V16.1929C57.4783 16.7766 57.9512 17.2498 58.5346 17.2498C59.118 17.2498 59.5909 16.7766 59.5909 16.1929V13.0752H62.7067C63.2901 13.0752 63.763 12.602 63.763 12.0184C63.763 11.4347 63.2903 10.9615 62.7067 10.9615Z" fill="#FD8087"/>
<path fill-rule="evenodd" clip-rule="evenodd" d="M9.78195 47.5574L7.43011 55.1891L9.78195 63.276L20.615 66.2254L29.4022 68.6148C34.5287 70.2105 36.792 69.2998 41.5078 67.7848L58.7884 62.2405C63.7498 60.6489 63.0089 53.8231 55.7479 56.1561L46.0868 58.0458L44.5081 58.356C42.1643 58.8113 41.8421 59.0006 39.4782 58.6341L31.7581 57.2238L30.3566 56.966C27.1913 55.9547 28.4236 51.7157 31.1862 52.1348C33.0548 52.3725 35.5597 52.7109 37.7021 52.9325C37.7464 52.9365 37.7907 52.9406 37.831 52.9446C41.9669 53.3636 43.6261 50.2731 42.1482 47.8716C41.5885 46.957 40.5695 46.139 39.0593 45.6595L33.24 44.5917C29.4666 43.8987 26.7844 44.761 20.929 45.724L17.6308 46.268L9.78195 47.5574Z" fill="#FED1A3"/>
<path fill-rule="evenodd" clip-rule="evenodd" d="M0 46.1916V64.7871C0 65.0208 0.245684 65.2102 0.54373 65.2102H9.23439C9.53641 65.2102 9.78209 65.0209 9.78209 64.7871V63.2761V47.5575V46.1916C9.78209 45.9579 9.53641 45.7684 9.23439 45.7684H0.54373C0.245684 45.7686 0 45.9579 0 46.1916H0Z" fill="#4E8FBE"/>
<path fill-rule="evenodd" clip-rule="evenodd" d="M0 61.9302V64.7871C0 65.0207 0.245684 65.2102 0.54373 65.2102H9.23439C9.53641 65.2102 9.78209 65.0208 9.78209 64.7871V63.276V61.9302C9.78209 62.1599 9.53641 62.3533 9.23439 62.3533H0.54373C0.245684 62.3533 0 62.1599 0 61.9302H0Z" fill="#2A6590"/>
<path fill-rule="evenodd" clip-rule="evenodd" d="M9.78195 61.9301V63.276L20.615 66.2254L29.4022 68.6148C34.5287 70.2105 36.792 69.2998 41.5078 67.7848L58.7884 62.2405C61.5873 61.3459 62.5699 58.7833 61.5953 57.1353C61.1162 58.0861 60.1778 58.9404 58.7884 59.3836L41.5078 64.928C36.792 66.439 34.5287 67.3536 29.4022 65.758L20.615 63.3685L9.78195 60.415V61.9301Z" fill="#FFBC85"/>
<path fill-rule="evenodd" clip-rule="evenodd" d="M31.1862 49.2781C28.9954 48.9477 27.7672 51.5386 28.9269 53.1302C29.39 52.4411 30.1875 51.9858 31.1862 52.1349C33.0548 52.3726 35.5597 52.711 37.7021 52.9326L37.831 52.9446C41.7736 53.3436 43.4651 50.5593 42.3374 48.2181C42.0273 48.8145 41.5078 49.3262 40.791 49.6687C40.0258 50.0354 39.0311 50.2086 37.831 50.0878L37.7021 50.0757C35.5597 49.8543 33.0549 49.5157 31.1862 49.2781V49.2781Z" fill="#FFBC85"/>
</svg>
