<?xml version="1.0" encoding="utf-8"?>
<!-- Generator: Adobe Illustrator 27.5.0, SVG Export Plug-In . SVG Version: 6.00 Build 0)  -->
<svg version="1.1" xmlns="http://www.w3.org/2000/svg" xmlns:xlink="http://www.w3.org/1999/xlink" x="0px" y="0px"
	 viewBox="0 0 750 500.001" style="enable-background:new 0 0 750 500.001;" xml:space="preserve">
<g id="BACKGROUND">
	<g>
		<rect style="fill:#FFFFFF;" width="750" height="500.001"/>
		<g>
			<path style="fill:#95D5F9;" d="M549.647,449.401h127.478c0,0,73.762-136.794,12.787-207.554
				c-49.955-57.972-127.874,3.21-161.488-71.764C483.694,70.317,411.953,27.022,342.265,64.771
				c-69.958,37.895-79.713,143.448-133.431,140.724c-49.523-2.511-102.854-22.504-151.457,34.401
				c-34.785,40.727-27.38,162.946,23.353,209.506H549.647z"/>
			<path style="fill:#95D5F9;" d="M652.5,69.519c16.373,27.1,12.545,59.401-8.553,72.147c-21.096,12.746-51.471,1.109-67.844-25.991
				c-16.373-27.1-12.544-59.401,8.553-72.147C605.752,30.782,636.125,42.419,652.5,69.519z"/>
			<ellipse style="fill:#95D5F9;" cx="136.666" cy="127.181" rx="51.268" ry="46.316"/>
		</g>
	</g>
</g>
<g id="OBJECTS">
	<g>
		<g>
			<g>
				<path style="fill:#09105E;" d="M227.021,226.65c25.167-11.992,15.797-43.252,6.528-53.976
					c-9.268-10.723-14.286-27.041-14.286-35.989v-8.42c-0.077-20.461-16.155-33.619-36.083-33.619l0,0
					c-19.928,0-36.084,15.052-36.084,33.619v8.42c0,11.874-0.875,28.804-9.721,35.989c-8.846,7.186-22.439,28.062-4.497,46.815
					S195.655,241.597,227.021,226.65z"/>
				<g>
					<g>
						<path style="fill:#1D4C9A;" d="M153.793,130.973c-0.051,0-0.102-0.011-0.151-0.034c-0.177-0.083-0.253-0.294-0.169-0.47
							c0.096-0.205,10.001-20.517,42.232-24.971c0.186-0.027,0.372,0.108,0.399,0.302c0.027,0.193-0.109,0.372-0.302,0.399
							c-31.855,4.402-41.595,24.371-41.689,24.571C154.053,130.898,153.926,130.973,153.793,130.973z"/>
					</g>
					<g>
						<path style="fill:#1D4C9A;" d="M150.682,130.973c-0.028,0-0.056-0.004-0.083-0.011c-0.19-0.046-0.307-0.238-0.26-0.427
							c0.075-0.305,7.863-30.567,45.428-29.257c0.195,0.007,0.348,0.171,0.341,0.366c-0.007,0.195-0.148,0.339-0.366,0.342
							c-19.294-0.678-30.436,7.162-36.368,13.855c-6.436,7.262-8.329,14.788-8.348,14.862
							C150.985,130.864,150.841,130.973,150.682,130.973z"/>
					</g>
					<g>
						<path style="fill:#1D4C9A;" d="M150.682,120.991c-0.03,0-0.06-0.003-0.09-0.011c-0.189-0.049-0.301-0.243-0.252-0.432
							c0.072-0.276,7.556-27.438,38.879-22.691c0.193,0.029,0.326,0.21,0.296,0.403c-0.029,0.192-0.213,0.325-0.403,0.296
							c-16.038-2.425-25.545,3.732-30.688,9.327c-5.577,6.066-7.383,12.778-7.401,12.844
							C150.982,120.886,150.838,120.991,150.682,120.991z"/>
					</g>
					<g>
						<path style="fill:#1D4C9A;" d="M217.107,136.244c-0.136,0-0.261-0.078-0.32-0.202c-6.337-13.417-15.955-25.797-16.052-25.92
							c-0.12-0.154-0.092-0.376,0.062-0.497c0.152-0.119,0.376-0.093,0.497,0.062c0.094,0.12,9.2,11.838,15.561,24.86
							c0.257-4.78,0.242-21.561-11.552-31.08c-0.152-0.123-0.175-0.346-0.053-0.498c0.123-0.152,0.345-0.176,0.497-0.053
							c14.092,11.374,11.737,32.802,11.711,33.017c-0.018,0.157-0.138,0.282-0.294,0.308
							C217.145,136.242,217.126,136.244,217.107,136.244z"/>
					</g>
					<g>
						<path style="fill:#1D4C9A;" d="M217.106,135.678c-0.173,0-0.325-0.128-0.35-0.305c-1.549-10.996-5.455-18.535-8.458-22.923
							c-3.253-4.756-6.179-6.939-6.208-6.961c-0.157-0.115-0.191-0.337-0.075-0.494c0.115-0.157,0.337-0.194,0.494-0.076
							c0.12,0.087,11.938,8.999,14.947,30.355c0.027,0.193-0.108,0.373-0.301,0.399
							C217.139,135.676,217.123,135.678,217.106,135.678z"/>
					</g>
					<g>
						<path style="fill:#1D4C9A;" d="M131.215,213.854c-0.126,0-0.249-0.067-0.313-0.188c-6.002-11.298-3.707-25.562,5.85-36.337
							c1.259-1.385,2.681-2.701,4.057-3.975c2.749-2.546,5.592-5.176,7.312-8.495c2.682-5.185,5.021-13.418,2.789-19.556
							c-0.067-0.184,0.027-0.387,0.212-0.453c0.186-0.066,0.386,0.027,0.453,0.211c2.312,6.354-0.078,14.812-2.825,20.124
							c-1.777,3.428-4.666,6.101-7.459,8.689c-1.365,1.263-2.776,2.569-4.011,3.928c-9.355,10.549-11.614,24.498-5.752,35.533
							c0.092,0.172,0.026,0.387-0.146,0.479C131.328,213.842,131.271,213.854,131.215,213.854z"/>
					</g>
					<g>
						<path style="fill:#1D4C9A;" d="M146.751,215.165c-0.099,0-0.197-0.042-0.267-0.122c-8.965-10.329-2.076-22.444,2.955-31.29
							c3.523-6.264,5.831-12.182,7.261-18.62c0.908-4.199,0.706-8.202,0.491-12.441c-0.133-2.617-0.269-5.321-0.124-8.091
							c0.01-0.195,0.18-0.343,0.372-0.334c0.195,0.01,0.345,0.177,0.334,0.372c-0.144,2.732-0.008,5.419,0.125,8.017
							c0.216,4.286,0.422,8.336-0.507,12.629c-1.446,6.51-3.777,12.489-7.337,18.816c-4.927,8.664-11.673,20.527-3.036,30.477
							c0.128,0.149,0.112,0.372-0.035,0.501C146.916,215.137,146.833,215.165,146.751,215.165z"/>
					</g>
					<g>
						<path style="fill:#1D4C9A;" d="M159.292,209.55c-0.138,0-0.269-0.08-0.326-0.216c-3.415-8.025,0.044-16.917,3.096-24.766
							c0.348-0.893,0.689-1.773,1.017-2.638c3.979-10.49,4.688-20.656,2.231-31.995c-0.042-0.19,0.08-0.379,0.271-0.42
							c0.194-0.042,0.379,0.081,0.42,0.271c2.487,11.479,1.769,21.77-2.261,32.394c-0.328,0.867-0.671,1.75-1.019,2.646
							c-3.003,7.721-6.406,16.471-3.104,24.232c0.077,0.18-0.007,0.387-0.188,0.464C159.385,209.542,159.338,209.55,159.292,209.55z
							"/>
					</g>
					<g>
						<path style="fill:#1D4C9A;" d="M212.262,210.86c-0.029,0-0.058-0.003-0.087-0.011c-0.189-0.048-0.304-0.24-0.256-0.43
							c2.697-10.581-1.082-20.761-4.737-30.606c-2.911-7.844-5.922-15.954-5.756-24.344c0.004-0.195,0.171-0.365,0.361-0.345
							c0.195,0.003,0.351,0.165,0.347,0.359c-0.164,8.256,2.823,16.301,5.711,24.083c3.692,9.949,7.511,20.234,4.759,31.028
							C212.564,210.754,212.421,210.86,212.262,210.86z"/>
					</g>
					<g>
						<path style="fill:#1D4C9A;" d="M223.493,211.609c-0.035,0-0.069-0.005-0.104-0.016c-0.187-0.058-0.292-0.254-0.234-0.442
							c2.895-9.407-2.398-19.754-6.651-28.067l-0.251-0.493c-5.051-10.304-8.078-22.989-7.9-33.11
							c0.003-0.195,0.16-0.328,0.36-0.348c0.195,0.004,0.351,0.165,0.348,0.36c-0.176,10.014,2.822,22.575,7.825,32.781l0.249,0.487
							c4.311,8.428,9.676,18.916,6.697,28.598C223.785,211.512,223.645,211.609,223.493,211.609z"/>
					</g>
					<g>
						<path style="fill:#1D4C9A;" d="M231.354,215.54c-0.063,0-0.126-0.017-0.183-0.052c-0.167-0.099-0.221-0.318-0.12-0.485
							c5.311-8.789,1.246-21.872-2.273-30.948c-1.273-3.234-2.802-6.435-4.42-9.824c-4.004-8.384-8.146-17.053-8.146-26.241
							c0-0.196,0.158-0.355,0.354-0.355s0.354,0.158,0.354,0.355c0,9.027,4.105,17.622,8.076,25.936
							c1.624,3.4,3.158,6.612,4.44,9.872c3.574,9.216,7.692,22.515,2.22,31.571C231.59,215.48,231.474,215.54,231.354,215.54z"/>
					</g>
				</g>
			</g>
			<g>
				<path style="fill:#FFCED6;" d="M286.43,417.531c0,0,8.043,18.092,0,31.164h-17.71v-35.184L286.43,417.531z"/>
				<path style="fill:#9CEFD3;" d="M233.354,201.085c7.206,4.921,27.244,26.943,37.41,66.396
					c15.288,59.337,22.746,159.641,22.746,159.641H254.73L233.354,201.085z"/>
			</g>
			<path style="fill:#FFFFFF;" d="M101.9,448.694h164.876l-58.441-259.791c0,0-11.723-1.377-23.361-1.377
				c-11.64,0-21.313,1.377-21.313,1.377l-52.523,61.409L101.9,448.694z"/>
			<g>
				<path style="fill:#9CEFD3;" d="M94.433,448.694h78.096l-8.869-259.791c0,0-84.039,43.048-99.847,106.591
					c-15.306,61.521,39.463,54.795,39.463,54.795L94.433,448.694z"/>
				<g>
					<g>
						<path style="fill:#52DCB8;" d="M166.772,341.201c-0.262,0-0.502-0.178-0.571-0.442l-22.817-88.826
							c-0.07-0.271,0.063-0.556,0.316-0.678l8.553-4.099l-13.209-4.638c-0.15-0.052-0.272-0.162-0.339-0.305
							c-0.067-0.143-0.073-0.308-0.018-0.457l17.664-47.605c0.114-0.306,0.453-0.462,0.758-0.349
							c0.304,0.114,0.461,0.453,0.348,0.757l-17.456,47.045l13.987,4.911c0.225,0.08,0.38,0.285,0.393,0.523
							c0.013,0.24-0.119,0.46-0.334,0.563l-9.401,4.51l22.696,88.356c0.082,0.314-0.108,0.635-0.423,0.716
							C166.87,341.195,166.819,341.201,166.772,341.201z"/>
					</g>
					<g>
						<path style="fill:#52DCB8;" d="M103.866,375.788c-0.241,0-0.468-0.149-0.555-0.39c-0.11-0.308,0.048-0.645,0.356-0.755
							l39.303-14.149c0.305-0.109,0.643,0.051,0.753,0.356c0.111,0.306-0.048,0.644-0.355,0.754l-39.302,14.15
							C104,375.777,103.932,375.788,103.866,375.788z"/>
					</g>
				</g>
			</g>
			<g>
				<path style="fill:#FFCED6;" d="M198.173,164.24l7.05,35.175c0,0-4.209,11.904-19.225,11.904
					c-15.018,0-19.227-11.904-19.227-11.904l7.05-35.175H198.173z"/>
				<path style="fill:#FC92A6;" d="M199.98,173.248l-1.807-9.008h-24.351l-1.935,9.657c4.047,2.577,8.661,4.044,13.562,4.044
					C190.747,177.941,195.708,176.227,199.98,173.248z"/>
				<g>
					<path style="fill:#FFCED6;" d="M224.141,146.651c0,3.885-3.149,7.035-7.035,7.035c-3.884,0-7.034-3.15-7.034-7.035
						c0-3.886,3.15-7.035,7.034-7.035C220.992,139.617,224.141,142.766,224.141,146.651z"/>
					<path style="fill:#FC92A6;" d="M220.218,146.651c0,1.718-1.393,3.11-3.112,3.11c-1.718,0-3.11-1.392-3.11-3.11
						c0-1.718,1.392-3.111,3.11-3.111C218.825,143.54,220.218,144.933,220.218,146.651z"/>
				</g>
				<g>
					<path style="fill:#FFCED6;" d="M146.758,146.651c0,3.885,3.149,7.035,7.034,7.035c3.886,0,7.035-3.15,7.035-7.035
						c0-3.886-3.149-7.035-7.035-7.035C149.907,139.617,146.758,142.766,146.758,146.651z"/>
					<path style="fill:#FC92A6;" d="M150.682,146.651c0,1.718,1.393,3.11,3.11,3.11c1.719,0,3.112-1.392,3.112-3.11
						c0-1.718-1.393-3.111-3.112-3.111C152.074,143.54,150.682,144.933,150.682,146.651z"/>
				</g>
				<g>
					<path style="fill:#FFCED6;" d="M197.509,109.903c-19.556,5.161-40.549,22.893-40.549,22.893
						c-0.301,2.007-0.467,4.069-0.467,6.178c0,19.173,12.964,34.717,28.957,34.717c15.992,0,28.956-15.544,28.956-34.717
						c0-0.826-0.032-1.642-0.08-2.453C214.325,136.521,204.634,116.201,197.509,109.903z"/>
					<g>
						<g>
							<path style="fill:#FC92A6;" d="M186.615,154.107c-2.135,0-3.873-1.737-3.873-3.874l1.645-14.994
								c0.034-0.323,0.319-0.558,0.65-0.521c0.324,0.035,0.558,0.327,0.522,0.651l-1.643,14.929c0.004,1.42,1.212,2.63,2.698,2.63
								c0.326,0,0.59,0.264,0.59,0.589C187.205,153.845,186.94,154.107,186.615,154.107z"/>
						</g>
						<g>
							<path style="fill:#FC92A6;" d="M185.449,165.197c-4.133,0-7.496-3.364-7.496-7.497c0-0.326,0.264-0.589,0.589-0.589
								s0.589,0.263,0.589,0.589c0,3.483,2.835,6.316,6.317,6.316c3.483,0,6.317-2.833,6.317-6.316c0-0.326,0.264-0.589,0.59-0.589
								c0.326,0,0.59,0.263,0.59,0.589C192.947,161.833,189.583,165.197,185.449,165.197z"/>
						</g>
						<path style="fill:#FC92A6;" d="M207.238,144.412c0,1.719-1.393,3.113-3.112,3.113c-1.718,0-3.112-1.394-3.112-3.113
							c0-1.72,1.394-3.112,3.112-3.112C205.845,141.3,207.238,142.691,207.238,144.412z"/>
						<path style="fill:#FC92A6;" d="M163.66,144.412c0,1.719,1.394,3.113,3.112,3.113c1.718,0,3.112-1.394,3.112-3.113
							c0-1.72-1.394-3.112-3.112-3.112C165.054,141.3,163.66,142.691,163.66,144.412z"/>
						<g>
							<path style="fill:#001526;" d="M203.24,140.863c0,1.959-1.09,3.549-2.436,3.549c-1.344,0-2.435-1.59-2.435-3.549
								c0-1.96,1.09-3.548,2.435-3.548C202.149,137.314,203.24,138.903,203.24,140.863z"/>
							<path style="fill:#001526;" d="M172.529,140.863c0,1.959-1.091,3.549-2.435,3.549c-1.345,0-2.436-1.59-2.436-3.549
								c0-1.96,1.09-3.548,2.436-3.548C171.439,137.314,172.529,138.903,172.529,140.863z"/>
						</g>
					</g>
				</g>
			</g>
			<g>
				<g>
					<path style="fill:#D8F2FF;" d="M174.818,316.439c0.781,4.182-1.979,8.204-6.16,8.983l-59.438,11.094
						c-4.182,0.78-8.208-1.977-8.986-6.159l-16.145-86.509c-0.781-4.182,1.979-8.206,6.16-8.986l59.439-11.093
						c4.181-0.781,8.205,1.976,8.986,6.159L174.818,316.439z"/>
					<path style="fill:#B3E6FF;" d="M128.325,222.802l-5.78,1.111c0.356-0.925,0.481-1.955,0.281-2.999
						c-0.574-2.975-3.449-4.924-6.423-4.352c-2.975,0.572-4.922,3.45-4.35,6.425c0.201,1.045,0.699,1.954,1.375,2.681l-5.78,1.113
						c-2.573,0.496-4.258,2.984-3.763,5.557c0.496,2.573,2.982,4.257,5.556,3.763l20.678-3.98c2.574-0.495,4.258-2.983,3.762-5.557
						C133.387,223.991,130.898,222.306,128.325,222.802z M117.027,219.809c1.183-0.23,2.326,0.545,2.554,1.729
						c0.228,1.183-0.546,2.326-1.729,2.556c-1.183,0.227-2.329-0.547-2.556-1.731C115.069,221.178,115.844,220.035,117.027,219.809z
						"/>
				</g>
				<g>
					<path style="fill:#FFCED6;" d="M123.517,298.228l13.752-6.226c0,0,4.385-14.422,7.834-17.187
						c3.449-2.766,18.424-12.788,21.124-10.708c2.7,2.081,1.262,7.421-8.596,14.2c0,0,2.703,0.653,4.229-0.393
						c1.527-1.044,4.647-5.623,4.647-5.623l-0.186-1.389c0,0,4.62-0.621,6.548,2.029c1.928,2.653,0.563,6.431,0.563,6.431
						s4.258,0.803,3.294,6.026c0,0,4.099,2.327,1.849,7.793c0,0,2.663,2.122,0.675,8.195c-1.158,3.536-9.585,10.606-11.357,11.491
						c-1.773,0.885-16.639,3.775-16.639,3.775l-16.072,7.876L123.517,298.228z"/>
					<g>
						<g>
							<path style="fill:#FC92A6;" d="M171.181,301.909c-0.14,0-0.279-0.056-0.383-0.163c-0.204-0.213-0.196-0.549,0.015-0.752
								c2.626-2.519,6.918-6.909,7.255-7.973c0.089-0.279,0.391-0.437,0.666-0.345c0.28,0.088,0.434,0.387,0.346,0.665
								c-0.529,1.67-6.817,7.732-7.532,8.418C171.445,301.859,171.313,301.909,171.181,301.909z"/>
						</g>
						<g>
							<path style="fill:#FC92A6;" d="M168.047,296.123c-0.128,0-0.256-0.047-0.359-0.14c-0.215-0.197-0.23-0.534-0.032-0.751
								c0.072-0.077,7.214-7.859,8.618-10.123c0.155-0.248,0.481-0.325,0.731-0.17c0.249,0.153,0.326,0.48,0.171,0.729
								c-1.456,2.348-8.441,9.959-8.738,10.283C168.334,296.065,168.191,296.123,168.047,296.123z"/>
						</g>
						<g>
							<path style="fill:#FC92A6;" d="M166.039,287.604c-0.137,0-0.274-0.053-0.378-0.158c-0.206-0.208-0.203-0.545,0.005-0.749
								c0.06-0.06,6.016-5.938,7.345-7.659c0.178-0.231,0.512-0.276,0.745-0.095c0.232,0.178,0.275,0.511,0.096,0.743
								c-1.372,1.777-7.193,7.521-7.44,7.765C166.308,287.554,166.173,287.604,166.039,287.604z"/>
						</g>
						<g>
							<path style="fill:#FC92A6;" d="M158.253,278.948c-0.007,0-0.014,0-0.022,0c-1.74-0.066-6.51-0.344-6.51-0.344l0.062-1.06
								c0,0,4.755,0.276,6.49,0.345c0.293,0.011,0.521,0.258,0.509,0.551C158.771,278.725,158.536,278.948,158.253,278.948z"/>
						</g>
					</g>
				</g>
				<g>
					<path style="fill:#9CEFD3;" d="M103.276,350.29c13.237-1.891,45.736-26.075,45.736-26.075l-13.415-39.301l-49.127,5.479
						L103.276,350.29z"/>
					<g>
						<g>
							<path style="fill:#52DCB8;" d="M103.276,350.997c-0.347,0-0.65-0.254-0.701-0.607c-0.055-0.388,0.214-0.747,0.601-0.802
								c12.109-1.727,41.177-22.829,45-25.636l-13.065-38.273l-48.562,5.416c-0.389,0.041-0.739-0.235-0.783-0.625
								c-0.042-0.388,0.237-0.738,0.625-0.781l49.126-5.48c0.331-0.033,0.641,0.162,0.749,0.476l13.415,39.301
								c0.1,0.291-0.001,0.613-0.247,0.795c-1.333,0.992-32.796,24.315-46.059,26.209
								C103.343,350.994,103.309,350.997,103.276,350.997z"/>
						</g>
						<g>
							<path style="fill:#52DCB8;" d="M138.649,328.134c-0.3,0-0.579-0.191-0.674-0.493l-11.933-37.601
								c-0.119-0.372,0.087-0.771,0.461-0.889c0.375-0.122,0.771,0.089,0.889,0.46l11.933,37.602
								c0.118,0.371-0.088,0.769-0.461,0.888C138.792,328.123,138.72,328.134,138.649,328.134z"/>
						</g>
					</g>
				</g>
			</g>
			<g>
				<path style="fill:#9CEFD3;" d="M277.564,448.694h-78.098l8.869-259.791c0,0,10.965,3.743,25.019,12.182L277.564,448.694z"/>
				<g>
					<path style="fill:#52DCB8;" d="M228.296,251.255l-8.553-4.099l13.209-4.638c0.148-0.052,0.271-0.162,0.338-0.305
						c0.069-0.143,0.076-0.308,0.021-0.457l-17.666-47.605c-0.113-0.306-0.453-0.462-0.758-0.349
						c-0.306,0.114-0.46,0.453-0.347,0.757l17.456,47.045l-13.987,4.911c-0.225,0.08-0.381,0.285-0.393,0.523
						c-0.012,0.24,0.118,0.46,0.334,0.563l9.4,4.51l-22.697,88.356c-0.081,0.314,0.108,0.635,0.424,0.716
						c0.049,0.014,0.098,0.02,0.148,0.02c0.262,0,0.501-0.178,0.57-0.442l22.817-88.826
						C228.682,251.661,228.549,251.377,228.296,251.255z"/>
					<path style="fill:#52DCB8;" d="M234.05,200.962c-0.067-0.384-0.435-0.637-0.821-0.572c-0.385,0.069-0.641,0.436-0.572,0.821
						l30.896,173.041c-0.058-0.059-0.128-0.104-0.21-0.136l-39.303-14.149c-0.306-0.108-0.644,0.049-0.754,0.355
						c-0.11,0.307,0.048,0.645,0.354,0.755l39.303,14.149c0.066,0.023,0.134,0.032,0.201,0.032c0.228,0,0.431-0.139,0.527-0.354
						l13.197,73.916c0.061,0.342,0.359,0.582,0.696,0.582c0.042,0,0.083-0.003,0.126-0.011c0.385-0.068,0.64-0.437,0.572-0.82
						L234.05,200.962z"/>
				</g>
			</g>
		</g>
		<g>
			<g>
				<g>
					<path style="fill:#FFCED6;" d="M681.354,416.233c0,0,8.56,19.256,0,33.168h-18.851v-37.446L681.354,416.233z"/>
					<path style="fill:#FFCED6;" d="M662.503,411.248c0,0-5.758,10.155-5.758,21.322c0,9.063,1.754,16.124,5.758,16.124
						c4.003,0,0.117-13.535,4.488-17.743"/>
					<g>
						<path style="fill:#FC92A6;" d="M662.503,449.401c-4.109,0-6.466-6.135-6.466-16.831c0-11.225,5.611-21.251,5.849-21.672
							c0.194-0.341,0.625-0.464,0.966-0.266c0.34,0.191,0.458,0.622,0.267,0.963c-0.057,0.102-5.666,10.132-5.666,20.975
							c0,9.509,1.935,15.416,5.051,15.416c1.271,0,1.335-3.252,1.394-6.397c0.079-4.126,0.169-8.805,2.603-11.147
							c0.282-0.268,0.729-0.262,1.001,0.019c0.271,0.282,0.263,0.73-0.019,1.002c-2.013,1.936-2.095,6.303-2.168,10.154
							C665.232,445.794,665.164,449.401,662.503,449.401z"/>
					</g>
				</g>
				<path style="fill:#FFFFFF;" d="M624.604,183.893c8.641,4.364,29.255,30.648,40.073,72.64
					c16.271,63.151,24.208,169.905,24.208,169.905h-41.273L624.604,183.893z"/>
				<g>
					<path style="fill:#9CEFD3;" d="M624.604,183.893l9.089,95.797l39.525-10.113C663.2,216.483,638.155,190.194,624.604,183.893z"
						/>
					<polygon style="fill:#52DCB8;" points="648.087,276.007 624.901,187.015 624.901,187.02 633.693,279.69 					"/>
				</g>
			</g>
			<g>
				<g>
					<path style="fill:#FFCED6;" d="M470.14,416.233c0,0-8.56,19.256,0,33.168h18.85v-37.446L470.14,416.233z"/>
					<path style="fill:#FFCED6;" d="M488.989,411.245c0,0,5.758,10.155,5.758,21.322c0,9.063-1.754,16.124-5.758,16.124
						c-4.003,0-0.117-13.535-4.488-17.743"/>
					<g>
						<path style="fill:#FC92A6;" d="M488.989,449.4c-2.66,0-2.729-3.608-2.81-7.786c-0.074-3.852-0.156-8.218-2.169-10.154
							c-0.282-0.271-0.29-0.72-0.02-1.001c0.272-0.281,0.722-0.287,1.001-0.02c2.434,2.344,2.523,7.021,2.603,11.147
							c0.06,3.146,0.123,6.397,1.395,6.397c3.115,0,5.051-5.907,5.051-15.416c0-10.855-5.609-20.874-5.666-20.975
							c-0.191-0.34-0.073-0.772,0.267-0.963c0.342-0.198,0.772-0.074,0.966,0.266c0.237,0.421,5.849,10.447,5.849,21.672
							C495.455,443.264,493.099,449.4,488.989,449.4z"/>
					</g>
				</g>
				<path style="fill:#FFFFFF;" d="M526.889,183.893c-8.642,4.364-29.256,30.648-40.074,72.64
					c-16.271,63.151-24.207,169.905-24.207,169.905h41.272L526.889,183.893z"/>
				<path style="fill:#D8F2FF;" d="M485.727,274.897c-0.508-2.25-1.096-4.445-1.74-6.596c-5.93,26.329-10.607,57.864-14.057,85.832
					C478.936,344.808,495.948,320.298,485.727,274.897z"/>
				<g>
					<path style="fill:#9CEFD3;" d="M526.889,183.893l-9.09,95.797l-39.525-10.113C488.291,216.483,513.337,190.194,526.889,183.893
						z"/>
					<polygon style="fill:#52DCB8;" points="503.405,276.007 526.591,187.015 526.591,187.02 517.799,279.69 					"/>
				</g>
			</g>
			<g>
				<polygon style="fill:#00B18F;" points="656.74,449.4 649.664,389.342 575.747,389.342 501.828,389.342 494.752,449.4 				"/>
				<polygon style="fill:#009679;" points="575.747,400.31 571.198,449.4 580.294,449.4 				"/>
				<polygon style="fill:#009679;" points="651.155,402.002 649.664,389.342 575.747,389.342 501.828,389.342 500.337,402.002 
					574.461,402.002 				"/>
			</g>
			<path style="fill:#9CEFD3;" d="M575.747,397.479h80.993l-29.309-211.612c0,0-19.853-15.783-51.685-15.783
				c-31.834,0-51.686,15.783-51.686,15.783l-29.309,211.612H575.747z"/>
			<g>
				<path style="fill:#52DCB8;" d="M576.316,216.483c-0.179,0-0.354-0.07-0.486-0.196l-31.417-29.907
					c-0.284-0.269-0.295-0.717-0.025-1c0.273-0.282,0.719-0.293,1.001-0.025l30.898,29.414l27.214-29.382
					c0.266-0.287,0.713-0.304,1.001-0.037c0.288,0.265,0.305,0.713,0.039,0.999l-27.705,29.909c-0.128,0.138-0.306,0.22-0.497,0.225
					C576.332,216.483,576.325,216.483,576.316,216.483z"/>
			</g>
			<g>
				<g>
					<path style="fill:#FFFFFF;" d="M583.673,277.66c0.374,0.014,0.719-0.232,0.822-0.608c0.119-0.442-0.143-0.895-0.581-1.014
						c-8.282-2.237-9.06-5.178-9.142-7.757c-0.079-2.544,4.215-10.587,5.873-13.472c0.23-0.395,0.095-0.9-0.304-1.13
						c-0.396-0.23-0.9-0.088-1.125,0.305c-0.639,1.103-6.207,10.877-6.098,14.35c0.107,3.405,1.436,6.888,10.361,9.301
						C583.545,277.651,583.607,277.66,583.673,277.66z"/>
				</g>
				<path style="fill:#D8F2FF;" d="M582.31,276.416c-0.261,1.383,0.649,2.715,2.032,2.975l3.464,0.658
					c1.379,0.26,2.714-0.647,2.976-2.032l0,0c0.264-1.382-0.646-2.714-2.029-2.977l-3.467-0.652
					C583.902,274.125,582.572,275.031,582.31,276.416L582.31,276.416z"/>
				<g>
					<path style="fill:#FFFFFF;" d="M608.571,281.98c7.132,0.216,9.269-2.319,10.459-5.146c1.345-3.201-0.358-14.322-0.554-15.58
						c-0.074-0.45-0.498-0.758-0.946-0.688c-0.452,0.072-0.758,0.495-0.688,0.945c0.521,3.287,1.647,12.337,0.664,14.685
						c-1,2.377-2.782,4.848-11.311,3.967c-0.457-0.053-0.862,0.284-0.91,0.737c-0.045,0.457,0.285,0.863,0.741,0.907
						C606.938,281.901,607.783,281.959,608.571,281.98z"/>
				</g>
				<path style="fill:#D8F2FF;" d="M607.556,281.091c-0.253,1.385-1.58,2.3-2.963,2.051l-3.471-0.63
					c-1.383-0.249-2.304-1.576-2.055-2.961l0,0c0.253-1.382,1.579-2.303,2.964-2.051l3.471,0.63
					C606.885,278.379,607.803,279.706,607.556,281.091L607.556,281.091z"/>
				<g>
					<path style="fill:#1D4C9A;" d="M544.048,279.263c0.14,0.003,0.281-0.011,0.422-0.043c0.893-0.205,1.446-1.093,1.243-1.98
						c-16.729-72.679-3.632-99.749,10.301-109.657c12.671-9.012,28.364-5.479,35.277-1.136c12.761,8.005,16.124,27.215,10.596,60.45
						c-0.149,0.901,0.462,1.753,1.36,1.902c0.889,0.152,1.754-0.459,1.901-1.36c5.774-34.717,1.93-54.988-12.098-63.793
						c-7.641-4.798-24.973-8.702-38.953,1.242c-14.757,10.493-28.746,38.634-11.608,113.093
						C542.661,278.728,543.317,279.239,544.048,279.263z"/>
				</g>
				<g>
					<path style="fill:#1D4C9A;" d="M617.992,264.469c0.052,0.003,0.107,0.003,0.157,0c1.372-0.047,2.443-1.19,2.397-2.56
						c-0.12-3.491-1.564-34.167-15.813-36.439c-14.137-2.267-26.253,25.895-27.587,29.114c-0.523,1.263,0.079,2.715,1.345,3.24
						c1.264,0.524,2.715-0.081,3.237-1.345c4.459-10.755,14.449-27.341,22.225-26.111c8.669,1.382,11.374,23.919,11.636,31.707
						C615.634,263.392,616.693,264.433,617.992,264.469z"/>
				</g>
				<path style="fill:#D8F2FF;" d="M533.16,278.432c-0.184,6.07,4.589,11.14,10.659,11.323c6.07,0.182,11.14-4.59,11.323-10.66
					c0.182-6.072-4.586-11.143-10.659-11.325C538.413,267.587,533.344,272.361,533.16,278.432z"/>
				<g>
					<path style="fill:#FFFFFF;" d="M535.51,278.5c0.144-4.765,4.137-8.524,8.903-8.382c4.767,0.145,8.524,4.14,8.382,8.904
						c-0.146,4.767-4.141,8.525-8.903,8.382C539.126,287.261,535.367,283.267,535.51,278.5z M536.763,278.539
						c-0.121,4.075,3.093,7.488,7.168,7.613c4.069,0.121,7.485-3.091,7.607-7.168c0.126-4.071-3.089-7.488-7.165-7.61
						C540.301,271.253,536.887,274.465,536.763,278.539z"/>
				</g>
				<path style="fill:#B3E6FF;" d="M538.001,278.578c-0.102,3.395,2.568,6.233,5.966,6.336c3.399,0.102,6.236-2.568,6.338-5.966
					c0.103-3.397-2.568-6.234-5.968-6.338C540.94,272.509,538.104,275.181,538.001,278.578z"/>
			</g>
			<g>
				<g>
					<path style="fill:#09105E;" d="M611.884,115.059v-8.961c-0.081-21.777-17.193-35.781-38.404-35.781l0,0
						c-21.21,0-38.405,16.02-38.405,35.781v8.961c0,13.918,14.617,39.387,40.821,39.387
						C600.494,154.446,611.884,127.354,611.884,115.059z"/>
					<g>
						<g>
							<path style="fill:#1D4C9A;" d="M537.857,109.621c-0.176,0-0.328-0.13-0.352-0.31c-0.023-0.194,0.113-0.371,0.307-0.395
								c0.393-0.049,39.39-5.234,49.487-30.776c0.071-0.182,0.276-0.273,0.458-0.199c0.184,0.072,0.271,0.277,0.2,0.458
								c-10.253,25.933-49.659,31.169-50.057,31.218C537.888,109.62,537.872,109.621,537.857,109.621z"/>
						</g>
						<g>
							<path style="fill:#1D4C9A;" d="M537.857,100.528c-0.043,0-0.088-0.007-0.13-0.024c-0.182-0.072-0.271-0.277-0.199-0.459
								c0.129-0.326,13.332-32.563,49.172-25.014c0.19,0.04,0.312,0.228,0.271,0.419c-0.039,0.191-0.226,0.312-0.418,0.273
								c-35.251-7.426-48.241,24.261-48.368,24.581C538.131,100.444,537.998,100.528,537.857,100.528z"/>
						</g>
						<g>
							<path style="fill:#1D4C9A;" d="M538.959,103.145c-0.167,0-0.316-0.121-0.348-0.293c-0.034-0.192,0.094-0.376,0.286-0.409
								c0.303-0.054,30.491-5.584,45.657-25.49c0.117-0.158,0.34-0.186,0.495-0.067c0.154,0.118,0.185,0.34,0.066,0.496
								c-15.334,20.129-45.789,25.704-46.095,25.758C539,103.144,538.979,103.145,538.959,103.145z"/>
						</g>
						<g>
							<path style="fill:#1D4C9A;" d="M543.496,102.109c-0.052,0-0.102-0.01-0.148-0.033c-0.178-0.082-0.255-0.293-0.172-0.47
								c0.097-0.209,10.032-20.943,36.657-23.688c0.18-0.021,0.368,0.121,0.388,0.315c0.021,0.194-0.121,0.368-0.315,0.388
								c-26.212,2.702-35.993,23.078-36.088,23.283C543.756,102.033,543.629,102.109,543.496,102.109z"/>
						</g>
						<g>
							<path style="fill:#1D4C9A;" d="M606.465,114.58c-0.069,0-0.137-0.02-0.197-0.061c-14.163-9.487-16.378-28.718-16.399-28.91
								c-0.019-0.195,0.12-0.37,0.315-0.39c0.189-0.015,0.368,0.12,0.39,0.314c0.02,0.19,2.204,19.097,16.089,28.399
								c0.163,0.108,0.206,0.328,0.097,0.49C606.69,114.524,606.578,114.58,606.465,114.58z"/>
						</g>
						<g>
							<path style="fill:#1D4C9A;" d="M608.393,123.948c-0.028,0-0.057-0.003-0.085-0.01c-0.19-0.048-0.307-0.24-0.259-0.429
								c0.024-0.096,2.368-9.759-0.637-23.258c-3.419-15.351-15.316-21.604-15.438-21.666c-0.173-0.089-0.241-0.303-0.152-0.476
								c0.088-0.174,0.302-0.241,0.475-0.154c0.124,0.063,12.312,6.456,15.806,22.143c3.045,13.673,0.658,23.486,0.635,23.583
								C608.695,123.841,608.552,123.948,608.393,123.948z"/>
						</g>
						<g>
							<path style="fill:#1D4C9A;" d="M609.193,110.69c-0.1,0-0.198-0.041-0.269-0.122c-9.49-10.942-15.441-26.095-15.5-26.248
								c-0.071-0.181,0.02-0.387,0.202-0.457c0.182-0.071,0.388,0.02,0.458,0.201c0.06,0.151,5.966,15.192,15.376,26.039
								c0.127,0.147,0.11,0.371-0.036,0.499C609.359,110.662,609.275,110.69,609.193,110.69z"/>
						</g>
					</g>
				</g>
				<g>
					<polygon style="fill:#FFCED6;" points="587.419,146.65 594.924,184.088 575.747,204.79 553.998,184.088 561.503,146.65 					
						"/>
					<path style="fill:#FC92A6;" d="M589.343,156.237l-1.924-9.587h-25.916l-2.059,10.278c4.307,2.743,9.216,4.303,14.432,4.303
						C579.515,161.231,584.796,159.408,589.343,156.237z"/>
				</g>
				<g>
					<path style="fill:#FFCED6;" d="M615.057,127.931c0,4.134-3.352,7.486-7.486,7.486c-4.136,0-7.486-3.353-7.486-7.486
						c0-4.135,3.351-7.486,7.486-7.486C611.705,120.444,615.057,123.795,615.057,127.931z"/>
					<path style="fill:#FC92A6;" d="M610.882,127.931c0,1.828-1.482,3.311-3.312,3.311c-1.83,0-3.312-1.483-3.312-3.311
						c0-1.829,1.482-3.312,3.312-3.312C609.399,124.619,610.882,126.102,610.882,127.931z"/>
				</g>
				<g>
					<path style="fill:#FFCED6;" d="M532.696,127.931c0,4.134,3.353,7.486,7.488,7.486c4.136,0,7.487-3.353,7.487-7.486
						c0-4.135-3.352-7.486-7.487-7.486C536.049,120.444,532.696,123.795,532.696,127.931z"/>
					<path style="fill:#FC92A6;" d="M536.873,127.931c0,1.828,1.481,3.311,3.311,3.311c1.829,0,3.312-1.483,3.312-3.311
						c0-1.829-1.482-3.312-3.312-3.312C538.354,124.619,536.873,126.102,536.873,127.931z"/>
				</g>
				<path style="fill:#FFCED6;" d="M586.712,88.819c-12.251,19.295-43.157,24.365-43.157,24.365c-0.32,2.136-0.497,4.33-0.497,6.575
					c0,20.407,13.799,36.951,30.818,36.951c17.02,0,30.82-16.543,30.82-36.951c0-0.879-0.036-1.748-0.087-2.611
					C604.609,117.149,587.628,104.979,586.712,88.819z"/>
				<g>
					<g>
						<path style="fill:#FC92A6;" d="M575.117,135.866c-2.272,0-4.121-1.849-4.121-4.122l1.751-15.958
							c0.037-0.344,0.339-0.594,0.692-0.555c0.344,0.037,0.592,0.348,0.556,0.692l-1.75,15.889c0.006,1.512,1.291,2.799,2.872,2.799
							c0.348,0,0.63,0.281,0.63,0.627C575.747,135.587,575.465,135.866,575.117,135.866z"/>
					</g>
					<g>
						<path style="fill:#FC92A6;" d="M573.876,147.669c-4.398,0-7.977-3.581-7.977-7.98c0-0.346,0.282-0.627,0.628-0.627
							c0.345,0,0.627,0.281,0.627,0.627c0,3.709,3.016,6.725,6.723,6.725c3.708,0,6.726-3.016,6.726-6.725
							c0-0.346,0.279-0.627,0.628-0.627c0.345,0,0.627,0.281,0.627,0.627C581.857,144.088,578.277,147.669,573.876,147.669z"/>
					</g>
					<path style="fill:#FC92A6;" d="M597.067,125.546c0,1.83-1.483,3.314-3.313,3.314c-1.828,0-3.313-1.484-3.313-3.314
						c0-1.831,1.484-3.312,3.313-3.312C595.584,122.235,597.067,123.716,597.067,125.546z"/>
					<path style="fill:#FC92A6;" d="M550.687,125.546c0,1.83,1.484,3.314,3.312,3.314c1.829,0,3.31-1.484,3.31-3.314
						c0-1.831-1.481-3.312-3.31-3.312C552.171,122.235,550.687,123.716,550.687,125.546z"/>
					<g>
						<path style="fill:#001526;" d="M592.812,121.77c0,2.085-1.161,3.776-2.593,3.776c-1.43,0-2.591-1.691-2.591-3.776
							c0-2.086,1.161-3.777,2.591-3.777C591.65,117.993,592.812,119.684,592.812,121.77z"/>
						<path style="fill:#001526;" d="M560.126,121.77c0,2.085-1.161,3.776-2.592,3.776c-1.432,0-2.591-1.691-2.591-3.776
							c0-2.086,1.159-3.777,2.591-3.777C558.965,117.993,560.126,119.684,560.126,121.77z"/>
					</g>
				</g>
			</g>
		</g>
		<g>
			<g>
				<path style="fill:#9CEFD3;" d="M292.265,449.401h164.876l-58.44-259.79c0,0-11.724-1.377-23.362-1.377
					c-11.64,0-21.313,1.377-21.313,1.377l-52.524,61.409L292.265,449.401z"/>
				<g>
					<path style="fill:#52DCB8;" d="M376.363,218.689c-17.27,0-22.362-12.227-22.412-12.351c-0.145-0.363,0.031-0.773,0.394-0.918
						c0.361-0.145,0.774,0.029,0.92,0.391c0.189,0.468,4.82,11.462,21.098,11.462c16.279,0,20.908-10.994,21.098-11.462
						c0.146-0.362,0.559-0.541,0.921-0.391c0.362,0.144,0.537,0.555,0.393,0.918C398.727,206.462,393.635,218.689,376.363,218.689z"
						/>
				</g>
			</g>
			<g>
				<path style="fill:#FFFFFF;" d="M467.93,449.401h-78.099l8.87-259.79c0,0,68.665,23.438,82.591,85.285
					c13.564,60.242-20.832,83.717-20.832,83.717L467.93,449.401z"/>
				<g>
					<g>
						<path style="fill:#D8F2FF;" d="M395.59,341.908c0.264,0,0.501-0.176,0.571-0.441l22.816-88.827
							c0.07-0.27-0.065-0.555-0.316-0.677l-8.554-4.1l13.21-4.639c0.148-0.051,0.271-0.161,0.34-0.304
							c0.068-0.144,0.074-0.308,0.02-0.458l-17.667-47.605c-0.113-0.306-0.452-0.462-0.758-0.349
							c-0.303,0.113-0.461,0.454-0.347,0.757l17.455,47.045l-13.986,4.911c-0.225,0.08-0.381,0.285-0.393,0.524
							c-0.014,0.239,0.118,0.461,0.333,0.563l9.399,4.509l-22.694,88.356c-0.083,0.315,0.107,0.637,0.423,0.716
							C395.491,341.903,395.542,341.908,395.59,341.908z"/>
					</g>
					<g>
						<path style="fill:#D8F2FF;" d="M458.496,376.495c0.242,0,0.467-0.15,0.554-0.39c0.11-0.306-0.048-0.643-0.355-0.755
							l-39.302-14.148c-0.306-0.109-0.645,0.05-0.754,0.357c-0.109,0.305,0.049,0.642,0.355,0.752l39.302,14.15
							C458.362,376.484,458.43,376.495,458.496,376.495z"/>
					</g>
				</g>
			</g>
			<g>
				<path style="fill:#FFFFFF;" d="M460.46,358.613c-49.397,25.788-113.147,10.218-113.147,10.218l-3.942-56.733l82.508-1.238
					h30.469L460.46,358.613z"/>
				<g>
					<path style="fill:#D8F2FF;" d="M391.725,374.127c-25.19,0-44.232-4.523-44.58-4.608c-0.299-0.071-0.517-0.331-0.539-0.639
						l-3.942-56.732c-0.013-0.194,0.054-0.386,0.186-0.527c0.131-0.145,0.316-0.227,0.511-0.23l81.894-1.229l6.419-49.966
						c0.05-0.387,0.401-0.649,0.79-0.613c0.389,0.049,0.664,0.405,0.614,0.792l-6.498,50.574c-0.045,0.352-0.338,0.614-0.692,0.619
						l-81.76,1.228l3.855,55.466c6.091,1.37,65.858,13.891,112.15-10.275c0.347-0.179,0.773-0.046,0.955,0.299
						c0.181,0.348,0.047,0.774-0.3,0.956C438.387,370.934,412.888,374.127,391.725,374.127z"/>
				</g>
			</g>
			<g>
				<path style="fill:#FFFFFF;" d="M284.798,449.401h78.096l-8.868-259.79c0,0-68.048,23.579-82.591,85.285
					c-14.543,61.707,20.83,83.717,20.83,83.717L284.798,449.401z"/>
				<g>
					<g>
						<path style="fill:#D8F2FF;" d="M357.138,341.908c-0.263,0-0.502-0.176-0.571-0.441L333.75,252.64
							c-0.069-0.27,0.062-0.555,0.315-0.677l8.553-4.1l-13.209-4.639c-0.149-0.051-0.271-0.161-0.339-0.304
							c-0.067-0.144-0.074-0.308-0.019-0.458l17.665-47.605c0.114-0.306,0.454-0.462,0.758-0.349
							c0.305,0.113,0.46,0.454,0.348,0.757l-17.455,47.045l13.986,4.911c0.226,0.08,0.381,0.285,0.393,0.524
							c0.014,0.239-0.118,0.461-0.333,0.563l-9.401,4.509l22.697,88.356c0.082,0.315-0.109,0.637-0.424,0.716
							C357.235,341.903,357.187,341.908,357.138,341.908z"/>
					</g>
					<g>
						<path style="fill:#D8F2FF;" d="M294.232,376.495c-0.241,0-0.468-0.15-0.554-0.39c-0.111-0.306,0.048-0.643,0.354-0.755
							l39.303-14.148c0.306-0.109,0.644,0.05,0.755,0.357c0.11,0.305-0.05,0.642-0.356,0.752l-39.303,14.15
							C294.366,376.484,294.298,376.495,294.232,376.495z"/>
					</g>
				</g>
			</g>
			<g>
				<path style="fill:#FFCED6;" d="M413.051,309.085c0,0,29.812-12.644,34.26-13.113c4.448-0.469,12.13,4.449,14.096,7.013
					c2.129,2.783,0.656,4.576,0.656,4.576s2.107,2.912,2.107,4.568c0,2.792-1.757,3.502-1.757,3.502s1.757,2.16,1.17,3.989
					c-0.82,2.563-3.159,2.224-3.159,2.224s0.935,2.926-1.406,4.449c-2.342,1.522-7.959-2.929-11.939-4.215
					c-3.98-1.289-6.359,1.171-11.844,3.862c-5.483,2.694-13.78,4.084-21.046,3.272l-14.768,4.689l-5.022-22.594L413.051,309.085z"/>
				<g>
					<g>
						<path style="fill:#FC92A6;" d="M460.424,322.375c-0.124,0-0.25-0.043-0.351-0.133c-0.064-0.057-6.459-5.685-8.993-7.449
							c-2.395-1.665-7.793-0.986-7.848-0.978c-0.28,0.037-0.559-0.169-0.596-0.46c-0.037-0.29,0.167-0.557,0.46-0.594
							c0.235-0.032,5.865-0.737,8.588,1.161c2.586,1.8,8.826,7.289,9.091,7.522c0.22,0.193,0.24,0.529,0.047,0.749
							C460.717,322.314,460.57,322.375,460.424,322.375z"/>
					</g>
					<g>
						<path style="fill:#FC92A6;" d="M462.413,316.161c-0.145,0-0.29-0.061-0.393-0.176c-0.06-0.065-5.932-6.57-8.302-7.862
							c-1.907-1.042-7.772-0.633-9.872-0.389c-0.325,0.031-0.557-0.176-0.59-0.466c-0.034-0.29,0.175-0.555,0.465-0.589
							c0.323-0.039,7.91-0.903,10.506,0.512c2.528,1.379,8.335,7.811,8.581,8.083c0.195,0.218,0.179,0.554-0.039,0.751
							C462.667,316.116,462.54,316.161,462.413,316.161z"/>
					</g>
					<g>
						<path style="fill:#FC92A6;" d="M462.063,308.091c-0.155,0-0.311-0.067-0.415-0.2c-0.044-0.054-4.469-5.528-8.81-5.896
							c-3.078-0.257-9.512,0.938-9.576,0.949c-0.294,0.055-0.566-0.136-0.619-0.424c-0.055-0.287,0.135-0.565,0.423-0.619
							c0.268-0.053,6.627-1.235,9.863-0.965c4.796,0.409,9.356,6.055,9.548,6.295c0.183,0.228,0.146,0.561-0.083,0.744
							C462.296,308.054,462.178,308.091,462.063,308.091z"/>
					</g>
				</g>
			</g>
			<g>
				<path style="fill:#FFFFFF;" d="M320.957,307.913l86.516-3.539l3.109,55.024c0,0-66.044,25.548-118.317-0.785L320.957,307.913z"
					/>
				<path style="fill:#D8F2FF;" d="M408.177,304.334c-0.02-0.385-0.361-0.681-0.734-0.667l-85.886,3.514l-8.547-53.618
					c-0.062-0.386-0.427-0.652-0.81-0.588c-0.386,0.061-0.649,0.425-0.587,0.81l8.474,53.158c-4-0.989-18.422-3.699-31.608,4.556
					c-0.332,0.207-0.432,0.645-0.225,0.976c0.207,0.332,0.643,0.432,0.975,0.225c11.956-7.484,24.991-5.614,29.695-4.575
					c-4.321,2.295-15.479,9.296-20.829,22.732c-0.145,0.363,0.032,0.775,0.395,0.919c0.086,0.034,0.175,0.05,0.262,0.05
					c0.281,0,0.547-0.169,0.657-0.445c6.181-15.523,20.375-22.17,21.711-22.766l85.685-3.504l3.042,53.808
					c-6.09,2.223-68.203,23.779-117.263-0.938c-0.352-0.175-0.776-0.035-0.951,0.315c-0.175,0.35-0.035,0.775,0.314,0.951
					c17.773,8.952,37.22,11.906,55.145,11.906c34.472-0.002,63.311-10.924,63.746-11.092c0.286-0.111,0.468-0.393,0.452-0.7
					L408.177,304.334z"/>
				<g>
					<path style="fill:#D8F2FF;" d="M396.059,360.3c-0.367,0-0.679-0.285-0.705-0.658l-3.588-50.858
						c-0.027-0.39,0.267-0.729,0.656-0.756c0.377-0.041,0.728,0.266,0.756,0.656l3.587,50.858c0.027,0.39-0.267,0.727-0.657,0.755
						C396.091,360.298,396.075,360.3,396.059,360.3z"/>
				</g>
			</g>
			<g>
				<path style="fill:#FFCED6;" d="M333.329,307.645c0,0,0-2.511-3.628-4.325c0,0-0.073-2.292-1.26-3.402
					c0,0,0.224-6.584-6.287-9.693c0,0-0.667-5.03-4.883-7.692c-4.218-2.662-7.99,0.074-5.92,4.218c0,0-6.289-0.591-7.398,3.182
					c-0.899,3.052,3.033,5.03,6.289,5.77c0,0-5.402,1.259-7.399,4.364c-1.997,3.108,0.741,6.365,4.366,5.847
					c0,0-0.665,2.441,1.405,3.773c2.073,1.333,8.431-2.098,11.911-1.492L333.329,307.645z"/>
				<g>
					<g>
						<path style="fill:#FC92A6;" d="M322.154,290.755c-0.106,0-0.213-0.032-0.306-0.098c-3.111-2.199-10.504-3.372-10.579-3.384
							c-0.29-0.046-0.488-0.316-0.442-0.607c0.045-0.288,0.318-0.483,0.606-0.442c0.313,0.05,7.715,1.226,11.027,3.566
							c0.24,0.17,0.296,0.5,0.127,0.74C322.484,290.677,322.32,290.755,322.154,290.755z"/>
					</g>
					<g>
						<path style="fill:#FC92A6;" d="M328.442,300.448c-0.171,0-0.338-0.082-0.441-0.234c-4.055-6.018-17.544-4.011-17.679-3.988
							c-0.29,0.044-0.561-0.155-0.605-0.445c-0.044-0.289,0.154-0.56,0.444-0.605c0.581-0.09,14.294-2.122,18.721,4.445
							c0.164,0.243,0.1,0.573-0.144,0.738C328.647,300.418,328.544,300.448,328.442,300.448z"/>
					</g>
					<g>
						<path style="fill:#FC92A6;" d="M307.208,306.442c-0.108,0-0.217-0.033-0.311-0.103c-0.237-0.171-0.291-0.5-0.12-0.737
							c0.108-0.151,2.724-3.688,9.461-4.583c8.438-1.116,13.514,1.719,13.726,1.84c0.254,0.144,0.342,0.468,0.196,0.723
							c-0.145,0.256-0.469,0.342-0.724,0.198c-0.048-0.027-4.996-2.778-13.059-1.709c-6.251,0.831-8.717,4.119-8.741,4.153
							C307.534,306.365,307.372,306.442,307.208,306.442z"/>
					</g>
				</g>
			</g>
			<g>
				<path style="fill:#FFCED6;" d="M388.539,164.948l7.049,35.175c0,0-4.206,11.904-19.225,11.904
					c-15.017,0-19.226-11.904-19.226-11.904l7.051-35.175H388.539z"/>
				<path style="fill:#FC92A6;" d="M390.345,173.956l-1.806-9.008h-24.351l-1.936,9.657c4.047,2.577,8.66,4.043,13.562,4.043
					C381.112,178.648,386.073,176.934,390.345,173.956z"/>
			</g>
			<g>
				<path style="fill:#09105E;" d="M414.204,103.69c-4.495,9.353-17.33,17.318-26.354,12.98c-9.025-4.338-10.817-19.338-6.321-28.69
					c4.496-9.351,15.456-13.415,24.478-9.077C415.03,83.242,418.701,94.34,414.204,103.69z"/>
				<g>
					<g>
						<path style="fill:#1D4C9A;" d="M404.085,113.246c-0.109,0-0.216-0.05-0.286-0.145c-0.115-0.158-0.081-0.378,0.077-0.495
							c0.113-0.083,11.315-8.486,9.522-22.281c-0.024-0.193,0.112-0.371,0.306-0.396c0.19-0.024,0.371,0.111,0.397,0.305
							c1.847,14.217-9.69,22.857-9.806,22.943C404.232,113.224,404.158,113.246,404.085,113.246z"/>
					</g>
					<g>
						<path style="fill:#1D4C9A;" d="M380.89,97.879c-0.02,0-0.04-0.002-0.06-0.005c-0.193-0.034-0.321-0.217-0.288-0.41
							c0.03-0.176,3.254-17.654,17.812-18.674c0.189-0.018,0.362,0.132,0.378,0.328c0.015,0.195-0.134,0.364-0.329,0.378
							c-14.003,0.981-17.134,17.919-17.164,18.089C381.209,97.758,381.06,97.879,380.89,97.879z"/>
					</g>
					<g>
						<path style="fill:#1D4C9A;" d="M384.848,99.47c-0.048,0-0.096-0.01-0.143-0.029c-0.179-0.079-0.26-0.288-0.182-0.467
							c0.271-0.613,6.714-15.091,17.131-19.239c0.179-0.071,0.385,0.016,0.458,0.199c0.071,0.181-0.017,0.387-0.198,0.459
							c-10.143,4.039-16.678,18.718-16.741,18.866C385.114,99.392,384.984,99.47,384.848,99.47z"/>
					</g>
					<g>
						<path style="fill:#1D4C9A;" d="M401.14,111.067c-0.082,0-0.163-0.028-0.231-0.086c-0.147-0.128-0.164-0.351-0.037-0.499
							c0.111-0.13,11.201-13.181,9.765-24.668c-0.023-0.194,0.113-0.371,0.308-0.396c0.188-0.024,0.371,0.113,0.396,0.307
							c1.475,11.801-9.464,24.676-9.931,25.219C401.338,111.025,401.239,111.067,401.14,111.067z"/>
					</g>
					<g>
						<path style="fill:#1D4C9A;" d="M397.181,106.833c-0.059,0-0.118-0.014-0.174-0.046c-0.17-0.095-0.229-0.312-0.133-0.482
							c4.738-8.351,11.693-22.315,10.182-24.239c-0.054-0.067-0.211-0.27-0.829-0.097c-5.934,1.688-15.539,19.604-15.636,19.785
							c-0.091,0.173-0.306,0.237-0.478,0.146c-0.172-0.092-0.237-0.306-0.147-0.479c0.399-0.749,9.847-18.362,16.066-20.131
							c0.888-0.256,1.349,0.045,1.581,0.34c2.3,2.93-8.846,22.772-10.124,25.025C397.424,106.769,397.306,106.833,397.181,106.833z"
							/>
					</g>
				</g>
				<path style="fill:#09105E;" d="M409.432,138.41c0,18.565-15.05,33.619-33.617,33.619l0,0c-18.567,0-33.619-15.054-33.619-33.619
					v-8.42c0-18.567,15.052-33.618,33.619-33.618l0,0c18.567,0,33.617,15.051,33.617,33.618V138.41z"/>
				<g>
					<g>
						<path style="fill:#1D4C9A;" d="M352.966,129.491c-3.641,0-6.077-0.383-6.166-0.398c-0.192-0.032-0.323-0.215-0.291-0.407
							c0.033-0.194,0.226-0.318,0.407-0.291c0.332,0.054,33.149,5.194,38.995-23.557c0.038-0.191,0.229-0.317,0.416-0.276
							c0.191,0.04,0.316,0.226,0.277,0.417C382.213,126.576,363.008,129.491,352.966,129.491z"/>
					</g>
					<g>
						<path style="fill:#1D4C9A;" d="M345.915,126.162c-0.1,0-0.195-0.042-0.263-0.116c-0.07-0.078-0.103-0.184-0.087-0.288
							c0.043-0.297,4.675-29.569,38.402-25.797c0.194,0.022,0.336,0.197,0.314,0.391c-0.022,0.194-0.208,0.325-0.392,0.312
							c-9.531-1.066-22.706,0.011-31.336,11.173c-4.447,5.753-5.887,11.922-6.21,13.587c3.543-0.274,27.234-2.769,35.514-20.664
							c0.083-0.177,0.291-0.253,0.47-0.173c0.178,0.082,0.254,0.292,0.173,0.47c-9.098,19.659-36.295,21.092-36.569,21.104
							C345.925,126.162,345.921,126.162,345.915,126.162z"/>
					</g>
					<g>
						<path style="fill:#1D4C9A;" d="M345.915,126.162c-0.052,0-0.105-0.011-0.155-0.035c-0.175-0.086-0.249-0.297-0.164-0.473
							c0.085-0.174,8.72-17.431,33.831-22.514c0.196-0.039,0.379,0.086,0.418,0.276c0.039,0.192-0.085,0.379-0.276,0.418
							c-24.772,5.014-33.252,21.958-33.335,22.129C346.172,126.088,346.046,126.162,345.915,126.162z"/>
					</g>
					<g>
						<path style="fill:#1D4C9A;" d="M406.018,134.554c-0.046,0-0.091-0.008-0.135-0.026c-9.697-3.954-16.127-21.211-16.397-21.944
							c-0.067-0.184,0.026-0.387,0.211-0.454c0.183-0.066,0.386,0.027,0.454,0.211c0.063,0.172,6.301,16.914,15.367,21.251
							c-0.771-3.273-4.586-17.527-13.592-23.504c-0.163-0.108-0.207-0.329-0.1-0.491c0.107-0.164,0.329-0.205,0.489-0.1
							c10.404,6.905,14.013,24.457,14.048,24.634c0.025,0.127-0.021,0.259-0.121,0.342
							C406.179,134.526,406.099,134.554,406.018,134.554z"/>
					</g>
					<g>
						<path style="fill:#1D4C9A;" d="M407.473,139.783c-0.006,0-0.011,0-0.017-0.001c-0.197-0.009-0.346-0.175-0.338-0.37
							c1.172-24.855-13.522-32.542-13.672-32.617c-0.174-0.087-0.243-0.3-0.156-0.476c0.087-0.174,0.3-0.245,0.475-0.157
							c0.151,0.077,15.255,7.943,14.062,33.283C407.818,139.635,407.66,139.783,407.473,139.783z"/>
					</g>
				</g>
			</g>
			<g>
				<path style="fill:#FFCED6;" d="M414.508,147.359c0,3.884-3.151,7.034-7.035,7.034c-3.888,0-7.036-3.15-7.036-7.034
					c0-3.886,3.148-7.035,7.036-7.035C411.357,140.325,414.508,143.473,414.508,147.359z"/>
				<path style="fill:#FC92A6;" d="M410.582,147.359c0,1.718-1.392,3.11-3.109,3.11c-1.72,0-3.113-1.393-3.113-3.11
					c0-1.719,1.394-3.112,3.113-3.112C409.19,144.247,410.582,145.64,410.582,147.359z"/>
			</g>
			<g>
				<path style="fill:#FFCED6;" d="M337.123,147.359c0,3.884,3.15,7.034,7.035,7.034c3.886,0,7.036-3.15,7.036-7.034
					c0-3.886-3.15-7.035-7.036-7.035C340.272,140.325,337.123,143.473,337.123,147.359z"/>
				<path style="fill:#FC92A6;" d="M341.046,147.359c0,1.718,1.393,3.11,3.111,3.11c1.719,0,3.112-1.393,3.112-3.11
					c0-1.719-1.393-3.112-3.112-3.112C342.439,144.247,341.046,145.64,341.046,147.359z"/>
			</g>
			<path style="fill:#FFCED6;" d="M387.875,115.677c-3.834,11.43-15.528,19.745-29.364,19.745c-3.948,0-7.719-0.685-11.187-1.918
				c-0.3,2.007-0.466,4.069-0.466,6.178c0,19.174,12.965,34.718,28.956,34.718c15.992,0,28.957-15.544,28.957-34.718
				c0-0.826-0.033-1.642-0.082-2.453C395.65,132.922,389.314,124.831,387.875,115.677z"/>
			<g>
				<g>
					<path style="fill:#FC92A6;" d="M376.979,154.816c-2.135,0-3.872-1.738-3.872-3.874l1.645-14.993
						c0.036-0.324,0.319-0.558,0.649-0.522c0.325,0.035,0.559,0.327,0.522,0.651l-1.642,14.929c0.004,1.42,1.212,2.63,2.697,2.63
						c0.327,0,0.591,0.264,0.591,0.589C377.57,154.553,377.307,154.816,376.979,154.816z"/>
				</g>
				<g>
					<path style="fill:#FC92A6;" d="M375.814,165.904c-4.134,0-7.497-3.364-7.497-7.496c0-0.327,0.265-0.589,0.589-0.589
						c0.326,0,0.59,0.263,0.59,0.589c0,3.483,2.833,6.316,6.317,6.316c3.484,0,6.317-2.833,6.317-6.316
						c0-0.327,0.265-0.589,0.59-0.589c0.325,0,0.59,0.263,0.59,0.589C383.312,162.54,379.948,165.904,375.814,165.904z"/>
				</g>
				<path style="fill:#FC92A6;" d="M397.604,145.12c0,1.718-1.393,3.112-3.113,3.112c-1.717,0-3.109-1.394-3.109-3.112
					c0-1.72,1.393-3.112,3.109-3.112C396.211,142.007,397.604,143.4,397.604,145.12z"/>
				<path style="fill:#FC92A6;" d="M354.026,145.12c0,1.718,1.393,3.112,3.111,3.112c1.718,0,3.112-1.394,3.112-3.112
					c0-1.72-1.394-3.112-3.112-3.112C355.419,142.007,354.026,143.4,354.026,145.12z"/>
				<g>
					<path style="fill:#001526;" d="M393.607,141.571c0,1.958-1.092,3.549-2.437,3.549c-1.345,0-2.435-1.59-2.435-3.549
						c0-1.96,1.09-3.549,2.435-3.549C392.515,138.021,393.607,139.611,393.607,141.571z"/>
					<path style="fill:#001526;" d="M362.894,141.571c0,1.958-1.089,3.549-2.435,3.549c-1.345,0-2.435-1.59-2.435-3.549
						c0-1.96,1.089-3.549,2.435-3.549C361.805,138.021,362.894,139.611,362.894,141.571z"/>
				</g>
			</g>
		</g>
	</g>
	
		<line style="fill:none;stroke:#2067D3;stroke-width:16;stroke-linecap:round;stroke-linejoin:round;stroke-miterlimit:10;" x1="57.841" y1="448.521" x2="692.158" y2="448.521"/>
</g>
</svg>
