<?xml version="1.0" encoding="utf-8"?>
<!-- Generator: Adobe Illustrator 27.5.0, SVG Export Plug-In . SVG Version: 6.00 Build 0)  -->
<svg version="1.1" xmlns="http://www.w3.org/2000/svg" xmlns:xlink="http://www.w3.org/1999/xlink" x="0px" y="0px"
	 viewBox="0 0 750 500" style="enable-background:new 0 0 750 500;" xml:space="preserve">
<g id="BACKGROUND">
	<rect style="fill:#FFFFFF;" width="750" height="500"/>
</g>
<g id="OBJECTS">
	<g>
		<path style="fill:#7AC6DD;" d="M710.324,444.19c-1.37,5.38-3.72,10.45-7.06,14.81H73.524c-0.19-0.13-0.41-0.23-0.67-0.29
			c-8.11-1.96-12.88-9.85-13.98-17.7c-1.37-9.78,3.17-19.2,8.33-27.2c10.28-15.95,24.29-30.42,21.63-50.92
			c-1.26-9.78-5.3-18.89-8.7-28.06c-3.6-9.72-5.95-19.55-5.74-29.98c0.42-21.26,9.59-41.42,19.76-59.66
			c9.42-16.9,19.68-33.76,31.41-49.15c10.93-14.35,24.13-27.6,40.95-34.8c18.24-7.81,38.46-7.78,57.86-9.97
			c9.57-1.09,19.19-2.7,28.28-5.98c8.56-3.08,16.23-7.87,23.6-13.13c14.8-10.53,29.16-21.8,48.28-21.34
			c17.92,0.43,34.59,9.2,50.54,16.47c17.04,7.77,34.24,14.42,53.28,13.99c21.43-0.48,41.86-7.79,63.01-10.34
			c17.86-2.15,38.01-1.26,52.75,10.32c13.48,10.59,19.18,27.52,26.75,42.26c3.69,7.19,7.86,14.16,13.5,20
			c5.32,5.52,11.88,9.6,18.77,12.85c14.12,6.66,30.1,9.92,43.07,18.89c6.82,4.71,12.15,11.06,15.04,18.88
			c3.2,8.65,3.41,18.07,3.08,27.18c-0.35,9.44-1.36,18.87-1.18,28.33c0.19,9.79,2.11,19.3,5.72,28.41
			C682.474,372.44,720.624,403.75,710.324,444.19z"/>
		<path style="fill:#FFFFFF;" d="M285.347,142.795c-2.574,0-2.21,3.985,0.349,3.985C288.269,146.78,287.905,142.795,285.347,142.795
			z"/>
		<path style="fill:#FFFFFF;" d="M270.737,152.41c-0.124-0.329-0.321-0.607-0.589-0.834c-0.182-0.189-0.363-0.378-0.545-0.567
			c-0.197-0.178-0.423-0.297-0.677-0.356c-0.248-0.104-0.509-0.139-0.783-0.104c-0.275,0.014-0.526,0.093-0.753,0.239
			c-0.24,0.102-0.442,0.258-0.605,0.468c-0.092,0.143-0.184,0.287-0.276,0.43c-0.153,0.327-0.214,0.67-0.184,1.029
			c0.039,0.174,0.078,0.349,0.117,0.523c0.124,0.329,0.321,0.607,0.589,0.834c0.182,0.189,0.363,0.378,0.545,0.567
			c0.197,0.179,0.423,0.297,0.677,0.356c0.248,0.104,0.509,0.139,0.783,0.104c0.275-0.014,0.526-0.093,0.753-0.239
			c0.24-0.102,0.442-0.258,0.605-0.468c0.092-0.143,0.184-0.287,0.276-0.43c0.153-0.326,0.214-0.67,0.184-1.029
			C270.815,152.759,270.776,152.584,270.737,152.41z"/>
		<path style="fill:#FFFFFF;" d="M285.468,162.431c-0.094-0.278-0.188-0.555-0.282-0.833c-0.084-0.254-0.223-0.469-0.416-0.646
			c-0.159-0.205-0.361-0.359-0.604-0.464c-0.241-0.126-0.495-0.183-0.761-0.172c-0.27-0.036-0.534-0.001-0.791,0.105
			c-0.153,0.081-0.306,0.162-0.458,0.242c-0.284,0.203-0.501,0.462-0.652,0.777c-0.053,0.164-0.106,0.329-0.159,0.493
			c-0.064,0.361-0.033,0.715,0.093,1.059c0.094,0.278,0.188,0.555,0.282,0.833c0.084,0.254,0.223,0.469,0.416,0.646
			c0.159,0.205,0.361,0.359,0.604,0.464c0.241,0.126,0.495,0.183,0.761,0.172c0.27,0.036,0.534,0.001,0.791-0.105
			c0.153-0.081,0.306-0.162,0.458-0.242c0.284-0.203,0.501-0.462,0.652-0.777c0.053-0.165,0.106-0.329,0.159-0.494
			C285.624,163.129,285.593,162.776,285.468,162.431z"/>
		<path style="fill:#FFFFFF;" d="M296.189,141.127c-2.574,0-2.21,3.985,0.349,3.985
			C299.111,145.112,298.747,141.127,296.189,141.127z"/>
		<path style="fill:#FFFFFF;" d="M293.131,128.618c-2.574,0-2.21,3.985,0.349,3.985
			C296.053,132.602,295.689,128.618,293.131,128.618z"/>
		<path style="fill:#FFFFFF;" d="M304.25,150.023c-2.574,0-2.21,3.985,0.349,3.985C307.173,154.008,306.809,150.023,304.25,150.023z
			"/>
		<path style="fill:#FFFFFF;" d="M256.261,161.603c-0.124-0.329-0.321-0.607-0.589-0.834c-0.093-0.093-0.185-0.185-0.278-0.278
			c-0.197-0.179-0.423-0.297-0.677-0.356c-0.248-0.104-0.509-0.139-0.783-0.104c-0.275,0.014-0.526,0.093-0.753,0.239
			c-0.24,0.102-0.442,0.258-0.605,0.468c-0.092,0.143-0.184,0.287-0.276,0.431c-0.153,0.326-0.214,0.67-0.184,1.029
			c0.039,0.174,0.078,0.349,0.117,0.523c0.124,0.329,0.321,0.607,0.589,0.834c0.093,0.093,0.185,0.185,0.278,0.278
			c0.197,0.178,0.423,0.297,0.677,0.356c0.248,0.104,0.509,0.139,0.783,0.104c0.275-0.014,0.526-0.093,0.753-0.239
			c0.24-0.102,0.442-0.258,0.605-0.468c0.092-0.143,0.184-0.287,0.276-0.43c0.153-0.327,0.214-0.67,0.184-1.029
			C256.339,161.952,256.3,161.778,256.261,161.603z"/>
		<path style="fill:#FFFFFF;" d="M273.653,165.822c-0.102-0.24-0.258-0.442-0.468-0.605c-0.143-0.092-0.287-0.184-0.43-0.276
			c-0.327-0.153-0.67-0.214-1.029-0.184c-0.174,0.039-0.349,0.078-0.523,0.117c-0.329,0.124-0.607,0.321-0.834,0.589
			c-0.278,0.278-0.556,0.556-0.834,0.834c-0.179,0.197-0.297,0.423-0.356,0.677c-0.104,0.248-0.139,0.509-0.104,0.783
			c0.014,0.275,0.093,0.526,0.239,0.753c0.102,0.24,0.258,0.442,0.468,0.605c0.143,0.092,0.287,0.184,0.43,0.276
			c0.326,0.153,0.67,0.214,1.029,0.184c0.174-0.039,0.349-0.078,0.523-0.117c0.329-0.124,0.607-0.321,0.834-0.589
			c0.278-0.278,0.556-0.556,0.834-0.834c0.179-0.197,0.297-0.423,0.356-0.677c0.104-0.248,0.139-0.509,0.104-0.783
			C273.878,166.299,273.799,166.049,273.653,165.822z"/>
		<path style="fill:#FFFFFF;" d="M241.702,157.251c-2.574,0-2.21,3.985,0.349,3.985
			C244.624,161.236,244.261,157.251,241.702,157.251z"/>
		<path style="fill:#FFFFFF;" d="M90.796,451.278c2.443,0.81,3.352-3.087,0.923-3.892C89.276,446.576,88.367,450.473,90.796,451.278
			z"/>
		<path style="fill:#FFFFFF;" d="M89.167,421.743c2.443,0.81,3.352-3.087,0.923-3.892C87.647,417.041,86.738,420.938,89.167,421.743
			z"/>
		<path style="fill:#FFFFFF;" d="M69.718,434.139c0.014,0.352,0.113,0.677,0.297,0.977c0.107,0.133,0.214,0.265,0.322,0.398
			c0.262,0.248,0.568,0.414,0.919,0.499l0.792,0.262c0.266,0.074,0.529,0.077,0.79,0.01c0.26-0.021,0.5-0.106,0.722-0.254
			c0.232-0.131,0.415-0.308,0.551-0.531c0.177-0.203,0.292-0.44,0.345-0.71c0.018-0.178,0.035-0.356,0.053-0.534
			c-0.014-0.352-0.113-0.677-0.297-0.977l-0.322-0.398c-0.262-0.248-0.568-0.414-0.919-0.499l-0.792-0.262
			c-0.266-0.074-0.529-0.077-0.789-0.01c-0.26,0.021-0.5,0.106-0.722,0.254c-0.232,0.131-0.415,0.308-0.551,0.531
			c-0.177,0.203-0.292,0.44-0.345,0.71C69.754,433.783,69.736,433.961,69.718,434.139z"/>
		<path style="fill:#FFFFFF;" d="M87.608,437.042c2.443,0.81,3.352-3.087,0.923-3.892C86.089,432.34,85.18,436.237,87.608,437.042z"
			/>
		<path style="fill:#FFFFFF;" d="M89.234,407.464c0.021,0.26,0.106,0.5,0.254,0.722c0.131,0.232,0.308,0.415,0.531,0.551
			c0.203,0.177,0.44,0.292,0.71,0.345c0.178,0.018,0.356,0.035,0.534,0.053c0.352-0.014,0.677-0.113,0.977-0.297
			c0.133-0.107,0.265-0.214,0.398-0.322c0.248-0.262,0.414-0.568,0.499-0.919l0.262-0.792c0.074-0.266,0.077-0.529,0.01-0.79
			c-0.021-0.26-0.106-0.5-0.254-0.722c-0.131-0.232-0.308-0.415-0.531-0.551c-0.203-0.177-0.44-0.292-0.71-0.345
			c-0.178-0.018-0.356-0.035-0.534-0.053c-0.352,0.014-0.677,0.113-0.977,0.297c-0.133,0.107-0.265,0.214-0.398,0.322
			c-0.248,0.262-0.414,0.568-0.499,0.919l-0.262,0.792C89.171,406.94,89.167,407.203,89.234,407.464z"/>
		<path style="fill:#FFFFFF;" d="M74.651,415.173c2.443,0.81,3.352-3.087,0.923-3.892C73.132,410.471,72.223,414.368,74.651,415.173
			z"/>
		<path style="fill:#FFFFFF;" d="M97.562,393.775c2.443,0.81,3.352-3.087,0.923-3.892C96.042,389.073,95.133,392.97,97.562,393.775z
			"/>
		<path style="fill:#FFFFFF;" d="M76.819,448.171c2.443,0.81,3.352-3.087,0.923-3.892C75.299,443.469,74.39,447.366,76.819,448.171z
			"/>
		<path style="fill:#FFFFFF;" d="M675.63,361.807c-0.102-0.24-0.258-0.442-0.468-0.605c-0.198-0.178-0.423-0.297-0.677-0.356
			c-0.248-0.104-0.509-0.139-0.783-0.104c-0.174,0.039-0.349,0.078-0.523,0.117c-0.329,0.124-0.607,0.321-0.834,0.589
			c-0.092,0.143-0.184,0.287-0.276,0.43c-0.153,0.327-0.214,0.67-0.184,1.029v0.834c0.014,0.275,0.093,0.526,0.239,0.753
			c0.102,0.24,0.258,0.442,0.468,0.605c0.197,0.178,0.423,0.297,0.677,0.356c0.248,0.104,0.509,0.139,0.783,0.104
			c0.174-0.039,0.349-0.078,0.523-0.117c0.329-0.124,0.607-0.321,0.834-0.589c0.092-0.143,0.184-0.287,0.276-0.431
			c0.153-0.326,0.214-0.67,0.184-1.029v-0.834C675.855,362.284,675.776,362.033,675.63,361.807z"/>
		<path style="fill:#FFFFFF;" d="M670.366,388.262c-2.574,0-2.21,3.985,0.349,3.985
			C673.289,392.247,672.925,388.262,670.366,388.262z"/>
		<path style="fill:#FFFFFF;" d="M691.216,397.436c-2.574,0-2.21,3.985,0.349,3.985
			C694.138,401.421,693.774,397.436,691.216,397.436z"/>
		<path style="fill:#FFFFFF;" d="M688.261,418.746c-0.084-0.254-0.223-0.469-0.416-0.646c-0.159-0.205-0.361-0.359-0.604-0.464
			c-0.165-0.053-0.329-0.106-0.494-0.159c-0.361-0.064-0.715-0.033-1.059,0.093c-0.153,0.081-0.306,0.162-0.458,0.242
			c-0.284,0.203-0.501,0.462-0.652,0.777c-0.278,0.556-0.556,1.112-0.834,1.668c-0.126,0.241-0.183,0.495-0.172,0.761
			c-0.036,0.27-0.001,0.534,0.105,0.791c0.084,0.254,0.223,0.469,0.416,0.646c0.159,0.205,0.361,0.359,0.604,0.464
			c0.165,0.053,0.329,0.106,0.494,0.159c0.361,0.064,0.715,0.033,1.059-0.093c0.153-0.081,0.306-0.162,0.458-0.242
			c0.284-0.203,0.501-0.462,0.652-0.777c0.278-0.556,0.556-1.112,0.834-1.668c0.126-0.241,0.183-0.495,0.172-0.761
			C688.402,419.268,688.367,419.004,688.261,418.746z"/>
		<path style="fill:#FFFFFF;" d="M672.868,426.625c-2.574,0-2.21,3.985,0.349,3.985C675.79,430.61,675.427,426.625,672.868,426.625z
			"/>
		<path style="fill:#FFFFFF;" d="M681.058,387.432v0.496c0,2.574,3.985,2.21,3.985-0.349v-0.496
			C685.043,384.509,681.058,384.873,681.058,387.432z"/>
		<path style="fill:#FFFFFF;" d="M671.581,404.569c-0.124-0.329-0.321-0.607-0.589-0.834c-0.278-0.278-0.556-0.556-0.834-0.834
			c-0.197-0.179-0.423-0.297-0.677-0.356c-0.248-0.104-0.509-0.139-0.783-0.104c-0.275,0.014-0.526,0.093-0.753,0.239
			c-0.24,0.102-0.442,0.258-0.605,0.468l-0.276,0.43c-0.153,0.327-0.214,0.67-0.184,1.029c0.039,0.174,0.078,0.349,0.117,0.523
			c0.124,0.329,0.321,0.607,0.589,0.834c0.278,0.278,0.556,0.556,0.834,0.834c0.198,0.179,0.423,0.297,0.677,0.356
			c0.248,0.104,0.509,0.139,0.783,0.104c0.275-0.014,0.526-0.093,0.753-0.239c0.24-0.102,0.442-0.258,0.605-0.468
			c0.092-0.143,0.184-0.287,0.276-0.43c0.153-0.326,0.214-0.67,0.184-1.029C671.66,404.918,671.621,404.743,671.581,404.569z"/>
		<path style="fill:#FFFFFF;" d="M697.887,422.455c-2.574,0-2.21,3.985,0.349,3.985C700.81,426.44,700.446,422.455,697.887,422.455z
			"/>
		<path style="fill:#FFFFFF;" d="M696.601,440.43c-0.124-0.329-0.321-0.607-0.589-0.834l-0.43-0.276
			c-0.326-0.153-0.67-0.214-1.029-0.184h-0.834c-0.275,0.014-0.526,0.093-0.753,0.239c-0.24,0.102-0.442,0.258-0.605,0.468
			c-0.179,0.198-0.297,0.423-0.356,0.677c-0.104,0.248-0.139,0.509-0.104,0.783c0.039,0.174,0.078,0.349,0.118,0.523
			c0.124,0.329,0.321,0.607,0.589,0.834c0.143,0.092,0.287,0.184,0.43,0.276c0.327,0.153,0.67,0.214,1.029,0.184h0.834
			c0.275-0.014,0.526-0.093,0.753-0.239c0.24-0.102,0.442-0.258,0.605-0.468c0.179-0.197,0.297-0.423,0.356-0.677
			c0.104-0.248,0.139-0.509,0.104-0.783C696.679,440.779,696.64,440.604,696.601,440.43z"/>
		<path style="fill:#FFFFFF;" d="M688.14,403.505c-0.102-0.24-0.258-0.442-0.468-0.605c-0.143-0.092-0.287-0.184-0.43-0.276
			c-0.327-0.153-0.67-0.214-1.029-0.184c-0.174,0.039-0.349,0.078-0.523,0.118c-0.329,0.124-0.607,0.321-0.834,0.589
			c-0.278,0.278-0.556,0.556-0.834,0.834c-0.178,0.197-0.297,0.423-0.356,0.677c-0.104,0.248-0.139,0.509-0.104,0.783
			c0.014,0.275,0.093,0.526,0.239,0.753c0.102,0.24,0.258,0.442,0.468,0.605l0.43,0.276c0.327,0.153,0.67,0.214,1.029,0.184
			c0.174-0.039,0.349-0.078,0.523-0.117c0.329-0.124,0.607-0.321,0.834-0.589c0.278-0.278,0.556-0.556,0.834-0.834
			c0.178-0.198,0.297-0.423,0.356-0.677c0.104-0.248,0.139-0.509,0.104-0.783C688.365,403.983,688.285,403.732,688.14,403.505z"/>
		<path style="fill:#FFFFFF;" d="M663.694,369.081c-2.574,0-2.21,3.985,0.349,3.985
			C666.617,373.066,666.253,369.081,663.694,369.081z"/>
		<path style="fill:#FFFFFF;" d="M478.933,145.202c-0.124-0.329-0.321-0.607-0.589-0.834c-0.143-0.092-0.287-0.184-0.43-0.276
			c-0.327-0.153-0.67-0.214-1.029-0.184h-0.834c-0.275,0.014-0.526,0.093-0.753,0.239c-0.24,0.102-0.442,0.258-0.605,0.468
			c-0.178,0.197-0.297,0.423-0.356,0.677c-0.104,0.248-0.139,0.509-0.104,0.783c0.039,0.174,0.078,0.349,0.117,0.523
			c0.124,0.329,0.321,0.607,0.589,0.834c0.143,0.092,0.287,0.184,0.43,0.276c0.327,0.153,0.67,0.214,1.029,0.184h0.834
			c0.275-0.014,0.526-0.093,0.753-0.239c0.24-0.102,0.442-0.258,0.605-0.468c0.178-0.197,0.297-0.423,0.356-0.677
			c0.104-0.248,0.139-0.509,0.104-0.783C479.011,145.551,478.972,145.376,478.933,145.202z"/>
		<path style="fill:#FFFFFF;" d="M487.273,171.889c-0.124-0.329-0.321-0.607-0.589-0.834c-0.278-0.278-0.556-0.556-0.834-0.834
			c-0.198-0.178-0.423-0.297-0.677-0.356c-0.248-0.104-0.509-0.139-0.783-0.104c-0.275,0.014-0.526,0.093-0.753,0.239
			c-0.24,0.102-0.442,0.258-0.605,0.468c-0.092,0.143-0.184,0.287-0.276,0.43c-0.153,0.327-0.214,0.67-0.184,1.029
			c0.039,0.174,0.078,0.349,0.118,0.523c0.124,0.329,0.321,0.607,0.589,0.834l0.834,0.834c0.197,0.178,0.423,0.297,0.677,0.356
			c0.248,0.104,0.509,0.139,0.783,0.104c0.275-0.014,0.526-0.093,0.753-0.239c0.24-0.102,0.442-0.258,0.605-0.468l0.276-0.43
			c0.153-0.327,0.214-0.67,0.184-1.029C487.351,172.238,487.312,172.064,487.273,171.889z"/>
		<path style="fill:#FFFFFF;" d="M511.077,155.583c-2.574,0-2.21,3.985,0.349,3.985
			C513.999,159.568,513.635,155.583,511.077,155.583z"/>
		<path style="fill:#FFFFFF;" d="M502.997,138.301c-0.102-0.24-0.258-0.442-0.468-0.605c-0.197-0.178-0.423-0.297-0.677-0.356
			c-0.248-0.104-0.509-0.139-0.783-0.104c-0.174,0.039-0.349,0.078-0.523,0.117c-0.329,0.124-0.607,0.321-0.834,0.589l-0.276,0.43
			c-0.153,0.327-0.214,0.67-0.184,1.029v0.834c0.014,0.275,0.093,0.526,0.239,0.753c0.102,0.24,0.258,0.442,0.468,0.605
			c0.198,0.178,0.423,0.297,0.677,0.356c0.248,0.104,0.509,0.139,0.783,0.104c0.174-0.039,0.349-0.078,0.523-0.117
			c0.329-0.124,0.607-0.321,0.834-0.589c0.092-0.143,0.184-0.287,0.276-0.43c0.153-0.327,0.214-0.67,0.184-1.029v-0.834
			C503.222,138.778,503.142,138.527,502.997,138.301z"/>
		<path style="fill:#FFFFFF;" d="M489.393,155.583c-2.574,0-2.21,3.985,0.349,3.985
			C492.316,159.568,491.952,155.583,489.393,155.583z"/>
		<path style="fill:#FFFFFF;" d="M466.876,162.255c-2.574,0-2.21,3.985,0.349,3.985C469.798,166.24,469.434,162.255,466.876,162.255
			z"/>
		<path style="fill:#FFFFFF;" d="M506.907,178.1c-2.574,0-2.21,3.985,0.349,3.985C509.829,182.085,509.465,178.1,506.907,178.1z"/>
		<path style="fill:#FFFFFF;" d="M534.428,146.409c-2.574,0-2.21,3.985,0.349,3.985C537.35,150.394,536.987,146.409,534.428,146.409
			z"/>
		<path style="fill:#FFFFFF;" d="M518.582,141.405c-2.574,0-2.21,3.985,0.349,3.985C521.505,145.39,521.141,141.405,518.582,141.405
			z"/>
		<path style="fill:#FFFFFF;" d="M463.087,147.704c-0.124-0.329-0.321-0.607-0.589-0.834l-0.834-0.834
			c-0.197-0.179-0.423-0.297-0.677-0.356c-0.248-0.104-0.509-0.139-0.783-0.104c-0.275,0.014-0.526,0.093-0.753,0.239
			c-0.24,0.102-0.442,0.258-0.605,0.468l-0.276,0.43c-0.153,0.327-0.214,0.67-0.184,1.029c0.039,0.174,0.078,0.349,0.117,0.523
			c0.124,0.329,0.321,0.607,0.589,0.834c0.278,0.278,0.556,0.556,0.834,0.834c0.198,0.179,0.423,0.297,0.677,0.356
			c0.248,0.104,0.509,0.139,0.783,0.104c0.275-0.014,0.526-0.093,0.753-0.239c0.24-0.102,0.442-0.258,0.605-0.468
			c0.092-0.144,0.184-0.287,0.276-0.431c0.153-0.326,0.214-0.67,0.184-1.029C463.166,148.053,463.126,147.878,463.087,147.704z"/>
	</g>
	<g>
		<g>
			<path style="fill:#49C1BB;" d="M517.716,298.69c21.66,0.53,43.33,0.03,64.94-1.45c-2.77-7.61-9.97-12.94-17.67-15.5
				c-8.76-2.91-18.52-2.72-27.16,0.53C529.576,285.37,522.396,291.24,517.716,298.69z"/>
			<path style="fill:#49C1BB;" d="M489.476,349.12c0.47-1.05,1.01-2.14,0.94-3.3c-0.03-0.59-0.22-1.17-0.13-1.76
				c0.12-0.73,0.67-1.38,0.6-2.11c-0.18-1.84-3.56-1.59-4.04-3.37c-0.39-1.39,1.34-2.36,2.74-2.66c1.41-0.3,3.19-0.82,3.3-2.25
				c0.04-0.49-0.15-0.96-0.33-1.42c-3.15-7.72-6.3-15.45-9.45-23.18c-0.52,0.03-1.03,0.05-1.55,0.06
				c-9.96,0.32-19.96-0.7-29.65-3.03c-1.41-0.34-2.81-0.71-4.21-1.11c0.97-29.09,2.08-58.62,11.02-86.31
				c0.86-2.67,1.82-5.36,3.57-7.55c2.5-3.14,6.32-4.89,10.04-6.42c5.54-2.27,11.18-4.31,16.9-6.1c-1.32-2.9,1.08-6.4,4.09-7.43
				c3.02-1.04,6.32-0.33,9.42,0.38c-1.04-0.97-2.13-2.01-2.58-3.36c-0.46-1.36-0.02-3.12,1.29-3.68c0.81-0.34,1.73-0.16,2.58,0.03
				c2.19,0.47,4.38,0.94,6.56,1.42c0.46,0.09,0.91,0.19,1.37,0.29c12.09,18.06,26.62,34.49,43.06,48.7c1.51-0.78,2.94-1.7,4.29-2.74
				c-1.67-1.7-3.33-3.42-4.97-5.15c1.67-11.2,4.02-22.29,7.04-33.2c0.01,0,0.01,0,0.02,0c2.26,0.02,4.48-0.66,6.72-1.05
				c2.55-0.45,5.41-0.46,7.45,1.14c2.03,1.61,2.39,5.31,0.13,6.57c1.83-0.09,3.74-0.17,5.43,0.54c1.69,0.72,3.09,2.47,2.77,4.28
				c6.38-1.27,12.86,2.81,16.41,8.25c3.55,5.45,4.79,12.04,5.96,18.43c3.99,21.8,7.97,43.6,11.96,65.39
				c-0.9,0.72-1.82,1.43-2.75,2.11c-2.05,1.49-4.2,2.81-6.58,3.68c-2.4,0.89-4.95,1.29-7.49,1.68c-2.12,0.33-4.24,0.66-6.36,0.99
				c4.25,13.89,6.95,28.24,9.64,42.53c1.37,7.25,2.74,14.5,4.09,21.75c2.51,13.42,4.99,26.84,7.4,40.27
				c1.26,7.14,2.51,14.27,3.73,21.41c0.02,0.13,0.04,0.26,0.06,0.38c-0.32,0.76-0.19,1.72,0.39,2.31
				c1.39,8.15,2.72,16.31,4.01,24.47h-156.64c0.33-19.31,1.08-72.65,18.88-99.86C487.076,355.69,488.046,352.3,489.476,349.12z"/>
			<path style="fill:#2DAAA1;" d="M564.986,281.74c7.7,2.56,14.9,7.89,17.67,15.5c-21.61,1.48-43.28,1.98-64.94,1.45
				c4.68-7.45,11.86-13.32,20.11-16.42C546.466,279.02,556.226,278.83,564.986,281.74z"/>
			<path style="fill:#2DAAA1;" d="M535.076,411.71c-7.28,4.37-14.66,8.59-22.12,12.65c-0.63,0.34-1.29,0.69-2.01,0.73
				c-0.91,0.04-1.75-0.43-2.54-0.89c-0.88-0.52-11.32-8.04-13.4-9.44c-0.04-0.01-0.08-0.03-0.11-0.06
				c-0.03-0.03-0.05-0.04-0.07-0.05c-0.04-0.02-0.08-0.05-0.12-0.08c-0.3-6.61-2.2-33.05-3.18-39.59
				c14.03-0.77,28.05-1.56,42.09-2.33l0.53-0.03c0.76,12.97,1.04,25.99,0.86,38.98L535.076,411.71z"/>
			<path style="fill:#2DAAA1;" d="M507.621,271.715c-2.753,5.088-5.507,10.175-8.26,15.263c-0.334,0.618-0.669,1.236-1.003,1.853
				c-0.312,0.576-0.633,1.272-1.211,1.636c-1.367,0.861-0.956-1.927-0.914-2.499l0.635-8.682c0.242-3.307,0.484-6.615,0.725-9.922
				c0.048-0.649-0.79-0.794-0.984-0.181c-2.955,9.361-5.91,18.721-8.865,28.082c-0.835,2.646-1.671,5.293-2.506,7.939
				c-0.194,0.613,0.792,0.787,0.984,0.181c2.955-9.361,5.91-18.721,8.865-28.082c0.403-1.276,0.806-2.553,1.209-3.829
				c-0.375,5.102-0.754,10.203-1.119,15.305c-0.069,0.962-0.124,2.211,0.899,2.708c1.07,0.519,2.082-0.429,2.634-1.259
				c0.861-1.295,1.524-2.764,2.264-4.132c0.767-1.417,1.534-2.835,2.301-4.252c1.75-3.234,3.501-6.469,5.251-9.703
				C508.832,271.575,507.926,271.151,507.621,271.715z"/>
			<path style="fill:#2DAAA1;" d="M601.753,282.423c-0.911-4.719-2.784-9.174-4.555-13.619c-1.871-4.696-3.743-9.391-5.614-14.087
				c-2.117-5.311-4.234-10.623-6.351-15.934c-0.238-0.596-1.177-0.251-0.938,0.349c3.666,9.199,7.332,18.397,10.999,27.596
				c3.314,8.315,7.519,17.093,5.344,26.242c-1.059,4.456-3.413,8.549-6.724,11.71c-0.465,0.444,0.305,1.083,0.766,0.643
				c2.958-2.823,5.156-6.385,6.409-10.274C602.409,290.949,602.567,286.643,601.753,282.423z"/>
		</g>
		<g>
			<path style="fill:#FFBE4A;" d="M563.926,147.12l-0.22-0.02c-0.16,2-0.4,4-0.73,5.99c-0.19,6.57-2.35,13.1-6.44,18.22
				c-0.5,0.62-1.02,1.22-1.57,1.79c-0.16,0.17-0.32,0.33-0.48,0.48c-4.34,4.31-10.17,7.12-16.26,7.43
				c-7.36,0.38-14.59-2.87-19.95-7.96c-0.63-0.6-1.24-1.23-1.82-1.88c-5.33-5.97-8.41-13.65-9.94-21.51
				c-2.58-0.69-4.71-2.93-6.12-5.3c-1.36-2.28-2.33-4.83-2.44-7.48c-0.11-2.65,0.71-5.39,2.55-7.3c0.38-0.41,0.83-0.78,1.36-0.95
				c0.99-0.32,2.18,0.2,2.62,1.15h0.13v-4.65h0.37c3.07-0.06,5.94-1.44,8.62-2.91c6.53-3.59,12.64-7.94,18.16-12.93
				c-0.72,2.45-1.42,4.91-2.1,7.38c-0.23,0.84-0.46,1.76-0.09,2.55c0.49,1.07,1.83,1.43,3,1.44c3.19,0.01,6.14-1.68,8.71-3.57
				c5.26-3.85,9.75-8.77,13.1-14.34c5.71,7.63,7.26,17.58,8.52,27.09l0.25-0.03c0.74-0.89,1.49-1.8,2.48-2.41
				c0.98-0.61,2.24-0.88,3.3-0.41c1.36,0.6,1.97,2.18,2.24,3.64C572.336,136.9,569.326,143.74,563.926,147.12z"/>
			<path style="fill:#052B38;" d="M547.946,129.36c1.45,0,2.63,1.69,2.63,3.79c0,2.09-1.18,3.78-2.63,3.78
				c-1.45,0-2.63-1.69-2.63-3.78C545.316,131.05,546.496,129.36,547.946,129.36z"/>
			<ellipse style="fill:#052B38;" cx="519.876" cy="132.32" rx="2.63" ry="3.79"/>
			<path style="fill:#052B38;" d="M517.666,174.68c-0.94,2.05-3.24,3.49-5.49,3.12c-2.81-0.46-4.79-3.8-3.73-6.44
				c-4.09,0.55-6.11,6.48-10.24,6.37c-2.71-0.07-4.58-2.93-4.84-5.63c-0.26-2.7,0.58-5.37,0.8-8.08c0.03-0.3,0.03-0.66-0.21-0.86
				c-0.19-0.15-0.46-0.15-0.7-0.12c-3.78,0.36-7.85,3.3-10.97,1.13c-1.99-1.39-2.31-4.23-1.94-6.64c0.57-3.64,2.26-7,3.88-10.32
				c3.92-8.02,7.55-16.18,10.89-24.46c3.22-8.02,6.19-16.2,10.63-23.61c4.44-7.42,10.54-14.13,18.43-17.66
				c11.82-5.29,26.73-2.23,35.87,6.95c4.1,4.12,7.06,9.25,9.43,14.56c5.32,11.9,7.85,25.25,5.79,38.12
				c-2.06,12.87-9,25.16-19.82,32.44l-0.48-0.45c0.55-0.57,1.07-1.17,1.57-1.79c4.09-5.12,6.25-11.65,6.44-18.22
				c0.33-1.99,0.57-3.99,0.73-5.99l0.22,0.02c5.4-3.38,8.41-10.22,7.25-16.49c-0.27-1.46-0.88-3.04-2.24-3.64
				c-1.06-0.47-2.32-0.2-3.3,0.41c-0.99,0.61-1.74,1.52-2.48,2.41l-0.25,0.03c-1.26-9.51-2.81-19.46-8.52-27.09
				c-3.35,5.57-7.84,10.49-13.1,14.34c-2.57,1.89-5.52,3.58-8.71,3.57c-1.17-0.01-2.51-0.37-3-1.44c-0.37-0.79-0.14-1.71,0.09-2.55
				c0.68-2.47,1.38-4.93,2.1-7.38c-5.52,4.99-11.63,9.34-18.16,12.93c-2.68,1.47-5.55,2.85-8.62,2.91h-0.37c0,1.55,0,3.1,0,4.65
				h-0.13c-0.44-0.95-1.63-1.47-2.62-1.15c-0.53,0.17-0.98,0.54-1.36,0.95c-1.84,1.91-2.66,4.65-2.55,7.3
				c0.11,2.65,1.08,5.2,2.44,7.48c1.41,2.37,3.54,4.61,6.12,5.3c1.53,7.86,4.61,15.54,9.94,21.51c0.58,0.65,1.19,1.28,1.82,1.88
				c-0.05,0.66-0.11,1.32-0.17,1.98C517.956,174.92,517.806,174.8,517.666,174.68z"/>
			<path style="fill:#2DAAA1;" d="M561.376,193.87c-3.02,10.91-5.37,22-7.04,33.2c-1.63-1.71-3.25-3.44-4.85-5.18l0.48-0.44
				c1.36-9.09,2.99-18.14,4.9-27.13c0.2,0.06,0.41,0.13,0.62,0.19c-0.06-0.75-0.11-1.5-0.17-2.26c0.11-0.55,0.23-1.09,0.35-1.64
				c1.91,1.08,3.8,2.17,5.71,3.25V193.87z"/>
			<circle style="fill:#F9911E;" cx="552.796" cy="151.04" r="5.65"/>
			<path style="fill:#2DAAA1;" d="M517.396,183.22c10.01,13.44,20.72,26.35,32.09,38.67c1.6,1.74,3.22,3.47,4.85,5.18
				c1.64,1.73,3.3,3.45,4.97,5.15c-1.35,1.04-2.78,1.96-4.29,2.74c-16.44-14.21-30.97-30.64-43.06-48.7
				c-0.2-0.28-0.39-0.57-0.58-0.86c1.65-1.19,3.22-2.52,4.69-3.96C516.506,182.04,516.946,182.63,517.396,183.22z"/>
			<path style="fill:#F9911E;" d="M555.186,190.34c0.04,0.64,0.09,1.28,0.13,1.91c-0.16,0.69-0.3,1.38-0.45,2.07
				c-13.33-4.03-25.88-10.61-36.76-19.29c0.06-0.66,0.12-1.32,0.17-1.98c5.36,5.09,12.59,8.34,19.95,7.96
				c6.09-0.31,11.92-3.12,16.26-7.43C554.576,179.17,554.806,184.76,555.186,190.34z"/>
			<path style="fill:#FFBE4A;" d="M554.866,194.32c-1.91,8.99-3.54,18.04-4.9,27.13l-0.48,0.44
				c-11.37-12.32-22.08-25.23-32.09-38.67c0.24-2.73,0.48-5.46,0.71-8.19C528.986,183.71,541.536,190.29,554.866,194.32z"/>
			<path style="fill:#FFFFFF;" d="M543.216,158.17c-0.1,3.06-1.74,6.05-4.3,7.73c-2.77,1.82-6.5,2.05-9.47,0.59
				c-2.98-1.46-5.08-4.56-5.32-7.86v-0.19C530.496,158.62,536.876,158.78,543.216,158.17z"/>
			<path style="fill:#F9911E;" d="M534.376,132.44c0.51,6.02,1.02,12.06,1.54,18.08c-2.32,0.51-4.71,0.66-7.08,0.44
				c-0.32-6.54,1.61-13.17,5.4-18.51L534.376,132.44z"/>
			<circle style="fill:#F9911E;" cx="515.996" cy="150.38" r="5.65"/>
			<path style="fill:#052B38;" d="M523.847,124.084c-0.152-1.146-1.043-1.827-2.167-1.818c-2.743,0.022-5.419,0.868-7.751,2.291
				c-0.895,0.546-1.107,1.975-0.476,2.789c0.701,0.904,1.831,1.06,2.788,0.476c0.152-0.093,0.305-0.184,0.461-0.271
				c0.01-0.006,0.029-0.016,0.047-0.026c0.006-0.003,0.015-0.008,0.019-0.01c0.319-0.16,0.644-0.306,0.974-0.439
				c0.552-0.222,1.12-0.396,1.696-0.542c0.854-0.174,1.717-0.277,2.59-0.284C523.078,126.242,523.982,125.097,523.847,124.084z"/>
			<path style="fill:#052B38;" d="M553.471,123.747c-2.634-1.082-5.519-1.509-8.349-1.133c-1.036,0.137-1.965,1.062-1.818,2.167
				c0.138,1.036,1.056,1.966,2.167,1.818c0.617-0.082,1.238-0.128,1.861-0.13c0.133,0,0.267,0.004,0.4,0.005
				c0.004,0,0.004,0,0.008,0c0.307,0.024,0.613,0.049,0.918,0.089c0.573,0.075,1.141,0.184,1.701,0.327
				c0.151,0.039,0.301,0.08,0.45,0.124c0.043,0.013,0.066,0.019,0.091,0.026c0.29,0.101,0.577,0.208,0.861,0.325
				c0.967,0.397,2.229,0.077,2.663-0.953C554.827,125.455,554.504,124.172,553.471,123.747z"/>
		</g>
		<g>
			<path style="fill:#FFBE4A;" d="M486.966,439.07c-4.51-0.71-8.36-3.98-10.54-8c-2.21-4.09-2.87-8.87-2.77-13.52
				c0.1-4.65,0.91-9.25,1.45-13.87l0.18-0.07c-0.34-0.83-0.67-1.66-1-2.5c-12.07-30.34-19.65-62.47-22.38-95.01
				c9.69,2.33,19.69,3.35,29.65,3.03c0.67,18.19,2.15,36.35,4.46,54.4c1.22,9.7,2.69,19.36,4.39,28.99c1.05,0.67,2.06,1.4,3.03,2.2
				c3.27,2.69,6,6.05,7.94,9.82c2.73,5.31,3.88,11.32,4.18,17.29c0.01,0.24,0.02,0.49,0.03,0.73c0.11,2.81,0.04,5.63-0.22,8.44
				c2.27,1.19,4.45,2.53,6.31,4.28c0.7,0.66,1.41,1.54,1.23,2.49c-0.09,0.45-0.36,0.83-0.65,1.17c-2.65,3.09-7.52,3.47-11.23,1.82
				c-0.18-0.08-0.35-0.16-0.53-0.25C496.036,441.95,490.876,441.52,486.966,439.07z"/>
			<path style="fill:#F9911E;" d="M504.308,428.419c-0.112-0.629-1.109-0.547-0.996,0.087c0.18,1.011-0.482,1.923-1.415,2.284
				c-0.983,0.381-2.086-0.005-2.89-0.609c-1.885-1.417-2.453-4.052-3.168-6.17c-1.652-4.891-3.304-9.782-4.956-14.673
				c-0.206-0.609-1.144-0.262-0.937,0.349c1.507,4.46,3.013,8.921,4.52,13.381c1.086,3.216,2.263,8.942,6.689,8.867
				C502.94,431.905,504.636,430.264,504.308,428.419z"/>
			<path style="fill:#F9911E;" d="M499.314,439.903c-5.633-3.808-10.186-9.102-13.068-15.265c-0.27-0.578-1.211-0.236-0.937,0.349
				c2.953,6.316,7.584,11.775,13.362,15.682C499.199,441.027,499.847,440.264,499.314,439.903z"/>
			<path style="fill:#F9911E;" d="M488.603,438.63c-2.276-3.342-4.553-6.685-6.829-10.027c-0.362-0.532-1.179,0.045-0.816,0.578
				c2.276,3.342,4.553,6.685,6.829,10.027C488.149,439.74,488.966,439.163,488.603,438.63z"/>
		</g>
		<g>
			<path style="fill:#FFBE4A;" d="M623.226,416.62c-0.27-0.15-0.53-0.31-0.78-0.47c-2.08-1.37-3.34-3.67-3.84-6.16
				c-0.23-1.14-0.3-2.32-0.21-3.47c0.25-3.38,1.59-6.56,2.99-9.66h-0.01c-4.76-8.62-8.97-17.55-12.6-26.7
				c-1.35-7.25-2.72-14.5-4.09-21.75c-2.69-14.29-5.39-28.64-9.64-42.53c2.12-0.33,4.24-0.66,6.36-0.99
				c2.54-0.39,5.09-0.79,7.49-1.68c2.38-0.87,4.53-2.19,6.58-3.68c5.05,32.51,11,64.87,17.82,97.04h0.02c1.27,4.96,3.3,9.69,5,14.52
				c1.71,4.83,3.1,9.86,3.03,14.99c-0.07,5.12-1.76,10.39-5.46,13.93c-1.39,1.33-3.08,2.41-4.96,2.79
				c-0.46,0.09-0.94,0.14-1.38-0.02c-1.47-0.55-1.24-2.68-0.72-4.16c-1.69,0.89-3.98,1.7-5.29,0.31c-1.1-1.16-0.65-3.04-0.12-4.55
				c-0.71,0.87-2.18,0.97-3,0.21c-0.02-0.02-0.04-0.04-0.06-0.06c-0.12-0.77-0.26-1.54-0.39-2.31c-0.02-0.12-0.04-0.25-0.06-0.38
				C621.006,426.77,622.116,421.69,623.226,416.62z"/>
			<path style="fill:#F9911E;" d="M633.19,411.333c-0.057-0.641-1.054-0.555-0.996,0.087c0.216,2.408,0.205,4.828-0.066,7.231
				c-0.124,1.104-0.299,2.202-0.524,3.29c-0.225,1.091-0.444,2.256-0.883,3.286c-0.346,0.811-1.467,2.065-2.367,1.117
				c-0.319-0.336-0.456-0.877-0.624-1.296c-0.212-0.529-0.424-1.058-0.635-1.587l-2.723-6.8c-0.239-0.596-1.178-0.251-0.937,0.349
				c0.832,2.078,1.664,4.155,2.496,6.233c0.392,0.978,0.746,1.984,1.184,2.943c0.312,0.682,0.772,1.276,1.547,1.425
				c1.784,0.343,2.822-1.357,3.261-2.806c0.612-2.015,0.995-4.117,1.216-6.209C633.392,416.183,633.406,413.75,633.19,411.333z"/>
			<path style="fill:#F9911E;" d="M628.412,427.841c-0.187-0.157-0.557-0.166-0.704,0.062c-1.237,1.914-2.474,3.828-3.711,5.743
				c-0.146,0.227-0.163,0.516,0.062,0.704c0.187,0.157,0.557,0.166,0.704-0.062c1.237-1.914,2.474-3.828,3.711-5.742
				C628.62,428.319,628.637,428.03,628.412,427.841z"/>
			<path style="fill:#F9911E;" d="M634.818,420.728c-0.996,6.219-3.11,12.205-6.233,17.674c-0.32,0.56,0.587,0.983,0.904,0.428
				c3.162-5.537,5.304-11.624,6.313-17.92C635.904,420.273,634.92,420.092,634.818,420.728z"/>
		</g>
	</g>
	<g>
		<g>
			<path style="fill:#49C1BB;" d="M244.648,419.55c7.15-0.31,14.26-1.44,21.15-3.37c0.38,14.32,1.49,28.62,3.31,42.83h-80.4
				c-3.98-13.25-7.5-26.63-10.55-40.12c18.31,1.01,36.7,1.87,54.92-0.01c1.37-6.21,2.4-12.49,3.08-18.8l0.05-0.02
				C239.018,406.56,241.838,413.05,244.648,419.55z"/>
			<path style="fill:#62DDD3;" d="M273.608,258.24c-0.31,1.99-0.77,4.19-2.39,5.39c-0.72,0.53-1.59,0.8-2.47,0.99
				c-0.25,0.06-0.5,0.1-0.75,0.15c-8.72,1.62-17.64,2.06-26.48,1.36c0.84,2.98,1.66,5.96,2.45,8.95c3.63,13.8,6.7,27.74,9.21,41.78
				c1.32,0.84,2.51,1.83,3.27,3.19c1.2,2.14,0.63,5.44-1.68,6.25c0,0,0,0,0,0.01c2.21-0.46,4.13,2.65,2.74,4.42
				c-0.65,0.83-1.81,1.35-2,2.38c-0.11,0.64,0.19,1.27,0.47,1.86c2.78,5.82,3.92,12.27,4.91,18.65c1.52,9.71,2.76,19.47,4.01,29.22
				c1.37,10.75,2.74,21.5,4.11,32.26l0.04,0.11c-1.08,0.35-2.16,0.67-3.25,0.97c-6.89,1.93-14,3.06-21.15,3.37
				c-2.81-6.5-5.63-12.99-8.44-19.49l-0.05,0.02c-0.68,6.31-1.71,12.59-3.08,18.8c-18.22,1.88-36.61,1.02-54.92,0.01
				c-0.56-0.03-1.12-0.06-1.68-0.09c-18.33-1.01-36.94-2.14-54.35-7.83c-0.97-0.32-1.94-0.66-2.9-1.01
				c0.43-23.17,2.89-46.3,7.36-69.03c0.46-2.33,0.96-4.72,2.25-6.72c0.66-1.04,1.54-1.99,1.83-3.19c0.23-0.97,0.04-2.01,0.22-3
				c0.27-1.41,1.28-2.56,1.9-3.85c1.52-3.22,0.54-7-0.47-10.41l0.04-0.36c1.1-5.11,15.63-56.53,16.34-61.72
				c-9.56-2.94-18.61-7.56-26.62-13.57c-0.05-0.04-0.1-0.07-0.15-0.11c-0.52-0.4-1.08-0.86-1.2-1.51c-0.11-0.58,0.18-1.16,0.46-1.69
				c4.34-8.27,8.89-16.44,13.63-24.49c1.74-2.96,3.57-5.98,6.28-8.09c0.68-0.54,1.52-1.26,1.28-2.1c-0.13-0.41-0.49-0.71-0.71-1.09
				c-0.74-1.34,0.7-2.86,2.1-3.49c1.39-0.63,3.11-1.19,3.54-2.66c-1.82,0.67-3.36-2.02-2.52-3.76c0.85-1.74,2.87-2.51,4.7-3.13
				c9.93-3.36,19.88-6.7,29.81-10.05c7.31,14.4,16.5,27.84,27.29,39.85l0.03-0.03c1.85-0.92,3.7-1.85,5.56-2.78l0.19-0.2
				c0.09,0.1,0.19,0.19,0.29,0.28c6.25-9.47,12.12-19.18,17.61-29.11c0.23-0.42,0.46-0.85,0.69-1.27h0.01
				c2.13-3.93,4.14-7.99,5.1-12.32c0.13,0.04,0.26,0.09,0.4,0.12c0.1,0.13,0.21,0.27,0.31,0.41l0.09-0.07
				c9.86,5.35,19.72,10.71,29.59,16.06c1.98,1.08,4.12,2.31,4.95,4.42c0.83,2.1-0.66,5.12-2.9,4.8c0.74,1.04,2.15,1.28,3.38,1.64
				c1.22,0.37,2.57,1.25,2.49,2.53c-0.08,1.1-1.23,2.17-0.69,3.13c0.34,0.61,1.15,0.71,1.77,1.04c1.5,0.8,1.73,2.83,1.74,4.54
				C277.378,225.46,276.168,241.96,273.608,258.24z"/>
			<path style="fill:#CCFFFF;" d="M251.448,315.87c-1.34,0.73-2.79,1.26-4.23,1.74c-10.88,3.61-22.33,5.07-33.71,6.41
				c-17.57,2.08-35.63,3.89-52.77-0.48c-0.15-0.92-0.32-1.85-0.51-2.77c-0.54-2.66-1.21-5.3-2-7.91c2.77-0.31,5.53-0.7,8.27-1.17
				l-0.1-0.62c0.47-1.91,0.92-3.83,1.34-5.75c13-3.81,25.87-8.05,38.59-12.73c0.44-0.16,0.91-0.34,1.22-0.7
				c0.73-0.84,0.27-2.17,0.61-3.23c0.64-1.97,3.39-1.98,5.42-1.61c-0.44-1.19-0.89-2.42-0.79-3.69c0.02-0.24,0.07-0.48,0.15-0.71
				c0.29-1,1.03-1.89,2.04-2.07c1.93-0.33,4.24,1.85,5.6,0.43c0.39-0.41,0.52-1,0.62-1.56c1.02-5.42,1.79-10.88,2.35-16.37
				c14.45,3.83,29.75,4.42,44.45,1.69c0.25-0.05,0.5-0.09,0.75-0.15c-2.41,13.94-5.85,27.71-10.25,41.15
				c-0.96,2.93-2.04,5.97-4.25,8.12C253.418,314.69,252.468,315.34,251.448,315.87z"/>
			<path style="fill:#49C1BB;" d="M230.008,182.15l0.95,0.53c-0.23,0.42-0.46,0.85-0.69,1.27c-5.49,9.93-11.36,19.64-17.61,29.11
				c-0.1-0.09-0.2-0.18-0.29-0.28c-1.07-0.99-2.12-2-3.15-3.03l0.03-0.03c5.04-8.77,10.07-17.53,15.11-26.3
				c1.73-0.31,3.45-0.69,5.16-1.14C229.678,182.24,229.848,182.19,230.008,182.15z"/>
			<path style="fill:#FFBE4A;" d="M212.938,282.65c-0.08,0.23-0.13,0.47-0.15,0.71c-0.1,1.27,0.35,2.5,0.79,3.69
				c-2.03-0.37-4.78-0.36-5.42,1.61c-0.34,1.06,0.12,2.39-0.61,3.23c-0.31,0.36-0.78,0.54-1.22,0.7
				c-12.72,4.68-25.59,8.92-38.59,12.73c1.74-7.75,3.17-15.58,4.27-23.45h0.01l0.68,0.1
				C186.118,281.82,199.538,282.05,212.938,282.65z"/>
			<path style="fill:#2DAAA1;" d="M187.848,183.46c0.53,0.23,1.08,0.42,1.64,0.58c5.41,9.38,12.07,18.06,19.73,25.71
				c1.03,1.03,2.08,2.04,3.15,3.03l-0.19,0.2c-1.86,0.93-3.71,1.86-5.56,2.78l-0.03,0.03c-10.79-12.01-19.98-25.45-27.29-39.85
				c-0.27-0.52-0.53-1.05-0.79-1.58c1.59-0.7,3.18-1.41,4.78-2.12C184.568,176.06,186.078,179.81,187.848,183.46z"/>
			<path style="fill:#2DAAA1;" d="M188.708,459.01h-63.66c-0.97-16.02-1.94-32.03-2.92-48.04c17.41,5.69,36.02,6.82,54.35,7.83
				c0.56,0.03,1.12,0.06,1.68,0.09C181.208,432.38,184.728,445.76,188.708,459.01z"/>
			<path style="fill:#CCFFFF;" d="M172.358,279.42c-0.11,0.82-0.22,1.63-0.34,2.45h-0.01c-1.1,7.87-2.53,15.7-4.27,23.45
				c-0.42,1.92-0.87,3.84-1.34,5.75l0.1,0.62c-2.74,0.47-5.5,0.86-8.27,1.17c-3.9,0.44-7.82,0.72-11.74,0.85
				c-1.92,0.08-3.84,0.11-5.76,0.1c-2.79-0.01-5.6-0.11-8.37-0.41c-3.06-0.32-6.09-0.89-9.01-1.87
				c-5.56-1.87-10.75-5.39-13.64-10.49c-4.32-7.62-2.85-17.11-0.74-25.61c3.17-12.73,7.51-25.17,12.96-37.11l0.15-0.21
				c8.01,6.01,17.06,10.63,26.62,13.57c-0.51,3.71-3.09,17.18-4.93,26.42c2.39,0.29,4.8,0.53,7.2,0.73
				C158.078,279.41,165.228,279.61,172.358,279.42z"/>
			<path style="fill:#F9911E;" d="M160.228,320.77c-4.58-2.35-9.16-4.71-13.74-7.06c3.92-0.13,7.84-0.41,11.74-0.85
				C159.018,315.47,159.688,318.11,160.228,320.77z"/>
			<path style="fill:#FFBE4A;" d="M145.978,267.13c1.91,3.76,3.49,7.76,4.99,11.7c-8.44-0.69-16.84-1.91-25.13-3.67
				c-3.02-3.32-5.58-7.08-7.56-11.11c-0.57-1.16-0.87-2.94,0.33-3.41c0.49-0.2,1.05-0.05,1.55,0.14c2.65,0.96,4.98,2.78,6.55,5.12
				c-1.87-2.82-3.54-5.76-5.01-8.8c-0.57-1.18-1.1-2.65-0.36-3.75c0.59-0.88,1.84-1.12,2.86-0.83c1.03,0.28,1.88,0.99,2.66,1.71
				c3.24,2.94,6.06,6.35,8.33,10.08c-1.33-2.81-2.68-5.73-2.73-8.84c-0.02-1.14,0.47-2.59,1.6-2.59c0.51,0,0.95,0.31,1.34,0.62
				C140.008,257.1,143.318,261.89,145.978,267.13z"/>
			<path style="fill:#2DAAA1;" d="M160.999,211.631c-3.002,9.493-6.004,18.985-9.006,28.478c-0.851,2.69-1.701,5.379-2.552,8.069
				c-0.194,0.613,0.792,0.787,0.984,0.181l9.006-28.478c0.851-2.69,1.701-5.379,2.552-8.069
				C162.177,211.199,161.191,211.025,160.999,211.631z"/>
			<path style="fill:#2DAAA1;" d="M150.261,222.068c-0.553,6.487-1.105,12.974-1.658,19.46c-0.054,0.637,0.929,0.822,0.984,0.181
				l1.658-19.46C151.299,221.612,150.315,221.427,150.261,222.068z"/>
			<path style="fill:#2DAAA1;" d="M146.306,243.94c-1.099-3.36-2.198-6.721-3.297-10.081c-0.2-0.611-1.138-0.263-0.937,0.349
				c1.099,3.36,2.198,6.721,3.297,10.081C145.568,244.9,146.506,244.552,146.306,243.94z"/>
			<path style="fill:#2DAAA1;" d="M225.942,216.901c-0.998,11.245-1.997,22.491-2.995,33.736c-0.284,3.195-0.567,6.39-0.851,9.585
				c-0.057,0.637,0.927,0.822,0.984,0.181c0.998-11.245,1.997-22.491,2.995-33.736c0.284-3.195,0.567-6.39,0.851-9.586
				C226.983,216.445,225.999,216.26,225.942,216.901z"/>
			<path style="fill:#2DAAA1;" d="M220.393,259.645c-1.173-3.665-2.347-7.329-3.52-10.994c-0.196-0.613-1.134-0.264-0.937,0.349
				c1.173,3.665,2.347,7.329,3.52,10.994C219.652,260.607,220.589,260.258,220.393,259.645z"/>
			<path style="fill:#2DAAA1;" d="M218.906,263.088c-1.927-2.089-3.854-4.178-5.782-6.268c-0.183-0.199-0.546-0.127-0.704,0.062
				c-0.192,0.229-0.122,0.505,0.062,0.704c1.927,2.089,3.854,4.178,5.782,6.268c0.183,0.199,0.546,0.127,0.704-0.062
				C219.16,263.564,219.09,263.288,218.906,263.088z"/>
			<path style="fill:#CCFFFF;" d="M235.207,412.122c-15.369,0.558-30.763,0.466-46.124-0.292
				c-15.324-0.756-30.616-2.166-45.82-4.224c-8.573-1.16-17.117-2.529-25.624-4.099c-0.634-0.117-0.814,0.867-0.181,0.984
				c15.169,2.8,30.455,4.953,45.807,6.445c15.315,1.489,30.694,2.324,46.08,2.504c8.65,0.101,17.302-0.008,25.947-0.322
				C235.938,413.094,235.849,412.098,235.207,412.122z"/>
			<path style="fill:#CCFFFF;" d="M269.253,407.339c-9.827,2.925-19.923,4.886-30.129,5.861c-0.64,0.061-0.555,1.057,0.087,0.996
				c8.011-0.765,15.958-2.135,23.762-4.098c2.223-0.559,4.432-1.168,6.629-1.822C270.218,408.093,269.869,407.156,269.253,407.339z"
				/>
			<path style="fill:#CCFFFF;" d="M272.461,256.999c-12.5,0.173-25.001,0.347-37.501,0.52c-3.53,0.049-7.06,0.098-10.59,0.147
				c-0.644,0.009-0.554,1.005,0.087,0.996l37.501-0.52c3.53-0.049,7.06-0.098,10.59-0.147
				C273.192,257.986,273.101,256.99,272.461,256.999z"/>
			<path style="fill:#CCFFFF;" d="M146.788,246.437c-7.03-3.233-13.719-7.184-19.927-11.803c-1.762-1.311-3.482-2.675-5.164-4.086
				c-0.494-0.414-1.137,0.352-0.643,0.766c5.963,5.002,12.44,9.387,19.307,13.053c1.97,1.052,3.971,2.042,6,2.974
				C146.946,247.61,147.373,246.706,146.788,246.437z"/>
			<path style="fill:#49C1BB;" d="M178.935,202.952l-9.285-8.214c-0.589-0.521-1.628-0.446-2.113,0.185
				c-0.506,0.658-0.443,1.557,0.185,2.113l9.285,8.214c0.589,0.521,1.628,0.446,2.113-0.185
				C179.626,204.407,179.563,203.508,178.935,202.952z"/>
			<path style="fill:#49C1BB;" d="M184.904,213.167c-0.718-0.302-1.678-0.06-1.998,0.715c-0.975,2.362-1.949,4.725-2.924,7.087
				c-0.299,0.725-0.057,1.672,0.715,1.998c0.718,0.302,1.678,0.06,1.998-0.715c0.975-2.362,1.949-4.725,2.924-7.087
				C185.918,214.439,185.676,213.492,184.904,213.167z"/>
			<path style="fill:#49C1BB;" d="M170.867,228.132c-0.06-0.808-0.825-1.434-1.625-1.364c-0.819,0.072-1.424,0.814-1.364,1.625
				c0.277,3.753,0.555,7.506,0.832,11.259c0.06,0.808,0.825,1.434,1.625,1.364c0.819-0.072,1.424-0.814,1.364-1.625
				C171.422,235.637,171.145,231.884,170.867,228.132z"/>
			<path style="fill:#49C1BB;" d="M190.319,247.933c-0.114-0.861-0.782-1.368-1.625-1.364c-2.502,0.012-5.004,0.024-7.506,0.036
				c-0.787,0.004-1.464,0.867-1.364,1.625c0.114,0.861,0.782,1.368,1.625,1.364c2.502-0.012,5.004-0.024,7.506-0.036
				C189.743,249.554,190.42,248.691,190.319,247.933z"/>
			<path style="fill:#49C1BB;" d="M203.352,237.449c-1.955-2.216-3.911-4.431-5.866-6.647c-0.267-0.303-0.541-0.533-0.953-0.609
				c-0.366-0.067-0.839,0.019-1.138,0.251c-0.586,0.455-0.912,1.462-0.357,2.091c1.955,2.216,3.911,4.431,5.866,6.647
				c0.267,0.303,0.541,0.533,0.953,0.609c0.366,0.067,0.839-0.019,1.138-0.251C203.581,239.086,203.908,238.078,203.352,237.449z"/>
			<path style="fill:#49C1BB;" d="M172.733,255.128c-0.845-0.116-1.546,0.388-1.747,1.205c-0.651,2.652-1.302,5.304-1.952,7.955
				c-0.187,0.763,0.435,1.641,1.204,1.747c0.845,0.116,1.546-0.388,1.747-1.204c0.651-2.652,1.302-5.304,1.952-7.955
				C174.125,256.112,173.503,255.234,172.733,255.128z"/>
			<path style="fill:#49C1BB;" d="M148.115,214.823c-0.301-0.711-1.162-1.224-1.929-0.883c-2.502,1.112-5.004,2.224-7.506,3.336
				c-0.715,0.318-1.212,1.151-0.883,1.929c0.301,0.711,1.162,1.224,1.929,0.883c2.502-1.112,5.004-2.224,7.506-3.336
				C147.947,216.435,148.444,215.602,148.115,214.823z"/>
			<path style="fill:#49C1BB;" d="M160.103,202.771c-1.078-2.793-2.156-5.586-3.235-8.379c-0.282-0.731-1.177-1.201-1.93-0.883
				c-0.741,0.314-1.186,1.145-0.883,1.929c1.078,2.793,2.156,5.586,3.235,8.379c0.282,0.732,1.177,1.201,1.93,0.883
				C159.962,204.387,160.406,203.555,160.103,202.771z"/>
			<path style="fill:#49C1BB;" d="M160.738,269.181c-1.493-2.385-2.987-4.77-4.48-7.156c-0.417-0.666-1.476-0.834-2.091-0.357
				c-0.672,0.521-0.803,1.379-0.357,2.091c1.493,2.385,2.987,4.77,4.48,7.156c0.417,0.666,1.476,0.834,2.091,0.357
				C161.053,270.751,161.185,269.893,160.738,269.181z"/>
			<path style="fill:#49C1BB;" d="M196.944,268.776c-0.343-0.811-1.114-1.096-1.929-0.883c-2.643,0.689-5.285,1.378-7.927,2.067
				c-0.761,0.198-1.176,1.236-0.883,1.929c0.343,0.811,1.114,1.096,1.929,0.883c2.643-0.689,5.285-1.378,7.927-2.067
				C196.823,270.507,197.238,269.47,196.944,268.776z"/>
			<path style="fill:#49C1BB;" d="M213.146,241.724c-0.661-0.508-1.554-0.44-2.113,0.185c-2.363,2.641-4.726,5.281-7.09,7.922
				c-0.524,0.586-0.444,1.63,0.185,2.113c0.661,0.508,1.554,0.44,2.113-0.185c2.363-2.641,4.726-5.281,7.09-7.922
				C213.855,243.252,213.775,242.207,213.146,241.724z"/>
			<path style="fill:#49C1BB;" d="M217.507,226.457l-1.237-5.841c-0.086-0.406-0.199-0.741-0.53-1.018
				c-0.282-0.237-0.724-0.394-1.095-0.345c-0.726,0.096-1.538,0.803-1.364,1.625c0.412,1.947,0.824,3.894,1.237,5.841
				c0.086,0.406,0.199,0.741,0.53,1.018c0.282,0.237,0.724,0.394,1.095,0.345C216.869,227.985,217.681,227.279,217.507,226.457z"/>
			<path style="fill:#49C1BB;" d="M239.561,202.087c-0.1-0.749-0.797-1.508-1.625-1.364c-3.197,0.558-6.393,1.116-9.59,1.674
				c-0.771,0.135-1.477,0.774-1.364,1.625c0.1,0.749,0.797,1.508,1.625,1.364c3.197-0.558,6.393-1.116,9.59-1.674
				C238.968,203.577,239.674,202.938,239.561,202.087z"/>
			<path style="fill:#49C1BB;" d="M251.908,193.1c-1.95-2.499-3.9-4.997-5.851-7.496c-0.482-0.618-1.431-0.87-2.091-0.357
				c-0.617,0.479-0.874,1.43-0.357,2.091l5.851,7.496c0.482,0.618,1.431,0.87,2.091,0.357
				C252.168,194.712,252.424,193.762,251.908,193.1z"/>
			<path style="fill:#49C1BB;" d="M248.357,206.373c-0.796-0.109-1.607,0.377-1.747,1.204c-0.421,2.501-0.843,5.002-1.264,7.504
				c-0.13,0.773,0.394,1.635,1.204,1.747c0.796,0.109,1.607-0.377,1.747-1.204c0.422-2.501,0.843-5.002,1.264-7.504
				C249.692,207.347,249.168,206.485,248.357,206.373z"/>
			<path style="fill:#49C1BB;" d="M239.925,229.385l-3.363-7.494c-0.32-0.714-1.149-1.213-1.929-0.883
				c-0.708,0.3-1.227,1.163-0.883,1.929l3.363,7.494c0.32,0.714,1.149,1.213,1.929,0.883
				C239.75,231.015,240.269,230.151,239.925,229.385z"/>
			<path style="fill:#49C1BB;" d="M267.032,217.209c-0.103-0.772-0.793-1.48-1.625-1.364c-2.784,0.39-5.567,0.78-8.351,1.17
				c-0.776,0.109-1.474,0.792-1.364,1.625c0.103,0.772,0.793,1.48,1.625,1.364c2.784-0.39,5.567-0.78,8.351-1.17
				C266.444,218.725,267.142,218.041,267.032,217.209z"/>
			<path style="fill:#49C1BB;" d="M264.27,235.631c-0.285-2.362-0.57-4.724-0.855-7.086c-0.094-0.778-0.803-1.473-1.625-1.364
				c-0.785,0.104-1.464,0.791-1.364,1.625c0.285,2.362,0.57,4.724,0.855,7.086c0.094,0.778,0.803,1.473,1.625,1.364
				C263.691,237.152,264.371,236.465,264.27,235.631z"/>
			<path style="fill:#49C1BB;" d="M248.861,234.807c-0.033-0.785-0.846-1.467-1.625-1.364c-0.837,0.111-1.399,0.784-1.364,1.625
				c0.111,2.642,0.221,5.284,0.332,7.926c0.033,0.785,0.846,1.467,1.625,1.364c0.837-0.111,1.399-0.784,1.364-1.625
				C249.083,240.092,248.972,237.449,248.861,234.807z"/>
			<path style="fill:#49C1BB;" d="M237.848,248.288c-2.37-0.375-4.739-0.75-7.109-1.126c-0.774-0.122-1.635,0.389-1.747,1.205
				c-0.109,0.789,0.375,1.616,1.204,1.747c2.37,0.375,4.739,0.75,7.109,1.126c0.774,0.123,1.635-0.389,1.747-1.204
				C239.161,249.245,238.677,248.419,237.848,248.288z"/>
			<path style="fill:#49C1BB;" d="M265.264,247.708c-0.308-0.728-1.152-1.202-1.929-0.883c-0.287,0.118-0.578,0.227-0.875,0.321
				c-0.148,0.047-0.297,0.09-0.447,0.131c-0.039,0.011-0.21,0.049-0.281,0.066c-0.558,0.109-1.121,0.183-1.69,0.206
				c-0.255,0.01-0.511,0.009-0.767,0.001c-0.072-0.007-0.319-0.023-0.36-0.027c-0.132-0.013-0.265-0.029-0.396-0.047
				c-0.308-0.042-0.614-0.098-0.916-0.167c-0.13-0.03-0.259-0.062-0.387-0.096c-0.056-0.015-0.581-0.178-0.267-0.074
				c-0.743-0.246-1.657-0.093-1.998,0.715c-0.284,0.674-0.08,1.734,0.715,1.998c2.849,0.946,5.919,0.937,8.716-0.213
				C265.106,249.339,265.587,248.472,265.264,247.708z"/>
			<path style="fill:#49C1BB;" d="M146.449,333.664c-0.695-3.058-1.39-6.116-2.085-9.174c-0.175-0.768-1.252-1.17-1.929-0.883
				c-0.83,0.351-1.07,1.106-0.883,1.929l2.085,9.174c0.175,0.768,1.252,1.169,1.929,0.883
				C146.396,335.243,146.636,334.488,146.449,333.664z"/>
			<path style="fill:#49C1BB;" d="M168.663,332.296c-2.78-0.556-5.56-1.112-8.34-1.668c-0.769-0.154-1.638,0.411-1.747,1.205
				c-0.112,0.816,0.381,1.582,1.204,1.747c2.78,0.556,5.56,1.112,8.34,1.668c0.769,0.154,1.638-0.411,1.747-1.205
				C169.98,333.226,169.487,332.46,168.663,332.296z"/>
			<path style="fill:#49C1BB;" d="M182.813,337.81c-0.278-2.085-0.556-4.17-0.834-6.255c-0.104-0.777-0.796-1.474-1.625-1.364
				c-0.776,0.103-1.475,0.792-1.364,1.625c0.278,2.085,0.556,4.17,0.834,6.255c0.104,0.777,0.796,1.474,1.625,1.364
				C182.225,339.332,182.924,338.643,182.813,337.81z"/>
			<path style="fill:#49C1BB;" d="M166.161,343.137c-0.836-0.115-1.558,0.385-1.747,1.205l-1.251,5.421
				c-0.177,0.765,0.427,1.64,1.204,1.747c0.836,0.115,1.558-0.385,1.747-1.204c0.417-1.807,0.834-3.614,1.251-5.421
				C167.542,344.119,166.939,343.244,166.161,343.137z"/>
			<path style="fill:#49C1BB;" d="M153.189,354.492c-0.281-2.224-0.562-4.447-0.843-6.671c-0.098-0.778-0.8-1.473-1.625-1.364
				c-0.781,0.104-1.469,0.791-1.364,1.625c0.281,2.224,0.562,4.447,0.843,6.671c0.098,0.777,0.8,1.473,1.625,1.364
				C152.606,356.013,153.294,355.326,153.189,354.492z"/>
			<path style="fill:#49C1BB;" d="M137.888,355.122c-0.256-0.33-0.559-0.484-0.953-0.609c-1.802-0.571-3.604-1.142-5.407-1.713
				c-0.344-0.109-0.858,0.053-1.138,0.251c-0.294,0.209-0.559,0.59-0.609,0.953c-0.054,0.39,0.003,0.818,0.251,1.138
				c0.256,0.33,0.559,0.484,0.953,0.609c1.802,0.571,3.604,1.142,5.407,1.713c0.344,0.109,0.858-0.053,1.138-0.251
				c0.294-0.209,0.559-0.59,0.609-0.953C138.193,355.87,138.137,355.442,137.888,355.122z"/>
			<path style="fill:#49C1BB;" d="M144.206,364.597c-0.208-0.294-0.59-0.559-0.953-0.609c-0.72-0.099-1.701,0.367-1.747,1.205
				c-0.136,2.502-0.271,5.004-0.407,7.506c-0.023,0.42-0.002,0.78,0.251,1.138c0.208,0.294,0.59,0.559,0.953,0.609
				c0.72,0.099,1.701-0.367,1.747-1.205c0.136-2.502,0.271-5.004,0.407-7.506C144.48,365.315,144.46,364.955,144.206,364.597z"/>
			<path style="fill:#49C1BB;" d="M138.171,387.586c-0.926-2.519-1.853-5.038-2.779-7.557c-0.271-0.736-1.185-1.198-1.93-0.883
				c-0.751,0.318-1.173,1.14-0.883,1.929c0.926,2.519,1.853,5.038,2.779,7.557c0.271,0.736,1.185,1.198,1.93,0.883
				C138.039,389.198,138.461,388.375,138.171,387.586z"/>
			<path style="fill:#49C1BB;" d="M159.891,386.821c-0.11-0.827-0.785-1.412-1.625-1.364c-2.917,0.167-5.835,0.333-8.752,0.5
				c-0.784,0.045-1.468,0.838-1.364,1.625c0.11,0.827,0.785,1.412,1.625,1.364c2.917-0.167,5.835-0.333,8.752-0.5
				C159.312,388.401,159.996,387.608,159.891,386.821z"/>
			<path style="fill:#49C1BB;" d="M168.238,371.327c-0.104-0.781-0.791-1.468-1.625-1.364c-2.087,0.262-4.174,0.523-6.261,0.785
				c-0.778,0.097-1.473,0.8-1.364,1.625c0.104,0.781,0.791,1.468,1.625,1.364c2.087-0.262,4.174-0.523,6.261-0.785
				C167.652,372.855,168.347,372.152,168.238,371.327z"/>
			<path style="fill:#49C1BB;" d="M181.923,372.437c-0.552-2.364-1.104-4.728-1.656-7.092c-0.179-0.767-1.249-1.171-1.929-0.883
				c-0.826,0.35-1.075,1.108-0.883,1.93l1.656,7.091c0.179,0.767,1.249,1.171,1.93,0.883
				C181.867,374.017,182.115,373.259,181.923,372.437z"/>
			<path style="fill:#49C1BB;" d="M180.32,386.57c-1.948-0.547-3.897-1.094-5.846-1.64c-0.757-0.212-1.643,0.453-1.747,1.204
				c-0.119,0.867,0.394,1.519,1.204,1.747c1.949,0.547,3.897,1.094,5.846,1.64c0.757,0.212,1.643-0.453,1.747-1.205
				C181.644,387.449,181.131,386.797,180.32,386.57z"/>
			<path style="fill:#49C1BB;" d="M169.911,401.528c-3.614-0.695-7.228-1.39-10.842-2.086c-0.795-0.153-1.602,0.413-1.747,1.205
				c-0.147,0.805,0.406,1.593,1.205,1.747c3.614,0.695,7.228,1.39,10.842,2.086c0.795,0.153,1.602-0.413,1.747-1.204
				C171.263,402.47,170.71,401.682,169.911,401.528z"/>
			<path style="fill:#49C1BB;" d="M201.526,395.219c-0.626-0.481-1.597-0.476-2.113,0.185c-1.523,1.95-3.047,3.9-4.571,5.851
				c-0.483,0.619-0.473,1.608,0.185,2.113c0.626,0.481,1.597,0.476,2.113-0.185c1.524-1.95,3.047-3.9,4.571-5.851
				C202.194,396.714,202.184,395.725,201.526,395.219z"/>
			<path style="fill:#49C1BB;" d="M207.807,377.188c-0.31-0.732-1.15-1.197-1.93-0.883c-2.777,1.119-5.554,2.238-8.331,3.358
				c-0.727,0.293-1.205,1.169-0.883,1.929c0.31,0.732,1.15,1.197,1.93,0.883c2.777-1.119,5.554-2.238,8.331-3.358
				C207.651,378.825,208.129,377.949,207.807,377.188z"/>
			<path style="fill:#49C1BB;" d="M208.647,361.012c-0.337-0.798-1.119-1.113-1.929-0.883c-2.792,0.792-5.584,1.583-8.376,2.375
				c-0.756,0.214-1.181,1.225-0.883,1.929c0.337,0.798,1.119,1.113,1.929,0.883c2.792-0.792,5.584-1.583,8.376-2.375
				C208.52,362.727,208.945,361.717,208.647,361.012z"/>
			<path style="fill:#49C1BB;" d="M201.141,342.423c-0.794-0.334-1.586-0.017-1.998,0.715c-1.251,2.224-2.502,4.448-3.753,6.672
				c-0.386,0.686,0.004,1.698,0.715,1.998c0.794,0.334,1.586,0.017,1.998-0.715c1.251-2.224,2.502-4.448,3.753-6.672
				C202.242,343.734,201.852,342.722,201.141,342.423z"/>
			<path style="fill:#49C1BB;" d="M186.72,349.099c-0.23-0.296-0.567-0.566-0.953-0.609c-1.251-0.139-2.502-0.278-3.753-0.417
				c-0.404-0.045-0.798,0.01-1.138,0.251c-0.294,0.208-0.559,0.59-0.609,0.953c-0.054,0.39,0.003,0.818,0.251,1.138
				c0.23,0.296,0.567,0.566,0.953,0.609c1.251,0.139,2.502,0.278,3.753,0.417c0.404,0.045,0.798-0.01,1.138-0.251
				c0.294-0.208,0.559-0.59,0.609-0.953C187.025,349.847,186.969,349.419,186.72,349.099z"/>
			<path style="fill:#49C1BB;" d="M217.009,332.046c-0.11-0.832-0.784-1.405-1.625-1.364c-2.641,0.13-5.283,0.26-7.924,0.39
				c-0.785,0.039-1.467,0.842-1.364,1.625c0.11,0.832,0.784,1.405,1.625,1.364c2.641-0.13,5.283-0.26,7.924-0.39
				C216.43,333.632,217.113,332.828,217.009,332.046z"/>
			<path style="fill:#49C1BB;" d="M229.543,329.377c-0.836-0.115-1.558,0.385-1.747,1.205c-0.417,1.807-0.834,3.614-1.251,5.421
				c-0.177,0.765,0.427,1.64,1.204,1.747c0.836,0.115,1.558-0.385,1.747-1.204l1.251-5.421
				C230.924,330.359,230.321,329.484,229.543,329.377z"/>
			<path style="fill:#49C1BB;" d="M247.42,333.266c-1.946-0.834-3.891-1.669-5.837-2.503c-0.721-0.309-1.675-0.05-1.998,0.715
				c-0.306,0.727-0.055,1.667,0.715,1.998c1.946,0.834,3.891,1.669,5.837,2.503c0.721,0.309,1.675,0.05,1.998-0.715
				C248.441,334.537,248.19,333.596,247.42,333.266z"/>
			<path style="fill:#49C1BB;" d="M247.427,343.674c-0.744-0.313-1.646-0.046-1.998,0.715c-0.834,1.807-1.668,3.614-2.502,5.421
				c-0.329,0.713-0.036,1.681,0.715,1.998c0.744,0.313,1.646,0.046,1.998-0.715l2.502-5.421
				C248.471,344.958,248.178,343.99,247.427,343.674z"/>
			<path style="fill:#49C1BB;" d="M224.956,346.89c-0.801-0.11-1.601,0.378-1.747,1.204c-0.417,2.363-0.834,4.726-1.251,7.089
				c-0.136,0.772,0.398,1.636,1.205,1.747c0.801,0.11,1.601-0.378,1.747-1.204c0.417-2.363,0.834-4.726,1.251-7.089
				C226.297,347.865,225.763,347.001,224.956,346.89z"/>
			<path style="fill:#49C1BB;" d="M216.084,357.433c-0.834-2.502-1.668-5.004-2.502-7.506c-0.248-0.745-1.201-1.191-1.93-0.883
				c-0.77,0.326-1.149,1.131-0.883,1.93c0.834,2.502,1.668,5.004,2.502,7.506c0.248,0.745,1.201,1.191,1.93,0.883
				C215.971,359.037,216.35,358.231,216.084,357.433z"/>
			<path style="fill:#49C1BB;" d="M226.621,366.971l-6.674-0.383c-0.419-0.024-0.781-0.002-1.138,0.251
				c-0.294,0.208-0.559,0.59-0.609,0.953c-0.099,0.722,0.367,1.699,1.204,1.747l6.674,0.383c0.419,0.024,0.781,0.002,1.138-0.251
				c0.294-0.208,0.559-0.59,0.609-0.953C227.924,367.996,227.458,367.019,226.621,366.971z"/>
			<path style="fill:#49C1BB;" d="M246.634,362.39c-1.807-0.14-3.614-0.28-5.421-0.419c-0.414-0.032-0.788,0.003-1.138,0.251
				c-0.294,0.208-0.559,0.59-0.609,0.953c-0.101,0.735,0.368,1.682,1.204,1.747l5.421,0.419c0.414,0.032,0.788-0.003,1.138-0.251
				c0.294-0.208,0.559-0.59,0.609-0.953C247.94,363.401,247.471,362.454,246.634,362.39z"/>
			<path style="fill:#49C1BB;" d="M255.814,364.404c-0.758-0.104-1.654,0.371-1.747,1.205c-0.278,2.502-0.556,5.004-0.834,7.506
				c-0.086,0.778,0.363,1.631,1.204,1.747c0.758,0.104,1.654-0.371,1.747-1.205c0.278-2.502,0.556-5.004,0.834-7.506
				C257.104,365.373,256.655,364.519,255.814,364.404z"/>
			<path style="fill:#49C1BB;" d="M236.632,373.577c-0.786-0.108-1.619,0.375-1.747,1.204c-0.278,1.807-0.556,3.614-0.834,5.421
				c-0.119,0.774,0.386,1.634,1.205,1.747c0.786,0.108,1.619-0.375,1.747-1.205c0.278-1.807,0.556-3.614,0.834-5.421
				C237.956,374.55,237.451,373.69,236.632,373.577z"/>
			<path style="fill:#49C1BB;" d="M223.219,390.775l-2.48-6.68c-0.273-0.735-1.184-1.198-1.929-0.883
				c-0.749,0.317-1.175,1.141-0.883,1.929c0.827,2.227,1.653,4.453,2.48,6.68c0.273,0.735,1.183,1.198,1.929,0.883
				C223.085,392.388,223.511,391.563,223.219,390.775z"/>
			<path style="fill:#49C1BB;" d="M226.617,402.219c-0.105-0.793-0.789-1.453-1.625-1.364c-3.053,0.328-6.105,0.656-9.158,0.984
				c-0.78,0.084-1.472,0.81-1.364,1.625c0.105,0.793,0.789,1.453,1.625,1.364c3.052-0.328,6.105-0.656,9.158-0.984
				C226.033,403.76,226.725,403.033,226.617,402.219z"/>
			<path style="fill:#49C1BB;" d="M249.464,391.715c-0.348-0.823-1.109-1.08-1.929-0.883c-2.361,0.566-4.721,1.132-7.082,1.698
				c-0.766,0.184-1.172,1.246-0.883,1.93c0.348,0.823,1.109,1.08,1.93,0.883c2.361-0.566,4.721-1.132,7.082-1.698
				C249.347,393.461,249.753,392.398,249.464,391.715z"/>
			<path style="fill:#49C1BB;" d="M257.924,387.32c-0.894,0.119-1.326,0.782-1.364,1.625c-0.138,3.058-0.275,6.116-0.413,9.174
				c-0.035,0.787,0.895,1.461,1.625,1.364c0.894-0.119,1.326-0.782,1.364-1.625c0.138-3.058,0.275-6.116,0.413-9.174
				C259.584,387.896,258.654,387.223,257.924,387.32z"/>
		</g>
		<g>
			<path style="fill:#FFBE4A;" d="M241.648,123.39c-1.16,2.77-2.86,5.36-4.88,7.65c-0.49,0.56-1,1.1-1.53,1.62
				c-0.08,0.08-0.16,0.16-0.25,0.24c-0.06,0.45-0.12,0.91-0.19,1.37c-1.04,3.74-2.32,7.41-4.12,10.85
				c-1.22,2.34-2.69,4.57-4.44,6.56c-1.42,1.63-3.02,3.1-4.8,4.33c-4.36,3-9.71,4.47-15,4.4c-5.34-0.07-10.74-1.75-14.88-5.08
				c-0.61-0.49-1.19-1.01-1.74-1.57c-2.14-2.18-3.75-4.83-5.18-7.54c-2.77-5.3-4.9-10.94-6.29-16.75c-0.11-0.04-0.22-0.1-0.33-0.16
				c-0.84-0.41-1.65-0.88-2.42-1.42c-1.94-1.32-3.63-3-4.85-5.01c-1.83-3-2.51-6.76-1.49-10.12c0.29-0.95,0.74-1.89,1.41-2.61
				c0.37-0.4,0.81-0.74,1.32-0.96c1.21-0.54,2.59-0.37,3.9-0.05c1.38-4.79,3.08-9.48,5.07-14.04c1.72,0.29,3.45,0.52,5.17,0.72
				c14.31,1.63,28.89,1.22,43.05-1.4c2.68,1.58,5.14,3.58,6.4,6.37c1.25,2.75,1.17,5.9,1.07,8.92l0.04,0.04
				c0.87-1.03,2.41-1.47,3.68-0.98c1.25,0.47,2.02,1.61,2.45,2.91c0.24,0.7,0.38,1.45,0.44,2.17
				C243.558,117.13,242.928,120.37,241.648,123.39z"/>
			<path style="fill:#052B38;" d="M220.498,108.79c1.49,0,2.7,1.81,2.7,4.03c0,2.23-1.21,4.03-2.7,4.03c-1.48,0-2.69-1.8-2.69-4.03
				C217.808,110.6,219.018,108.79,220.498,108.79z"/>
			<ellipse style="fill:#052B38;" cx="190.278" cy="110.96" rx="2.69" ry="4.03"/>
			<path style="fill:#FFFFFF;" d="M215.748,138.24c0.42,2.02-0.23,4.22-1.54,5.84c-1.48,1.84-3.72,2.97-6.03,3.48
				c-1.73,0.38-3.57,0.43-5.27-0.09c-3.4-1.05-5.79-4.3-6.65-7.75l-0.02-0.26C202.748,139.05,209.238,138.65,215.748,138.24z"/>
			<path style="fill:#052B38;" d="M236.138,170.05c-1.24-1.6-2.56-3.13-3.96-4.59l-0.1-0.01c0.14-0.94,0.28-1.88,0.42-2.82
				c1.54-10.49,3-20.99,4.37-31.5l-0.1-0.09c2.02-2.29,3.72-4.88,4.88-7.65c1.15,2.28,2.37,4.63,4.4,6.19
				c1.49,1.16,3.31,1.79,4.99,2.64c3.22,1.64,6.07,4.33,7.1,7.79c1.02,3.47-0.19,7.69-3.34,9.47c-0.26,0.14-0.55,0.31-0.59,0.6
				c-0.02,0.17,0.05,0.33,0.12,0.48c2.37,5.3,1.21,11.97-2.81,16.15c-3.78,3.93-9.87,5.42-15.05,3.77
				C236.358,170.33,236.248,170.19,236.138,170.05z"/>
			<path style="fill:#052B38;" d="M243.958,91.13c1.33,6.8,0.93,13.94-1.14,20.55c-0.43-1.3-1.2-2.44-2.45-2.91
				c-1.27-0.49-2.81-0.05-3.68,0.98l-0.04-0.04c0.1-3.02,0.18-6.17-1.07-8.92c-1.26-2.79-3.72-4.79-6.4-6.37
				c4.95-0.9,9.86-2.09,14.69-3.57L243.958,91.13z"/>
			<path style="fill:#49C1BB;" d="M236.068,170.36c-0.96,4.33-2.97,8.39-5.1,12.32h-0.01l-0.95-0.53c-0.16,0.04-0.33,0.09-0.49,0.13
				c0.88-5.61,1.73-11.22,2.56-16.83l0.1,0.01c1.4,1.46,2.72,2.99,3.96,4.59C236.118,170.15,236.098,170.26,236.068,170.36z"/>
			<path style="fill:#F9911E;" d="M226.198,125.43c3.15,0,5.7,2.55,5.7,5.69c0,3.15-2.55,5.7-5.7,5.7c-3.15,0-5.7-2.55-5.7-5.7
				C220.498,127.98,223.048,125.43,226.198,125.43z"/>
			<path style="fill:#F9911E;" d="M230.958,172.24c-5.04,8.77-16.67,28.71-21.71,37.48l-0.03,0.03
				c-7.66-7.65-18.28-22.11-23.69-31.49c0.24-2.03,5.98-20.88,6.03-22.93c4.14,3.33,9.54,5.01,14.88,5.08
				c5.29,0.07,10.64-1.4,15-4.4c1.78-1.23,3.38-2.7,4.8-4.33C226.688,154.5,230.508,169.42,230.958,172.24z"/>
			<path style="fill:#F9911E;" d="M208.608,130.13c0.03,0.32,0.06,0.66-0.11,0.93c-0.21,0.37-0.69,0.48-1.11,0.54
				c-1.61,0.25-3.24,0.29-4.86,0.12c-0.69-0.07-1.44-0.21-1.85-0.77c-0.44-0.6-0.31-1.42-0.15-2.14c1.14-5.25,2.57-10.43,4.3-15.51
				C206.778,118.72,208.048,124.4,208.608,130.13z"/>
			<g>
				<path style="fill:#CCFFFF;" d="M232.498,162.63c-0.14,0.94-0.28,1.88-0.42,2.82c-0.83,5.61-1.68,11.22-2.56,16.83
					c-1.71,0.45-3.43,0.83-5.16,1.14c-9.01,1.64-18.33,1.6-27.52,1.41c-2.47-0.05-5-0.13-7.35-0.79c-0.56-0.16-1.11-0.35-1.64-0.58
					c-1.77-3.65-3.28-7.4-4.56-11.22c-1.38-4.07-2.5-8.22-3.44-12.43c2.36,2.11,5.16,3.7,8.14,4.84c1.06,0.41,2.14,0.75,3.24,1.05
					c4.38,1.18,8.95,1.53,13.49,1.58c5.51,0.07,11.02-0.3,16.47-1.1C225.128,165.6,229.168,164.74,232.498,162.63z"/>
				<path style="fill:#71D3D1;" d="M224.748,179.65l0.09,0.31c-4.58,1.29-9.35,1.77-14.09,2.25c-6.68,0.66-13.6,1.31-19.96-0.84
					l0.01-0.28c5.08-2.79,10.97-3.83,16.77-3.79C213.358,177.34,219.088,178.42,224.748,179.65z"/>
				<path style="fill:#71D3D1;" d="M221.308,170.07c-8.81,3.76-18.95,4.3-28.11,1.52C202.548,170.75,211.928,170.24,221.308,170.07z
					"/>
				<path style="fill:#62DDD3;" d="M236.868,131.13c-1.37,10.51-2.83,21.01-4.37,31.5c-3.33,2.11-7.37,2.97-11.31,3.55
					c-5.45,0.8-10.96,1.17-16.47,1.1c-4.54-0.05-9.11-0.4-13.49-1.58c-1.1-0.3-2.18-0.64-3.24-1.05c-2.98-1.14-5.78-2.73-8.14-4.84
					c-2.32-10.44-3.47-21.23-4.25-31.92c0.77,0.54,1.58,1.01,2.42,1.42c0,0,4.16,20.28,8.36,29.44c1.46,1.11,3.06,2.01,4.74,2.71
					c4.51,1.91,9.64,2.46,14.6,2.5c7.45,0.06,15.01-0.94,21.86-3.83c0.13-0.05,0.26-0.11,0.38-0.17c3.3-8.24,7.14-26.76,7.28-27.3
					c0.53-0.52,1.04-1.06,1.53-1.62L236.868,131.13z"/>
			</g>
			<circle style="fill:#F9911E;" cx="186.608" cy="129.31" r="5.7"/>
			<path style="fill:#052B38;" d="M180.958,95.1c-1.99,4.56-3.69,9.25-5.07,14.04c-1.31-0.32-2.69-0.49-3.9,0.05
				c-0.51,0.22-0.95,0.56-1.32,0.96c-0.56-1.76-1.04-3.54-1.19-5.37c-0.37-4.26,1.06-8.5,1.07-12.77V92
				c0.01-0.04,0.02-0.08,0.02-0.12C173.818,93.51,177.348,94.46,180.958,95.1z"/>
			<path style="fill:#052B38;" d="M193.2,101.501c-0.443-1.047-1.499-1.505-2.573-1.177c-2.155,0.658-4.213,1.637-6.113,2.846
				c-0.884,0.563-1.116,1.964-0.476,2.789c0.691,0.891,1.843,1.078,2.789,0.476c0.44-0.28,0.893-0.537,1.35-0.788
				c1.235-0.635,2.518-1.168,3.846-1.573C193.024,103.767,193.603,102.454,193.2,101.501z"/>
			<path style="fill:#052B38;" d="M224.008,102.904c-2.045-0.84-4.169-1.239-6.378-1.234c-0.487,0.001-1.055,0.346-1.358,0.707
				c-0.315,0.376-0.526,0.966-0.46,1.46c0.068,0.513,0.284,1.033,0.707,1.358c0.441,0.339,0.903,0.462,1.46,0.46
				c0.131,0,0.261,0.005,0.391,0.008c1.06,0.069,2.105,0.258,3.122,0.561c0.27,0.093,0.54,0.188,0.805,0.297
				c0.496,0.204,1.04,0.257,1.553,0.067c0.451-0.168,0.921-0.569,1.111-1.02C225.365,104.612,225.042,103.329,224.008,102.904z"/>
			<g>
				<path style="fill:#62DDD3;" d="M244.588,90.63c-0.24,0.07-0.48,0.15-0.72,0.22c-4.83,1.48-9.74,2.67-14.69,3.57
					c-14.16,2.62-28.74,3.03-43.05,1.4c-1.72-0.2-3.45-0.43-5.17-0.72c-3.61-0.64-7.14-1.59-10.39-3.22
					c0.9-4.6,1.43-9.29,2.63-13.83c1.22-4.65,3.2-9.23,6.58-12.66c2.58-2.62,5.86-4.44,9.08-6.23c7-3.87,14.67-7.88,22.58-6.67
					c5.13,0.79,9.66,3.7,13.84,6.78c3.76,2.77,7.37,5.72,10.83,8.86c2.12,1.92,4.22,3.96,5.57,6.48c1.27,2.34,1.83,5,2.22,7.63
					C244.298,85.02,244.538,87.82,244.588,90.63z"/>
				<path style="fill:#2DAAA1;" d="M217.971,61.132c-2.473-1.914-5.154-3.555-7.989-4.876c-0.584-0.272-1.011,0.632-0.428,0.904
					c9.895,4.609,17.736,13.215,21.645,23.385c1.103,2.869,1.884,5.849,2.318,8.892c0.09,0.635,1.087,0.551,0.996-0.087
					C232.933,78.261,226.815,67.98,217.971,61.132z"/>
				<path style="fill:#2DAAA1;" d="M236.456,83.393c-0.443-1.812-0.886-3.624-1.329-5.436c-0.064-0.263-0.411-0.38-0.643-0.294
					c-0.277,0.103-0.359,0.38-0.294,0.643c0.443,1.812,0.886,3.624,1.329,5.436c0.064,0.263,0.411,0.38,0.643,0.294
					C236.439,83.933,236.521,83.656,236.456,83.393z"/>
				<path style="fill:#2DAAA1;" d="M232.819,74.627c-0.56-1.017-1.12-2.034-1.68-3.052c-0.127-0.23-0.5-0.272-0.697-0.119
					c-0.234,0.181-0.254,0.451-0.119,0.697c0.56,1.017,1.12,2.034,1.68,3.052c0.127,0.23,0.5,0.272,0.697,0.119
					C232.934,75.143,232.954,74.873,232.819,74.627z"/>
			</g>
		</g>
	</g>
	<g>
		<g>
			<path style="fill:#FFFFFF;" d="M475.515,291.334c-2.28-1.09-4.56-2.19-6.84-3.28c-0.58-0.28-1.01,0.62-0.43,0.9
				c1.87,0.9,3.74,1.8,5.61,2.69c0.83,0.4,1.81,0.73,2.52,1.35c0.64,0.56,0.66,1.3-0.25,1.53c-0.78,0.2-1.64,0.07-2.43,0.04
				c-1.02-0.04-2.04-0.08-3.05-0.12c-2.08-0.08-4.16-0.16-6.23-0.24c-0.55-0.03-0.55,0.73-0.17,0.95c2.33,1.34,4.49,2.97,6.42,4.85
				c0.96,0.93,1.87,1.92,2.7,2.97c0.4,0.51,0.82,1.08,0.93,1.73c0.1,0.62-0.11,1.37-0.78,1.54c-1.16,0.31-2.4-1.06-3.22-1.69
				c-1.05-0.81-2.16-1.53-3.32-2.16c-2.29-1.24-4.94-2.3-7.55-2.56c-2.58-0.26-5.41,0.7-6.27,3.37c-0.2,0.61,0.79,0.78,0.98,0.18
				c0.96-2.98,4.76-2.81,7.17-2.17c2.77,0.72,5.43,1.99,7.75,3.66c1.42,1.02,4.42,3.99,5.93,1.42c0.61-1.04,0.29-2.26-0.32-3.22
				c-0.73-1.16-1.73-2.19-2.68-3.16c-1.71-1.76-3.62-3.31-5.67-4.65c1.84,0.08,3.67,0.15,5.51,0.22c1.16,0.05,2.33,0.14,3.49,0.13
				c0.75,0,1.61-0.14,2.14-0.72C478.855,293.354,476.736,291.924,475.515,291.334z M445.275,261.954c-0.82-0.49-1.78-0.65-2.74-0.69
				c1.22-1.78,2.34-4.13,0.92-6.03c-1.15-1.54-3.61-1.86-5.07-0.6c-0.49,0.42,0.09,1.24,0.57,0.82c1.09-0.94,2.96-0.76,3.76,0.47
				c1.17,1.8-0.46,4.08-1.52,5.5c-0.27,0.36-0.01,0.82,0.43,0.82c1.07-0.01,2.33,0.01,3.25,0.64c1.14,0.78,0.97,2.26,0.76,3.45
				c-0.53,3.05-1.12,6.09-1.68,9.14c-0.12,0.63,0.87,0.81,0.98,0.18l1-5.44c0.31-1.67,0.78-3.38,0.85-5.08
				C446.835,263.854,446.405,262.644,445.275,261.954z M439.246,400.914c-4.45,2.38-8.9,4.77-13.35,7.15
				c-0.83,0.44-1.89,1.12-2.88,0.96c-1.2-0.2-0.99-1.47-0.58-2.27c0.51-1.01,1.38-1.84,2.12-2.68c0.82-0.94,1.64-1.87,2.46-2.81
				c1.88-2.15,3.77-4.3,5.65-6.45c0.37-0.41-0.11-0.89-0.55-0.79c-3.1,0.71-6.19,1.43-9.28,2.14c-1.52,0.35-3.05,0.79-4.59,1.05
				c-0.51,0.08-1.09,0.16-1.59-0.02c-0.69-0.24-0.82-0.92-0.58-1.54c0.48-1.2,1.7-2.11,2.62-2.97c1.06-0.99,2.14-1.95,3.24-2.89
				c2.18-1.86,4.45-3.62,6.79-5.29c2.64-1.88,5.38-3.62,8.19-5.23c0.56-0.32-0.02-1.14-0.58-0.82c-5.53,3.17-10.75,6.86-15.57,11.04
				c-1.19,1.02-2.35,2.08-3.49,3.16c-0.93,0.89-2.06,1.87-2.29,3.2c-0.21,1.19,0.6,2.18,1.75,2.39c1.36,0.25,2.86-0.31,4.16-0.61
				c3.33-0.77,6.67-1.54,10-2.31c-1.58,1.8-3.15,3.59-4.73,5.39c-0.93,1.06-1.86,2.12-2.79,3.18c-0.77,0.88-1.61,1.75-2.04,2.86
				c-0.34,0.88-0.39,1.88,0.29,2.61c0.66,0.71,1.63,0.77,2.52,0.55c1.18-0.29,2.25-1,3.32-1.56c1.27-0.69,2.55-1.37,3.83-2.05
				c2.84-1.53,5.69-3.05,8.53-4.57C440.395,401.434,439.805,400.614,439.246,400.914z M372.746,290.674
				c-1.93,21.43-3.86,42.87-5.8,64.31c-1.92,21.32-3.84,42.65-5.77,63.98c-1.07,11.97-2.15,23.94-3.23,35.91
				c-0.06,0.63,0.92,0.82,0.98,0.18c1.93-21.44,3.87-42.87,5.8-64.31c1.92-21.33,3.84-42.66,5.77-63.98l3.23-35.91
				C373.785,290.214,372.805,290.034,372.746,290.674z M312.595,341.134c1.49-1.85,2.07-4.35,1.39-6.67
				c-0.68-2.34-2.65-4.18-4.96-4.87c2.08-1.84,2.94-5.01,1.84-7.61c-1.15-2.72-4.11-4.28-6.98-3.98c1.7-10.65,3.4-21.3,5.11-31.95
				c0.49-3.08,0.98-6.15,1.48-9.23c0.1-0.64-0.89-0.82-0.99-0.18c-1.74,10.87-3.48,21.74-5.22,32.61c-0.49,3.08-0.98,6.16-1.47,9.24
				c-0.07,0.41,0.3,0.64,0.66,0.56c2.61-0.6,5.57,0.94,6.54,3.44c0.98,2.53-0.15,5.55-2.44,6.94c-0.36,0.23-0.21,0.85,0.2,0.9
				c2.39,0.32,4.49,2,5.24,4.31c0.77,2.35-0.06,5.09-1.94,6.69c-0.42,0.36-0.09,1.06,0.47,0.88c1.16-0.38,2.31,0.32,2.98,1.26
				c0.84,1.18,0.81,2.67,0.51,4.03c-0.51,2.36-1.8,4.57-1.93,6.99c-0.04,0.05-0.07,0.12-0.09,0.2c-2.39,9.39-5.37,18.62-8.92,27.64
				c-3.55,8.98-7.66,17.74-12.3,26.21c-2.64,4.82-5.46,9.54-8.44,14.16c-0.35,0.53,0.42,1.18,0.77,0.64
				c5.3-8.21,10.09-16.74,14.32-25.56c4.22-8.81,7.88-17.89,10.95-27.16c1.56-4.71,2.96-9.47,4.21-14.27
				c0.3,0.05,0.62-0.13,0.56-0.51c-0.58-3.54,2.12-6.6,2.06-10.12C316.165,343.644,314.665,341.394,312.595,341.134z"/>
			<path style="fill:#FFFFFF;" d="M487.935,292.474c-0.8-26.44-7.56-52.28-14-77.93c-0.33-1.31-0.65-2.71-0.24-3.99
				c0.26-0.82,0.81-1.53,1.07-2.34c1.13-3.43-2.78-6.27-6.1-7.69c1.09-1.52,3.53-1.26,4.92-2.51c1.22-1.11,1.21-3.12,0.42-4.57
				c-0.8-1.44-2.19-2.44-3.56-3.36c-16-10.72-34.64-16.57-53.16-21.99c8.25,8.88,15.9,18.31,20.64,29.36
				c-2.26,0.05-4.52,0.13-6.78,0.22c-1.9,0.07-3.79,0.15-5.69,0.25c-5.61,0.26-11.22,0.62-16.82,1.05l-0.07,0.05
				c4.71,6.32,9.24,12.78,13.57,19.37c-17.12,22.77-33.15,46.37-47.98,70.69l-0.89-0.54c1.78-6.51,3.55-13.02,5.33-19.53
				c-14.35-17.71-30.1-34.29-47.03-49.54c-2.73-2.46-5.48-4.88-8.27-7.26l-0.08,0.09c-0.75-0.46-1.54-0.84-2.36-1.15
				c4.29-5.11,8.74-10.08,13.35-14.9c-3.93-1.82-7.87-3.62-11.82-5.4c-1.02-0.46-2.04-0.91-3.05-1.37
				c-1.81-0.81-3.63-1.61-5.44-2.41c3.26-5.45,6.84-10.71,10.71-15.75c-12.4,3.86-24.54,8.58-36.28,14.14
				c-2.53,1.2-5.2,2.58-6.52,5.05c-1.33,2.46-0.43,6.27,2.31,6.86c-1.02,3.22-6.04,2.76-8.28,5.29c-0.87,0.99-1.2,2.33-1.51,3.61
				c-10.91,45.93-17,92.99-18.14,140.18c-0.13,5.52,0.07,11.71,4.04,15.54c1.84,1.77,4.64,3.67,3.81,6.09
				c-0.51,1.5-2.32,2.26-2.84,3.76c-0.9,2.52,2.2,4.51,4.73,5.4c-1.27,5.82,1.1,11.76,3.5,17.21c4,9.06,8.22,18.02,12.67,26.87
				l0.65,0.03c-0.02,0.35-0.03,0.71-0.05,1.06c-0.6,12.21-1.19,24.41-1.8,36.61l178.36,1.14c-5.05-21.47-9.59-43.05-13.61-64.72
				c-0.27-1.47-0.52-3.08,0.21-4.38c0.62-1.09,1.8-1.73,2.65-2.65c2.62-2.85,0.59-8.31-3.17-8.89c2.47,0.22,4.57-2.98,3.44-5.27
				c-1.07-2.13-4.11-2.66-6.12-1.45c-1.27-8.25-2.54-16.51-3.82-24.76c6.46,1.4,13.21,0.7,19.22-1.87c-0.19,0.96-0.39,1.92-0.6,2.88
				c7.28-5.62,13.8-12.22,19.35-19.55c3.76-4.96,7.09-10.33,8.99-16.25C487.925,306.584,488.145,299.464,487.935,292.474z
				 M314.145,355.844c0.06,0.38-0.26,0.56-0.56,0.51c-1.25,4.8-2.65,9.56-4.21,14.27c-3.07,9.27-6.73,18.35-10.95,27.16
				c-4.23,8.82-9.02,17.35-14.32,25.56c-0.35,0.54-1.12-0.11-0.77-0.64c2.98-4.62,5.8-9.34,8.44-14.16
				c4.64-8.47,8.75-17.23,12.3-26.21c3.55-9.02,6.53-18.25,8.92-27.64c0.02-0.08,0.05-0.15,0.09-0.2c0.13-2.42,1.42-4.63,1.93-6.99
				c0.3-1.36,0.33-2.85-0.51-4.03c-0.67-0.94-1.82-1.64-2.98-1.26c-0.56,0.18-0.89-0.52-0.47-0.88c1.88-1.6,2.71-4.34,1.94-6.69
				c-0.75-2.31-2.85-3.99-5.24-4.31c-0.41-0.05-0.56-0.67-0.2-0.9c2.29-1.39,3.42-4.41,2.44-6.94c-0.97-2.5-3.93-4.04-6.54-3.44
				c-0.36,0.08-0.73-0.15-0.66-0.56c0.49-3.08,0.98-6.16,1.47-9.24c1.74-10.87,3.48-21.74,5.22-32.61c0.1-0.64,1.09-0.46,0.99,0.18
				c-0.5,3.08-0.99,6.15-1.48,9.23c-1.71,10.65-3.41,21.3-5.11,31.95c2.87-0.3,5.83,1.26,6.98,3.98c1.1,2.6,0.24,5.77-1.84,7.61
				c2.31,0.69,4.28,2.53,4.96,4.87c0.68,2.32,0.1,4.82-1.39,6.67c2.07,0.26,3.57,2.51,3.61,4.59
				C316.265,349.244,313.565,352.304,314.145,355.844z M370.496,326.764c-1.93,21.32-3.85,42.65-5.77,63.98
				c-1.93,21.44-3.87,42.87-5.8,64.31c-0.06,0.64-1.04,0.45-0.98-0.18c1.08-11.97,2.16-23.94,3.23-35.91
				c1.93-21.33,3.85-42.66,5.77-63.98c1.94-21.44,3.87-42.88,5.8-64.31c0.06-0.64,1.04-0.46,0.98,0.18L370.496,326.764z
				 M438.385,254.634c1.46-1.26,3.92-0.94,5.07,0.6c1.42,1.9,0.3,4.25-0.92,6.03c0.96,0.04,1.92,0.2,2.74,0.69
				c1.13,0.69,1.56,1.9,1.51,3.18c-0.07,1.7-0.54,3.41-0.85,5.08l-1,5.44c-0.11,0.63-1.1,0.45-0.98-0.18
				c0.56-3.05,1.15-6.09,1.68-9.14c0.21-1.19,0.38-2.67-0.76-3.45c-0.92-0.63-2.18-0.65-3.25-0.64c-0.44,0-0.7-0.46-0.43-0.82
				c1.06-1.42,2.69-3.7,1.52-5.5c-0.8-1.23-2.67-1.41-3.76-0.47C438.475,255.874,437.895,255.054,438.385,254.634z M439.246,400.914
				c0.56-0.3,1.15,0.52,0.58,0.82c-2.84,1.52-5.69,3.04-8.53,4.57c-1.28,0.68-2.56,1.36-3.83,2.05c-1.07,0.56-2.14,1.27-3.32,1.56
				c-0.89,0.22-1.86,0.16-2.52-0.55c-0.68-0.73-0.63-1.73-0.29-2.61c0.43-1.11,1.27-1.98,2.04-2.86c0.93-1.06,1.86-2.12,2.79-3.18
				c1.58-1.8,3.15-3.59,4.73-5.39c-3.33,0.77-6.67,1.54-10,2.31c-1.3,0.3-2.8,0.86-4.16,0.61c-1.15-0.21-1.96-1.2-1.75-2.39
				c0.23-1.33,1.36-2.31,2.29-3.2c1.14-1.08,2.3-2.14,3.49-3.16c4.82-4.18,10.04-7.87,15.57-11.04c0.56-0.32,1.14,0.5,0.58,0.82
				c-2.81,1.61-5.55,3.35-8.19,5.23c-2.34,1.67-4.61,3.43-6.79,5.29c-1.1,0.94-2.18,1.9-3.24,2.89c-0.92,0.86-2.14,1.77-2.62,2.97
				c-0.24,0.62-0.11,1.3,0.58,1.54c0.5,0.18,1.08,0.1,1.59,0.02c1.54-0.26,3.07-0.7,4.59-1.05c3.09-0.71,6.18-1.43,9.28-2.14
				c0.44-0.1,0.92,0.38,0.55,0.79c-1.88,2.15-3.77,4.3-5.65,6.45c-0.82,0.94-1.64,1.87-2.46,2.81c-0.74,0.84-1.61,1.67-2.12,2.68
				c-0.41,0.8-0.62,2.07,0.58,2.27c0.99,0.16,2.05-0.52,2.88-0.96C430.345,405.684,434.795,403.294,439.246,400.914z
				 M477.455,294.894c-0.53,0.58-1.39,0.72-2.14,0.72c-1.16,0.01-2.33-0.08-3.49-0.13c-1.84-0.07-3.67-0.14-5.51-0.22
				c2.05,1.34,3.96,2.89,5.67,4.65c0.95,0.97,1.95,2,2.68,3.16c0.61,0.96,0.93,2.18,0.32,3.22c-1.51,2.57-4.51-0.4-5.93-1.42
				c-2.32-1.67-4.98-2.94-7.75-3.66c-2.41-0.64-6.21-0.81-7.17,2.17c-0.19,0.6-1.18,0.43-0.98-0.18c0.86-2.67,3.69-3.63,6.27-3.37
				c2.61,0.26,5.26,1.32,7.55,2.56c1.16,0.63,2.27,1.35,3.32,2.16c0.82,0.63,2.06,2,3.22,1.69c0.67-0.17,0.88-0.92,0.78-1.54
				c-0.11-0.65-0.53-1.22-0.93-1.73c-0.83-1.05-1.74-2.04-2.7-2.97c-1.93-1.88-4.09-3.51-6.42-4.85c-0.38-0.22-0.38-0.98,0.17-0.95
				c2.07,0.08,4.15,0.16,6.23,0.24c1.01,0.04,2.03,0.08,3.05,0.12c0.79,0.03,1.65,0.16,2.43-0.04c0.91-0.23,0.89-0.97,0.25-1.53
				c-0.71-0.62-1.69-0.95-2.52-1.35c-1.87-0.89-3.74-1.79-5.61-2.69c-0.58-0.28-0.15-1.18,0.43-0.9c2.28,1.09,4.56,2.19,6.84,3.28
				C476.736,291.924,478.855,293.354,477.455,294.894z"/>
			<path style="fill:#B9D6D3;" d="M314.145,355.844c0.06,0.38-0.26,0.56-0.56,0.51c-1.25,4.8-2.65,9.56-4.21,14.27
				c-3.07,9.27-6.73,18.35-10.95,27.16c-4.23,8.82-9.02,17.35-14.32,25.56c-0.35,0.54-1.12-0.11-0.77-0.64
				c2.98-4.62,5.8-9.34,8.44-14.16c4.64-8.47,8.75-17.23,12.3-26.21c3.55-9.02,6.53-18.25,8.92-27.64c0.02-0.08,0.05-0.15,0.09-0.2
				c0.13-2.42,1.42-4.63,1.93-6.99c0.3-1.36,0.33-2.85-0.51-4.03c-0.67-0.94-1.82-1.64-2.98-1.26c-0.56,0.18-0.89-0.52-0.47-0.88
				c1.88-1.6,2.71-4.34,1.94-6.69c-0.75-2.31-2.85-3.99-5.24-4.31c-0.41-0.05-0.56-0.67-0.2-0.9c2.29-1.39,3.42-4.41,2.44-6.94
				c-0.97-2.5-3.93-4.04-6.54-3.44c-0.36,0.08-0.73-0.15-0.66-0.56c0.49-3.08,0.98-6.16,1.47-9.24c1.74-10.87,3.48-21.74,5.22-32.61
				c0.1-0.64,1.09-0.46,0.99,0.18c-0.5,3.08-0.99,6.15-1.48,9.23c-1.71,10.65-3.41,21.3-5.11,31.95c2.87-0.3,5.83,1.26,6.98,3.98
				c1.1,2.6,0.24,5.77-1.84,7.61c2.31,0.69,4.28,2.53,4.96,4.87c0.68,2.32,0.1,4.82-1.39,6.67c2.07,0.26,3.57,2.51,3.61,4.59
				C316.265,349.244,313.565,352.304,314.145,355.844z"/>
			<path style="fill:#B9D6D3;" d="M446.785,265.134c-0.07,1.7-0.54,3.41-0.85,5.08l-1,5.44c-0.11,0.63-1.1,0.45-0.98-0.18
				c0.56-3.05,1.15-6.09,1.68-9.14c0.21-1.19,0.38-2.67-0.76-3.45c-0.92-0.63-2.18-0.65-3.25-0.64c-0.44,0-0.7-0.46-0.43-0.82
				c1.06-1.42,2.69-3.7,1.52-5.5c-0.8-1.23-2.67-1.41-3.76-0.47c-0.48,0.42-1.06-0.4-0.57-0.82c1.46-1.26,3.92-0.94,5.07,0.6
				c1.42,1.9,0.3,4.25-0.92,6.03c0.96,0.04,1.92,0.2,2.74,0.69C446.405,262.644,446.835,263.854,446.785,265.134z"/>
			<path style="fill:#B9D6D3;" d="M373.725,290.854l-3.23,35.91c-1.93,21.32-3.85,42.65-5.77,63.98
				c-1.93,21.44-3.87,42.87-5.8,64.31c-0.06,0.64-1.04,0.45-0.98-0.18c1.08-11.97,2.16-23.94,3.23-35.91
				c1.93-21.33,3.85-42.66,5.77-63.98c1.94-21.44,3.87-42.88,5.8-64.31C372.805,290.034,373.785,290.214,373.725,290.854z"/>
			<path style="fill:#B9D6D3;" d="M439.825,401.734c-2.84,1.52-5.69,3.04-8.53,4.57c-1.28,0.68-2.56,1.36-3.83,2.05
				c-1.07,0.56-2.14,1.27-3.32,1.56c-0.89,0.22-1.86,0.16-2.52-0.55c-0.68-0.73-0.63-1.73-0.29-2.61c0.43-1.11,1.27-1.98,2.04-2.86
				c0.93-1.06,1.86-2.12,2.79-3.18c1.58-1.8,3.15-3.59,4.73-5.39c-3.33,0.77-6.67,1.54-10,2.31c-1.3,0.3-2.8,0.86-4.16,0.61
				c-1.15-0.21-1.96-1.2-1.75-2.39c0.23-1.33,1.36-2.31,2.29-3.2c1.14-1.08,2.3-2.14,3.49-3.16c4.82-4.18,10.04-7.87,15.57-11.04
				c0.56-0.32,1.14,0.5,0.58,0.82c-2.81,1.61-5.55,3.35-8.19,5.23c-2.34,1.67-4.61,3.43-6.79,5.29c-1.1,0.94-2.18,1.9-3.24,2.89
				c-0.92,0.86-2.14,1.77-2.62,2.97c-0.24,0.62-0.11,1.3,0.58,1.54c0.5,0.18,1.08,0.1,1.59,0.02c1.54-0.26,3.07-0.7,4.59-1.05
				c3.09-0.71,6.18-1.43,9.28-2.14c0.44-0.1,0.92,0.38,0.55,0.79c-1.88,2.15-3.77,4.3-5.65,6.45c-0.82,0.94-1.64,1.87-2.46,2.81
				c-0.74,0.84-1.61,1.67-2.12,2.68c-0.41,0.8-0.62,2.07,0.58,2.27c0.99,0.16,2.05-0.52,2.88-0.96c4.45-2.38,8.9-4.77,13.35-7.15
				C439.805,400.614,440.395,401.434,439.825,401.734z"/>
			<path style="fill:#B9D6D3;" d="M477.455,294.894c-0.53,0.58-1.39,0.72-2.14,0.72c-1.16,0.01-2.33-0.08-3.49-0.13
				c-1.84-0.07-3.67-0.14-5.51-0.22c2.05,1.34,3.96,2.89,5.67,4.65c0.95,0.97,1.95,2,2.68,3.16c0.61,0.96,0.93,2.18,0.32,3.22
				c-1.51,2.57-4.51-0.4-5.93-1.42c-2.32-1.67-4.98-2.94-7.75-3.66c-2.41-0.64-6.21-0.81-7.17,2.17c-0.19,0.6-1.18,0.43-0.98-0.18
				c0.86-2.67,3.69-3.63,6.27-3.37c2.61,0.26,5.26,1.32,7.55,2.56c1.16,0.63,2.27,1.35,3.32,2.16c0.82,0.63,2.06,2,3.22,1.69
				c0.67-0.17,0.88-0.92,0.78-1.54c-0.11-0.65-0.53-1.22-0.93-1.73c-0.83-1.05-1.74-2.04-2.7-2.97c-1.93-1.88-4.09-3.51-6.42-4.85
				c-0.38-0.22-0.38-0.98,0.17-0.95c2.07,0.08,4.15,0.16,6.23,0.24c1.01,0.04,2.03,0.08,3.05,0.12c0.79,0.03,1.65,0.16,2.43-0.04
				c0.91-0.23,0.89-0.97,0.25-1.53c-0.71-0.62-1.69-0.95-2.52-1.35c-1.87-0.89-3.74-1.79-5.61-2.69c-0.58-0.28-0.15-1.18,0.43-0.9
				c2.28,1.09,4.56,2.19,6.84,3.28C476.736,291.924,478.855,293.354,477.455,294.894z"/>
		</g>
		<g>
			<polygon style="fill:#052B38;" points="467.135,272.501 424.135,351.101 399.305,351.101 441.555,277.681 			"/>
			<polygon style="fill:#104351;" points="441.555,277.681 399.305,351.101 395.555,351.101 437.255,278.551 			"/>
		</g>
		<g>
			<path style="fill:#2DAAA1;" d="M444.445,348.274c5.19-7.44,9.98-15.17,14.33-23.12c0.28,1.43,0.48,2.86,0.6,4.3
				c0.53,6.57-0.5,13.15-1.92,19.6c-0.25,0.2-0.5,0.39-0.76,0.58c-4.38,0.9-8.94,0.98-13.35,0.22
				C443.715,349.324,444.085,348.804,444.445,348.274z"/>
			<path style="fill:#FFBE4A;" d="M438.835,351.604c-3.21,1.25-6.74,1.68-10.14,1.16c-5.85-0.89-11.2-4.57-14.14-9.7
				c-0.58-1.02-1.08-2.17-0.95-3.33c0.14-1.17,1.15-2.3,2.32-2.18c1.08,0.11,2.17,1.18,3.08,0.58c-3.59-2.65-5.69-7.19-5.39-11.64
				c0.03-0.4,0.11-0.85,0.45-1.06c0.46-0.29,1.05,0.06,1.48,0.4c1.58,1.25,3.16,2.49,4.74,3.74c-0.66-2.93-0.28-6.08,1.05-8.78
				c0.19-0.39,0.44-0.8,0.85-0.92c0.69-0.21,1.3,0.46,1.7,1.06c0.87,1.29,1.75,2.58,2.62,3.87c-0.43-2.66,0.31-5.49,1.98-7.6
				c0.31-0.39,0.68-0.77,1.17-0.84c0.84-0.13,1.49,0.72,1.93,1.45c1.73,2.93,3.47,5.86,5.2,8.79c1.22-4.1,4.36-7.59,8.31-9.23
				c3.53-1.46,7.66-1.41,11.17,0.08c1.15,2.43,1.98,5.04,2.51,7.7c-4.35,7.95-9.14,15.68-14.33,23.12
				C442.775,349.694,440.875,350.814,438.835,351.604z"/>
		</g>
		<g>
			<path style="fill:#CCFFFF;" d="M437.925,197.454c-2.26,0.05-4.52,0.13-6.78,0.22c-1.9,0.07-3.79,0.15-5.69,0.25
				c-5.61,0.26-11.22,0.62-16.82,1.05l-0.07,0.05c4.71,6.32,9.24,12.78,13.57,19.37c-17.12,22.77-33.15,46.37-47.98,70.69
				l-0.89-0.54c1.78-6.51,3.55-13.02,5.33-19.53c0.43-1.57,0.86-3.14,1.29-4.71c3.89-14.28,7.79-28.56,11.68-42.84
				c2.53-9.25,4.16-19.56,6.68-28.81c4.74-10.49,8.56-21.38,11.42-32.53c2.56,2.62,5.12,5.27,7.62,7.97
				C425.535,176.974,433.185,186.404,437.925,197.454z"/>
			<path style="fill:#CCFFFF;" d="M379.885,264.304c-0.43,1.57-0.86,3.14-1.29,4.71c-14.35-17.71-30.1-34.29-47.03-49.54
				c-2.73-2.46-5.48-4.88-8.27-7.26l-0.08,0.09c-0.75-0.46-1.54-0.84-2.36-1.15c4.29-5.11,8.74-10.08,13.35-14.9
				c-3.93-1.82-7.87-3.62-11.82-5.4c-1.02-0.46-2.04-0.91-3.05-1.37c-1.81-0.81-3.63-1.61-5.44-2.41
				c3.26-5.45,6.84-10.71,10.71-15.75c3.84-5.02,7.97-9.83,12.37-14.38c1.31,3.63,2.82,7.19,4.52,10.66
				c5.21,22.52,12.68,44.5,22.25,65.53C368.595,243.784,373.986,254.194,379.885,264.304z"/>
			<path style="fill:#62DDD3;" d="M398.246,192.654c-2.684,17.96-15.83,62.4-18.36,71.65l-16.14-31.17
				c-9.57-21.03-17.04-43.01-22.25-65.53c5.13,10.51,11.97,20.19,20.18,28.51c2.14-3.71,8.69-13.6,16.07-17.71
				C378.425,177.344,385.785,178.784,398.246,192.654z"/>
			<path style="fill:#49C1BB;" d="M409.665,160.124c-2.86,11.15-6.68,22.04-11.42,32.53c-3.52-4.12-7.62-7.74-12.15-10.73
				c-2.3-1.52-4.71-2.88-7.2-4.06l-0.32-0.05c-0.28,0.19-0.56,0.39-0.83,0.59c-0.02,0-0.03-0.02-0.05-0.03l0.01-0.02
				c6.12-8.6,12.4-17.09,18.82-25.47c-0.5-1.64-0.97-3.28-1.39-4.94c2.34,0.43,4.53,1.53,6.5,2.89c2.15,1.5,4.05,3.34,5.94,5.16
				c0.9,0.88,1.82,1.78,2.41,2.87C409.885,159.284,409.775,159.704,409.665,160.124z"/>
			<path style="fill:#052B38;" d="M373.335,195.264c3.34-0.2,7.29-0.43,10.64-0.62c3.15,8.79,5.29,17.77,7.59,26.82
				c-3.89,14.28-7.79,28.56-11.68,42.84c-5.9-10.11-11.29-20.52-16.14-31.17l0,0c2.03-12.48,5.86-25.51,8.74-37.82
				C372.765,195.294,373.045,195.274,373.335,195.264z"/>
			<path style="fill:#052B38;" d="M377.745,178.414v-0.01c0.27-0.2,0.55-0.4,0.83-0.59l0.32,0.05c2.49,1.18,4.9,2.54,7.2,4.06
				c-0.03,0.64-0.14,1.29-0.25,1.93c-0.62,3.6-1.24,7.19-1.87,10.79c-0.2,0.02-0.41,0.03-0.61,0.04c-3.35,0.19-6.69,0.38-10.03,0.58
				c-1.54-3.06-2.89-6.22-4.02-9.46C371.875,183.064,374.695,180.574,377.745,178.414z"/>
			<path style="fill:#49C1BB;" d="M369.315,185.804c-2.92,3.13-5.5,6.6-7.64,10.31c-8.21-8.32-15.05-18-20.18-28.51
				c-1.7-3.47-3.21-7.03-4.52-10.66c-0.08-0.21-0.16-0.43-0.23-0.64l0.24-0.09c1.87-2.9,4.42-5.37,7.38-7.15
				c1.17-0.7,2.4-1.3,3.64-1.85c-0.23,1.76-0.46,3.51-0.66,5.27c7.91,7.17,15.99,14.15,24.24,20.93c2.03,1.67,4.06,3.32,6.11,4.96
				c0.02,0.01,0.03,0.03,0.05,0.03v0.01C374.695,180.574,371.875,183.064,369.315,185.804z"/>
		</g>
		<g>
			<path style="fill:#052B38;" d="M432.975,235.244c1.25-0.72,2.77-0.95,4.18-0.65c2.2,0.48,4.05,2.13,5.01,4.16
				c0.96,2.03,1.08,4.4,0.61,6.6c-0.41,1.86-1.29,3.71-2.85,4.81c-1.86,1.3-4.43,1.26-6.44,0.18c-0.45-0.22-0.86-0.51-1.24-0.84
				c-0.33-0.29-0.63-0.62-0.9-0.97c-1.42-1.81-1.98-4.27-1.69-6.58c0.19-1.54,0.72-3.01,1.49-4.37c0.39-0.72,0.86-1.41,1.37-2.06
				C432.665,235.404,432.815,235.314,432.975,235.244z M434.015,240.094c-0.39,0.78-0.68,1.58-0.82,2.43
				c-0.2,1.3,0.03,2.72,0.87,3.74c0.84,1.02,2.36,1.51,3.55,0.95c0.79-0.38,1.35-1.15,1.61-1.98c0.27-0.83,0.27-1.73,0.18-2.6
				c-0.11-1.02-0.36-2.06-0.99-2.86c-0.63-0.8-1.73-1.3-2.71-0.99c-0.23,0.07-0.45,0.19-0.66,0.33
				C434.645,239.384,434.285,239.714,434.015,240.094z"/>
			<path style="fill:#849DA3;" d="M439.405,242.634c0.09,0.87,0.09,1.77-0.18,2.6c-0.26,0.83-0.82,1.6-1.61,1.98
				c-1.19,0.56-2.71,0.07-3.55-0.95c-0.84-1.02-1.07-2.44-0.87-3.74c0.14-0.85,0.43-1.65,0.82-2.43c0.27-0.38,0.63-0.71,1.03-0.98
				c0.21-0.14,0.43-0.26,0.66-0.33c0.98-0.31,2.08,0.19,2.71,0.99C439.045,240.574,439.295,241.614,439.405,242.634z"/>
			<path style="fill:#052B38;" d="M428.445,234.634c-1.18,3.45-2.33,7.04-1.98,10.67c0.21,2.16,0.95,4.24,1.68,6.28
				c0.84-1.01,1.76-1.94,2.76-2.8l0.44-0.25c0.27,0.35,0.57,0.68,0.9,0.97c0.38,0.33,0.79,0.62,1.24,0.84
				c-0.09,2.01-0.49,4.12-1.97,5.45c-1.8,1.62-4.72,1.48-6.74,0.14c-2.02-1.34-3.24-3.6-3.96-5.91c-1.48-4.82-1.01-10.21,1.28-14.69
				c0.62-1.2,1.41-2.38,2.61-2.99s2.89-0.41,3.6,0.73h0.12c-0.01,0.08-0.01,0.16-0.01,0.24l0.14,1
				C428.515,234.424,428.485,234.524,428.445,234.634z"/>
			<path style="fill:#052B38;" d="M432.515,235.524c-0.51,0.65-0.98,1.34-1.37,2.06c-0.96-0.93-1.86-1.91-2.7-2.95
				c0.04-0.11,0.07-0.21,0.11-0.32l-0.14-1c0-0.08,0-0.16,0.01-0.24c0.35-11.78-0.65-23.6-2.97-35.15c1.9-0.1,3.79-0.18,5.69-0.25
				c3.16,12.11,3.81,24.87,1.88,37.24C432.845,235.114,432.675,235.314,432.515,235.524z"/>
			<path style="fill:#849DA3;" d="M431.345,248.534l-0.44,0.25c-1,0.86-1.92,1.79-2.76,2.8c-0.73-2.04-1.47-4.12-1.68-6.28
				c-0.35-3.63,0.8-7.22,1.98-10.67c0.84,1.04,1.74,2.02,2.7,2.95c-0.77,1.36-1.3,2.83-1.49,4.37
				C429.365,244.264,429.925,246.724,431.345,248.534z"/>
			<path style="fill:#849DA3;" d="M343.045,263.034c0.16,1.41,0.29,2.92-0.39,4.16c-0.86,1.57-2.76,2.23-4.52,2.53
				c-1.18,0.21-2.41,0.31-3.54-0.07c-0.78-0.26-1.5-0.79-1.91-1.48c-0.19-0.32-0.31-0.66-0.35-1.04c-0.13-1.24,0.71-2.38,1.63-3.22
				c0.93-0.85,2.01-1.57,2.65-2.64c0.72-1.2,0.79-2.67,0.8-4.07c0.05-7.71-1.02-15.42-3.18-22.82c-0.52-1.8-1.14-3.62-1.9-5.38
				c1.1-0.44,2.21-0.89,3.32-1.33c0.57,1.66,1.06,3.36,1.51,5.04C339.865,242.664,341.835,252.804,343.045,263.034z"/>
			<path style="fill:#849DA3;" d="M331.685,268.364c0.4,1.01,0.16,2.33-0.4,3.33c-2.03,3.65-7.12,4.69-11.03,3.22
				c-3.91-1.47-6.79-4.83-9.05-8.35c-4.17-6.5-6.81-13.92-8.2-21.52c-0.8-4.37-1.19-8.89-0.74-13.29c1.61,0.32,3.24,0.58,4.87,0.79
				c-1.26,13.33,3.43,27.02,12.05,37.3c0.29,0.35,0.63,0.71,1.08,0.78c0.63,0.09,1.15-0.44,1.62-0.86c1.39-1.23,3.21-1.82,4.97-2.39
				c1.38-0.44,3.05-0.84,4.17,0.08C331.325,267.704,331.545,268.014,331.685,268.364z"/>
			<path style="fill:#052B38;" d="M335.655,227.674c-1.11,0.44-2.22,0.89-3.32,1.33l-2.611,0.929l-3.339-5.639
				c-0.34-0.42-0.7-0.82-1.1-1.2c-2.12-1.99-5.24-3.06-8.03-2.23c-2.33,0.69-4.16,2.61-5.2,4.8c-1.03,2.2-1.36,4.67-1.46,7.09
				l-0.01,0.16c-1.15-0.09-2.3-0.22-3.45-0.37c-1.63-0.21-3.26-0.47-4.87-0.79c0.22-2.13,0.64-4.22,1.3-6.26
				c1.99-6.16,6.51-11.74,12.61-13.86c-0.62-7.23,0.36-14.58,2.82-21.4l0.34-0.75c1.01,0.46,2.03,0.91,3.05,1.37l-0.04,0.08
				c-2.2,6.31-3.3,13-3.23,19.68h0.01c0.59,0.14,1.17,0.32,1.73,0.54c0.82,0.31,1.61,0.69,2.36,1.15l0.08-0.09
				c2.79,2.38,5.54,4.8,8.27,7.26C333.375,221.924,334.645,224.744,335.655,227.674z"/>
		</g>
		<g>
			<path style="fill:#FFBE4A;" d="M409.555,104.254c-1.81,5.15-4.95,10.02-9.61,12.86l-0.24-0.01c-0.15,4.29-1.61,8.42-3.15,12.44
				c-1.06,2.77-2.18,5.53-3.52,8.18c-0.94,1.88-2,3.7-3.22,5.42c-2.94,4.14-6.94,7.68-11.77,9.24c-4.82,1.56-10.16,1.04-14.87-0.84
				c-4.7-1.88-8.81-5.04-12.36-8.65c-0.65-0.67-1.29-1.35-1.89-2.05c-5.06-5.72-8.9-12.49-11.2-19.77
				c-5.24-1.67-8.65-6.98-9.76-12.38c-0.53-2.59-0.61-5.38,0.52-7.77c0.58-1.22,1.52-2.34,2.77-2.84c0.04-0.02,0.09-0.04,0.14-0.06
				c1.21-0.44,2.71-0.19,3.56,0.75l0.02-0.01c-0.06-7.48,0.66-14.97,2.16-22.3c0.74,0.26,1.51,0.41,2.33,0.44
				c4.17,0.15,7.82-3.18,12-3.24c4.13-0.06,7.6,3.06,11.6,4.09c0.69,0.18,1.39,0.29,2.11,0.33c1.7,0.12,3.43-0.14,5.03-0.75
				c2.52-0.97,4.63-2.77,6.94-4.17c2.32-1.4,5.13-2.43,7.72-1.61c2.41,0.77,4.14,2.99,6.54,3.8c3.02,1.01,6.68-0.79,7.72-3.79
				l0.2-0.01c0.5,8.53,0.62,17.1,0.32,25.64c0.87-1.11,1.9-2.09,3.05-2.91c0.37-0.26,0.76-0.51,1.17-0.72
				c0.82-0.42,1.7-0.68,2.6-0.55c1.07,0.14,2.02,0.81,2.69,1.66C411.215,97.294,410.655,101.104,409.555,104.254z"/>
			<path style="fill:#052B38;" d="M384.375,95.644c1.69,0,3.06,1.78,3.06,3.99s-1.37,4-3.06,4s-3.06-1.79-3.06-4
				S382.685,95.644,384.375,95.644z"/>
			<path style="fill:#052B38;" d="M350.385,95.644c1.69,0,3.06,1.78,3.06,3.99s-1.37,4-3.06,4s-3.06-1.79-3.06-4
				S348.695,95.644,350.385,95.644z"/>
			<path style="fill:#FFFFFF;" d="M358.905,125.976c7.63,0.01,15.27,0.02,22.91,0.03c-0.74,2.32-2.25,4.37-3.97,6.12
				c-1.16,1.17-2.45,2.24-3.96,2.87c-2.42,1-5.2,0.78-7.68-0.05c-1.04-0.35-2.05-0.81-2.96-1.42c-2.42-1.62-4.05-4.35-4.34-7.24
				V125.976z"/>
			<path style="fill:#052B38;" d="M399.325,71.554l-0.2,0.01c-1.04,3-4.7,4.8-7.72,3.79c-2.4-0.81-4.13-3.03-6.54-3.8
				c-2.59-0.82-5.4,0.21-7.72,1.61c-2.31,1.4-4.42,3.2-6.94,4.17c-1.6,0.61-3.33,0.87-5.03,0.75c-0.72-0.04-1.42-0.15-2.11-0.33
				c-4-1.03-7.47-4.15-11.6-4.09c-4.18,0.06-7.83,3.39-12,3.24c-0.82-0.03-1.59-0.18-2.33-0.44c-3.03-1.06-5.43-3.84-7.45-6.6
				c-0.21-0.28-0.41-0.56-0.61-0.84c-1.63-2.29-3.3-4.69-3.75-7.47c-0.77-4.85,2.59-9.65,6.95-11.93c4.36-2.28,9.48-2.51,14.4-2.29
				c2.91,0.13,5.92,0.39,8.7-0.51c3.2-1.03,5.75-3.5,8.85-4.84c3.5-1.52,7.59-1.48,11.2-0.22c3.6,1.26,6.74,3.68,9.16,6.64
				c2,2.45,3.82,5.46,6.87,6.25c2.53,0.65,5.25-0.45,7.81,0.11c3.05,0.66,5.18,3.59,5.89,6.62c0.71,3.04,0.27,6.21-0.08,9.31
				c-0.88,7.57-1.3,15.19-1.26,22.8l0.05,0.07c-0.41,0.21-0.8,0.46-1.17,0.72c-1.15,0.82-2.18,1.8-3.05,2.91
				C399.945,88.654,399.825,80.084,399.325,71.554z"/>
			<path style="fill:#FFBE4A;" d="M395.135,147.944c0.42,1.66,0.89,3.3,1.39,4.94c-6.42,8.38-12.7,16.87-18.82,25.47l-0.01,0.02
				c-2.05-1.64-4.08-3.29-6.11-4.96l0.24-0.29c8.21-10.4,15.43-21.58,21.55-33.33C393.855,142.534,394.445,145.254,395.135,147.944z
				"/>
			<circle style="fill:#F9911E;" cx="389.425" cy="117.114" r="5.05"/>
			<path style="fill:#F9911E;" d="M348.005,147.214c0.29-2.12,0.59-4.25,0.92-6.37c0.6,0.7,1.24,1.38,1.89,2.05
				c3.55,3.61,7.66,6.77,12.36,8.65c4.71,1.88,10.05,2.4,14.87,0.84c4.83-1.56,8.83-5.1,11.77-9.24c1.22-1.72,2.28-3.54,3.22-5.42
				c0.1,0.69,0.22,1.38,0.34,2.07c-6.12,11.75-13.34,22.93-21.55,33.33l-0.24,0.29c-8.25-6.78-16.33-13.76-24.24-20.93
				C347.545,150.724,347.775,148.974,348.005,147.214z"/>
			<path style="fill:#F9911E;" d="M375.675,113.174c0.22,0.88,0.37,1.89-0.13,2.65c-0.65,0.97-2.15,1.03-3.15,0.43
				c-1-0.6-1.61-1.67-2.14-2.71c-0.76,0.62-1.39,1.38-2.08,2.07c-0.69,0.7-1.48,1.34-2.42,1.62c-0.94,0.28-2.06,0.14-2.74-0.57
				c-0.33-0.35-0.54-0.81-0.68-1.27c-0.35-1.12-0.37-2.3-0.33-3.47c0.08-2.4,0.42-4.79,0.82-7.16c0.67-4.04,1.53-8.06,2.95-11.9
				l0.16-0.09c2.09,3.58,4.06,7.23,5.92,10.94C373.385,106.754,374.845,109.864,375.675,113.174z"/>
			<circle style="fill:#F9911E;" cx="346.585" cy="115.774" r="5.05"/>
			<path style="fill:#052B38;" d="M337.135,76.464c-1.5,7.33-2.22,14.82-2.16,22.3l-0.02,0.01c-0.85-0.94-2.35-1.19-3.56-0.75
				c-0.05,0.02-0.1,0.04-0.14,0.06c-1.29-9.3-1.88-18.69-1.75-28.09l0.18-0.13C331.705,72.624,334.105,75.404,337.135,76.464z"/>
			<path style="fill:#052B38;" d="M354.257,89.063c-0.146-1.1-1.047-1.885-2.167-1.818c-2.763,0.165-5.417,1.047-7.779,2.474
				c-0.897,0.542-1.105,1.978-0.476,2.789c0.704,0.907,1.829,1.056,2.789,0.476c0.171-0.103,0.345-0.201,0.518-0.301
				c0,0,0,0,0.001,0c0.059-0.03,0.118-0.061,0.178-0.09c0.341-0.167,0.688-0.321,1.04-0.462c0.638-0.254,1.295-0.453,1.961-0.617
				c0.699-0.141,1.404-0.242,2.117-0.284C353.484,91.168,354.396,90.114,354.257,89.063z"/>
			<path style="fill:#052B38;" d="M389.601,89.184c-2.729-1.344-5.858-1.885-8.878-1.519c-1.038,0.126-1.964,1.07-1.818,2.167
				c0.139,1.046,1.054,1.953,2.167,1.818c0.646-0.078,1.294-0.116,1.945-0.104c0.046,0.001,0.093,0.003,0.139,0.004
				c0.009,0.001,0.011,0.001,0.021,0.001c0.139,0.013,0.278,0.021,0.416,0.035c0.323,0.032,0.646,0.075,0.966,0.13
				c0.32,0.054,0.639,0.12,0.955,0.197c0.135,0.033,0.27,0.068,0.404,0.105c0.131,0.036,0.677,0.271,0.173,0.042
				c0.591,0.268,1.214,0.453,1.801,0.742c0.94,0.463,2.249,0.031,2.663-0.953C390.981,90.835,390.604,89.678,389.601,89.184z"/>
		</g>
	</g>
</g>
</svg>
