<svg width="70" height="70" viewBox="0 0 70 70" fill="none" xmlns="http://www.w3.org/2000/svg">
<g clip-path="url(#clip0_9_174)">
<path d="M64.4513 70C61.3867 70 58.9025 67.61 58.9025 64.6619V11.6666C58.9025 10.095 57.6286 8.82104 56.057 8.82104H2.84553C1.27395 8.82104 0 10.0951 0 11.6666V64.6618C0 67.61 2.48432 70 5.54873 70H64.4513Z" fill="#E7ECF6"/>
<path d="M4.55287 39.3961V59.3434C4.55287 60.1213 5.18342 60.7519 5.96135 60.7519H23.0631C23.841 60.7519 24.4716 60.1213 24.4716 59.3434V39.3961C24.4716 38.6182 23.841 37.9877 23.0631 37.9877H5.96135C5.18342 37.9878 4.55287 38.6184 4.55287 39.3961V39.3961Z" fill="#00AC4F"/>
<path d="M4.55287 14.4993V31.0292C4.55287 31.7293 5.12039 32.2968 5.82053 32.2968H53.082C53.7821 32.2968 54.3497 31.7293 54.3497 31.0292V14.4993C54.3497 13.7992 53.7821 13.2317 53.082 13.2317H5.82039C5.12039 13.2317 4.55287 13.7993 4.55287 14.4993V14.4993Z" fill="#FFE07D"/>
<path d="M67.2256 0C65.6934 0 64.4511 1.24209 64.4511 2.77443V52.7846C64.4511 54.3562 63.1772 55.6302 61.6056 55.6302H58.9024V11.6666C58.9024 10.095 57.6285 8.82109 56.0569 8.82109H5.83337V2.77443C5.83337 1.24209 7.07546 0 8.60767 0L67.2256 0Z" fill="#E4EDFA"/>
<path d="M58.9024 64.662C58.9024 67.61 61.3867 70 64.4513 70C67.5157 70 70 67.61 70 64.662V2.8409C70 1.33658 68.8302 0.0552538 67.3267 0.00179681C65.7483 -0.0542579 64.4511 1.20848 64.4511 2.77445V52.7847C64.4511 54.3563 63.1772 55.6302 61.6056 55.6302H58.9024V64.662Z" fill="#B5CCF3"/>
<path d="M53.2932 39.0441H30.1626C29.5792 39.0441 29.1063 38.5712 29.1063 37.9878C29.1063 37.4044 29.5792 36.9315 30.1626 36.9315H53.2932C53.8766 36.9315 54.3495 37.4044 54.3495 37.9878C54.3495 38.5712 53.8766 39.0441 53.2932 39.0441Z" fill="#2A6590"/>
<path d="M53.2932 43.597H30.1626C29.5792 43.597 29.1063 43.124 29.1063 42.5407C29.1063 41.9573 29.5792 41.4844 30.1626 41.4844H53.2932C53.8766 41.4844 54.3495 41.9573 54.3495 42.5407C54.3495 43.124 53.8766 43.597 53.2932 43.597Z" fill="#2A6590"/>
<path d="M53.2932 48.1499H30.1626C29.5792 48.1499 29.1063 47.677 29.1063 47.0936C29.1063 46.5103 29.5792 46.0374 30.1626 46.0374H53.2932C53.8766 46.0374 54.3495 46.5103 54.3495 47.0936C54.3495 47.677 53.8766 48.1499 53.2932 48.1499Z" fill="#2A6590"/>
<path d="M53.2932 52.7027H30.1626C29.5792 52.7027 29.1063 52.2298 29.1063 51.6464C29.1063 51.063 29.5792 50.5901 30.1626 50.5901H53.2932C53.8766 50.5901 54.3495 51.063 54.3495 51.6464C54.3495 52.2298 53.8766 52.7027 53.2932 52.7027Z" fill="#2A6590"/>
<path d="M53.2932 57.2555H30.1626C29.5792 57.2555 29.1063 56.7826 29.1063 56.1992C29.1063 55.6159 29.5792 55.1429 30.1626 55.1429H53.2932C53.8766 55.1429 54.3495 55.6159 54.3495 56.1992C54.3495 56.7826 53.8766 57.2555 53.2932 57.2555Z" fill="#2A6590"/>
<path d="M53.2932 61.8084H30.1626C29.5792 61.8084 29.1063 61.3355 29.1063 60.7521C29.1063 60.1687 29.5792 59.6958 30.1626 59.6958H53.2932C53.8766 59.6958 54.3495 60.1687 54.3495 60.7521C54.3495 61.3355 53.8766 61.8084 53.2932 61.8084Z" fill="#2A6590"/>
<path d="M53.2932 66.3612H5.60916C5.02578 66.3612 4.55287 65.8883 4.55287 65.3049C4.55287 64.7216 5.02578 64.2487 5.60916 64.2487H53.2932C53.8766 64.2487 54.3495 64.7216 54.3495 65.3049C54.3495 65.8883 53.8766 66.3612 53.2932 66.3612Z" fill="#2A6590"/>
<path d="M8.72183 28.8001C8.13845 28.8001 7.66554 28.3272 7.66554 27.7439V17.803C7.66554 17.3408 7.96619 16.9321 8.40752 16.7946C8.84898 16.6571 9.32845 16.8223 9.59109 17.2028L14.6162 24.4794L14.5515 17.7948C14.5459 17.2114 15.0142 16.7339 15.5976 16.7283C15.601 16.7281 15.6045 16.7281 15.6079 16.7281C16.1865 16.7281 16.6585 17.1944 16.664 17.7743L16.7571 27.398C16.7572 27.995 16.4276 28.4771 15.9176 28.6365C15.4197 28.7921 14.8922 28.596 14.5744 28.1368L9.77826 21.1917V27.744C9.77812 28.3272 9.30521 28.8001 8.72183 28.8001Z" fill="#9DC6FB"/>
<path d="M24.3637 26.6875H21.2235V23.8205H24.0541C24.6375 23.8205 25.1104 23.3476 25.1104 22.7643C25.1104 22.1809 24.6375 21.708 24.0541 21.708H21.2235V18.841H24.3637C24.9471 18.841 25.42 18.3681 25.42 17.7847C25.42 17.2013 24.9471 16.7284 24.3637 16.7284H20.1672C19.5839 16.7284 19.1109 17.2013 19.1109 17.7847V27.7441C19.1109 28.3275 19.5839 28.8004 20.1672 28.8004H24.3637C24.9471 28.8004 25.42 28.3275 25.42 27.7441C25.42 27.1607 24.9471 26.6875 24.3637 26.6875Z" fill="#9DC6FB"/>
<path d="M47.1838 28.8002C45.5552 28.8002 43.9652 28.1186 42.9305 26.9769C42.5387 26.5446 42.5715 25.8766 43.0038 25.4849C43.4361 25.093 44.1041 25.126 44.4958 25.5582C45.1367 26.2654 46.1416 26.6876 47.1837 26.6876C48.245 26.6876 48.996 26.0328 49.1091 25.3997C49.2198 24.7797 48.7 24.2089 47.683 23.8337C46.1441 23.2661 44.7783 22.6581 44.7207 22.6324C44.6698 22.6098 44.6209 22.583 44.5743 22.5527C43.5862 21.9086 43.0772 20.7787 43.2459 19.6039C43.4262 18.3471 44.3483 17.3222 45.6523 16.9296C48.2765 16.1392 50.4403 17.9234 50.5311 17.9997C50.9778 18.3751 51.0355 19.0415 50.66 19.488C50.2861 19.9333 49.6229 19.9921 49.1762 19.6207C49.1427 19.5935 47.7675 18.4992 46.2615 18.9524C45.5183 19.1764 45.3675 19.6926 45.337 19.9041C45.2892 20.2376 45.4133 20.5459 45.6706 20.7425C45.9955 20.885 47.1603 21.3892 48.414 21.8517C50.8175 22.7382 51.4233 24.4576 51.1889 25.771C50.8756 27.5264 49.1913 28.8002 47.1838 28.8002V28.8002Z" fill="#9DC6FB"/>
<path d="M39.9124 16.7667C39.3405 16.6532 38.7841 17.0243 38.6702 17.5966L37.3707 24.1268L35.321 17.4736C35.1493 16.916 34.5578 16.6035 34.0006 16.7751C33.6171 16.8932 33.3494 17.2098 33.2756 17.5775L31.2482 24.1275L29.953 17.5797C29.8398 17.0072 29.2835 16.6351 28.7119 16.7484C28.1396 16.8616 27.7674 17.4174 27.8806 17.9895L29.8211 27.7994C29.8311 27.8498 29.8447 27.8995 29.862 27.9479C30.0432 28.4586 30.5278 28.8002 31.0692 28.8002H31.0778C31.6228 28.7965 32.1067 28.4476 32.2822 27.9316C32.2853 27.9224 32.2883 27.9131 32.2912 27.9038L34.3123 21.3739L36.3244 27.9053C36.3288 27.9197 36.3335 27.934 36.3386 27.9481C36.52 28.4586 37.0044 28.8002 37.5457 28.8002H37.5544C38.0991 28.7965 38.5831 28.4474 38.7585 27.9316C38.7734 27.8878 38.7855 27.843 38.7945 27.7976L40.7422 18.009C40.8561 17.4368 40.4846 16.8806 39.9124 16.7667V16.7667Z" fill="#9DC6FB"/>
</g>
<defs>
<clipPath id="clip0_9_174">
<rect width="70" height="70" fill="white"/>
</clipPath>
</defs>
</svg>
