<svg width="70" height="70" viewBox="0 0 70 70" fill="none" xmlns="http://www.w3.org/2000/svg">
<path d="M50.5831 24.5669H47.6125L44.4842 8.46943L47.6563 7.56704C49.5579 7.02364 51.512 8.2679 51.8187 10.222L53.5299 21.1215C53.814 22.9312 52.415 24.5669 50.5831 24.5669V24.5669Z" fill="#333077"/>
<path d="M68.1488 66.1112H40.379L39.197 48.0544C38.9954 46.1702 38.4809 42.4644 38.8007 38.6334C39.1623 34.2878 41.707 30.5194 45.4059 28.4682C46.3237 27.9537 47.3041 27.5505 48.347 27.2723L52.5605 26.146C52.5674 26.1391 52.5744 26.1391 52.5744 26.1391L54.2431 25.694C57.65 24.9361 62.3293 24.1435 64.0953 27.1472C65.0895 28.8367 65.8127 34.0653 66.3828 40.3647C67.1685 49.0836 67.6552 59.8536 68.1488 66.1112Z" fill="#78D7A6"/>
<path d="M45.8008 29.3074C45.8008 29.3074 43.2026 34.8434 42.8401 36.8323C41.5274 44.0341 43.2575 66.1111 43.2575 66.1111H40.379L39.197 48.0544C38.9954 46.1701 38.4809 42.4644 38.8007 38.6333C39.1623 34.2878 41.707 30.5194 45.4059 28.4681L45.8008 29.3074Z" fill="#EDF5FC"/>
<path d="M68.1488 66.1112H50.4021C48.9558 56.7873 46.4697 31.4093 46.567 30.0674C46.6783 28.4752 52.2128 26.2781 52.5605 26.146C52.5674 26.1391 52.5743 26.1391 52.5743 26.1391L54.2431 25.694C57.6499 24.9361 62.3293 24.1435 64.0953 27.1472C65.0895 28.8367 65.8127 34.0653 66.3828 40.3647C67.1684 49.0836 67.6551 59.8536 68.1488 66.1112Z" fill="#EDF5FC"/>
<path d="M68.1488 66.1111H64.7349C64.6028 65.5966 64.5333 65.0542 64.4846 64.5397C64.29 62.3912 64.3595 60.2218 64.0327 58.0874C63.7059 55.9528 62.9272 53.7975 61.335 52.3443C59.1031 50.3002 55.8144 50.0429 52.7899 49.8899C49.529 49.8899 46.4141 49.6187 43.1949 50.3627C47.3527 48.3325 51.3506 45.8781 55.3972 43.6393C57.8099 42.3114 60.2782 40.9626 62.9898 40.4548C64.0953 40.2462 65.2634 40.2046 66.3828 40.3645C67.1685 49.0835 67.6552 59.8535 68.1488 66.1111Z" fill="#C7DAFA"/>
<path d="M46.6164 55.2416H2.88444C2.31378 55.2416 1.85118 54.779 1.85118 54.2084V50.2475C1.85118 49.6768 2.31378 49.2142 2.88444 49.2142H46.6164C47.1871 49.2142 47.6497 49.6768 47.6497 50.2475V54.2084C47.6497 54.779 47.1871 55.2416 46.6164 55.2416Z" fill="#387094"/>
<path d="M3.675 55.2437H45.8306V66.1112H3.675V55.2437Z" fill="#387094"/>
<path d="M3.67598 55.2407H45.8286V56.2557H3.67598V55.2407Z" fill="#315A79"/>
<path d="M31.8617 21.4617L33.5866 22.7153L27.3766 31.2594L25.6517 30.0057L31.8617 21.4617Z" fill="#424357"/>
<path d="M29.3157 23.7211L32.2219 25.8334L26.1171 34.2327L23.2109 32.1204L29.3157 23.7211Z" fill="#E6ECEC"/>
<path d="M23.8025 32.55L25.5271 33.8036L23.9609 35.9584L22.2363 34.7049L23.8025 32.55Z" fill="#DCE0E3"/>
<path d="M32.0644 20.1592L34.7642 22.1215L33.8851 23.331L31.1853 21.3687L32.0644 20.1592Z" fill="#E6ECEC"/>
<path d="M27.2343 43.7164L16.6484 35.7151C16.2893 35.4436 16.218 34.932 16.4895 34.5729C16.7611 34.2134 17.2718 34.1421 17.6317 34.414L28.2025 42.4042C29.4801 43.3247 31.2378 43.1826 32.3653 42.0555C33.6265 40.7938 33.6265 38.7412 32.3653 37.4799L27.3331 32.4477C27.0146 32.1292 27.0146 31.6133 27.3331 31.2948C27.6516 30.9763 28.1675 30.9763 28.486 31.2948L33.5182 36.327C35.4152 38.224 35.4152 41.311 33.5182 43.2084C31.8176 44.9091 29.1744 45.1131 27.2343 43.7164V43.7164Z" fill="#424357"/>
<path d="M22.1171 44.7126C23.7682 44.7126 25.1067 43.3741 25.1067 41.723C25.1067 40.0719 23.7682 38.7334 22.1171 38.7334C20.466 38.7334 19.1275 40.0719 19.1275 41.723C19.1275 43.3741 20.466 44.7126 22.1171 44.7126Z" fill="#424357"/>
<path d="M21.455 43.8181H23.1535V46.4451H21.455V43.8181Z" fill="#424357"/>
<path d="M28.4871 49.2143H11.8745V48.0423L21.4547 46.4456H23.1534L28.4871 48.0423V49.2143Z" fill="#424357"/>
<path d="M27.4342 34.2991C28.8125 34.2991 29.9299 33.1818 29.9299 31.8034C29.9299 30.4251 28.8125 29.3077 27.4342 29.3077C26.0558 29.3077 24.9385 30.4251 24.9385 31.8034C24.9385 33.1818 26.0558 34.2991 27.4342 34.2991Z" fill="#424357"/>
<path d="M52.5744 26.139L47.3756 29.7782C46.4801 30.405 45.2336 29.9675 44.9265 28.9184L44.5647 27.6825L42.4023 20.3402L48.9797 17.7816L49.6194 17.5312L52.5744 26.139Z" fill="#F9C4C0"/>
<path d="M49.6333 20.8547C49.6333 23.7958 47.8047 26.5561 44.8705 27.592C44.7663 27.6268 44.6689 27.6616 44.5647 27.6825L42.4023 20.3402L48.9797 17.7816L49.2231 18.463C49.5012 19.2555 49.6333 20.0622 49.6333 20.8547Z" fill="#FD9997"/>
<path d="M49.8558 19.346C49.8558 22.2871 48.0272 25.0473 45.093 26.0833C41.3663 27.4045 37.278 25.4507 35.9639 21.7308L34.4691 17.5173C33.155 13.7907 35.1018 9.70229 38.8285 8.38827C42.5553 7.06729 46.6366 9.02092 47.9576 12.7477L49.4456 16.9541C49.7237 17.7468 49.8558 18.5533 49.8558 19.346V19.346Z" fill="#F9C4C0"/>
<path d="M37.7034 22.493C38.1295 23.6634 39.2095 24.3927 40.2691 24.1516C41.3287 23.9105 41.987 22.7857 41.8647 21.5461L37.7034 22.493Z" fill="white"/>
<path d="M41.2943 16.7785C41.4704 17.3106 41.2919 17.8458 40.8914 17.9783C40.4965 18.109 40.0341 17.7858 39.858 17.2537C39.6839 16.7273 39.8623 16.1921 40.2572 16.0615C40.6577 15.9289 41.1201 16.2521 41.2943 16.7785Z" fill="#424357"/>
<path d="M36.8405 18.1156C36.9961 18.5859 36.8384 19.059 36.4843 19.1762C36.1353 19.2917 35.7265 19.006 35.5708 18.5356C35.4169 18.0703 35.5746 17.5972 35.9237 17.4817C36.2777 17.3646 36.6865 17.6502 36.8405 18.1156Z" fill="#424357"/>
<path d="M47.7213 7.15523L49.3253 11.0404L34.835 16.2904C32.0338 17.4469 28.8254 16.1136 27.6688 13.3123L27.6688 13.3123C26.9178 11.4932 27.7837 9.40963 29.6028 8.65857L42.3782 4.11654C44.3074 3.32007 46.6996 4.68053 47.7213 7.15523V7.15523Z" fill="#333077"/>
<path d="M50.4183 14.0622C50.7825 15.0913 50.2577 16.2137 49.2286 16.5779L47.9158 12.868C48.9449 12.5039 50.0588 13.0462 50.4183 14.0622Z" fill="#F9C4C0"/>
<path d="M47.4489 11.2715L49.0506 15.942L48.9554 15.9746C48.2788 16.2066 47.5453 15.8477 47.315 15.1762L46.131 11.7234L47.4489 11.2715Z" fill="#333077"/>
<path d="M55.9418 29.6778C55.4672 27.4588 56.9896 25.3078 59.2402 25.0177H59.2402C62.3628 24.6152 65.1845 26.9132 65.4227 30.0526L67.6076 43.234C68.1266 46.3655 65.7112 49.2143 62.5369 49.2143H35.504L36.1651 42.2679L58.2324 40.3859L55.9418 29.6778Z" fill="#EDF5FC"/>
<path d="M38.7084 42.051C40.3272 41.8165 41.9469 41.5936 43.5707 41.4166C45.1937 41.2327 46.8158 41.0362 48.4427 40.8953L53.3209 40.4447L58.2057 40.0745L57.9269 40.4512C57.6513 39.0639 57.4089 37.6694 57.1483 36.2788C56.9 34.8855 56.6653 33.4895 56.4574 32.0876C56.8409 33.4519 57.1979 34.8218 57.5414 36.1947C57.8725 37.5702 58.2219 38.9417 58.5381 40.3204L58.6166 40.6633L58.2589 40.6972L53.3819 41.1597L48.4978 41.5415C46.8707 41.6783 45.2388 41.7593 43.6079 41.8528C41.9775 41.9534 40.3435 42.0079 38.7084 42.051V42.051Z" fill="#C7DAFA"/>
<path d="M36.1656 42.2697L35.505 49.2157H28.3714C26.8696 49.2157 25.6667 47.978 25.7084 46.4763C25.7293 45.8226 25.9865 45.2247 26.3968 44.7657C26.807 44.3138 27.3771 44.001 28.0237 43.9105L33.7668 43.1528L32.7795 42.506C32.3832 42.2419 32.2233 41.7413 32.3902 41.2893C32.5431 40.8722 32.9394 40.6218 33.3497 40.6218C33.5443 40.6218 33.739 40.6775 33.9128 40.7889L36.1656 42.2697Z" fill="#F9C4C0"/>
</svg>
