<?xml version="1.0" encoding="utf-8"?>
<!-- Generator: Adobe Illustrator 27.5.0, SVG Export Plug-In . SVG Version: 6.00 Build 0)  -->
<svg version="1.1" xmlns="http://www.w3.org/2000/svg" xmlns:xlink="http://www.w3.org/1999/xlink" x="0px" y="0px"
	 viewBox="0 0 500 500" style="enable-background:new 0 0 500 500;" xml:space="preserve">
<g id="BACKGROUND">
	<rect style="fill:#FFFFFF;" width="500" height="500"/>
</g>
<g id="OBJECTS">
	<path style="fill:#F7F7F7;" d="M158.765,370.939c-35.336-26.554-58.203-70.427-55.473-114.544
		c2.812-45.448,31.083-85.708,64.569-116.565c20.799-19.167,44.259-35.909,70.662-46.05c26.403-10.141,55.978-13.356,83.209-5.71
		c35.322,9.917,64.2,37.782,79.349,71.196c15.148,33.414,17.382,71.779,10.57,107.828c-5.668,29.993-17.664,59.185-37.394,82.476
		C319.844,413.803,225.466,421.064,158.765,370.939z"/>
	<g>
		<defs>
			
				<rect id="SVGID_1_" x="126.8" y="91.321" transform="matrix(1 -0.0014 0.0014 1 -0.3569 0.3481)" width="251.68" height="336.185"/>
		</defs>
		<clipPath id="SVGID_00000001662342234143330930000002467157554319155359_">
			<use xlink:href="#SVGID_1_"  style="overflow:visible;"/>
		</clipPath>
		<g style="clip-path:url(#SVGID_00000001662342234143330930000002467157554319155359_);">
			<g>
				<path style="fill:#263238;" d="M401.501,678.292l43.691-0.06c-1.29-5.769-3.235-10.411-3.235-10.411l-44.509-4.979
					C399.209,675.945,401.501,678.292,401.501,678.292z"/>
				<path style="fill:#EBEBEB;" d="M441.957,667.825c-0.964,2.269-23.503,7.186-39.508-1.563c-1.769-0.965-3.438-2.096-5.008-3.412
					c-0.32-2.384-0.641-5.519-1.064-9.387c-0.236-2.168-0.49-4.585-0.76-7.22c-0.186-1.701-0.388-3.502-0.591-5.386
					c-0.558-5.202-1.228-7.603-2.021-14.138c-1.366-11.188-6.925-27.723-9.213-42.328l25.482-11.542
					c0.434,24.58,1.697,33.4,5.398,45.051c1.976,6.234,6.122,13.733,10.685,21.281c4.062,6.732,8.473,13.529,11.967,19.528
					c0,0,0.017,0,0.017,0.017c0.318,0.517,0.602,1.016,0.886,1.516C440.134,663.575,441.505,666.258,441.957,667.825z"/>
				<path style="fill:#263238;" d="M441.957,667.825c-0.607,4.688-23.373,10.619-39.378,1.869c-1.769-0.965-3.568-5.529-5.138-6.844
					c-0.32-2.384-0.641-5.519-1.064-9.387c-0.236-2.168-0.49-4.585-0.76-7.22c2.504,1.581,5.723,2.419,5.723,2.419
					c1.791-8.414,4.587-11.004,14.809-11.569c4.102-0.222,6.654-0.076,9.208,2.089c3.089,2.614,6.181,8.163,11.967,19.528
					c0,0,0.017,0,0.017,0.017C438.713,661.409,440.252,664.442,441.957,667.825z"/>
				<polygon style="fill:#263238;" points="289.653,668.533 291.022,678.445 198.769,678.572 200.701,670.598 				"/>
				<path style="fill:#EBEBEB;" d="M289.656,668.54c0,0-27.792,2.062-53.146,2.806c-14.718,0.418-27.287,0.593-34.466-0.556
					c8.402-2.727,16.123-6.32,24.316-10.24c21.094-10.093,28.249-17.398,25.995-34.702c-1.748-13.419-5.472-33.454-5.472-33.454
					l30.885-3.986c0,0,2.225,21.046,3.822,37.544C282.666,637.071,288.025,664.608,289.656,668.54z"/>
				<g>
					<g>
						<path style="fill:#263238;" d="M252.115,324.844c-4.126,19.05-7.359,29.149-12.389,62.955l103.971-0.143
							c-0.271-35.132-5.029-57.32-5.029-57.32L252.115,324.844z"/>
						<path style="fill:#263238;" d="M282.109,365.507c3.717,31.431,66.281,197.206,83.368,258.341
							c18.284,3.65,48.996-6.804,48.996-6.804c-7.766-109.033-33.244-127.809-35.545-139.957
							c-2.302-12.149-19.771-102.026-40.128-148.21L282.109,365.507z"/>
						<path style="fill:#263238;" d="M252.115,324.844c-19.266,36.9-16.053,133.945-14.479,183.359
							c1.574,49.414,8.671,116.804,8.671,116.804s23.344,8.355,44.216,1.515c2.51-108.69,6.504-245.338,6.504-245.338
							L252.115,324.844z"/>
					</g>
					<g>
						<g>
							<path style="fill:#38474F;" d="M286.632,361.567c-0.005,0.003-0.006,0.003-0.011,0.006c0,0-0.001,0-0.001,0
								C286.629,361.569,286.624,361.571,286.632,361.567C286.632,361.567,286.632,361.567,286.632,361.567z"/>
							<path style="fill:#38474F;" d="M242.339,359.13c3.872-2.233,7.407-6.025,9.874-9.946c1.949-3.098,3.203-6.407,3.934-9.91
								c1.898-0.066,3.801-0.196,5.647-0.233c3.519-0.071,7.039-0.13,10.557-0.214c1.403-0.034,2.806-0.08,4.209-0.116
								c0.628,5.143,1.312,10.321,2.563,15.341c0.077,0.31,0.258,0.526,0.484,0.662c-0.055,1.011,0.542,1.944,1.482,2.381
								c1.033,0.48,2.242,0.363,3.247-0.14c2.006-1.005,2.312-3.366,2.071-5.369c-0.527-4.383-1.208-8.744-1.973-13.091
								c3.011-0.079,6.022-0.155,9.032-0.248c2.175-0.067,4.35-0.135,6.525-0.202c-0.235,0.344-0.372,0.758-0.342,1.236
								c0.215,3.379,1.589,6.889,2.457,10.158c0.845,3.178,1.684,6.358,2.533,9.535c1.728,6.468,3.632,12.9,5.689,19.27
								c4.158,12.875,7.673,25.894,11.35,38.913c0.248,0.879,1.583,0.523,1.368-0.361c-3.197-13.145-6.536-26.211-9.244-39.468
								c-1.34-6.559-2.844-13.097-4.518-19.579c-0.822-3.184-1.654-6.366-2.481-9.549c-0.85-3.273-1.383-7.01-2.858-10.061
								c-0.038-0.078-0.085-0.143-0.13-0.213c5.855-0.182,11.709-0.371,17.563-0.589c-0.137,0.628-0.027,1.322,0.236,1.887
								c2.124,4.556,5.239,8.678,9.007,12.004c3.834,3.383,8.381,5.748,13.225,7.333c0.911,0.298,1.928-0.383,2.158-1.265
								c0.259-0.995-0.374-1.818-1.265-2.158c-8.211-3.136-14.997-10.061-18.593-17.982c3.3-0.134,6.599-0.277,9.899-0.44
								c2.169-0.107,2.184-3.349-0.005-3.383c-14.313-0.223-28.621-0.137-42.935-0.095c-7.038,0.02-14.077,0.058-21.115,0.134
								c-3.519,0.038-7.039,0.096-10.558,0.143c-3.709,0.05-7.566-0.196-11.239,0.345c-1.328,0.195-2.114,1.737-1.957,2.942
								c0.186,1.429,1.3,2.19,2.646,2.342c0.577,0.065,1.167,0.08,1.755,0.106c-0.947,2.756-2.339,5.384-4.035,7.711
								c-2.413,3.311-5.409,5.599-8.828,7.669C236.927,356.36,239.454,360.794,242.339,359.13z M279.452,338.633
								c0.866-0.023,1.732-0.048,2.598-0.071c0.104,3.252,0.255,6.497,0.492,9.743c0.066,0.895,0.132,1.791,0.196,2.686
								c0.046,0.63,0.179,1.376,0.035,1.998c0.008-0.034-0.092,0.298-0.14,0.442c0.118-0.07,0.106-0.063,0,0.001
								c0,0.001-0.001,0.002-0.001,0.004c-0.002,0-0.007,0.002-0.009,0.002c-0.001,0.001-0.001,0.001-0.003,0.001c0,0,0,0,0,0
								c0.001-0.001,0,0,0.001-0.001c-0.005,0.001-0.015,0.004-0.022,0.006c-0.007-0.001-0.014-0.003-0.017-0.003
								c-0.152-0.069-0.301-0.147-0.453-0.216c-0.25-0.112-0.515-0.17-0.777-0.179C281.054,348.22,280.287,343.404,279.452,338.633z
								"/>
						</g>
						<path style="fill:#38474F;" d="M262.379,377.949c0.133-5.546,0.526-11.107,0.889-16.642c0.184-2.802,0.367-5.604,0.551-8.406
							c0.18-2.752,0.15-5.849,1.322-8.396c0.653-1.418,2.987-1.39,3.436,0.191c0.757,2.668,0.307,5.662,0.064,8.383
							c-0.249,2.79-0.497,5.58-0.745,8.371c-0.505,5.671-0.895,11.419-1.721,17.053c-0.811,5.529-1.596,11.046-2.264,16.599
							c-0.695,5.776-1.595,11.544-2.091,17.34c-0.021,0.243-0.386,0.169-0.37-0.068C262.24,400.934,262.105,389.404,262.379,377.949
							z"/>
						<path style="fill:#38474F;" d="M343.098,488.843c-3.29-10.919-6.202-21.947-9.519-32.858c-0.08-0.262,0.314-0.357,0.406-0.107
							c3.504,9.544,7.292,18.978,10.897,28.484c3.597,9.485,6.858,19.089,10.168,28.676c6.574,19.042,13.138,38.089,19.433,57.226
							c3.353,10.191,6.86,20.346,10.092,30.577c0.359-0.034,0.718-0.076,1.078-0.109c3.851-0.35,7.693-0.533,11.557-0.663
							c3.974-0.133,7.943,0.087,11.908-0.046c1.108-0.037,1.383,1.754,0.255,1.957c-3.772,0.68-7.47,1.705-11.251,2.387
							c-3.912,0.705-7.814,1.366-11.76,1.847c-3.846,0.469-7.703,0.851-11.556,1.258c-3.796,0.401-7.947,1.279-11.703,0.287
							c-1.588-0.419-2.03-2.805-0.475-3.594c3.365-1.708,7.426-1.783,11.12-2.18c2.19-0.235,4.379-0.477,6.569-0.712
							c-6.493-18.214-12.563-36.622-18.603-54.987C355.429,527.172,348.904,508.107,343.098,488.843z"/>
						<path style="fill:#38474F;" d="M249.417,608.565c1.535-0.42,3.084,0.017,4.627,0.267c0.784,0.127,1.57,0.239,2.354,0.362
							c-0.283-21.894-0.534-43.788-0.743-65.683c-0.213-22.315-0.583-44.652-0.32-66.968c0.075-6.345,0.135-12.69,0.28-19.034
							c0.145-6.343,0.495-12.69,0.48-19.034c-0.002-0.813,1.243-0.813,1.26-0.002c0.244,11.276,1.119,22.558,1.523,33.834
							c0.395,11.04,0.615,22.085,0.814,33.13c0.403,22.322,0.72,44.644,1.042,66.967c0.18,12.485,0.29,24.971,0.426,37.457
							c2.131,0.271,4.263,0.527,6.404,0.729c6.055,0.57,12.282,1.047,18.36,0.636c1.188-0.08,1.464,1.874,0.272,2.088
							c-6.316,1.132-12.526,2.142-18.966,2.164c-3.174,0.01-6.365-0.183-9.513-0.594c-2.987-0.39-6.936-0.49-9.353-2.413
							C246.925,611.327,247.862,608.991,249.417,608.565z"/>
					</g>
				</g>
				<g>
					<path style="fill:#EBEBEB;" d="M333.026,188.541c-17.296-3.93-46.009,7.896-46.009,7.896s-35.55,9.464-47.203,17.141
						c-11.654,7.677,4.72,81.879,4.823,108.322l96.692,2.821C348.088,265.351,362.257,195.183,333.026,188.541z"/>
				</g>
				<path style="fill:#A6CCE4;" d="M272.499,326.137c0,0-0.056-49.205,1.01-66.393c1.376-22.172,3.652-46.575,3.652-46.575
					l20.799-1.592c-6.007,21.185-9.552,115.569-9.552,115.569L272.499,326.137z"/>
				<path style="fill:#EBEBEB;" d="M273.583,306.835c0,0-4.274,79.475-6.571,95.564c-2.278,16.089-9.449,18.255-42.657,2.414
					c2.278-16.397,5.026-33.229,7.848-49.138c0.306-1.667,0.593-3.316,0.899-4.965c7.766-42.979,15.761-78.06,15.761-78.06
					L273.583,306.835z"/>
				<path style="fill:#EBEBEB;" d="M283.313,296.614c0,0,15.283,98.545,25.456,115.976s70.404-10.35,70.404-10.35
					c-10.474-48.406-43.313-154.245-43.313-154.245L283.313,296.614z"/>
				<g>
					<path style="fill:#DBDBDB;" d="M372.072,391.623c-1.217,0.499-2.434,0.991-3.653,1.478c-1.498-6.889-3.447-13.708-5.198-20.507
						c-2.394-9.296-4.83-18.586-7.47-27.814c-2.641-9.233-5.24-18.471-7.743-27.742c-2.505-9.278-5.419-18.425-8.004-27.674
						c-0.133-0.475-0.852-0.284-0.739,0.195c2.205,9.35,4.073,18.77,6.361,28.106c2.286,9.329,4.474,18.676,6.621,28.038
						c2.146,9.357,4.501,18.669,6.895,27.966c1.79,6.951,3.403,14.022,5.485,20.92c-7.836,3.021-15.764,5.69-24.018,7.522
						c-9.639,2.139-20.191,4.528-29.761,1.176c-0.981-0.344-1.91,0.929-1.365,1.781c2.81,4.391,8.187,4.837,12.922,4.535
						c5.814-0.371,11.633-1.469,17.297-2.79c8.836-2.061,17.721-4.91,25.986-8.858c0.382,1.159,0.779,2.311,1.197,3.456
						c0.681,1.864,3.258,1.164,2.956-0.78c-0.227-1.462-0.493-2.919-0.776-4.373c1.45-0.764,2.881-1.558,4.281-2.398
						C374.813,392.982,373.561,391.013,372.072,391.623z"/>
					<g>
						<path style="fill:#DBDBDB;" d="M260.675,399.113c-5.027-0.025-10.099-0.572-14.954-1.9c-2.359-0.645-4.703-1.344-6.964-2.284
							c-1.102-0.458-2.185-0.965-3.248-1.505c-1.238-0.629-2.415-1.461-3.758-1.839c-2.209-0.62-3.83,2.276-2.211,3.866
							c1.894,1.86,5.025,2.862,7.462,3.809c2.539,0.987,5.167,1.814,7.848,2.309c5.395,0.997,10.763,1.151,16.177,0.244
							C262.595,401.55,262.195,399.12,260.675,399.113z"/>
					</g>
				</g>
				<path style="fill:#DBDBDB;" d="M344.274,348.297c-2.456-1.245-5.658,0.651-8.037,1.47c-2.469,0.85-4.962,1.656-7.459,2.422
					c-2.494,0.764-5.018,1.435-7.538,2.104c-2.685,0.713-5.354,1.555-8.107,1.958c-1.408,0.206-1.099,2.586,0.323,2.478
					c2.767-0.21,5.542-0.151,8.305-0.438c2.786-0.29,5.537-0.75,8.281-1.31c2.75-0.561,5.443-1.266,8.115-2.125
					c2.552-0.82,6.077-1.469,7.11-4.214C345.575,349.822,345.031,348.681,344.274,348.297z"/>
				<polygon style="fill:#A6CCE4;" points="288.166,171.27 308.589,177.312 315.317,188.534 274.704,200.016 270.325,186.644 				
					"/>
				<g>
					<path style="fill:#EBEBEB;" d="M201.455,312.195c12.238-9.461,62.29-42.527,68.641-77.519
						c4.676-25.762-14.477-35.546-33.859-18.333c-19.382,17.212-64.876,60.242-64.876,60.242L201.455,312.195z"/>
					<path style="fill:#AC635B;" d="M138.059,230.804l13.484,50.066c4.835,17.954,24.834,27.053,41.546,18.903l3.376-1.647
						l-45.93-67.353L138.059,230.804z"/>
					<g>
						<path style="fill:#824645;" d="M153.578,211.755l7.198-14.841c0.684-1.411,0.136-3.11-1.245-3.855l0,0
							c-1.139-0.614-2.547-0.408-3.462,0.508l-10.793,10.809L153.578,211.755z"/>
						<path style="fill:#AC635B;" d="M154.733,211.774c4.789,19.325,3.229,31.644-12.809,32.531l-7.549-23.893L154.733,211.774z"/>
						<path style="fill:#263238;" d="M188.533,182.454l-16.549-0.426l-24.364,17.688c-1.099,0.805-1.335,2.351-0.526,3.447
							c0.833,1.129,2.439,1.334,3.53,0.451l22.178-18.451l15.773-1.636c0.254-0.026,0.455-0.227,0.481-0.482
							C189.087,182.735,188.847,182.462,188.533,182.454z"/>
						<g>
							<path style="fill:#A6CCE4;" d="M186.26,187.889c-1.746-2.583-1.942-7.072-1.199-10.037c0.717-2.861,3.774-6.337,6.482-4.317
								c2.035,1.518,0.417,4.708,0.609,6.764c0.221,2.366,2.714,4.821,1.5,7.229C192.184,190.442,187.977,190.429,186.26,187.889z"
								/>
							<path style="fill:#90B9D1;" d="M187.522,183.439c-0.378-0.55-0.722-1.137-0.954-1.765c-0.242-0.657-0.411-1.252-0.412-1.957
								c-0.001-0.712,0.085-1.437,0.252-2.129c0.055-0.23-0.295-0.396-0.4-0.162c-0.308,0.684-0.49,1.373-0.553,2.121
								c-0.032,0.382-0.001,0.761-0.014,1.143c-0.014,0.407-0.008,0.807,0.047,1.211c0.107,0.78,0.322,1.543,0.666,2.253
								c0.165,0.34,0.348,0.676,0.554,0.993c0.337,0.52,0.71,0.933,1.382,0.812c0.269-0.049,0.512-0.312,0.571-0.572
								C188.857,184.531,187.947,184.058,187.522,183.439z"/>
							<path style="fill:#90B9D1;" d="M191.056,186.442c-0.02-0.091-0.072-0.165-0.123-0.238c-0.003-0.005-0.002-0.01-0.005-0.015
								c-0.002-0.003-0.006-0.005-0.007-0.008c-0.013-0.017-0.014-0.04-0.029-0.055c-0.033-0.052-0.089-0.081-0.134-0.122
								c-0.028-0.025-0.044-0.063-0.077-0.084c-0.01-0.009-0.024-0.009-0.035-0.018c-0.01-0.006-0.014-0.017-0.024-0.022
								c-0.029-0.012-0.059-0.024-0.088-0.036c-0.056-0.03-0.105-0.073-0.17-0.087c-0.077-0.01-0.154-0.02-0.232-0.029
								c-0.161,0.001-0.311,0.041-0.451,0.119l-0.194,0.149c-0.116,0.117-0.195,0.255-0.237,0.414l-0.03,0.153
								c-0.035,0.116-0.039,0.232-0.014,0.347c0.006,0.119,0.04,0.231,0.104,0.335c0.05,0.065,0.099,0.13,0.149,0.194
								c0.086,0.092,0.187,0.156,0.304,0.193c0.07,0.039,0.145,0.059,0.226,0.059c0.116,0.025,0.231,0.019,0.347-0.015l0.219-0.089
								c0.145-0.084,0.259-0.198,0.343-0.344c0.023-0.039,0.046-0.079,0.069-0.118c0.064-0.104,0.098-0.216,0.104-0.335
								C191.096,186.674,191.09,186.558,191.056,186.442z"/>
						</g>
						<path style="fill:#38474F;" d="M187.483,180.107l-16.555-0.005l-23.907,18.301c-1.078,0.833-1.275,2.384-0.438,3.459
							c0.861,1.107,2.473,1.272,3.54,0.361l21.702-19.008l15.727-2.036c0.253-0.033,0.449-0.239,0.468-0.494
							C188.044,180.374,187.797,180.107,187.483,180.107z"/>
						<path style="fill:#AC635B;" d="M156.662,188.824l-13.105,2.347c-1.194,0.214-2.221,0.971-2.78,2.048l-6.958,18.884
							c-0.787,2.135-0.801,4.477-0.041,6.622l8.995,25.379c0.708-3.37,8.208-4.387,10.32-12.958
							c2.988-8.998-5.277-26.302-5.277-26.302l0.446-7.351l9.857-4.041c1.08-0.443,1.728-1.611,1.443-2.83
							C159.265,189.352,157.945,188.594,156.662,188.824z"/>
						<path style="fill:#AC635B;" d="M147.307,202.398c6.905-0.113,9.961,3.736,8.075,7.34c1.594,3.689,0.752,6.129-2.029,8.116
							c4.689-0.815,5.532,3.632,4.443,5.638c-1.09,2.006-8.696,6.368-8.696,6.368l-10.82-18.454L147.307,202.398z"/>
						<path style="fill:#824645;" d="M145.648,202.53c-0.864-0.098-1.621-0.014-2.445,0.268c-0.839,0.287-1.582,0.69-2.305,1.2
							c-1.4,0.986-2.676,2.042-3.748,3.388c-0.187,0.235,0.208,0.559,0.412,0.337c1.082-1.181,2.363-2.262,3.825-2.938
							c0.703-0.325,1.431-0.604,2.147-0.897c0.761-0.311,1.473-0.625,2.195-1.017C145.898,202.779,145.82,202.55,145.648,202.53z"/>
						<path style="fill:#824645;" d="M153.252,208.366c-0.293,0.016-0.611-0.146-0.909-0.171c-0.271-0.022-0.546-0.036-0.819-0.027
							c-0.551,0.018-1.104,0.111-1.646,0.21c-1.157,0.211-2.276,0.556-3.311,1.122c-2.03,1.11-3.625,2.858-4.706,4.893
							c-0.155,0.291,0.264,0.556,0.441,0.271c1.144-1.843,2.855-3.228,4.771-4.219c0.931-0.481,1.909-0.908,2.925-1.173
							c0.501-0.131,1.011-0.198,1.524-0.261c0.268-0.033,0.535-0.07,0.804-0.094c0.268-0.025,0.601-0.162,0.858-0.111
							C153.519,208.873,153.563,208.349,153.252,208.366z"/>
						<path style="fill:#824645;" d="M152.188,216.387c-0.263-0.031-0.554,0.065-0.808,0.132c-0.289,0.075-0.568,0.193-0.846,0.303
							c-0.536,0.213-0.984,0.546-1.437,0.898c-0.905,0.705-1.723,1.498-2.517,2.325c-0.24,0.25,0.101,0.613,0.366,0.393
							c0.854-0.71,1.8-1.314,2.773-1.847c0.503-0.276,0.99-0.534,1.455-0.874c0.397-0.29,0.923-0.575,1.201-0.987
							C152.477,216.576,152.347,216.405,152.188,216.387z"/>
						<path style="fill:#824645;" d="M152.19,227.938c-1.118,0.47-1.655,1.671-1.656,2.836c0,1.438,0.76,2.76,0.755,4.208
							c-0.004,1.184-0.367,2.368-1.032,3.348c-0.324,0.477-0.717,0.897-1.171,1.253c-0.493,0.389-1.258,0.63-1.52,1.228
							c-0.187,0.427,0.106,0.86,0.534,0.947c0.644,0.13,1.261-0.429,1.702-0.835c0.445-0.41,0.838-0.856,1.178-1.357
							c0.683-1.008,1.18-2.128,1.388-3.333c0.222-1.286,0.026-2.502-0.343-3.74c-0.338-1.134-0.945-3.147,0.434-3.875
							C152.869,228.403,152.635,227.752,152.19,227.938z"/>
					</g>
				</g>
				<g>
					<polygon style="fill:#A6CCE4;" points="270.181,186.645 267.352,192.664 270.217,213.178 285.952,198.8 					"/>
				</g>
				<path style="fill:#EBEBEB;" d="M201.455,312.195c-14.997,11.297-38.199,7.888-67.488-46.429l24.282-23.87l42.056,56.498
					L201.455,312.195z"/>
				<g>
					<path style="fill:#263238;" d="M290.72,117.793c-10.335-9.416-20.215-16.472-32.232-6.912
						c-12.017,9.56-14.507,11.132-14.507,11.132s-8.954,15.583,1.37,29.002L290.72,117.793z"/>
					<path style="fill:#263238;" d="M278.21,117.981c26.883-11.98,44.533,18.499,24.983,46.745L278.21,117.981z"/>
					<path style="fill:#AC635B;" d="M305.177,198.464c0.01,7.101-19.199,19.403-19.199,19.403s-7.489-9.585-8.803-16.938
						l-5.983-30.298l31.357-12.995l2.591,39.903C305.158,197.848,305.177,198.156,305.177,198.464z"/>
					<path style="fill:#263238;" d="M297.903,169.496c0.018,13.18-8.313,25.787-21.84,25.806l-4.033-19.695l-0.243-2.452
						L297.903,169.496z"/>
					<path style="fill:#AC635B;" d="M247.767,174.795c3.952,7.395,10.784,13.566,18.98,15.26
						c11.357,2.369,22.992-4.214,30.191-13.312c4.115-5.183,6.98-11.417,8.357-17.874c3.063-14.03-0.837-29.172-14.056-37.273
						c-9.044-5.545-24.941-6.465-35.903-1.16c-4.302,2.071-7.852,5.099-9.923,9.199
						C238.842,142.659,241.079,162.302,247.767,174.795z"/>
					<g>
						<path style="fill:#AC635B;" d="M306.108,145.616c3.423-1.874,8.095-2.217,11.215,0.092c2.599,1.922,3.588,5.203,3.745,8.29
							c0.202,3.982-0.778,8.076-3.202,11.349c-2.425,3.273-6.374,5.632-10.635,5.878c-4.261,0.246-8.703-1.814-10.693-5.348
							C292.72,159.097,299.958,148.984,306.108,145.616z"/>
					</g>
					<path style="fill:#263238;" d="M251.311,121.911c7.068,6.077,23.423,8.78,32.649,7.449c1.415,4.588,6.344,9.917,9.2,10.881
						c1.286,8.519,2.629,13.551,4.383,18.997c3.459-3.191,8.994-13.984,8.994-13.984
						C304.328,119.539,271.001,106.911,251.311,121.911z"/>
					<path style="fill:#263238;" d="M307.761,154.728c-2.879,2.195-4.098,6.217-1.721,6.922c1.315,0.39,1.811-1.329,2.44-3.158
						c1.418-4.116,4.118-4.45,4.155-5.046C312.676,152.806,310.33,152.769,307.761,154.728z"/>
					<g>
						<path style="fill:#263238;" d="M248.302,158.795c-0.157,1.766,0.741,3.338,2.006,3.51c1.265,0.172,2.417-1.12,2.575-2.886
							c0.157-1.766-0.741-3.338-2.006-3.51C249.612,155.737,248.459,157.029,248.302,158.795z"/>
						<path style="fill:#263238;" d="M256.352,166.161c0.962-4.391,2.148-8.697,3.378-13.014c0.119-0.419,0.767-0.322,0.679,0.122
							c-0.713,3.587-1.457,7.133-2.332,10.688c-0.423,1.72-1.103,3.609-0.856,5.401c0.207,1.499,1.374,2.453,2.615,3.122
							c0.322,0.174,0.343,0.693-0.042,0.814c-1.329,0.421-2.71-0.562-3.276-1.732C255.705,169.883,255.968,167.912,256.352,166.161z
							"/>
						<path style="fill:#263238;" d="M285.49,144.46c-1.113-3.302-10.342-3.642-12.118-0.623
							C270.287,149.081,287.405,150.139,285.49,144.46z"/>
						<path style="fill:#263238;" d="M251.861,144.427c-1.153-2.793-9.159-2.556-10.522,0.158
							C238.972,149.301,253.845,149.231,251.861,144.427z"/>
						<path style="fill:#263238;" d="M279.77,160.244c-1.623-0.639-3.225-0.934-4.948-1.2c-0.702-0.108-1.411-0.148-2.114-0.227
							c2.164-1.315,4.518-2.404,6.957-3.098c0.732-0.208,0.561-1.322-0.215-1.184c-3.32,0.591-8.009,1.815-10.366,4.396
							c-0.048,0.053-0.083,0.112-0.121,0.169c-0.057,0.074-0.097,0.159-0.125,0.254c-0.018,0.053-0.038,0.105-0.046,0.159
							c-0.001,0.005-0.003,0.008-0.004,0.013c-0.001,0.01,0.004,0.021,0.004,0.031c-0.016,0.175,0.014,0.354,0.131,0.528
							c0.015,0.023,0.045,0.025,0.062,0.046c0.091,0.118,0.211,0.203,0.347,0.258c0.074,0.032,0.141,0.046,0.221,0.057
							c0.011,0.001,0.019,0.008,0.03,0.008c3.356,0.005,6.652,0.408,9.987,0.756C280.146,161.27,280.283,160.447,279.77,160.244z"/>
						<path style="fill:#263238;" d="M276.355,172.745c-0.661,0.961-1.619,1.958-2.544,2.692c-0.908,0.721-2.639,1.573-3.815,1.578
							c-0.447,0.002-0.442,0.616-0.038,0.768c1.589,0.596,3.307,0.321,4.92-0.768c1.4-0.945,2.133-2.406,2.14-4.054
							C277.019,172.648,276.537,172.48,276.355,172.745z"/>
					</g>
					<path style="fill:#263238;" d="M262.653,125.819c0.402,1.568,0.207,3.207,0.013,4.817c-0.193,1.61-0.381,3.25,0.038,4.815
						c0.419,1.565,1.544,3.072,3.354,3.725c-0.164-0.834,0.422-1.872,1.027-2.586c0.605-0.714,1.382-1.326,2.038-2.013
						c2.037-2.134,2.79-5.003,1.978-7.54L262.653,125.819z"/>
					<path style="fill:#263238;" d="M256.325,120.141c-1.268-1.949-4.083-2.281-6.289-1.55s-4.042,2.26-6.056,3.422
						c-2.013,1.162-4.486,1.966-6.641,1.094c1.352,4.42,6.628,7.811,11.172,6.961c3.91-0.732,7.193-3.866,11.169-3.975
						L256.325,120.141z"/>
				</g>
				<polygon style="fill:#A6CCE4;" points="305.157,183.931 291.783,199.992 304.07,213.547 315.317,188.534 				"/>
				<polygon style="fill:#A6CCE4;" points="267.352,192.664 279.276,217.501 285.536,232.727 301.909,208.018 291.783,199.992 
					293.274,210.322 285.974,214.816 277.58,202.635 				"/>
				<g>
					<path style="fill:#90B9D1;" d="M291.051,223.96c0.013-0.213-0.025-0.413-0.115-0.601c-0.059-0.207-0.167-0.388-0.325-0.541
						c-0.111-0.09-0.223-0.179-0.334-0.269c-0.179-0.117-0.373-0.182-0.582-0.197c-0.134-0.038-0.27-0.042-0.406-0.01
						c-0.209,0.004-0.406,0.06-0.591,0.167c-0.116,0.084-0.232,0.168-0.348,0.252c-0.209,0.2-0.353,0.438-0.435,0.714
						c-0.06,0.213-0.124,0.423-0.191,0.634c-0.033,0.104-0.054,0.209-0.076,0.316c-0.011,0.053-0.022,0.106-0.032,0.16
						c-0.085,0.3-0.093,0.601-0.023,0.905c0.001,0.008,0.002,0.016,0.003,0.024c0.004,0.032,0.008,0.064,0.012,0.096
						c0.054,0.142,0.107,0.284,0.161,0.426c0.108,0.219,0.261,0.396,0.46,0.529c0.109,0.114,0.24,0.194,0.392,0.238
						c0.201,0.109,0.419,0.162,0.652,0.159c0.149-0.015,0.298-0.031,0.447-0.046c0.142-0.054,0.284-0.107,0.426-0.161
						c0.22-0.108,0.396-0.261,0.529-0.46c0.162-0.169,0.272-0.369,0.329-0.601C291.199,225.13,291.09,224.539,291.051,223.96z"/>
					<path style="fill:#90B9D1;" d="M289.264,249.75c0.014-0.219-0.026-0.425-0.119-0.619c-0.061-0.214-0.172-0.399-0.335-0.558
						c-0.15-0.17-0.33-0.291-0.54-0.362c-0.189-0.102-0.393-0.152-0.612-0.149c-0.14,0.014-0.28,0.029-0.419,0.043
						c-0.289,0.069-0.542,0.206-0.758,0.41c-0.092,0.115-0.185,0.23-0.277,0.345c-0.148,0.249-0.227,0.519-0.235,0.808
						c-0.04,0.435-0.08,0.87-0.121,1.305c-0.014,0.231,0.027,0.448,0.125,0.652c0.064,0.225,0.181,0.421,0.353,0.588
						c0.158,0.179,0.348,0.307,0.569,0.382c0.199,0.108,0.414,0.16,0.645,0.157c0.147-0.015,0.294-0.03,0.442-0.045
						c0.304-0.073,0.57-0.217,0.798-0.432c0.097-0.121,0.194-0.242,0.292-0.363c0.156-0.262,0.239-0.546,0.247-0.852
						C289.301,250.623,289.283,250.187,289.264,249.75z"/>
				</g>
				<path style="fill:#90B9D1;" d="M284.99,220.031c-2.853,26.148-4.57,52.508-5,78.808c-0.121,7.411-0.163,14.85,0.06,22.259
					c0.058,1.919,2.977,1.924,2.986-0.004c0.128-26.307-0.038-52.587,1.326-78.871c0.384-7.401,0.84-14.799,1.336-22.193
					C285.728,219.569,285.038,219.587,284.99,220.031z"/>
				<g>
					<path style="fill:#AC635B;" d="M257.895,226.366c17.027,28.529,60.132,85.668,60.132,85.668l-0.753,0.129
						c-27.169,4.655-46.936-12.736-55.272-39.01l-23.644-39.71L257.895,226.366z"/>
					<g>
						<path style="fill:#AC635B;" d="M249.535,212.111c-0.013-0.016-2.903-4.165-5.247-7.531c-1.746-2.507-4.94-3.551-7.831-2.563
							l-10.863,3.715l4.336,7.916l7.495-1.292L249.535,212.111z"/>
						<path style="fill:#AC635B;" d="M234.067,212.532l-20.189,0.072c-1.292,0.005-2.343-1.039-2.347-2.331l-0.014-3.796
							c-0.005-1.292,1.039-2.343,2.331-2.347l20.189-0.072c1.292-0.005,2.343,1.039,2.348,2.331l0.013,3.796
							C236.402,211.477,235.359,212.527,234.067,212.532z"/>
						
							<rect x="227.268" y="194.463" transform="matrix(0.9662 -0.2578 0.2578 0.9662 -47.1103 66.4394)" style="fill:#263238;" width="5.051" height="36.798"/>
						<path style="fill:#AC635B;" d="M244.287,204.581c0,0,7.987,9.861,13.607,21.786l-4.74,11.236l-27.363-15.113l-12.813-9.531
							c-2.086-1.455-2.694-4.274-1.392-6.459l0,0c1.297-2.175,4.049-2.986,6.318-1.862l8.411,3.911L244.287,204.581z"/>
						<path style="fill:#AC635B;" d="M215.337,213.254c-1.592,0.822-2.511,2.471-2.354,4.129c0.25,2.624,2.216,3.721,4.074,3.807
							c-1.253,0.852-2.031,2.411-1.767,3.831c0.264,1.42,1.425,2.736,2.95,3.343c-0.9,1.29-0.505,3.292,0.772,4.443
							c1.278,1.15,3.075,1.729,4.834,2.08c0,0,13.712,2.729,29.308,2.715L215.337,213.254z"/>
						<g>
							<path style="fill:#A6CCE4;" d="M230.225,174.317c2.762,10.219,0.629,19.881-4.718,22.972
								c-6.173,0.035-12.882-7.237-15.647-17.468c-2.765-10.231-0.632-19.893,4.718-22.972
								C220.754,156.826,227.464,164.098,230.225,174.317z"/>
							<g>
								<path style="fill:#FFFFFF;" d="M221.106,163.221c-0.283-0.251-0.59-0.501-0.96-0.581c-0.37-0.08-0.816,0.067-0.956,0.419
									c-0.086,0.217-0.042,0.46,0.004,0.689c0.683,3.347,1.741,6.617,3.148,9.73c0.468,1.036,1.183,2.627,2.44,2.885
									c1.065,0.219,1.865-0.703,2.088-1.659c0.553-2.372-1.337-5.801-2.564-7.725
									C223.419,165.588,222.343,164.316,221.106,163.221z"/>
								<path style="fill:#FFFFFF;" d="M224.344,179.972c-0.147,0.788,0.12,1.626,0.634,2.241c0.67,0.8,1.876,1.222,2.799,0.735
									c0.428-0.226,0.754-0.621,0.947-1.065c0.364-0.837,0.252-1.862-0.284-2.601
									C227.291,177.696,224.739,177.858,224.344,179.972z"/>
							</g>
							<path style="fill:#263238;" d="M216.364,156.12l-3.708,1.002c-6.656,1.799-9.568,12.41-6.516,23.704
								c3.052,11.294,10.914,18.994,17.569,17.195l3.708-1.002c6.655-1.799,9.568-12.41,6.516-23.704
								C230.881,162.021,223.02,154.321,216.364,156.12z M225.507,197.289c-6.173,0.035-12.882-7.237-15.647-17.468
								c-2.765-10.231-0.632-19.893,4.718-22.972c6.176-0.023,12.886,7.249,15.647,17.468
								C232.987,184.536,230.854,194.198,225.507,197.289z"/>
						</g>
						<path style="fill:#263238;" d="M235.704,206.035c-0.638-0.03-1.184,0.259-1.774,0.478c-0.674,0.249-1.358,0.461-2.046,0.668
							c-1.438,0.432-2.912,0.782-4.393,1.027c-2.86,0.474-5.93,0.804-8.827,0.653c-0.169-0.009-0.242,0.25-0.066,0.302
							c3.025,0.891,5.909,1.292,9.052,0.869c1.504-0.202,2.959-0.547,4.4-1.018c0.775-0.253,1.527-0.568,2.267-0.911
							c0.649-0.301,1.38-0.57,1.806-1.165C236.369,206.593,236.141,206.056,235.704,206.035z"/>
						<g>
							<path style="fill:#824645;" d="M227.782,216.535c-0.908-0.185-1.774-0.107-2.695-0.12c-0.966-0.013-1.93-0.093-2.884-0.243
								c-0.917-0.145-1.82-0.348-2.734-0.508c-0.945-0.166-1.867-0.386-2.762-0.735c-0.307-0.119-0.505,0.384-0.216,0.533
								c0.87,0.451,1.735,0.916,2.637,1.301c0.929,0.397,1.924,0.629,2.921,0.783c0.974,0.15,1.956,0.243,2.941,0.264
								c1.022,0.022,1.96,0.005,2.907-0.404C228.278,217.242,228.166,216.614,227.782,216.535z"/>
							<path style="fill:#824645;" d="M223.993,222.553c-0.373-0.166-0.71-0.345-1.122-0.393c-0.35-0.04-0.699-0.077-1.047-0.129
								c-0.754-0.113-1.508-0.183-2.252-0.356c-0.375-0.087-0.512,0.456-0.15,0.575c0.731,0.242,1.458,0.517,2.212,0.676
								c0.369,0.078,0.74,0.153,1.113,0.207c0.416,0.06,0.788-0.037,1.189-0.138C224.126,222.947,224.19,222.641,223.993,222.553z"
								/>
							<path style="fill:#824645;" d="M221.773,228.491c-0.156-0.068-0.301-0.151-0.454-0.225c-0.207-0.1-0.427-0.121-0.653-0.149
								c-0.378-0.048-0.771-0.038-1.152-0.054c-0.194-0.008-0.359,0.156-0.382,0.34c-0.023,0.18,0.093,0.39,0.285,0.426
								c0.376,0.07,0.753,0.158,1.132,0.206c0.212,0.027,0.441,0.057,0.651,0.01c0.174-0.039,0.342-0.09,0.518-0.124
								C221.908,228.884,221.958,228.573,221.773,228.491z"/>
						</g>
					</g>
					<g>
						<path style="fill:#EBEBEB;" d="M318.026,312.035c30.402-28.186,35.262-93.508,27.798-110.893
							c-5.461-12.721-18.869-11.543-27.934,12.25c-9.065,23.794-12.953,41.121-30.153,74.572L318.026,312.035z"/>
						<path style="fill:#EBEBEB;" d="M318.026,312.035c-32.168,34.188-57.941-4.052-79.634-53.677l24.442-24.033l37.08,43.17
							L318.026,312.035z"/>
						<path style="fill:#DBDBDB;" d="M246.894,261.463c-1.752,2.935,2.733,9.616,5.55,8.79
							C257.091,268.891,249.725,256.72,246.894,261.463z"/>
					</g>
					<path style="fill:#DBDBDB;" d="M348.245,220.929c-0.543,9.104-1.492,18.206-2.846,27.225
						c-1.336,8.904-3.275,17.759-6.197,26.285c-4.942,14.419-13.176,28.011-24.914,37.898c-3.127,2.634-6.507,4.961-10.095,6.922
						c-1.761,0.963-3.574,1.842-5.43,2.607c-1.905,0.786-6.109,2.487-6.109,2.487c-4.526-1.871-8.86-3.973-12.918-6.771
						c-4.293-2.959-8.188-6.481-11.718-10.311c-7.78-8.439-13.7-18.435-19.044-28.538c-3.133-5.924-6.059-11.994-8.867-18.077
						c-0.036-0.079-0.1-0.119-0.168-0.142c0.084-0.058,0.172-0.088,0.252-0.168c8.191-8.259,16.382-16.54,23.758-25.544
						c0.341-0.416-0.176-0.936-0.591-0.59c-8.941,7.449-17.152,15.707-25.341,23.965c-1.173,1.183,0.187,2.887,1.478,2.558
						c-0.017,0.055-0.037,0.11-0.011,0.176c4.507,11.422,8.753,22.967,15.068,33.555c5.717,9.585,13.108,18.258,22.146,24.855
						c2.787,2.034,12.527,8.527,16.606,8.054c3.123-0.362,8.06-2.614,11.192-4.206c3.359-1.708,6.535-3.749,9.529-6.034
						c6.138-4.683,11.41-10.371,15.872-16.66c10.021-14.122,14.952-31.256,17.31-48.23c1.445-10.396,1.789-20.842,2.141-31.317
						C349.373,220.213,348.287,220.225,348.245,220.929z"/>
					<path style="fill:#DBDBDB;" d="M302.934,260.148c1.581-4.228,3.077-8.481,4.489-12.768c2.776-8.431,5.166-17.001,7.298-25.616
						c1.224-4.945,2.245-9.92,3.304-14.901c0.116-0.548-0.704-0.702-0.847-0.169c-4.599,17.216-10.444,34.145-16.661,50.835
						c-0.852,2.286-1.722,4.565-2.611,6.837c-0.769,1.966-1.763,3.99-2.367,6.049c-4.873-5.827-9.742-11.657-14.698-17.413
						c-2.609-3.03-5.218-6.06-7.832-9.085c-2.679-3.1-5.529-6.035-8.225-9.115c-0.474-0.542-1.418,0.265-0.967,0.833
						c2.5,3.152,4.829,6.431,7.353,9.57c2.525,3.142,5.051,6.284,7.588,9.417c5.055,6.242,10.188,12.42,15.321,18.599
						c0.039,0.517,0.283,1.017,0.875,1.324c0.008,0.004,0.015,0.009,0.023,0.013c1.401,2.788,2.81,5.572,4.198,8.366
						c1.463,2.944,2.966,5.88,3.972,9.018c0.155,0.483,0.861,0.239,0.74-0.242c-0.829-3.286-1.426-6.628-2.418-9.873
						c-0.446-1.459-0.974-2.905-1.553-4.331c2.464,1.626,4.817,3.421,7.008,5.398c3.617,3.263,7.068,7.026,9.525,11.252
						c0.306,0.527,1.056,0.015,0.783-0.509c-2.397-4.605-5.024-8.883-8.562-12.711c-3.123-3.379-6.746-6.194-10.686-8.541
						c1.134-1.803,1.795-4.026,2.567-6.001C301.361,264.31,302.155,262.232,302.934,260.148z"/>
				</g>
				<path style="fill:#DBDBDB;" d="M196.409,296.671c-0.601-2.423-1.666-4.807-2.664-7.09c-1.014-2.317-2.149-4.58-3.406-6.776
					c-1.223-2.138-2.559-4.235-4.036-6.208c-1.538-2.056-3.314-3.861-5.042-5.749c-0.562-0.615-1.405,0.278-0.899,0.902
					c1.542,1.901,2.819,4.039,4.142,6.095c1.301,2.021,2.53,4.078,3.649,6.205c1.094,2.079,2.093,4.212,2.963,6.394
					c0.916,2.297,1.549,4.673,2.377,6.995C194.137,299.245,196.883,298.581,196.409,296.671z"/>
				<path style="fill:#DBDBDB;" d="M183.247,283.974c-0.367-1.427-0.734-2.839-1.201-4.237c-0.224-0.672-0.458-1.34-0.702-2.005
					c-0.299-0.816-0.509-1.603-1.305-2.059c-0.632-0.362-1.488-0.009-1.664,0.704c-0.206,0.835,0.142,1.46,0.478,2.208
					c0.31,0.691,0.612,1.387,0.898,2.088c0.537,1.313,1.085,2.63,1.555,3.969c0.973,2.771,1.925,5.579,2.516,8.459
					c0.14,0.682,1.124,0.39,1.026-0.271C184.408,289.856,183.998,286.892,183.247,283.974z"/>
				<path style="fill:#DBDBDB;" d="M157.663,242.621c-3.894,3.114-7.333,6.746-11.053,10.062c-1.837,1.638-3.615,3.314-5.343,5.066
					c-1.812,1.838-5.609,5.094-7.01,7.277c-1.025,1.598,1.096,3.811,2.706,2.698c2.138-1.477,5.752-4.88,7.531-6.757
					c1.743-1.84,3.402-3.733,5.024-5.681c3.21-3.854,6.73-7.438,9.731-11.461C159.982,242.843,158.466,241.979,157.663,242.621z"/>
				<path style="fill:#DBDBDB;" d="M142.483,268.355c-1.751,2.935,2.733,9.616,5.55,8.79
					C152.681,275.783,145.314,263.612,142.483,268.355z"/>
				<path style="fill:#263238;" d="M289.656,668.54l-5.534-25.617c-7.272,0.475-9.143,10.848-17.391,11.331
					c-8.248,0.483-14.588-11.281-19.793-11.28c-7.545,12.496-42.54,17.24-46.236,27.624
					C213.027,677.189,282.639,675.09,289.656,668.54z"/>
			</g>
			<path style="fill:#DBDBDB;" d="M253.384,358.815c-2.645-0.105-5.253-0.065-7.881-0.37c-2.536-0.304-5.055-0.754-7.556-1.294
				c-1.939-0.432-3.842-0.919-5.744-1.478c0.306-1.667,0.593-3.316,0.899-4.965c1.976,0.758,3.969,1.444,5.981,2.075
				c2.446,0.758,4.929,1.388,7.43,1.983c2.392,0.558,4.73,1.243,7.176,1.62C255.084,356.603,254.743,358.85,253.384,358.815z"/>
			<g>
				<path style="fill:none;stroke:#EBEBEB;stroke-miterlimit:10;" d="M255.1,161.599c1.12,6.29-1.885,12.085-6.711,12.944
					c-4.826,0.859-9.646-3.543-10.766-9.833c-1.12-6.29,1.885-12.085,6.711-12.945C249.16,150.907,253.98,155.309,255.1,161.599z"/>
				<path style="fill:none;stroke:#EBEBEB;stroke-miterlimit:10;" d="M282.63,158.793c1.12,6.29-1.885,12.085-6.711,12.944
					c-4.826,0.859-9.646-3.543-10.766-9.833c-1.12-6.29,1.885-12.085,6.711-12.945C276.69,148.1,281.51,152.503,282.63,158.793z"/>
				<path style="fill:none;stroke:#EBEBEB;stroke-miterlimit:10;" d="M254.278,158.715c5.35-1.619,10.641,0.568,10.641,0.568"/>
				<line style="fill:none;stroke:#EBEBEB;stroke-miterlimit:10;" x1="282.63" y1="158.793" x2="295.464" y2="153.076"/>
			</g>
		</g>
	</g>
	<g>
		<path style="fill:#38474F;" d="M442.032,409.053l0.013,9.092l0.013,9.092l-24.08,0.033l-0.008-5.951
			c-0.002-1.735-1.752-3.139-3.908-3.136l-24.025,0.033c-2.156,0.003-3.902,1.412-3.899,3.147l0.008,5.951l-24.081,0.033
			l-0.013-9.092l-0.012-9.092L442.032,409.053z"/>
		<path style="fill:#263238;" d="M363.164,412.76c2.321-0.488,4.893-0.23,7.26-0.251c2.545-0.023,5.091-0.046,7.636-0.067
			c5.014-0.042,10.027-0.038,15.041-0.039c9.95-0.002,19.901-0.004,29.851-0.007c2.777-0.001,5.554,0.018,8.331,0.032
			c2.762,0.014,5.624-0.043,8.245,0.867c0.551,0.191,0.553,0.883,0.001,1.076c-2.272,0.796-4.684,0.834-7.086,0.881
			c-2.544,0.049-5.092,0.048-7.636,0.059c-5.014,0.023-10.028,0.026-15.041,0.038c-9.95,0.025-19.901,0.111-29.851,0.055
			c-2.777-0.016-5.554-0.032-8.331-0.049c-1.389-0.009-2.777-0.017-4.165-0.026c-1.419-0.009-2.857,0.076-4.252-0.213
			C361.953,414.865,361.949,413.015,363.164,412.76z"/>
		<path style="fill:#DBDBDB;" d="M417.363,382.813l-0.011-8.095c-0.002-1.493-0.16-2.981-0.472-4.441l-4.852-22.731
			c-0.714-3.346-3.673-5.736-7.094-5.732l-8.895,0.012l-0.016-11.887l12.244-0.017l8.59-0.012c3.587-0.005,6.827,2.142,8.219,5.448
			l13.889,32.965c1.145,2.718,1.737,5.636,1.741,8.585l0.026,19.189l0.012,8.854l-23.35,0.032l-54.078,0.074l-0.007-5.085
			c-0.003-2.082,1.682-3.772,3.764-3.774l36.992-0.051C411.419,396.137,417.373,390.167,417.363,382.813z"/>
		<path style="fill:#38474F;" d="M358.481,403.889l87.094-0.12c2.337-0.003,4.235,1.889,4.238,4.226l0.001,0.628
			c0.003,2.337-1.889,4.235-4.226,4.238l-87.094,0.12c-2.337,0.003-4.235-1.889-4.238-4.226l-0.001-0.628
			C354.252,405.789,356.144,403.892,358.481,403.889z"/>
		<g>
			
				<rect x="386.939" y="292.981" transform="matrix(-1 0.0014 -0.0014 -1 783.4352 600.9913)" style="fill:#A6CCE4;" width="9.142" height="15.569"/>
			
				<rect x="385.004" y="298.22" transform="matrix(-1 0.0014 -0.0014 -1 783.5745 669.2368)" style="fill:#263238;" width="13.108" height="73.336"/>
			
				<rect x="379.439" y="308.55" transform="matrix(-1 0.0014 -0.0014 -1 783.588 675.015)" style="fill:#EBEBEB;" width="24.245" height="58.455"/>
			<g>
				
					<rect x="382.019" y="351.765" transform="matrix(-1 0.0014 -0.0014 -1 769.5222 709.0743)" style="fill:#FFFFFF;" width="4.995" height="6.077"/>
				
					<rect x="381.986" y="313.685" transform="matrix(-1 0.0014 -0.0014 -1 769.4247 661.973)" style="fill:#FFFFFF;" width="4.995" height="35.134"/>
			</g>
			
				<rect x="388.141" y="384.175" transform="matrix(-1 0.0014 -0.0014 -1 783.8032 779.8005)" style="fill:#263238;" width="6.985" height="11.99"/>
			<g>
				<path style="fill:#A6CCE4;" d="M393.219,328.537c0.008,5.758,4.682,10.419,10.44,10.411c5.758-0.008,10.419-4.682,10.411-10.44
					c-0.008-5.758-4.682-10.419-10.44-10.411C397.873,318.104,393.211,322.779,393.219,328.537z"/>
				<path style="fill:none;stroke:#263238;stroke-miterlimit:10;" d="M397.222,328.531c0.005,3.548,2.885,6.419,6.432,6.415
					c3.547-0.005,6.419-2.885,6.414-6.432c-0.005-3.548-2.885-6.419-6.432-6.415C400.089,322.104,397.217,324.984,397.222,328.531z"
					/>
			</g>
			<path style="fill:#38474F;" d="M375.61,388.203l32.042-0.044c1.404-0.002,2.541-1.142,2.539-2.547l-0.001-0.377
				c-0.002-1.405-1.142-2.542-2.546-2.539l-32.042,0.044c-1.405,0.002-2.542,1.142-2.54,2.546l0.001,0.378
				C373.065,387.068,374.206,388.205,375.61,388.203z"/>
		</g>
	</g>
	<g>
		<g>
			<path style="fill:#263238;" d="M386.001,179.455c-7.044-3.921-15.01-4.244-22.747-5.717c-8.057-1.533-17.997-5.625-18.797-15.077
				c-0.088-1.04-1.511-0.933-1.585,0.067c-0.563,7.628,5.573,14.095,12.149,16.982c7.607,3.339,16.063,3.482,23.876,6.114
				c3.362,1.133,6.624,2.877,9.071,5.483c2.737,2.917,3.739,6.807,3.689,10.727c-0.108,8.561-4.837,16.207-7.128,24.258
				c-2.348,8.251-2.133,19.137,6.153,23.981c1.82,1.064,3.416-1.477,2.074-2.896c-5.392-5.702-5.109-14.035-2.941-21.037
				c2.453-7.923,6.532-15.236,6.922-23.689C397.116,190.441,393.15,183.435,386.001,179.455z"/>
			<path style="fill:#DBDBDB;" d="M370.284,148.399c-1.214,0.079-2.333,0.853-3.407,1.389c-1.023,0.51-2.046,1.02-3.069,1.53
				c-2.217,1.105-4.434,2.21-6.65,3.315c-4.444,2.215-8.848,4.487-13.212,6.855c-1.016,0.551-0.433,2.216,0.679,1.718
				c4.603-2.063,9.151-4.224,13.68-6.446c2.223-1.091,4.445-2.181,6.667-3.272l3.334-1.636c1.042-0.511,2.136-0.891,2.908-1.778
				C371.839,149.356,371.139,148.344,370.284,148.399z"/>
			<path style="fill:#DBDBDB;" d="M371.23,155.36c-1.186-0.048-1.936,0.51-2.969,1.062c-0.928,0.496-1.858,0.985-2.788,1.477
				c-2.093,1.108-4.192,2.203-6.305,3.272c-4.154,2.102-8.369,4.089-12.447,6.335c-1.047,0.576-0.49,2.202,0.701,1.774
				c4.452-1.598,8.727-3.646,12.964-5.74c2.042-1.009,4.076-2.035,6.096-3.087c1.089-0.567,2.169-1.149,3.249-1.733
				c0.973-0.527,1.773-0.865,2.35-1.841C372.424,156.298,371.886,155.387,371.23,155.36z"/>
			<path style="fill:#DBDBDB;" d="M371.137,165.114c-0.375-0.255-0.917-0.44-1.358-0.206c-4.674,2.482-9.385,4.891-14.056,7.38
				c-1.035,0.552-0.466,2.178,0.686,1.737c2.469-0.945,4.898-1.924,7.296-3.038c2.392-1.112,4.74-2.317,7.078-3.54
				c0.399-0.209,0.845-0.573,0.85-1.079C371.638,165.855,371.598,165.427,371.137,165.114z"/>
			<path style="fill:#DBDBDB;" d="M377.8,177.574c-1.727,0.353-3.397,1.768-4.895,2.676c-1.539,0.932-3.071,1.875-4.587,2.844
				c-3.151,2.013-6.242,4.119-9.292,6.281c-0.985,0.698,0.115,2.182,1.105,1.506c3.035-2.074,6.136-4.046,9.291-5.932
				c1.548-0.925,3.108-1.834,4.683-2.714c1.52-0.849,3.539-1.503,4.751-2.758C379.55,178.758,378.776,177.375,377.8,177.574z"/>
			<path style="fill:#DBDBDB;" d="M387.24,182.657c-1.31,0.297-2.223,1.093-3.355,1.772c-1.253,0.752-2.529,1.468-3.787,2.212
				c-2.427,1.435-4.839,2.896-7.235,4.382c-4.885,3.029-9.672,6.187-14.376,9.49c-1.11,0.779,0.114,2.406,1.235,1.684
				c4.746-3.055,9.53-6.062,14.356-8.99c2.324-1.41,4.661-2.796,7.013-4.159c1.265-0.733,2.528-1.479,3.811-2.18
				c1.231-0.674,2.52-1.077,3.511-2.096C389.178,183.985,388.327,182.41,387.24,182.657z"/>
			<path style="fill:#DBDBDB;" d="M392.551,188.914c-2.558,1.166-4.919,3.101-7.231,4.696c-2.423,1.671-4.876,3.307-7.267,5.025
				c-4.782,3.438-9.614,6.8-14.436,10.183c-1.07,0.751,0.105,2.3,1.188,1.619c4.91-3.086,9.784-6.226,14.749-9.223
				c2.434-1.469,4.806-3.049,7.201-4.581c2.412-1.543,5.231-2.989,7.337-4.929C395.327,190.566,394.351,188.094,392.551,188.914z"/>
			<path style="fill:#DBDBDB;" d="M392.982,201.892c-0.556-0.448-1.212-0.366-1.787-0.04c-1.466,0.83-2.764,2.025-4.124,3.019
				c-1.375,1.005-2.77,1.981-4.182,2.932c-2.819,1.897-5.708,3.698-8.64,5.415c-1.035,0.606-0.059,2.389,1.021,1.848
				c3.14-1.572,6.205-3.273,9.2-5.108c1.454-0.891,2.891-1.811,4.312-2.755c1.513-1.006,3.121-1.972,4.423-3.248
				c0.355-0.347,0.406-1.023,0.221-1.458C393.32,202.247,393.193,202.062,392.982,201.892z"/>
			<path style="fill:#DBDBDB;" d="M402.568,215.389c-0.86,0.244-1.598,0.93-2.318,1.446c-0.647,0.464-1.294,0.928-1.941,1.392
				c-1.402,1.005-2.804,2.011-4.206,3.016c-2.805,2.011-5.591,4.044-8.369,6.093c-1.379,1.017,0.165,3.104,1.568,2.138
				c2.843-1.958,5.675-3.93,8.491-5.926c1.408-0.998,2.816-1.995,4.223-2.993c0.65-0.46,1.299-0.921,1.949-1.382
				c0.732-0.519,1.6-0.984,2.117-1.727C404.865,216.32,403.841,215.028,402.568,215.389z"/>
			<path style="fill:#DBDBDB;" d="M415.678,218.639c-1.288,0.433-2.402,1.35-3.549,2.073c-1.256,0.791-2.504,1.592-3.749,2.4
				c-2.399,1.557-4.81,3.097-7.19,4.682c-4.83,3.219-9.813,6.312-14.404,9.868c-1.26,0.976,0.108,2.686,1.425,1.943
				c5.067-2.855,9.861-6.246,14.71-9.451c2.384-1.575,4.738-3.198,7.103-4.802c1.226-0.832,2.448-1.669,3.662-2.518
				c1.116-0.78,2.353-1.452,3.257-2.477C417.715,219.486,416.665,218.307,415.678,218.639z"/>
			<g>
				<path style="fill:#A6CCE4;" d="M407.919,212.466c-9.573-1.891-19.264,0.996-28.874,0.144
					c-7.51-0.666-16.495-4.194-17.918-12.565c-1.518-8.926,4.302-17.074,8.135-24.609c2.346-4.61,4.123-9.527,4.308-14.745
					c0.19-5.362-1.183-10.311-3.684-15.029c-0.603-1.137-2.455-0.475-1.905,0.753c1.938,4.328,2.528,9.341,2.008,14.043
					c-0.507,4.578-2.359,8.735-4.541,12.745c-4.309,7.916-9.737,15.548-9.531,24.977c0.196,8.988,6.878,15.512,15.11,18.033
					c9.201,2.817,18.561,0.952,27.959,0.715c4.818-0.122,9.609,0.414,14.003,2.497c4.195,1.988,6.889,5.192,8.966,9.269
					c1.022,2.006,3.894,1.341,3.803-0.964C425.416,219.015,415.364,213.936,407.919,212.466z"/>
			</g>
		</g>
		<g>
			<path style="fill:#A6CCE4;" d="M123.897,158.785c-1.578,1.044-2.67,2.85-3.772,4.355c-1.186,1.619-2.358,3.25-3.49,4.908
				c-2.238,3.278-4.455,6.563-6.744,9.807c-0.39,0.553,0.428,1.159,0.843,0.625c2.438-3.132,4.937-6.209,7.423-9.304
				c1.226-1.527,2.418-3.082,3.592-4.648c1.145-1.527,2.605-3.137,3.158-4.993C125.098,158.897,124.453,158.418,123.897,158.785z"/>
			<path style="fill:#38474F;" d="M145.594,160.038c-1.779-0.643-3.88-0.441-5.746-0.428c-2.007,0.014-4.015,0.047-6.02,0.128
				c-3.966,0.16-7.926,0.342-11.894,0.441c-0.676,0.017-0.675,1.035,0.002,1.049c3.968,0.087,7.929,0.256,11.895,0.404
				c1.957,0.073,3.916,0.101,5.874,0.109c1.909,0.007,4.072,0.218,5.891-0.446C146.221,161.068,146.221,160.264,145.594,160.038z"/>
			<path style="fill:#38474F;" d="M107.458,143.384c-2.927-1.53-6.54-0.398-8.071,2.529c-1.53,2.927-0.398,6.54,2.529,8.071
				c2.402,1.256,5.264,0.716,7.06-1.134c0.161,0.09,0.318,0.183,0.481,0.271c1.683,0.903,3.393,1.746,5.11,2.583
				c3.387,1.653,6.724,3.405,10.113,5.053c0.764,0.372,1.353-0.753,0.611-1.169c-3.287-1.843-6.631-3.583-9.92-5.422
				c-1.625-0.908-3.251-1.805-4.907-2.655c-0.136-0.07-0.274-0.132-0.41-0.2C111.474,148.41,110.337,144.889,107.458,143.384z"/>
			<path style="fill:#A6CCE4;" d="M122.188,138.69c-0.26-1.22-1.961-1.011-1.917,0.236c0.123,3.514,0.729,7.018,1.213,10.497
				c0.485,3.49,1.093,6.962,1.595,10.45c0.136,0.948,1.573,0.771,1.475-0.182c-0.361-3.505-0.614-7.021-0.991-10.524
				C123.186,145.674,122.923,142.128,122.188,138.69z"/>
			<path style="fill:#A6CCE4;" d="M126.621,154.695c3.082,1.611,4.275,5.417,2.663,8.499c-1.612,3.082-5.417,4.275-8.499,2.663
				c-3.082-1.612-4.275-5.417-2.663-8.499C119.734,154.275,123.539,153.083,126.621,154.695z"/>
			<path style="fill:#A6CCE4;" d="M123.172,134.287c2.605,1.362,3.612,4.577,2.25,7.182c-1.362,2.605-4.577,3.612-7.182,2.25
				c-2.605-1.362-3.612-4.577-2.25-7.182C117.352,133.933,120.567,132.925,123.172,134.287z"/>
			<path style="fill:#A6CCE4;" d="M114.012,172.592c3.056,1.598,4.238,5.37,2.64,8.425c-1.597,3.056-5.37,4.238-8.425,2.64
				c-3.056-1.598-4.238-5.37-2.64-8.425C107.184,172.176,110.956,170.994,114.012,172.592z"/>
			<path style="fill:#38474F;" d="M145.656,157.34c2.306,1.206,3.198,4.053,1.993,6.359s-4.053,3.198-6.359,1.993
				c-2.306-1.206-3.198-4.053-1.993-6.359C140.503,157.026,143.35,156.134,145.656,157.34z"/>
		</g>
	</g>
	<g>
		<g>
			<path style="fill:#EBEBEB;" d="M74.922,246.25c3.389-2.984,7.71-4.108,11.771-5.835c4.228-1.797,9.182-5.219,8.495-10.488
				c-0.076-0.58,0.716-0.691,0.876-0.152c1.216,4.108-1.374,8.377-4.63,10.74c-3.766,2.733-8.378,3.816-12.341,6.186
				c-1.706,1.02-3.284,2.362-4.313,4.08c-1.151,1.922-1.237,4.171-0.743,6.31c1.077,4.673,4.575,8.295,6.787,12.429
				c2.266,4.237,3.443,10.221-0.516,13.857c-0.87,0.799-2.046-0.402-1.48-1.338c2.273-3.762,1.127-8.289-0.893-11.864
				c-2.285-4.045-5.387-7.562-6.606-12.143C70.145,253.585,71.482,249.278,74.922,246.25z"/>
			<path style="fill:#EBEBEB;" d="M79.83,227.382c0.674-0.101,1.378,0.19,2.03,0.355c0.621,0.158,1.241,0.315,1.862,0.473
				c1.345,0.341,2.689,0.682,4.034,1.024c2.696,0.684,5.377,1.403,8.047,2.18c0.621,0.181,0.501,1.162-0.167,1.021
				c-2.765-0.581-5.511-1.223-8.254-1.901c-1.346-0.333-2.692-0.665-4.038-0.998l-2.019-0.499c-0.631-0.156-1.275-0.234-1.803-0.627
				C79.093,228.091,79.356,227.454,79.83,227.382z"/>
			<path style="fill:#EBEBEB;" d="M80.141,231.305c0.644-0.167,1.12,0.049,1.751,0.228c0.567,0.161,1.134,0.318,1.702,0.477
				c1.277,0.357,2.557,0.707,3.84,1.041c2.523,0.657,5.067,1.243,7.566,1.987c0.642,0.191,0.53,1.147-0.173,1.054
				c-2.627-0.345-5.21-0.958-7.778-1.6c-1.238-0.31-2.473-0.629-3.704-0.964c-0.663-0.181-1.324-0.371-1.984-0.562
				c-0.595-0.173-1.074-0.262-1.505-0.728C79.598,231.96,79.784,231.397,80.141,231.305z"/>
			<path style="fill:#EBEBEB;" d="M81.352,236.632c0.175-0.184,0.45-0.35,0.719-0.274c2.854,0.803,5.719,1.561,8.571,2.368
				c0.632,0.179,0.514,1.137-0.169,1.032c-1.464-0.223-2.91-0.47-4.354-0.795c-1.442-0.324-2.87-0.704-4.295-1.096
				c-0.243-0.067-0.53-0.213-0.594-0.489C81.165,237.098,81.136,236.858,81.352,236.632z"/>
			<path style="fill:#EBEBEB;" d="M79.187,244.245c0.987-0.012,2.07,0.564,2.997,0.882c0.953,0.327,1.904,0.661,2.849,1.011
				c1.964,0.727,3.906,1.512,5.833,2.333c0.622,0.265,0.197,1.208-0.425,0.956c-1.908-0.774-3.84-1.485-5.791-2.142
				c-0.958-0.322-1.919-0.634-2.886-0.928c-0.933-0.284-2.116-0.402-2.928-0.944C78.369,245.101,78.629,244.252,79.187,244.245z"/>
			<path style="fill:#EBEBEB;" d="M74.624,248.149c0.752,0.007,1.347,0.334,2.047,0.571c0.775,0.263,1.559,0.503,2.336,0.76
				c1.499,0.497,2.993,1.01,4.481,1.538c3.034,1.077,6.03,2.236,8.997,3.484c0.7,0.295,0.224,1.33-0.476,1.069
				c-2.961-1.108-5.937-2.185-8.927-3.213c-1.439-0.495-2.884-0.976-4.333-1.442c-0.78-0.251-1.56-0.509-2.345-0.74
				c-0.754-0.222-1.507-0.29-2.171-0.729C73.721,249.107,74,248.144,74.624,248.149z"/>
			<path style="fill:#EBEBEB;" d="M72.462,252.206c1.539,0.334,3.061,1.112,4.516,1.71c1.525,0.626,3.062,1.23,4.575,1.886
				c3.026,1.313,6.071,2.578,9.113,3.856c0.675,0.284,0.216,1.271-0.458,1.028c-3.055-1.105-6.095-2.244-9.169-3.294
				c-1.507-0.515-2.993-1.097-4.486-1.651c-1.504-0.558-3.219-1.014-4.602-1.825C71.139,253.44,71.379,251.971,72.462,252.206z"/>
			<path style="fill:#EBEBEB;" d="M73.769,259.361c0.251-0.311,0.62-0.344,0.973-0.234c0.901,0.28,1.754,0.78,2.616,1.162
				c0.872,0.386,1.752,0.755,2.638,1.107c1.769,0.703,3.564,1.345,5.373,1.936c0.639,0.208,0.316,1.3-0.339,1.133
				c-1.906-0.487-3.786-1.053-5.643-1.702c-0.902-0.315-1.798-0.647-2.688-0.995c-0.948-0.371-1.943-0.708-2.807-1.252
				c-0.235-0.148-0.344-0.512-0.295-0.772C73.626,259.595,73.674,259.479,73.769,259.361z"/>
			<path style="fill:#EBEBEB;" d="M70.128,267.888c0.5,0.031,0.985,0.319,1.44,0.516c0.409,0.177,0.819,0.354,1.228,0.531
				c0.887,0.383,1.774,0.767,2.661,1.151c1.774,0.767,3.541,1.549,5.305,2.339c0.875,0.393,0.279,1.718-0.604,1.357
				c-1.789-0.734-3.573-1.476-5.352-2.233c-0.889-0.379-1.778-0.757-2.668-1.136c-0.41-0.175-0.821-0.35-1.231-0.524
				c-0.462-0.197-0.993-0.348-1.364-0.694C68.982,268.671,69.388,267.842,70.128,267.888z"/>
			<path style="fill:#EBEBEB;" d="M63.339,271.226c0.756,0.083,1.475,0.453,2.189,0.712c0.781,0.284,1.56,0.574,2.337,0.868
				c1.498,0.567,3.001,1.123,4.492,1.708c3.027,1.187,6.122,2.288,9.058,3.688c0.806,0.384,0.26,1.483-0.549,1.233
				c-3.113-0.96-6.14-2.246-9.176-3.423c-1.492-0.579-2.973-1.187-4.459-1.783c-0.77-0.309-1.538-0.622-2.304-0.942
				c-0.704-0.294-1.461-0.515-2.077-0.968C62.325,271.932,62.76,271.162,63.339,271.226z"/>
			<g>
				<path style="fill:#EBEBEB;" d="M66.851,266.925c5.015-2.174,10.662-1.746,15.821-3.356c4.031-1.258,8.529-4.258,8.313-9.009
					c-0.231-5.066-4.385-8.834-7.38-12.502c-1.832-2.244-3.39-4.724-4.112-7.558c-0.742-2.912-0.579-5.785,0.229-8.664
					c0.195-0.694,1.287-0.552,1.132,0.186c-0.546,2.599-0.273,5.413,0.571,7.925c0.822,2.446,2.33,4.5,4.001,6.436
					c3.3,3.82,7.179,7.352,8.188,12.537c0.962,4.943-1.919,9.309-6.125,11.667c-4.701,2.636-10.046,2.729-15.218,3.717
					c-2.651,0.506-5.21,1.37-7.367,3.032c-2.059,1.587-3.153,3.661-3.805,6.14c-0.321,1.219-1.971,1.197-2.196-0.075
					C58.054,272.59,62.951,268.615,66.851,266.925z"/>
			</g>
		</g>
		<g>
			<path style="fill:#DBDBDB;" d="M345.794,104.789c1.756-0.626,3.227-2.096,4.638-3.276c1.517-1.269,3.023-2.552,4.498-3.871
				c2.915-2.607,5.813-5.227,8.768-7.79c0.504-0.437-0.135-1.21-0.659-0.797c-3.073,2.421-6.19,4.775-9.299,7.148
				c-1.534,1.171-3.041,2.378-4.535,3.599c-1.456,1.191-3.233,2.386-4.201,4.031C344.672,104.398,345.175,105.009,345.794,104.789z"
				/>
			<path style="fill:#DBDBDB;" d="M334.91,84.623c0.449,1.809,1.766,3.419,2.8,4.939c1.112,1.636,2.24,3.261,3.406,4.859
				c2.306,3.159,4.626,6.302,6.884,9.497c0.385,0.544,1.217-0.015,0.858-0.577c-2.105-3.297-4.138-6.633-6.192-9.961
				c-1.013-1.642-2.065-3.262-3.132-4.869c-1.041-1.567-2.055-3.454-3.595-4.579C335.41,83.545,334.752,83.985,334.91,84.623z"/>
			<path style="fill:#DBDBDB;" d="M357.885,123.407c2.439,2.155,6.164,1.926,8.319-0.514c2.156-2.439,1.926-6.163-0.513-8.319
				c-2.001-1.769-4.867-1.928-7.022-0.582c-0.133-0.124-0.261-0.251-0.396-0.372c-1.397-1.262-2.834-2.472-4.278-3.679
				c-2.85-2.381-5.629-4.846-8.483-7.223c-0.644-0.536-1.472,0.401-0.861,0.974c2.71,2.54,5.498,4.995,8.211,7.53
				c1.34,1.253,2.684,2.494,4.068,3.699c0.113,0.099,0.231,0.191,0.345,0.288C355.23,117.649,355.486,121.286,357.885,123.407z"/>
			<path style="fill:#DBDBDB;" d="M328.617,116.733c-0.901,0.836,0.134,2.17,1.168,1.503c2.911-1.878,5.571-4.16,8.272-6.326
				c2.709-2.172,5.34-4.44,8.039-6.626c0.733-0.594-0.142-1.721-0.898-1.156c-2.784,2.075-5.632,4.064-8.406,6.152
				C334.025,112.363,331.156,114.376,328.617,116.733z"/>
			<path style="fill:#DBDBDB;" d="M342.222,108.059c-2.569-2.27-2.811-6.192-0.541-8.761c2.27-2.569,6.192-2.811,8.761-0.541
				c2.569,2.27,2.811,6.192,0.541,8.761C348.712,110.087,344.79,110.329,342.222,108.059z"/>
			<path style="fill:#DBDBDB;" d="M324.394,118.124c-0.163-2.892,2.05-5.368,4.942-5.53c2.892-0.162,5.368,2.05,5.53,4.942
				c0.162,2.892-2.05,5.368-4.942,5.53C327.032,123.229,324.556,121.016,324.394,118.124z"/>
			<path style="fill:#DBDBDB;" d="M358.513,93.914c-2.546-2.25-2.786-6.138-0.536-8.685c2.25-2.546,6.138-2.786,8.685-0.536
				c2.546,2.25,2.786,6.138,0.536,8.685C364.947,95.924,361.059,96.164,358.513,93.914z"/>
			<path style="fill:#DBDBDB;" d="M332.667,86.051c-0.277-2.55,1.565-4.841,4.114-5.119c2.55-0.277,4.841,1.565,5.119,4.114
				c0.277,2.55-1.565,4.841-4.114,5.119C335.236,90.443,332.944,88.601,332.667,86.051z"/>
		</g>
	</g>
	<g>
		<g>
			<g>
				<path style="fill:#90B9D1;" d="M195.649,364.428c9.229-23.908,10.198-50.916,2.704-75.423
					c-2.456,26.067-6.146,52.017-11.054,77.735L195.649,364.428z"/>
				<path style="fill:#90B9D1;" d="M181.758,358.579c-6.16-20.036-4.349-42.405,4.956-61.189
					c-6.997,20.542,9.014,43.39,2.965,64.231L181.758,358.579z"/>
				<path style="fill:#90B9D1;" d="M222.905,309.783c-12.186,13.671-19.404,9.076-23.823,31.786
					c-0.892,4.584-5.423,21.572,0.457,21.015c5.917-0.561,8.06-18.167,11.053-26.911
					C214.626,323.889,219.486,318.331,222.905,309.783z"/>
				<path style="fill:#A6CCE4;" d="M187.199,356.533c4.743-3.546,7.172-9.517,7.786-15.407c0.615-5.89-0.359-11.815-1.219-17.674
					c-0.86-5.859-1.607-11.849-0.548-17.675c1.214,9.557,7.425,16.775,10.071,26.038c2.62,9.174,0.883,19.493-4.596,27.305
					L187.199,356.533z"/>
				<path style="fill:#A6CCE4;" d="M181.52,362.622c-7.942-14.702-12.275-33.177-6.678-56.82
					c5.642,15.975,13.876,55.695,13.876,55.695L181.52,362.622z"/>
			</g>
			<path style="fill:#DBDBDB;" d="M207.476,354.128l-2.319,15.028l-1.896,12.359c-0.157,1.012-1.033,1.768-2.057,1.77l-21.886,0.03
				c-1.048,0.001-1.939-0.777-2.074-1.825l-3.584-27.364c-0.16-1.255,0.813-2.353,2.068-2.355l29.685-0.041
				C206.692,351.728,207.669,352.86,207.476,354.128z"/>
			<path style="fill:#EBEBEB;" d="M207.476,354.128l-2.319,15.028c-4.244-2.821-9.028-7.981-12.661-17.408l12.917-0.018
				C206.692,351.728,207.669,352.86,207.476,354.128z"/>
		</g>
	</g>
	<g>
		<path style="fill:#DBDBDB;" d="M58.852,391.241l0.051,36.792l77.325-0.107l-0.051-36.792L58.852,391.241z M113.096,421.282
			l-46.435,0.064l-0.032-23.44l46.435-0.064L113.096,421.282z"/>
		
			<rect x="66.645" y="397.898" transform="matrix(1 -0.0014 0.0014 1 -0.5653 0.1)" style="fill:#DBDBDB;" width="11.085" height="23.44"/>
		<path style="fill:#FFFFFF;" d="M83.635,379.606l-8.058,0.011c-1.277,0.002-2.31,1.038-2.309,2.315
			c0.002,1.277,1.038,2.31,2.315,2.309l0.285,0l0.049,35.394c0.003,2.068,1.681,3.742,3.749,3.739
			c2.068-0.003,3.742-1.682,3.739-3.749l-0.049-35.394l0.285,0c1.277-0.002,2.31-1.038,2.309-2.315
			C85.948,380.638,84.912,379.604,83.635,379.606z"/>
		<path style="fill:#FFFFFF;" d="M98.929,379.585l-8.058,0.011c-1.277,0.002-2.31,1.038-2.309,2.315
			c0.002,1.277,1.038,2.311,2.315,2.309l0.285,0l0.049,35.394c0.003,2.068,1.681,3.742,3.749,3.739
			c2.068-0.003,3.742-1.681,3.739-3.749l-0.049-35.394l0.285,0c1.277-0.002,2.31-1.038,2.309-2.315
			C101.242,380.617,100.206,379.583,98.929,379.585z"/>
		<path style="fill:#FFFFFF;" d="M114.223,379.564l-8.058,0.011c-1.277,0.002-2.31,1.038-2.309,2.315
			c0.002,1.277,1.038,2.31,2.315,2.309l0.285,0l0.049,35.394c0.003,2.068,1.681,3.742,3.749,3.739
			c2.068-0.003,3.742-1.681,3.739-3.749l-0.049-35.394l0.285,0c1.277-0.002,2.31-1.038,2.309-2.315
			C116.536,380.596,115.5,379.562,114.223,379.564z"/>
		<g>
			<g>
				<path style="fill:#A6CCE4;" d="M83.359,387.801l0.044,31.827c0.003,2.066-1.669,3.743-3.736,3.746
					c-2.066,0.003-3.743-1.669-3.746-3.736l-0.044-31.827L83.359,387.801z"/>
				<path style="fill:none;stroke:#EBEBEB;stroke-linecap:round;stroke-linejoin:round;stroke-miterlimit:10;" d="M83.635,379.606
					l-8.058,0.011c-1.277,0.002-2.31,1.038-2.309,2.315c0.002,1.277,1.038,2.31,2.315,2.309l0.285,0l0.049,35.394
					c0.003,2.068,1.681,3.742,3.749,3.739c2.068-0.003,3.742-1.682,3.739-3.749l-0.049-35.394l0.285,0
					c1.277-0.002,2.31-1.038,2.309-2.315C85.948,380.638,84.912,379.604,83.635,379.606z"/>
			</g>
			<g>
				<path style="fill:#263238;" d="M98.679,406.186l0.019,13.421c0.003,2.066-1.669,3.743-3.736,3.746
					c-2.066,0.003-3.743-1.669-3.746-3.736l-0.019-13.421L98.679,406.186z"/>
				<path style="fill:none;stroke:#EBEBEB;stroke-linecap:round;stroke-linejoin:round;stroke-miterlimit:10;" d="M98.929,379.585
					l-8.058,0.011c-1.277,0.002-2.31,1.038-2.309,2.315c0.002,1.277,1.038,2.311,2.315,2.309l0.285,0l0.049,35.394
					c0.003,2.068,1.681,3.742,3.749,3.739c2.068-0.003,3.742-1.681,3.739-3.749l-0.049-35.394l0.285,0
					c1.277-0.002,2.31-1.038,2.309-2.315C101.242,380.617,100.206,379.583,98.929,379.585z"/>
			</g>
			<g>
				<path style="fill:#38474F;" d="M113.958,395.462l0.033,24.124c0.003,2.066-1.669,3.743-3.736,3.746
					c-2.066,0.003-3.743-1.669-3.746-3.735l-0.033-24.124L113.958,395.462z"/>
				<path style="fill:none;stroke:#EBEBEB;stroke-linecap:round;stroke-linejoin:round;stroke-miterlimit:10;" d="M114.223,379.564
					l-8.058,0.011c-1.277,0.002-2.31,1.038-2.309,2.315c0.002,1.277,1.038,2.31,2.315,2.309l0.285,0l0.049,35.394
					c0.003,2.068,1.681,3.742,3.749,3.739c2.068-0.003,3.742-1.681,3.739-3.749l-0.049-35.394l0.285,0
					c1.277-0.002,2.31-1.038,2.309-2.315C116.536,380.596,115.5,379.562,114.223,379.564z"/>
			</g>
		</g>
		<path style="fill:#EBEBEB;" d="M58.852,391.241l0.051,36.792l61.97-0.085l-0.051-36.792L58.852,391.241z M113.096,421.282
			l-46.435,0.064l-0.032-23.44l46.435-0.064L113.096,421.282z"/>
	</g>
	<g>
		<g>
			<path style="fill:#38474F;" d="M214.527,403.217l-81.044,0.112l-0.028-20.45l81.044-0.112c4.542-0.006,8.229,3.671,8.235,8.212
				l0.005,4.003C222.746,399.524,219.069,403.211,214.527,403.217z"/>
			<path style="fill:#263238;" d="M167.428,403.282l-33.945,0.047l-0.028-20.45l33.945-0.047c4.542-0.006,8.229,3.671,8.235,8.212
				l0.005,4.003C175.647,399.589,171.97,403.276,167.428,403.282z"/>
			<path style="fill:#EBEBEB;" d="M166.335,400.044l-32.908,0.045l-0.019-13.972l32.908-0.045c3.103-0.004,5.622,2.508,5.626,5.611
				l0.004,2.735C171.949,397.521,169.438,400.04,166.335,400.044z"/>
			<path style="fill:#DBDBDB;" d="M168.783,390.029c-1.354-0.283-2.568-0.387-3.957-0.434c-1.462-0.05-2.924-0.076-4.382-0.224
				c-2.999-0.303-5.998-0.283-9.006-0.317c-2.918-0.033-5.846-0.103-8.763,0.001c-2.81,0.1-5.913-0.129-8.617,0.854
				c-0.377,0.137-0.376,0.762,0.001,0.898c2.64,0.952,5.636,0.721,8.376,0.82c2.998,0.109,6.007,0.029,9.006-0.013
				c2.925-0.041,5.847-0.014,8.762-0.317c1.459-0.151,2.918-0.195,4.381-0.252c0.73-0.028,1.46-0.036,2.19-0.053
				c0.707-0.017,1.318-0.254,2.009-0.401C169.022,390.542,169.021,390.078,168.783,390.029z"/>
			<path style="fill:#DBDBDB;" d="M170.745,395.185c-1.199-0.642-2.667-0.572-3.963-0.589c-1.55-0.02-3.1-0.032-4.65-0.035
				c-3.1-0.005-6.2-0.01-9.3-0.016c-3.019-0.005-6.037,0.018-9.055,0.042c-3.02,0.025-6.276-0.29-9.253,0.359
				c-0.758,0.165-0.756,1.633,0.002,1.796c2.901,0.624,6.068,0.316,9.009,0.332c3.1,0.016,6.2,0.033,9.3,0.019
				c3.018-0.014,6.037-0.027,9.055-0.04c1.55-0.007,3.1-0.021,4.65-0.045c1.371-0.021,2.938,0.08,4.206-0.603
				C171.141,396.191,171.139,395.396,170.745,395.185z"/>
			<path style="fill:#263238;" d="M211.923,392.989c0.004,2.819-0.953,5.383-2.5,7.249c-1.566,1.842-3.722,2.987-6.095,2.99
				l-9.139,0.013c2.373-0.003,4.529-1.148,6.095-2.99c1.547-1.866,2.504-4.43,2.5-7.249c-0.008-5.638-3.858-10.222-8.623-10.215
				l9.139-0.013C208.066,382.767,211.916,387.351,211.923,392.989z"/>
			<path style="fill:#263238;" d="M197.711,393.008c0.004,2.819-0.953,5.383-2.5,7.249c-1.566,1.842-3.722,2.987-6.095,2.99
				l-9.139,0.013c2.373-0.003,4.529-1.148,6.095-2.99c1.547-1.866,2.504-4.43,2.5-7.249c-0.008-5.638-3.858-10.222-8.623-10.215
				l9.139-0.013C193.853,382.786,197.703,387.37,197.711,393.008z"/>
		</g>
		<g>
			<path style="fill:#263238;" d="M216.752,427.685l-91.14,0.125l-0.034-24.47l91.14-0.125c5.435-0.007,9.846,4.392,9.854,9.827
				l0.007,4.79C226.586,423.266,222.187,427.677,216.752,427.685z"/>
			<path style="fill:#38474F;" d="M169.653,427.75l-44.041,0.061l-0.034-24.47l44.041-0.061c5.435-0.007,9.846,4.392,9.854,9.827
				l0.007,4.79C179.488,423.331,175.088,427.742,169.653,427.75z"/>
			<path style="fill:#EBEBEB;" d="M169.071,423.875l-43.489,0.06l-0.023-16.719l43.489-0.06c3.713-0.005,6.727,3.001,6.732,6.714
				l0.005,3.272C175.79,420.855,172.784,423.87,169.071,423.875z"/>
			<path style="fill:#DBDBDB;" d="M172.622,411.889c-1.354-0.339-2.568-0.463-3.957-0.52c-1.462-0.06-2.924-0.092-4.382-0.269
				c-2.999-0.363-5.998-0.341-9.006-0.382c-2.918-0.04-17.558-0.108-20.475,0.015c-2.81,0.119-5.913-0.156-8.617,1.019
				c-0.377,0.164-0.376,0.911,0.001,1.074c2.641,1.14,5.636,0.864,8.376,0.984c2.998,0.131,17.72,0.02,20.718-0.03
				c2.925-0.048,5.847-0.016,8.762-0.377c1.459-0.181,2.918-0.232,4.381-0.3c0.73-0.034,1.46-0.043,2.191-0.064
				c0.708-0.019,1.318-0.303,2.009-0.478C172.86,412.503,172.86,411.948,172.622,411.889z"/>
			<path style="fill:#DBDBDB;" d="M174.585,418.059c-1.199-0.769-2.667-0.685-3.963-0.705c-1.55-0.024-3.1-0.039-4.65-0.043
				c-3.1-0.007-6.2-0.014-9.3-0.022c-3.019-0.007-17.749,0.036-20.768,0.064c-3.02,0.028-6.276-0.349-9.253,0.426
				c-0.758,0.197-0.756,1.954,0.003,2.149c2.901,0.747,6.068,0.38,9.009,0.399c3.1,0.02,17.912,0.025,21.012,0.009
				c3.018-0.015,6.037-0.031,9.055-0.046c1.55-0.008,3.1-0.024,4.65-0.052c1.371-0.025,2.938,0.097,4.206-0.721
				C174.981,419.264,174.979,418.312,174.585,418.059z"/>
			<path style="fill:#38474F;" d="M213.522,424.132c-1.566,2.192-3.721,3.569-6.094,3.573l4.256-0.006
				c2.373-0.003,4.528-1.381,6.094-3.572c1.546-2.239,2.503-5.315,2.498-8.67c-0.009-6.756-3.861-12.249-8.626-12.242l-4.255,0.006
				c4.766-0.007,8.617,5.486,8.626,12.242C216.025,418.817,215.069,421.893,213.522,424.132z"/>
			<path style="fill:#38474F;" d="M182.754,424.175c-1.566,2.192-3.721,3.569-6.094,3.573l4.255-0.006
				c2.373-0.003,4.529-1.381,6.094-3.573c1.546-2.239,2.503-5.315,2.498-8.67c-0.009-6.756-3.861-12.249-8.626-12.242l-4.256,0.006
				c4.766-0.007,8.617,5.486,8.626,12.242C185.257,418.859,184.3,421.936,182.754,424.175z"/>
		</g>
	</g>
	<g>
		<path style="fill:#FFFFFF;stroke:#DBDBDB;stroke-miterlimit:10;" d="M213.539,85.913c-13.234-13.127-34.604-13.039-47.731,0.195
			c-13.127,13.234-13.039,34.604,0.195,47.731c11.092,11.002,27.896,12.716,40.775,5.192l17.148,4.722l-4.862-17.109
			C226.482,113.705,224.631,96.915,213.539,85.913z"/>
		<g>
			<path style="fill:#38474F;" d="M188.729,88.157c-1.527-0.673-3.123-1.108-4.737-1.316c-0.223,1.985-1.773,3.635-3.842,3.886
				c-2.07,0.251-3.969-0.98-4.66-2.855c-1.517,0.588-2.963,1.392-4.285,2.41c1.249,1.562,1.315,3.83,0.028,5.472
				c-1.287,1.643-3.505,2.121-5.32,1.281c-0.673,1.527-1.108,3.123-1.316,4.737c1.986,0.223,3.635,1.773,3.886,3.842
				c0.251,2.07-0.98,3.969-2.855,4.66c0.588,1.517,1.392,2.963,2.411,4.285c1.562-1.249,3.829-1.315,5.472-0.028
				c1.643,1.287,2.121,3.505,1.281,5.32c1.527,0.673,3.123,1.108,4.737,1.316c0.223-1.986,1.773-3.635,3.842-3.886
				c2.07-0.251,3.969,0.98,4.66,2.855c1.517-0.588,2.963-1.392,4.285-2.41c-1.249-1.562-1.315-3.829-0.028-5.472
				c1.287-1.642,3.505-2.121,5.32-1.281c0.673-1.527,1.108-3.123,1.316-4.737c-1.986-0.223-3.635-1.773-3.886-3.842
				c-0.251-2.07,0.98-3.969,2.855-4.66c-0.588-1.517-1.392-2.963-2.411-4.285c-1.562,1.249-3.829,1.315-5.472,0.028
				C188.368,92.189,187.89,89.972,188.729,88.157z M186.24,107.515c-1.939,2.474-5.516,2.908-7.99,0.969
				c-2.474-1.939-2.908-5.516-0.969-7.991c1.939-2.474,5.516-2.908,7.991-0.969C187.745,101.463,188.179,105.04,186.24,107.515z"/>
			<path style="fill:#A6CCE4;" d="M214.188,122.695c0.132-1.117,0.098-2.231-0.087-3.312c-1.323,0.248-2.692-0.425-3.262-1.709
				c-0.57-1.284-0.152-2.75,0.92-3.566c-0.678-0.862-1.482-1.634-2.399-2.285c-0.76,1.113-2.208,1.603-3.52,1.098
				c-1.312-0.505-2.058-1.84-1.875-3.175c-1.117-0.132-2.231-0.098-3.312,0.087c0.248,1.323-0.425,2.692-1.709,3.262
				c-1.284,0.57-2.75,0.152-3.566-0.92c-0.862,0.678-1.634,1.482-2.285,2.399c1.113,0.76,1.603,2.208,1.098,3.52
				c-0.505,1.312-1.84,2.058-3.175,1.875c-0.132,1.117-0.098,2.231,0.087,3.312c1.323-0.248,2.692,0.425,3.262,1.709
				c0.57,1.284,0.152,2.75-0.92,3.566c0.678,0.861,1.482,1.634,2.399,2.285c0.76-1.113,2.208-1.603,3.52-1.098
				c1.312,0.505,2.058,1.84,1.875,3.175c1.117,0.132,2.231,0.098,3.312-0.087c-0.248-1.323,0.425-2.692,1.709-3.262
				c1.284-0.57,2.75-0.152,3.566,0.92c0.861-0.678,1.634-1.482,2.285-2.399c-1.113-0.76-1.603-2.208-1.098-3.52
				C211.518,123.258,212.853,122.513,214.188,122.695z M201.224,124.912c-1.977-0.761-2.962-2.98-2.201-4.957
				c0.761-1.977,2.98-2.962,4.957-2.201s2.962,2.98,2.201,4.957C205.42,124.687,203.201,125.673,201.224,124.912z"/>
		</g>
	</g>
	<line style="fill:none;stroke:#263238;stroke-miterlimit:10;" x1="39.053" y1="427.813" x2="460.947" y2="427.232"/>
	<g>
		<path style="fill:#F4F4F4;" d="M74.601,181.322c-3.836,0-3.838,5.953,0,5.953C78.437,187.275,78.439,181.322,74.601,181.322z"/>
		<path style="fill:#F4F4F4;" d="M252.386,71.967c-3.836,0-3.838,5.953,0,5.953C256.222,77.92,256.224,71.967,252.386,71.967z"/>
		<path style="fill:#F4F4F4;" d="M415.025,146.422c-3.836,0-3.838,5.953,0,5.953C418.861,152.375,418.863,146.422,415.025,146.422z"
			/>
		<path style="fill:#F4F4F4;" d="M421.148,295.817c-3.836,0-3.838,5.953,0,5.953C424.984,301.77,424.986,295.817,421.148,295.817z"
			/>
		<path style="fill:#F4F4F4;" d="M99.704,339.901c-3.836,0-3.838,5.953,0,5.953C103.54,345.854,103.542,339.901,99.704,339.901z"/>
		<path style="fill:#FFFFFF;" d="M307.878,102.951c-3.836,0-3.838,5.953,0,5.953C311.714,108.904,311.715,102.951,307.878,102.951z"
			/>
		<path style="fill:#FFFFFF;" d="M186.035,224.793c-3.836,0-3.838,5.953,0,5.953C189.871,230.747,189.872,224.793,186.035,224.793z"
			/>
		<path style="fill:#FFFFFF;" d="M185.423,151.32c-3.836,0-3.838,5.953,0,5.953C189.259,157.274,189.26,151.32,185.423,151.32z"/>
		<path style="fill:#FFFFFF;" d="M140.596,324.895c-3.836,0-3.838,5.953,0,5.953C144.432,330.848,144.433,324.895,140.596,324.895z"
			/>
		<path style="fill:#FFFFFF;" d="M124.559,240.155c-3.836,0-3.838,5.953,0,5.953C128.395,246.108,128.396,240.155,124.559,240.155z"
			/>
		<path style="fill:#FFFFFF;" d="M226.445,333.778c-3.836,0-3.838,5.953,0,5.953C230.281,339.731,230.283,333.778,226.445,333.778z"
			/>
		<path style="fill:#FFFFFF;" d="M367.88,271.326c-3.836,0-3.838,5.953,0,5.953C371.716,277.279,371.718,271.326,367.88,271.326z"/>
		<path style="fill:#FFFFFF;" d="M328.082,170.301c-3.836,0-3.838,5.953,0,5.953C331.918,176.254,331.92,170.301,328.082,170.301z"
			/>
		<path style="fill:#FFFFFF;" d="M386.249,161.117c-3.836,0-3.838,5.953,0,5.953C390.085,167.07,390.086,161.117,386.249,161.117z"
			/>
		<path style="fill:#FFFFFF;" d="M367.88,319.084c-3.836,0-3.838,5.953,0,5.953C371.716,325.037,371.718,319.084,367.88,319.084z"/>
	</g>
</g>
</svg>
