<svg id="Layer_1" enable-background="new 0 0 512 512" height="512" viewBox="0 0 512 512" width="512" xmlns="http://www.w3.org/2000/svg"><g fill="#e8916f"><ellipse cx="276.153" cy="187.76" rx="25.755" ry="32.966"/><ellipse cx="28.91" cy="187.76" rx="25.755" ry="32.966"/><path d="m123.622 297.77h61.811v103.018h-61.811z"/></g><path d="m43.268 203.533v-82.635c0-57.951 46.979-104.93 104.93-104.93h12.659c57.951 0 104.93 46.979 104.93 104.93v82.635c0 61.407-49.78 111.187-111.187 111.187h-.145c-61.407 0-111.187-49.78-111.187-111.187z" fill="#ebad88"/><path d="m160.856 15.968h-12.658c-3.075 0-6.116.14-9.123.399 53.678 4.624 95.807 49.654 95.807 104.531v82.635c0 56.187-41.68 102.632-95.807 110.123 5.028.696 10.161 1.064 15.38 1.064h.145c61.407 0 111.187-49.78 111.187-111.187v-82.635c0-57.951-46.979-104.93-104.931-104.93z" fill="#e8916f"/><path d="m94.777 357.473h119.501c52.344 0 94.777 42.433 94.777 94.777v53.569c0 3.414-2.767 6.181-6.181 6.181h-296.693c-3.414 0-6.181-2.767-6.181-6.181v-53.569c0-52.344 42.433-94.777 94.777-94.777z" fill="#26c6da"/><path d="m214.278 357.473h-30.905c52.344 0 94.777 42.433 94.777 94.777v59.75h24.724c3.414 0 6.181-2.767 6.181-6.181v-53.569c-.001-52.344-42.434-94.777-94.777-94.777z" fill="#00bcd4"/><path d="m122.485 339.422-20.019 16.68c-.899.749-.994 2.094-.211 2.963l28.621 31.73c.92 1.02 2.562.871 3.284-.298l20.369-33.022-29.645-18.224c-.755-.465-1.72-.396-2.399.171z" fill="#fbf2df"/><path d="m186.57 339.422 20.019 16.68c.899.749.994 2.094.211 2.963l-28.621 31.73c-.92 1.02-2.562.871-3.284-.298l-20.369-33.022 29.645-18.224c.754-.465 1.719-.396 2.399.171z" fill="#fbf2df"/><path d="m216.371 64.588c-3.536-3.217-9.176-1.265-10.085 3.429-3.128 16.151-18.072 43.212-84.544 33.506-38.674-5.647-75.194 32.924-78.266 64.967-.094.977-1.394 1.249-1.86.385-1.873-3.474-5.634-8.543-12.707-12.081 0 0-12.721-44.684-4.157-83.306 7.885-35.551 54.588-71.488 125.616-71.488 36.995 0 52.333 9.145 58.113 14.438 2.435 2.23 5.511 3.641 8.803 3.893 15.26 1.165 56.591 8.29 65.519 51.101 7.396 35.461-3.639 56.201-6.651 85.363-4.762 3.567-8.119 10.506-9.567 13.944-.331.785-1.423.82-1.806.06-4.075-8.089-19.311-39.438-23.277-63.576-2.897-17.639-15.92-32.254-25.131-40.635z" fill="#7d4d3d"/><path d="m282.803 69.432c-8.928-42.811-50.258-49.936-65.518-51.101-3.293-.251-6.37-1.665-8.806-3.895-5.782-5.294-21.121-14.436-58.111-14.436-5.265 0-10.379.22-15.371.6 25.934 2.116 37.684 9.355 42.578 13.837 2.436 2.231 5.513 3.643 8.806 3.894 15.261 1.165 56.589 8.291 65.517 51.101 5.372 25.757 1.02 43.749-2.918 62.842 5.895 16.397 13.168 31.298 15.798 36.52.383.761 1.477.729 1.808-.056 1.448-3.438 4.805-10.377 9.567-13.943 3.011-29.162 14.046-49.902 6.65-85.363z" fill="#704537"/><path d="m512 16.462v292.613c0 9.092-7.368 16.462-16.457 16.462h-139.928c-9.089 0-16.457-7.37-16.457-16.462v-29.419c0-2.102-1.85-3.723-3.933-3.447l-47.854 6.34c-1.727.229-2.713-1.912-1.416-3.076l50.934-45.742c1.444-1.297 2.27-3.148 2.27-5.089v-212.18c-.001-9.092 7.367-16.462 16.456-16.462h139.928c9.089 0 16.457 7.37 16.457 16.462z" fill="#fbf2df"/><path d="m495.543 0h-30.905c9.089 0 16.457 7.37 16.457 16.462v292.613c0 9.092-7.368 16.462-16.457 16.462h30.905c9.089 0 16.457-7.37 16.457-16.462v-292.613c0-9.092-7.368-16.462-16.457-16.462z" fill="#f2e5ce"/><path d="m409.991 53.752h64.75c4.143 0 7.5-3.358 7.5-7.5s-3.357-7.5-7.5-7.5h-64.75c-4.143 0-7.5 3.358-7.5 7.5s3.358 7.5 7.5 7.5z" fill="#7d4d3d"/><path d="m474.741 74.809h-92.717c-4.143 0-7.5 3.358-7.5 7.5s3.357 7.5 7.5 7.5h92.717c4.143 0 7.5-3.358 7.5-7.5s-3.357-7.5-7.5-7.5z" fill="#7d4d3d"/><path d="m474.741 110.865h-92.717c-4.143 0-7.5 3.358-7.5 7.5s3.357 7.5 7.5 7.5h92.717c4.143 0 7.5-3.358 7.5-7.5s-3.357-7.5-7.5-7.5z" fill="#7d4d3d"/><path d="m466.949 282.101h-79.879c-8.666 0-15.69-7.025-15.69-15.69v-95.678c0-8.666 7.025-15.69 15.69-15.69h79.879c8.666 0 15.69 7.025 15.69 15.69v95.678c.001 8.666-7.024 15.69-15.69 15.69z" fill="#e7387f"/><path d="m427.01 173.825c-4.143 0-7.5 3.358-7.5 7.5v43.109c0 4.142 3.357 7.5 7.5 7.5s7.5-3.358 7.5-7.5v-43.109c0-4.142-3.358-7.5-7.5-7.5z" fill="#ffd740"/><path d="m427.01 238.912c-4.143 0-7.5 3.358-7.5 7.5v4.438c0 4.142 3.357 7.5 7.5 7.5s7.5-3.358 7.5-7.5v-4.438c0-4.142-3.358-7.5-7.5-7.5z" fill="#ffd740"/><circle cx="154.527" cy="444.36" fill="#fbf2df" r="16.483"/></svg>