<svg height="512pt" viewBox="-17 0 512 512.00041" width="512pt" xmlns="http://www.w3.org/2000/svg"><path d="m464.402344 252.300781h-451.257813c-7.25 0-13.144531 5.894531-13.144531 13.144531v23.699219c0 7.25 5.894531 13.144531 13.144531 13.144531h451.257813c7.246094 0 13.144531-5.894531 13.144531-13.144531v-23.699219c0-7.25-5.898437-13.144531-13.144531-13.144531zm0 0" fill="#dce6eb"/><path d="m464.402344 252.300781h-26.855469v16.84375c0 7.25-5.898437 13.144531-13.144531 13.144531h-424.402344v6.855469c0 7.25 5.894531 13.144531 13.144531 13.144531h451.257813c7.246094 0 13.144531-5.894531 13.144531-13.144531v-23.699219c0-7.25-5.898437-13.144531-13.144531-13.144531zm0 0" fill="#b9c3cd"/><path d="m460.460938 302.289062h-443.375v203.738282c0 3.296875 2.671874 5.972656 5.972656 5.972656h431.429687c3.300781 0 5.972657-2.675781 5.972657-5.972656zm0 0" fill="#dce6eb"/><path d="m420.460938 302.289062v115.382813c0 41.050781-33.277344 74.328125-74.328126 74.328125h-329.046874v14.027344c0 3.296875 2.671874 5.972656 5.972656 5.972656h431.429687c3.300781 0 5.972657-2.675781 5.972657-5.972656v-203.738282zm0 0" fill="#b9c3cd"/><path d="m194.664062 371.546875h-108.65625c-1.265624 0-2.292968-1.027344-2.292968-2.296875v-22.332031c0-1.265625 1.027344-2.292969 2.292968-2.292969h108.65625c1.265626 0 2.296876 1.027344 2.296876 2.292969v22.332031c0 1.269531-1.027344 2.296875-2.296876 2.296875zm0 0" fill="#78909c"/><path d="m224.15625 429.441406h-167.636719c-1.269531 0-2.296875-1.027344-2.296875-2.296875v-22.332031c0-1.265625 1.027344-2.296875 2.296875-2.296875h167.636719c1.265625 0 2.296875 1.03125 2.296875 2.296875v22.332031c0 1.269531-1.03125 2.296875-2.296875 2.296875zm0 0" fill="#78909c"/><path d="m194.664062 344.625h-37.703124v1.367188c0 5.828124-4.726563 10.554687-10.558594 10.554687h-62.6875v12.703125c0 1.269531 1.027344 2.296875 2.292968 2.296875h108.65625c1.265626 0 2.296876-1.027344 2.296876-2.296875v-22.332031c0-1.265625-1.027344-2.292969-2.296876-2.292969zm0 0" fill="#546e7a"/><path d="m224.15625 402.515625h-37.703125v1.367187c0 5.832032-4.726563 10.558594-10.558594 10.558594h-121.671875v12.703125c0 1.269531 1.027344 2.296875 2.296875 2.296875h167.636719c1.265625 0 2.296875-1.027344 2.296875-2.296875v-22.332031c0-1.269531-1.03125-2.296875-2.296875-2.296875zm0 0" fill="#546e7a"/><path d="m420.351562 382.371094h-31.804687c-1.640625 0-2.96875-1.328125-2.96875-2.96875v-31.804688c0-1.644531-1.332031-2.972656-2.972656-2.972656h-43.601563c-1.644531 0-2.972656 1.332031-2.972656 2.972656v31.804688c0 1.640625-1.332031 2.96875-2.972656 2.96875h-31.804688c-1.644531 0-2.972656 1.332031-2.972656 2.972656v43.601562c0 1.640626 1.332031 2.972657 2.972656 2.972657h31.804688c1.640625 0 2.96875 1.332031 2.96875 2.972656v31.804687c0 1.640626 1.332031 2.96875 2.972656 2.96875h43.601562c1.644532 0 2.972657-1.328124 2.972657-2.96875v-31.804687c0-1.640625 1.332031-2.972656 2.972656-2.972656h31.804687c1.640626 0 2.96875-1.332031 2.96875-2.972657v-43.601562c.003907-1.640625-1.324218-2.972656-2.96875-2.972656zm0 0" fill="#e04955"/><path d="m420.351562 382.371094h-27.027343v14.015625c0 8.578125-6.953125 15.53125-15.53125 15.53125h-6.6875c-8.578125 0-15.53125 6.953125-15.53125 15.53125v6.6875c0 8.578125-6.953125 15.53125-15.53125 15.53125h-4.015625v17.027343c0 1.640626 1.332031 2.972657 2.972656 2.972657h43.601562c1.644532 0 2.972657-1.332031 2.972657-2.972657v-31.804687c0-1.640625 1.332031-2.972656 2.972656-2.972656h31.804687c1.640626 0 2.96875-1.332031 2.96875-2.972657v-43.601562c.003907-1.640625-1.324218-2.972656-2.96875-2.972656zm0 0" fill="#c62430"/><path d="m316.074219 162.011719h-45.527344c-2.484375 0-4.496094-2.015625-4.496094-4.5v-18.117188c-9.351562 6.398438-19.679687 10.0625-26.675781 10.0625s-17.324219-3.664062-26.675781-10.0625v18.117188c0 2.484375-2.015625 4.5-4.5 4.5h-45.527344c-17.359375 0-31.429687 14.070312-31.429687 31.429687v58.859375h216.261718v-58.859375c.003906-17.359375-14.070312-31.429687-31.429687-31.429687zm0 0" fill="#78c2a4"/><path d="m316.074219 162.011719h-10.722657c1.386719 3.542969 2.15625 7.394531 2.15625 11.429687v13.746094c0 24.914062-20.199218 45.113281-45.113281 45.113281h-131.152343v20h216.265624v-58.859375c0-17.359375-14.074218-31.429687-31.433593-31.429687zm0 0" fill="#4fab86"/><path d="m317.199219 252.300781h-15v-36.558593c0-4.140626 3.359375-7.5 7.5-7.5 4.144531 0 7.5 3.359374 7.5 7.5zm-140.648438-36.558593c0-4.140626-3.359375-7.5-7.5-7.5-4.144531 0-7.5 3.359374-7.5 7.5v36.558593h15zm0 0" fill="#4fab86"/><path d="m309.699219 208.242188c-4.140625 0-7.5 3.359374-7.5 7.5v36.558593h15v-36.558593c0-4.140626-3.355469-7.5-7.5-7.5zm0 0" fill="#00897b"/><path d="m161.550781 232.300781h15v20h-15zm0 0" fill="#00897b"/><path d="m242.488281 205.21875c8.03125-9.144531 29.414063-33.496094 37.828125-43.207031h-9.769531c-2.484375 0-4.496094-2.015625-4.496094-4.5v-18.117188c-9.355469 6.398438-19.679687 10.0625-26.675781 10.0625-7 0-17.324219-3.664062-26.679688-10.0625v18.117188c0 2.484375-2.011718 4.5-4.496093 4.5h-9.769531c8.414062 9.710937 29.796874 34.0625 37.828124 43.207031 1.65625 1.882812 4.578126 1.882812 6.230469 0zm0 0" fill="#ffccbc"/><path d="m270.546875 162.011719c-2.484375 0-4.496094-2.015625-4.496094-4.5v-18.117188c-9.351562 6.398438-19.679687 10.058594-26.675781 10.058594-.933594 0-1.933594-.070313-2.972656-.195313.679687 1.617188 2.28125 2.753907 4.144531 2.753907 3.820313 0 5.867187 4.488281 3.355469 7.367187-7.097656 8.128906-16.652344 19.027344-23.914063 27.300782 6.519531 7.4375 12.710938 14.488281 16.273438 18.542968 1.652343 1.878906 4.574219 1.878906 6.226562-.003906 8.03125-9.144531 29.414063-33.496094 37.828125-43.207031zm0 0" fill="#ffab91"/><path d="m295.84375 68.214844.460938-6.269532c2.453124-33.289062-22.835938-61.53125-56.210938-61.94140575-33.542969-.41015625-60.152344 27.96874975-57.695312 61.32421875.882812 11.976563 10.714843 21.332031 22.722656 21.597656 1.648437.039063 3.386718.007813 5.21875-.101562 24.640625-1.480469 44.972656-23.460938 55.101562-44.253907 5.6875 15.625 13.730469 26.113282 21.757813 33.214844 3.226562 2.847656 8.328125.722656 8.644531-3.570312zm0 0" fill="#ffc14f"/><path d="m240.09375.00390625c-2.617188-.03125005-5.183594.13281275-7.707031.43749975 15.8125 11.230469 25.476562 30.339844 23.917969 51.5l-.140626 1.914063c3.65625-4.949219 6.777344-10.152344 9.277344-15.285157 5.6875 15.625 13.730469 26.109376 21.761719 33.210938 3.222656 2.851562 8.324219.726562 8.640625-3.566406l.460938-6.273438c2.453124-33.285156-22.835938-61.527344-56.210938-61.93749975zm0 0" fill="#ffa90b"/><path d="m287.199219 71.78125c-8.027344-7.101562-16.070313-17.585938-21.757813-33.210938-10.128906 20.792969-30.460937 42.769532-55.101562 44.25-1.832032.109376-3.570313.144532-5.21875.105469-6.605469-.144531-12.542969-3.046875-16.703125-7.613281l2.277343 30.976562c1.878907 25.496094 33.3125 43.164063 48.679688 43.164063 15.363281 0 46.800781-17.667969 48.675781-43.164063l2.445313-33.210937c-1.144532-.019531-2.308594-.421875-3.296875-1.296875zm0 0" fill="#ffccbc"/><path d="m287.199219 71.78125c-8.027344-7.101562-16.070313-17.585938-21.757813-33.210938-2.1875 4.496094-4.859375 9.046876-7.941406 13.433594.007812.007813.015625.011719.027344.019532 1.738281 1.316406 2.800781 3.332031 2.640625 5.507812l-2.117188 28.757812c-1.878906 25.496094-33.3125 43.164063-48.675781 43.164063-2.730469 0-5.96875-.566406-9.457031-1.625 10.945312 13.367187 28.953125 21.625 39.457031 21.625 15.367188 0 46.800781-17.667969 48.675781-43.164063l2.445313-33.210937c-1.144532-.019531-2.308594-.421875-3.296875-1.296875zm0 0" fill="#ffab91"/><g fill="#ffa90b"><path d="m296.304688 61.945312-.460938 6.269532c-.21875 2.980468-2.746094 4.910156-5.34375 4.863281l-2.449219 33.210937c-1.039062 14.136719-11.171875 25.863282-22.609375 33.507813.203125-.132813.40625-.261719.609375-.402344v18.117188c0 2.484375 2.011719 4.5 4.496094 4.5h25.800781v-100.683594h-.011718c-.015626.203125-.015626.410156-.03125.617187zm0 0"/><path d="m212.699219 157.511719v-18.117188c.203125.140625.40625.269531.609375.40625-11.4375-7.648437-21.570313-19.371093-22.613282-33.511719l-2.277343-30.976562c.09375.105469.203125.195312.300781.300781-3.570312-3.78125-5.910156-8.746093-6.320312-14.285156v100.683594h25.804687c2.480469 0 4.496094-2.015625 4.496094-4.5zm0 0"/></g></svg>