<svg width="70" height="70" viewBox="0 0 70 70" fill="none" xmlns="http://www.w3.org/2000/svg">
<path d="M63.0102 23.158H30.1628C29.0683 23.1578 28.0225 22.7049 27.2739 21.9064L23.0405 17.393C22.2906 16.5938 21.2432 16.141 20.1473 16.1423H6.35762C4.17 16.1423 2.39651 17.9158 2.39651 20.1034V64.2802C2.39651 66.4703 4.17188 68.2457 6.36197 68.2457H63.0026C65.1926 68.2457 66.968 66.4703 66.968 64.2802V27.1192C66.968 24.9328 65.1966 23.1599 63.0102 23.158V23.158Z" fill="#EAB54E"/>
<path d="M11.8775 1.75421H60.0172V44.8571H11.8775V1.75421Z" fill="#DBD8DD"/>
<path d="M9.35065 5.75629H56.0245V47.3942H9.35065V5.75629Z" fill="#EEEFEE"/>
<path d="M14.6282 11.051H50.7487V12.9461H14.6282V11.051Z" fill="#DBD8DD"/>
<path d="M14.6282 17.0712H50.7487V18.9664H14.6282V17.0712Z" fill="#DBD8DD"/>
<path d="M14.6282 23.0914H50.7487V24.9866H14.6282V23.0914Z" fill="#DBD8DD"/>
<path d="M66.0409 29.5128H30.1586C29.0668 29.5128 28.0234 29.9635 27.2748 30.7583L23.0396 35.2546C22.2911 36.0495 21.2477 36.5001 20.1558 36.5001H3.96125C1.77363 36.5003 0.000144857 38.2736 0 40.4612C0 40.5816 0.00550456 40.7018 0.0163688 40.8216L2.06522 64.6396C2.25151 66.6816 3.96386 68.2448 6.01445 68.2448H63.3483C65.3991 68.2448 67.1116 66.6812 67.2975 64.6388L69.9832 33.8351C70.1827 31.6566 68.5782 29.7288 66.3997 29.5293C66.2804 29.5185 66.1607 29.513 66.0409 29.5128V29.5128Z" fill="#F6C863"/>
</svg>
