<svg id="Layer_1" enable-background="new 0 0 428.774 428.774" height="512" viewBox="0 0 428.774 428.774" width="512" xmlns="http://www.w3.org/2000/svg"><path id="XMLID_825_" d="m410.459 314.646h-343.751c-10.115 0-18.314-8.2-18.314-18.314v-210.285c0-10.115 8.2-18.314 18.314-18.314h343.751c10.115 0 18.314 8.2 18.314 18.314v210.285c.001 10.115-8.199 18.314-18.314 18.314z" fill="#d64c52"/><path id="XMLID_558_" d="m49.698 114.532h379.076v51.687h-379.076z" fill="#6e6075"/><path id="XMLID_1214_" d="m362.065 361.04h-343.751c-10.114 0-18.314-8.199-18.314-18.314v-210.285c0-10.115 8.2-18.314 18.314-18.314h343.751c10.115 0 18.314 8.2 18.314 18.314v210.285c0 10.115-8.199 18.314-18.314 18.314z" fill="#fcf5f0"/><path id="XMLID_107_" d="m25.119 143.887h139.301v166.162h-139.301z" fill="#e5dcdf"/><path id="XMLID_1320_" d="m144.515 265.108c-2.802-11.487-13.093-19.721-24.916-19.721h-14.212v-4.647c10-4.294 17-14.121 17-25.49v-14.845c0-15.289-12.419-28.018-27.707-28.018h.252c-15.289 0-27.545 12.729-27.545 28.018v14.845c0 11.368 7 21.195 16 25.49v4.647h-13.447c-11.824 0-22.115 8.234-24.917 19.721l-11.007 45.279h121.504z" fill="#6e6075"/><g fill="#3a2f32"><path id="XMLID_280_" d="m186.387 143.387h168v2h-168z"/><path id="XMLID_279_" d="m186.387 156.387h168v2h-168z"/><path id="XMLID_263_" d="m186.387 172.387h78v2h-78z"/><path id="XMLID_252_" d="m186.387 185.387h78v2h-78z"/><path id="XMLID_249_" d="m186.387 200.387h78v2h-78z"/><path id="XMLID_248_" d="m25.387 333.387h329v4h-329z"/></g><path id="XMLID_1303_" d="m270.303 255.157 38.385-73.016 38.385 73.016c15.181 28.877-5.761 63.545-38.385 63.545-32.625 0-53.566-34.668-38.385-63.545z" fill="#d64c52"/><path id="XMLID_7_" d="m332.387 261.387h-14v-14h-20v14h-13v19h13v14h20v-14h14z" fill="#fcf5f0"/></svg>