<svg id="Flat" height="512" viewBox="0 0 64 64" width="512" xmlns="http://www.w3.org/2000/svg"><path d="m4 4h8a0 0 0 0 1 0 0v4a4 4 0 0 1 -4 4h-4a0 0 0 0 1 0 0v-8a0 0 0 0 1 0 0z" fill="#c3c3dc" transform="matrix(-1 0 0 -1 16 16)"/><path d="m8 4h38a6 6 0 0 1 6 6v50h-36a4 4 0 0 1 -4-4v-48a4 4 0 0 0 -4-4z" fill="#efefff"/><path d="m20 52h40v4a4 4 0 0 1 -4 4h-40a4 4 0 0 0 4-4z" fill="#ddddf0"/><path d="m35.1183 34.8817h16a2 2 0 0 1 2 2v2a0 0 0 0 1 0 0h-20a0 0 0 0 1 0 0v-2a2 2 0 0 1 2-2z" fill="#465064" transform="matrix(.707 .707 -.707 .707 38.708 -19.687)"/><path d="m58.6746 21.3254a4.5249 4.5249 0 0 0 -6.7017.3342l-9.5617 11.6866 4.2426 4.2426 11.6862-9.5617a4.5249 4.5249 0 0 0 .3346-6.7017z" fill="#ffa030"/><path d="m32.29 37.71h16v4h-16z" fill="#ff3d46" transform="matrix(.707 .707 -.707 .707 39.88 -16.858)"/><circle cx="24" cy="43" fill="#ff6e81" r="4"/><path d="m24 48a5 5 0 1 1 5-5 5.0059 5.0059 0 0 1 -5 5zm0-8a3 3 0 1 0 3 3 3.0033 3.0033 0 0 0 -3-3z" fill="#ff3d46"/><g fill="#465064"><path d="m39 11h-14a1 1 0 0 1 0-2h14a1 1 0 0 1 0 2z"/><path d="m46 17h-28a1 1 0 0 1 0-2h28a1 1 0 0 1 0 2z"/><path d="m46 23h-28a1 1 0 0 1 0-2h28a1 1 0 0 1 0 2z"/><path d="m32 29h-14a1 1 0 0 1 0-2h14a1 1 0 0 1 0 2z"/><path d="m30 35h-12a1 1 0 0 1 0-2h12a1 1 0 0 1 0 2z"/></g></svg>