<?xml version="1.0" encoding="iso-8859-1"?>
<!-- Generator: Adobe Illustrator 19.0.0, SVG Export Plug-In . SVG Version: 6.00 Build 0)  -->
<svg version="1.1" id="Capa_1" xmlns="http://www.w3.org/2000/svg" xmlns:xlink="http://www.w3.org/1999/xlink" x="0px" y="0px"
	 viewBox="0 0 511.982 511.982" style="enable-background:new 0 0 511.982 511.982;" xml:space="preserve">
<path style="fill:#E0E0E0;" d="M479.996,323.267v-24.213h-51.7v24.213c-15.984,9.228-25.833,26.272-25.85,44.72v137.866h103.4
	V367.987C505.829,349.539,495.98,332.495,479.996,323.267z"/>
<path style="fill:#D1D1D1;" d="M505.846,379.533c-19.275,49.477-51.183,93.025-92.543,126.32h92.543V379.533z"/>
<rect x="402.447" y="367.987" style="fill:#4398D1;" width="68.933" height="103.4"/>
<g>
	<rect x="402.447" y="428.304" style="fill:#215280;" width="43.083" height="17.233"/>
	<rect x="402.447" y="393.837" style="fill:#215280;" width="43.083" height="17.233"/>
</g>
<rect x="428.297" y="299.054" style="fill:#D1D1D1;" width="51.7" height="17.233"/>
<g>
	
		<rect x="454.188" y="-11.75" transform="matrix(-0.7071 0.7071 -0.7071 -0.7071 824.8238 -243.3151)" style="fill:#4398D1;" width="17.233" height="121.838"/>
	<polygon style="fill:#4398D1;" points="393.83,161.188 482.84,72.178 439.757,28.32 350.747,118.105 	"/>
</g>
<g>
	
		<rect x="-13.533" y="449.871" transform="matrix(-0.7071 0.7071 -0.7071 -0.7071 415.537 744.8539)" style="fill:#215280;" width="134.073" height="17.233"/>
	
		<rect x="89.408" y="367.694" transform="matrix(-0.7071 0.7071 -0.7071 -0.7071 475.7936 599.2278)" style="fill:#215280;" width="48.77" height="60.919"/>
</g>
<polygon style="fill:#87CED9;" points="443.031,206.77 305.165,68.904 292.929,81.14 318.779,106.989 83.631,342.137 
	169.798,428.304 404.946,193.156 430.795,219.006 "/>
<polygon style="fill:#6EC1D4;" points="130.506,389.012 169.798,428.304 404.946,193.156 430.795,219.006 443.031,206.77 
	377.889,141.628 "/>
<rect x="411.063" y="264.588" style="fill:#4398D1;" width="86.166" height="34.467"/>
<rect x="462.763" y="264.588" style="fill:#3E8CC7;" width="34.467" height="34.467"/>
<g>
	
		<rect x="126.729" y="300.488" transform="matrix(-0.7071 0.7071 -0.7071 -0.7071 460.7685 458.8889)" style="fill:#4398D1;" width="17.233" height="48.77"/>
	
		<rect x="156.845" y="267.877" transform="matrix(-0.7071 0.7071 -0.7071 -0.7071 484.796 371.4796)" style="fill:#4398D1;" width="17.233" height="36.534"/>
	
		<rect x="195.698" y="231.612" transform="matrix(-0.7071 0.7071 -0.7071 -0.7071 529.8044 292.5417)" style="fill:#4398D1;" width="17.233" height="48.77"/>
	
		<rect x="225.737" y="198.884" transform="matrix(-0.7071 0.7071 -0.7071 -0.7071 553.6163 204.9873)" style="fill:#4398D1;" width="17.233" height="36.534"/>
	
		<rect x="264.607" y="162.65" transform="matrix(-0.7071 0.7071 -0.7071 -0.7071 598.6749 126.0895)" style="fill:#4398D1;" width="17.233" height="48.77"/>
	
		<rect x="294.688" y="130.033" transform="matrix(-0.7071 0.7071 -0.7071 -0.7071 622.6375 38.6949)" style="fill:#4398D1;" width="17.233" height="36.534"/>
</g>
<g>
</g>
<g>
</g>
<g>
</g>
<g>
</g>
<g>
</g>
<g>
</g>
<g>
</g>
<g>
</g>
<g>
</g>
<g>
</g>
<g>
</g>
<g>
</g>
<g>
</g>
<g>
</g>
<g>
</g>
</svg>
